<svg xmlns="http://www.w3.org/2000/svg" xmlns:xlink="http://www.w3.org/1999/xlink" version="1.1" x="0px" y="0px" viewBox="0 0 100 125" enable-background="new 0 0 100 100" xml:space="preserve"><g><path fill-rule="evenodd" clip-rule="evenodd" d="M92.646,27.49c3.873-0.89,1.679-2.299,2.067-6.001   c0.691-6.581-3.674,4.096-5.735-0.375c-1.062-2.301-4.263,0.103-5.563-2.863c-0.58-1.321-2.978-4.635-4.39-4.663   c-1.468-0.028-1.841-0.283-3.179,0.055c-1.274,0.322-3.236,0.885-2.89,2.426c0.077,0.34,1.65-0.08,0.576,1.46   c-1.047,1.502-0.037,5.197-3.12,4.411c-0.031-0.008-0.485-0.349-0.561-0.287c-0.462,0.378-2.339,4.889-0.619,4.953   c0.63,0.023,0.206-0.313,1.062-0.425c0.594-0.078,0.579,0.311,1.168,0.178c1.015-0.228,0.227-1.812,2.997,0.475   c1.506,1.242-3.337,0.294-4.595,3.383c-0.387,0.949-0.953,0.452-1.815,0.778c-0.655,0.248-0.521,1.249-1.119,1.488   c-1.204,0.48-3.043-1.663-3.48,0.486c-0.221,1.085,0.628,1.062,0.661,1.903c0,0.004-2.715,2.192-3.328,2.479   c-0.82,0.385-4.134,0.428-6.366,1.582c-0.569,0.294-3.902-0.696-4.453-0.989c-2.796-1.489-5.492-0.253-8.725-1.579   c-1.42-0.582-0.35-2.755-2.135-3.427c-0.546-0.205-1.126-1.278-1.934-1.654c-1.384-0.645-2.806,0.433-3.479-0.963   c-0.112-0.232,2.028-4.333-0.347-5.613c-2.258-1.218-1.866-3.737-3.642-2.944c-0.367,0.164-0.134,0.942-0.505,1.092   c-0.812,0.328-1.328-0.084-1.745,0.498c-1.021,1.427-0.051,2.209-2.906,1.479c-1.939-0.496-1.893,1.556-3.256,2.22   c-0.251,0.123-2.681,0.007-3.345,1.047c-1.392,2.181,2.222,4.511-3.715,6.057c-2.914,0.758-2.481-0.328-3.732,1.223   c-0.187,0.231-3.981-2.457-5.436,2.003c-0.405,1.241,1.795-0.747,1.285,2.356c-0.171,1.042,0.975,2.496,1.087,3.467   c0.191,1.656-0.26,0.73,0.987,2.09c1.439,1.57,1.034-0.637,1.626,2.346c0.116,0.579,1.542,1.076,0.719,1.641   c-1.465,1.004,0.678,2.655-0.494,3.575c-0.684,0.536-1.042,0.188-1.074,1.771c-0.013,0.63,0.227,2.381,1.293,2.876   c2.555,1.187,1.423-1.366,3.992,1.186c0.818,0.814,2.513,2.742,2.866,3.195c1.255,1.613,3.082,2.087,4.823,2.738   c2.139,0.798,7.076-0.107,7.775,0.865c1.76,2.451,0.533,4.289,5.48,1.016c2.921-1.932,2.982,0.285,4.304,0.195   c0.117-0.008,0.903-2.394,1.999-0.455c0.145,0.256-0.045,0.646,0.148,0.868c0.928,1.067,1.111,0.209,0.718,2.961   c-0.319,2.239-2.664,2.118-2.207,4.452c0.149,0.763,2.151-1.151,2.468,0.02c0.144,0.529-1.293,0.856-0.249,1.859   c0.442,0.424,0.682-0.205,0.985,0.486c0.295,0.674-1.044,1.527-0.486,1.738c2.069,0.781,1.116,1.343,2.792,0.953   c0.755-0.177,1.103,1.924,1.368,0.368c0.354-2.087-0.547-2.324,2.803-2.176c0.464,0.02,0.595-0.21,0.849-0.068   c1.722,0.957,3.147-2.595,4.056-1.185c0.478,0.743,0.749,0.535,1.841,0.773c0.631,0.137-0.362,1.739,1.45,2.385   c0.864,0.307,1.544,0.778,2-0.234c0.041-0.09,2.622,0.161,2.539,1.79c-0.017,0.327,0.555,0.415,0.616,0.734   c0.075,0.382-0.498,0.192-0.236,0.479c0.267,0.291,1.46,0.226,0.346-0.973c-1.629-1.755,8.211-3.863,8.264-3.879   c3.82-1.151,3.718-2.433,4.731-2.681c1.565-0.38,0.445-0.436,1.63-1.744c0.087-0.095,1.261-1.266,1.405-1.43   c1.292-1.464,1.482-6.998,3.313-7.474c0.438-0.114,0.299,0.78,0.536,0.204c0.5-1.219-0.453-1.643-0.422-1.696   c2.422-4.102-0.679-1.272-1.271-2.614c-0.152-0.345,0.095-1.079-0.045-1.49c-0.348-1.036-0.528-1.349-0.391-2.528   c0-2.095-2.288-3.122-3.49-4.255c-0.982-0.928,1.147-1.651,1.22-2.374c0.031-0.302-1.088-0.308,2.28-2.549   c0.291-0.193,2.015-0.011,1.185-1.021c-0.27-0.329-3.25-0.394-3.628,0.054c-2.34,2.771-2.331-0.404-2.564-0.396   c-0.856,0.03-1.712-0.376-2.463-0.337c-1.699,0.087-3.919,1.277-0.999-0.853c0,0,2.09,0.383,1.129-0.443   c-0.003-0.002-1.692-0.8,0.428-0.816c3.29-0.026,2.733-3.891,5.585-4.409c1.663-0.302-0.572,3.462,0.667,4.068   c0.821,0.401,0.642-1.736,2.97-2.342c0.94-0.246,2.779-2.195,3.112-3.209c0.844-2.574,1.472,0.407,2.713-1.037   c0.902-1.049-0.836,0.401,1.107-1.949c0.633-0.766,0.018-0.67,0.771-1.574c0.361-0.435,0.84,1.574,1.238,0.114   C93.501,29.307,90.97,27.875,92.646,27.49z"/><path fill-rule="evenodd" clip-rule="evenodd" d="M84.839,71.601c-0.35-0.148-0.266,0.26-0.757,0.127   c-0.17-0.046-0.055-0.452-0.221-0.51c-0.137-0.047-0.229,0.179-0.342,0.273c-0.216,0.18-0.616,0.393-0.643,0.572   c-0.013,0.083,0.025,0.168,0.018,0.25c-0.068,0.679-0.279,0.858-0.477,1.42c-0.398,1.133-0.396,1.912,0.339,2.779   c0.257,0.302,0.289,0.217,0.449,0.42c0.259,0.327-0.104,0.87,0.298,0.699c0.72-0.305,0.047-0.834,0.293-1.521   c0.414-1.157,0.982-0.854,0.876-2.855c-0.021-0.366,0.08-0.396,0.136-0.709C84.862,72.24,85.127,71.722,84.839,71.601z"/><path fill-rule="evenodd" clip-rule="evenodd" d="M64.387,83.201c-0.523,0.234-0.604,1.022-0.765,0.516l-0.164-0.52l-1.204,0.347   c-0.877,0.252-0.267,0.06-0.699,0.542c-0.15,0.167-0.214,0.126-0.42,0.332c-0.622,0.623-0.457,2.353,1.59,2.084   c0.721-0.094,0.343-0.08,1.347-0.878c0.479-0.38,0.351-0.812,0.694-1.552c0.375-0.805,0.749-0.063,0.265-0.984   C64.873,82.789,64.574,83.116,64.387,83.201z"/></g><text x="0" y="115" fill="#000000" font-size="5px" font-weight="bold" font-family="'Helvetica Neue', Helvetica, Arial-Unicode, Arial, Sans-serif">Created by Nikita Kozin</text><text x="0" y="120" fill="#000000" font-size="5px" font-weight="bold" font-family="'Helvetica Neue', Helvetica, Arial-Unicode, Arial, Sans-serif">from the Noun Project</text></svg>