<svg xmlns="http://www.w3.org/2000/svg" data-name="Layer 1" viewBox="0 0 100 125" x="0px" y="0px"><title>New</title><polygon points="63.5 26.23 63.5 28.23 76.5 28.23 76.5 56.23 73.5 56.23 73.5 58.23 78.5 58.23 78.5 26.23 63.5 26.23"/><rect x="34.5" y="41.23" width="3" height="2"/><rect x="64.5" y="41.23" width="3" height="2"/><path d="M50,35.24a6.77,6.77,0,0,0-6.5,7,7.23,7.23,0,0,0,1.87,4.92A6.21,6.21,0,0,0,50,49.24h0a6.77,6.77,0,0,0,6.5-7,7.25,7.25,0,0,0-1.87-4.92A6.24,6.24,0,0,0,50,35.24Zm4.5,7a4.77,4.77,0,0,1-4.5,5h0a4.22,4.22,0,0,1-3.15-1.44,5.24,5.24,0,0,1-1.35-3.56h0a4.77,4.77,0,0,1,4.5-5h0a4.24,4.24,0,0,1,3.15,1.43A5.26,5.26,0,0,1,54.5,42.24Z"/><path d="M57.5,53.23v-2l-26.1,0a3.62,3.62,0,0,0-2.9-2.88V36.11a4,4,0,0,0,2.87-2.88H57.5v-2h-28v1a2,2,0,0,1-2,2h-1V50.28h1a1.8,1.8,0,0,1,2,2v1Z"/><path d="M71.5,36.18v6h2V34.29h-1a1.87,1.87,0,0,1-2-2.06v-1h-7v2h5.1A3.73,3.73,0,0,0,71.5,36.18Z"/><rect x="59.5" y="21.23" width="2" height="4"/><rect x="59.5" y="28.23" width="2" height="4"/><rect x="59.5" y="35.23" width="2" height="4"/><rect x="59.5" y="42.23" width="2" height="4"/><rect x="59.5" y="49.23" width="2" height="4"/><path d="M69.51,69.83l-4.3-4.3-1.42,1.41,5.71,5.71,1.21-1.21A2.53,2.53,0,1,1,74.29,75l-1,1a2.6,2.6,0,0,1-3.58,0L60.9,67.22l9.27-9.28A11.41,11.41,0,0,0,73.5,49.8V43.73L60.75,56.53l1.42,1.41,9.33-9.36V49.8a9.44,9.44,0,0,1-2.75,6.73L49.29,76a2.55,2.55,0,0,1-3.58,0l-1-1a2.53,2.53,0,0,1,3.58-3.59l1.21,1.21,7.71-7.71-1.42-1.41-6.3,6.3a4.53,4.53,0,0,0-6.2,6.61l1,1a4.54,4.54,0,0,0,6.42,0l8.78-8.8,8.8,8.8a4.54,4.54,0,0,0,6.42,0l1-1a4.53,4.53,0,0,0-6.2-6.61Z"/><polygon points="53.79 63.94 55.21 62.53 50.91 58.23 56.27 58.23 58.88 60.85 60.3 59.44 58.5 57.64 58.5 56.23 23.5 56.23 23.5 28.23 57.5 28.23 57.5 26.23 21.5 26.23 21.5 58.23 48.09 58.23 53.79 63.94"/><text x="0" y="115" fill="#000000" font-size="5px" font-weight="bold" font-family="'Helvetica Neue', Helvetica, Arial-Unicode, Arial, Sans-serif">Created by Seymur Allahyarli</text><text x="0" y="120" fill="#000000" font-size="5px" font-weight="bold" font-family="'Helvetica Neue', Helvetica, Arial-Unicode, Arial, Sans-serif">from the Noun Project</text></svg>