<svg xmlns="http://www.w3.org/2000/svg" xmlns:xlink="http://www.w3.org/1999/xlink" version="1.2" baseProfile="tiny" x="0px" y="0px" viewBox="0 0 128 160" xml:space="preserve"><g><path fill="none" stroke="#000000" stroke-width="4" stroke-linecap="square" stroke-miterlimit="10" d="M1334-120c0,0,0-18,18-18   s88,0,88,0s18,0,18,18v72c0,0,0,18-18,18s-88,0-88,0s-18,0-18-18V-120z"/><path stroke="#000000" stroke-width="4" stroke-linecap="round" stroke-miterlimit="10" d="M1442-128h-38v20l6,7c0.9,1.3,1,2.3,1,4   c0,4.3-2.7,8-7,8c-3.4,0-7-3-8-6c-1,3-4.6,6-8,6c-4.3,0-7-3.7-7-8c0-1.7,0.1-2.7,1-4l6-7v-20h-38c-6,0-6,6-6,6v76c0,6,6,6,6,6h38   v-20l-6-7c-0.9-1.3-1-2.3-1-4c0-4.3,2.7-8,7-8c3.4,0,7,3,8,6c1-3,4.6-6,8-6c4.3,0,7,3.7,7,8c0,1.7-0.1,2.7-1,4l-6,7v20h38   c6,0,6-6,6-6v-76C1448-128,1442-128,1442-128z"/></g><g><path fill="none" stroke="#000000" stroke-width="4" stroke-linecap="square" stroke-miterlimit="10" d="M1334-120c0,0,0-18,18-18   s88,0,88,0s18,0,18,18v72c0,0,0,18-18,18s-88,0-88,0s-18,0-18-18V-120z"/><path stroke="#000000" stroke-width="4" stroke-linecap="round" stroke-miterlimit="10" d="M1442-128h-38v20l6,7c0.9,1.3,1,2.3,1,4   c0,4.3-2.7,8-7,8c-3.4,0-7-3-8-6c-1,3-4.6,6-8,6c-4.3,0-7-3.7-7-8c0-1.7,0.1-2.7,1-4l6-7v-20h-38c-6,0-6,6-6,6v76c0,6,6,6,6,6h38   v-20l-6-7c-0.9-1.3-1-2.3-1-4c0-4.3,2.7-8,7-8c3.4,0,7,3,8,6c1-3,4.6-6,8-6c4.3,0,7,3.7,7,8c0,1.7-0.1,2.7-1,4l-6,7v20h38   c6,0,6-6,6-6v-76C1448-128,1442-128,1442-128z"/></g><g><path fill="none" stroke="#000000" stroke-width="4" stroke-linecap="square" stroke-miterlimit="10" d="M64,2C29.8,2,2,29.8,2,64   c0,34.2,27.8,62,62,62s62-27.8,62-62C126,29.8,98.2,2,64,2z"/><path stroke="#000000" stroke-width="4" stroke-linecap="square" stroke-miterlimit="10" d="M11,64c0-29.3,23.7-53,53-53   c11.7,0,22.6,3.8,31.4,10.3L21.3,95.4C14.8,86.6,11,75.7,11,64z"/><path stroke="#000000" stroke-width="4" stroke-linecap="square" stroke-miterlimit="10" d="M64,117c-11.7,0-22.6-3.8-31.4-10.3   l74.1-74.1C113.2,41.4,117,52.3,117,64C117,93.3,93.3,117,64,117z"/></g><text x="0" y="143" fill="#000000" font-size="5px" font-weight="bold" font-family="'Helvetica Neue', Helvetica, Arial-Unicode, Arial, Sans-serif">Created by Juraj Sedlák</text><text x="0" y="148" fill="#000000" font-size="5px" font-weight="bold" font-family="'Helvetica Neue', Helvetica, Arial-Unicode, Arial, Sans-serif">from the Noun Project</text></svg>