<svg xmlns="http://www.w3.org/2000/svg" xmlns:xlink="http://www.w3.org/1999/xlink" version="1.1" x="0px" y="0px" viewBox="0 0 100 125" enable-background="new 0 0 100 100" xml:space="preserve"><path d="M93.105,17.257L81.833,5.985c-1.313-1.313-3.01-1.313-4.323,0c-1.313,1.313-1.313,3.01,0,4.324l2.44,2.441l-9.706,7.589  l8.509,8.507l7.589-9.706l2.44,2.44c1.313,1.314,3.01,1.314,4.323,0C94.419,20.267,94.419,18.57,93.105,17.257z"/><path d="M60.909,14.71c-1.313-1.314-3.011-1.314-4.323,0s-1.313,3.01,0,4.324l3.938,3.937l-7.024,7.026l5.196,5.198  c0.684,0.682,0.684,1.789,0,2.47c-0.682,0.683-1.787,0.683-2.471,0l-5.197-5.197l-5.867,5.868l5.197,5.197  c0.683,0.682,0.683,1.788,0,2.471s-1.787,0.683-2.471,0l-5.197-5.198l-5.868,5.868l5.197,5.197c0.683,0.682,0.683,1.788,0,2.47  c-0.683,0.683-1.788,0.683-2.47,0l-5.198-5.197l-5.868,5.868l5.198,5.197c0.684,0.682,0.684,1.789,0,2.471  c-0.683,0.684-1.788,0.684-2.471,0l-5.198-5.197l-4.71,4.709c-0.563,0.563-0.918,1.44-0.909,2.236l0.085,6.773l7.412,7.41  l6.773,0.086c0.795,0.009,1.672-0.348,2.235-0.911l39.223-39.22l3.938,3.938c1.313,1.313,3.01,1.313,4.323,0s1.313-3.01,0-4.323  L60.909,14.71z"/><path d="M15.202,76.477c-1.854,1.854-2.155,4.147-0.958,6.158l-8.025,8.026c-0.205,0.205-0.308,0.456-0.309,0.745L5.909,94.52  c0,0.53,0.242,0.631,0.617,0.256l9.929-9.93c2.012,1.198,4.306,0.896,6.159-0.957l3.422-3.423l-7.412-7.411L15.202,76.477z"/><text x="0" y="115" fill="#000000" font-size="5px" font-weight="bold" font-family="'Helvetica Neue', Helvetica, Arial-Unicode, Arial, Sans-serif">Created by David</text><text x="0" y="120" fill="#000000" font-size="5px" font-weight="bold" font-family="'Helvetica Neue', Helvetica, Arial-Unicode, Arial, Sans-serif">from the Noun Project</text></svg>