<svg xmlns="http://www.w3.org/2000/svg" xmlns:xlink="http://www.w3.org/1999/xlink" version="1.1" x="0px" y="0px" viewBox="0 0 64 80" enable-background="new 0 0 64 64" xml:space="preserve"><g><path fill="#000000" d="M16.515,23.544c3.538-3.511,6.998-7.025,10.548-10.445c4.147-3.994,9.659-3.759,13.911,0.497   c4.46,4.464,4.82,9.927,0.819,14.113c-3.339,3.493-6.786,6.883-10.193,10.311c-0.127,0.128-0.33,0.181-0.445,0.242   C26.345,33.427,21.55,28.606,16.515,23.544z"/><path fill="#000000" d="M14.362,25.696c-3.511,3.538-7.025,6.998-10.445,10.548c-3.994,4.147-3.759,9.659,0.497,13.911   c4.464,4.46,9.927,4.82,14.113,0.819c3.493-3.339,6.883-6.786,10.311-10.193c0.128-0.127,0.181-0.33,0.242-0.445   C24.245,35.527,19.424,30.732,14.362,25.696z"/><path fill="#000000" d="M50.994,28.2c-0.081-0.004-0.16-0.004-0.24-0.004c-0.862,0-1.739,0.09-2.621,0.278   c-0.618,0.133-1.21,0.296-1.775,0.489c-4.672,1.741-7.999,6.24-7.999,11.52c0,6.787,5.5,12.289,12.287,12.289   s12.289-5.502,12.289-12.289C62.935,33.813,57.62,28.383,50.994,28.2z M59.622,41.311c-0.253,0.948-0.52,1.893-0.749,2.847   c-0.122,0.513-0.309,0.719-0.766,0.662c-0.129,0.015-0.255,0.014-0.349-0.01c-2.91-0.744-5.807-1.533-8.705-2.313   c-2.298-0.617-4.586-1.266-6.893-1.841c-0.43-0.107-0.578-0.279-0.574-0.555l0,0l0-0.001c0.002-0.094,0.021-0.2,0.052-0.32   c0.253-0.948,0.52-1.893,0.749-2.847c0.122-0.513,0.309-0.719,0.766-0.662c0.129-0.015,0.255-0.014,0.349,0.01   c2.91,0.744,5.807,1.533,8.705,2.313c2.298,0.617,4.586,1.266,6.893,1.841c0.43,0.107,0.578,0.279,0.574,0.555l0,0l0,0.001   C59.673,41.085,59.654,41.191,59.622,41.311z"/></g><text x="0" y="79" fill="#000000" font-size="5px" font-weight="bold" font-family="'Helvetica Neue', Helvetica, Arial-Unicode, Arial, Sans-serif">Created by Delwar Hossain</text><text x="0" y="84" fill="#000000" font-size="5px" font-weight="bold" font-family="'Helvetica Neue', Helvetica, Arial-Unicode, Arial, Sans-serif">from the Noun Project</text></svg>