<svg xmlns="http://www.w3.org/2000/svg" xmlns:xlink="http://www.w3.org/1999/xlink" version="1.1" x="0px" y="0px" viewBox="0 0 100 125" enable-background="new 0 0 100 100" xml:space="preserve"><path d="M54.31,83.918l-0.757-1.054l1.82,0.443c7.472,1.501,13.85,6.094,17.436,12.562C64.961,94.888,58.305,90.311,54.31,83.918z"/><path d="M29.121,93.2c1.598-2.17,3.439-4.134,5.625-5.703c3.398-2.436,7.359-4.107,11.699-4.633  c-0.572,1.034-1.354,1.916-2.063,2.851c-2.595,3.452-5.971,6.222-9.967,8.01c-2.273,1.017-4.652,1.816-7.222,2.145  C27.727,94.906,28.464,94.078,29.121,93.2z"/><path d="M40.823,36.922c0.119-7.109,1.416-13.903,3.604-20.315c0.419-1.231,0.804-2.485,1.291-3.686  c1.235-3.042,2.642-5.994,4.296-8.792c0.519,0.882,0.91,1.854,1.388,2.761c4.949,9.326,7.865,19.908,7.865,31.194  c0,9.107-1.854,17.789-5.158,25.702c-1.191,2.848-2.545,5.611-4.095,8.244c-0.719-1.2-1.263-2.498-1.898-3.752  c-0.672-1.307-1.407-2.561-1.988-3.914c-0.575-1.315-0.972-2.713-1.444-4.076l-0.031-0.054c-0.735-2.101-1.397-4.214-1.932-6.412  c-1.226-5.049-1.976-10.298-1.976-15.738L40.823,36.922z"/><path d="M59.828,70.033c1.938-9.348,6.993-17.479,14.077-23.366c5.712-4.73,12.624-8.057,20.315-9.191  c-1.126,7.609-4.424,14.475-9.11,20.143c-2.561,3.104-5.54,5.83-8.897,8.081c-2.927,1.951-6.084,3.562-9.464,4.733  c-1.406,0.479-2.87,0.825-4.342,1.16c-1.032,0.237-2.039,0.563-3.114,0.716L59.828,70.033z"/><path d="M38.959,76.089c1.657,1.126,3.279,2.271,4.743,3.624c-2.436,0.81-4.993,1.316-7.61,1.663  c-1.788,0.237-3.595,0.435-5.449,0.435c-9.832,0-18.733-3.523-25.845-9.217L2.5,70.84c3.232-1.088,6.693-1.632,10.245-1.869  c0.944-0.075,1.863-0.237,2.823-0.237C24.278,68.733,32.288,71.503,38.959,76.089z"/><path d="M38.853,64.972c0.319,0.929,0.544,1.892,0.8,2.854c0.4,1.479,0.816,2.951,1.044,4.483  c-7.594-1.106-14.45-4.374-20.115-9.025l-2.316-1.977C12.936,56.237,8.993,49.784,6.961,42.5c-0.466-1.645-0.919-3.298-1.172-5.024  c2.542,0.384,4.986,1.035,7.347,1.854C25.194,43.454,34.72,52.951,38.853,64.972z"/><path d="M95.962,70.459L97.5,70.84c-2.602,2.389-5.587,4.314-8.729,5.984c-4.884,2.598-10.317,4.214-16.129,4.677L70.42,81.71  l-1.054,0.101c-2.626,0-5.168-0.31-7.656-0.772c-1.845-0.344-3.661-0.753-5.412-1.325l2.132-1.645l0.735-0.551l0.128-0.103  c1.31-0.997,2.617-1.979,4.042-2.823c6.193-3.667,13.375-5.858,21.112-5.858C88.452,68.733,92.304,69.387,95.962,70.459z"/><text x="0" y="115" fill="#000000" font-size="5px" font-weight="bold" font-family="'Helvetica Neue', Helvetica, Arial-Unicode, Arial, Sans-serif">Created by Dank By Design</text><text x="0" y="120" fill="#000000" font-size="5px" font-weight="bold" font-family="'Helvetica Neue', Helvetica, Arial-Unicode, Arial, Sans-serif">from the Noun Project</text></svg>