<svg xmlns="http://www.w3.org/2000/svg" xmlns:xlink="http://www.w3.org/1999/xlink" version="1.1" x="0px" y="0px" viewBox="0 0 64 80" enable-background="new 0 0 64 64" xml:space="preserve"><g><g><path d="M16.47,63.167h31.116v0c0-1.215-0.985-2.201-2.201-2.201H18.671C17.455,60.966,16.47,61.951,16.47,63.167L16.47,63.167z"/></g><g><circle cx="34.59" cy="47.436" r="1.699"/><path d="M32.339,50.227c-0.064-0.128-0.188-0.192-0.311-0.192c-0.124,0-0.247,0.064-0.311,0.192l-0.494,0.988    c-0.116,0.231,0.053,0.503,0.311,0.503h0.494h0.494c0.258,0,0.427-0.272,0.311-0.503L32.339,50.227z"/><path d="M44.222,36.177H19.834c-1.94,0-3.478,1.636-3.358,3.572l1.051,16.982c0.11,1.774,1.581,3.156,3.358,3.156h22.286    c1.777,0,3.248-1.383,3.358-3.156l1.051-16.982C47.699,37.813,46.161,36.177,44.222,36.177z M21.996,39.802    c0.335-0.335,0.791-0.475,1.227-0.42c-0.055-0.436,0.085-0.892,0.42-1.227c0.576-0.576,1.51-0.576,2.086,0    c0.541,0.541,0.574,1.398,0.098,1.977l2.249,2.249c-0.75,0.465-1.412,1.059-1.957,1.749l-2.145-2.145    c-0.579,0.476-1.436,0.443-1.977-0.098C21.42,41.312,21.42,40.378,21.996,39.802z M25.729,57.909c-0.576,0.576-1.51,0.576-2.086,0    c-0.335-0.335-0.475-0.791-0.42-1.227c-0.436,0.055-0.892-0.085-1.227-0.42c-0.576-0.576-0.576-1.51,0-2.086    c0.541-0.541,1.398-0.574,1.977-0.098l2.173-2.173c0.212,0.115,0.431,0.211,0.647,0.299c0.074,0.03,0.147,0.06,0.22,0.09v0.82    c0,0.451,0.178,0.86,0.466,1.164l-1.654,1.654C26.302,56.511,26.27,57.368,25.729,57.909z M35.902,53.115    c0,0.306-0.248,0.553-0.553,0.553h-6.641c-0.306,0-0.553-0.248-0.553-0.553v-1.522c-0.34-0.206-0.652-0.332-0.933-0.446    c-0.953-0.386-1.578-0.76-1.578-2.365c0-3.521,2.865-6.386,6.386-6.386c3.521,0,6.386,2.865,6.386,6.386    c0,1.605-0.625,1.978-1.578,2.365c-0.281,0.114-0.593,0.24-0.933,0.446V53.115z M42.06,56.262    c-0.335,0.335-0.791,0.475-1.227,0.42c0.055,0.436-0.085,0.892-0.42,1.227c-0.576,0.576-1.51,0.576-2.086,0    c-0.541-0.541-0.574-1.398-0.098-1.977l-1.654-1.654c0.288-0.304,0.466-0.713,0.466-1.164v-0.82    c0.073-0.031,0.146-0.061,0.221-0.091c0.216-0.087,0.434-0.183,0.646-0.298l2.173,2.173c0.579-0.476,1.436-0.443,1.977,0.098    C42.636,54.753,42.636,55.686,42.06,56.262z M42.06,41.888c-0.541,0.541-1.398,0.574-1.977,0.098l-2.145,2.145    c-0.545-0.691-1.207-1.284-1.957-1.749l2.249-2.249c-0.476-0.579-0.443-1.436,0.098-1.977c0.576-0.576,1.51-0.576,2.086,0    c0.335,0.335,0.475,0.791,0.42,1.227c0.436-0.055,0.892,0.085,1.227,0.42C42.636,40.378,42.636,41.312,42.06,41.888z"/><circle cx="29.466" cy="47.436" r="1.699"/></g><path d="M57.602,47.189l-4.065-12.98c-1.051-2.968-3.025-5.547-5.572-7.35c2.055-1.627,2.514-3.28,2.514-4.41   c0-0.974-0.336-1.949-0.941-2.822c-0.09-0.123-0.185-0.244-0.283-0.363L38.989,4.362c-1.613-2.218-4.065-3.494-6.787-3.528H32   c-2.688-0.032-5.04,1.31-6.619,3.427L14.529,19.56c-0.672,0.907-1.008,1.882-1.008,2.89c0,1.145,0.447,2.801,2.551,4.408   c-2.581,1.803-4.564,4.387-5.642,7.385L6.398,47.189c-1.781,5.409,2.251,10.987,7.963,10.987h2.025   c-0.078-0.261-0.128-0.535-0.145-0.818l-1.144-18.49c-0.13-2.108,1.544-3.889,3.656-3.889h26.553c2.112,0,3.786,1.781,3.656,3.889   l-1.144,18.49c-0.018,0.283-0.068,0.557-0.145,0.818h1.969C55.351,58.176,59.383,52.598,57.602,47.189z M39.821,20.583   c0,1.193-0.426,2.356-1.21,3.263c-0.37,0.417-0.682,0.89-0.937,1.392l-0.153,0.302L36.9,26.769c-0.937,1.854-2.8,2.999-4.872,2.999   s-3.935-1.145-4.872-2.999l-0.623-1.229l-0.153-0.302c-0.255-0.501-0.567-0.974-0.937-1.4c-0.784-0.899-1.21-2.062-1.21-3.255   v-2.922c0-0.123,0.008-0.237,0.008-0.36c0.01-0.066,0-0.141,0.02-0.209v-2.108c0,0,0.161-2.535,2.327-2.535   c0,0,3.414,1.494,5.61,1.504c1.768,0.008,3.433-0.539,4.918-1.513c0.833,0.028,2.705,0.388,2.705,2.903V20.583z"/></g><text x="0" y="79" fill="#000000" font-size="5px" font-weight="bold" font-family="'Helvetica Neue', Helvetica, Arial-Unicode, Arial, Sans-serif">Created by Arafat Uddin</text><text x="0" y="84" fill="#000000" font-size="5px" font-weight="bold" font-family="'Helvetica Neue', Helvetica, Arial-Unicode, Arial, Sans-serif">from the Noun Project</text></svg>