<svg xmlns="http://www.w3.org/2000/svg" xmlns:xlink="http://www.w3.org/1999/xlink" version="1.1" x="0px" y="0px" viewBox="0 0 100 125" enable-background="new 0 0 100 100" xml:space="preserve"><g><path d="M50,6C25.7,6,6,25.7,6,50c0,24.301,19.7,44,44,44c24.301,0,44-19.699,44-44C94,25.7,74.301,6,50,6z M50,87   c-20.435,0-37-16.565-37-37s16.565-37,37-37s37,16.565,37,37S70.435,87,50,87z"/><g><path d="M58.746,40.213c-0.812-0.415-2.322-0.807-4.531-1.177l-3.783-0.632l-1.406,8.407l3.783,0.632    c1.979,0.331,3.468,0.411,4.472,0.239c1.003-0.171,1.799-0.551,2.389-1.138c0.59-0.588,0.958-1.318,1.104-2.192    c0.151-0.906,0.054-1.719-0.292-2.438S59.558,40.629,58.746,40.213z"/><path d="M56.921,53.9c-0.894-0.521-2.319-0.946-4.276-1.273l-4.466-0.747l-1.249,7.467c-0.161,1.058-0.222,1.684-0.187,1.876    c0.044,0.244,0.153,0.428,0.326,0.55c0.175,0.122,0.681,0.254,1.52,0.394l2.517,0.421c1.465,0.245,2.7,0.312,3.709,0.2    c1.007-0.11,1.919-0.538,2.737-1.283c0.818-0.744,1.327-1.718,1.528-2.921c0.171-1.021,0.077-1.928-0.281-2.716    C58.44,55.078,57.814,54.423,56.921,53.9z"/><path d="M50,17c-18.226,0-33,14.774-33,33s14.774,33,33,33s33-14.774,33-33S68.226,17,50,17z M69.347,44.464    c-0.19,1.137-0.616,2.176-1.274,3.117c-0.659,0.941-1.512,1.726-2.561,2.355s-2.368,1.074-3.959,1.333    c1.546,0.683,2.706,1.343,3.479,1.98c1.12,0.899,1.938,2.031,2.456,3.397c0.516,1.365,0.646,2.814,0.391,4.348    c-0.307,1.83-1.141,3.424-2.5,4.78c-1.36,1.357-3.117,2.271-5.269,2.741c-1.624,0.355-3.743,0.39-6.354,0.107l-0.934,6.222    l-4.554-0.684l0.934-6.224l-1.817-0.304l-0.939,6.254l-4.554-0.684l0.95-6.33l-9.858-1.649l0.798-4.771l1.36,0.228    c0.906,0.151,1.534,0.176,1.88,0.072c0.349-0.103,0.612-0.287,0.792-0.554c0.18-0.266,0.354-0.902,0.523-1.908l3.217-19.236    c0.171-1.022,0.213-1.685,0.128-1.987s-0.274-0.562-0.569-0.781c-0.292-0.218-0.893-0.404-1.799-0.556l-1.36-0.227l0.798-4.772    l9.283,1.552l0.967-6.443l4.554,0.684l-0.979,6.519l1.817,0.304l0.983-6.549l4.554,0.684l-0.996,6.634    c2.706,0.498,4.811,1.205,6.299,2.124c1.596,0.987,2.745,2.213,3.449,3.678C69.388,41.383,69.608,42.898,69.347,44.464z"/></g></g><text x="0" y="115" fill="#000000" font-size="5px" font-weight="bold" font-family="'Helvetica Neue', Helvetica, Arial-Unicode, Arial, Sans-serif">Created by Elves Sousa</text><text x="0" y="120" fill="#000000" font-size="5px" font-weight="bold" font-family="'Helvetica Neue', Helvetica, Arial-Unicode, Arial, Sans-serif">from the Noun Project</text></svg>