<svg xmlns="http://www.w3.org/2000/svg" xmlns:xlink="http://www.w3.org/1999/xlink" viewBox="0 0 25 30" version="1.1" x="0px" y="0px"><title>148 - Rich (business, finance, marketing)</title><desc>Created with Sketch.</desc><g stroke="none" stroke-width="1" fill="none" fill-rule="evenodd"><g transform="translate(-196.000000, -395.000000)" fill="#000000"><g transform="translate(195.000000, 395.000000)"><path d="M23.0077,21 C23.0077,21.249 21.9437,22 20.0077,22 C19.0467,22 18.2517,21.806 17.7157,21.553 L18.2007,20.42 L18.4417,19.859 C18.4977,19.869 18.5577,19.873 18.6147,19.883 C18.6857,19.894 18.7567,19.902 18.8287,19.912 C19.2137,19.965 19.6067,20 20.0077,20 C20.3347,20 20.6487,19.979 20.9547,19.946 C21.0517,19.936 21.1427,19.92 21.2377,19.906 C21.4447,19.877 21.6457,19.842 21.8407,19.799 C21.9407,19.776 22.0377,19.752 22.1347,19.726 C22.3197,19.677 22.4967,19.62 22.6677,19.557 C22.7497,19.527 22.8337,19.5 22.9117,19.468 C22.9427,19.455 22.9777,19.446 23.0077,19.433 L23.0077,21 Z M20.0077,2 C21.6337,2 23.0077,2.916 23.0077,4 C23.0077,5.084 21.6337,6 20.0077,6 C18.3817,6 17.0077,5.084 17.0077,4 C17.0077,2.916 18.3817,2 20.0077,2 L20.0077,2 Z M23.0077,7.198 L23.0077,9 C23.0077,9.249 21.9437,10 20.0077,10 C18.0717,10 17.0077,9.249 17.0077,9 L17.0077,7.198 C17.0467,7.222 17.0917,7.238 17.1307,7.261 C17.2127,7.307 17.2987,7.347 17.3847,7.39 C17.5537,7.474 17.7277,7.55 17.9097,7.618 C18.0067,7.655 18.1037,7.689 18.2037,7.72 C18.3967,7.78 18.5967,7.828 18.7997,7.868 C18.8937,7.887 18.9847,7.911 19.0807,7.925 C19.3817,7.971 19.6897,8 20.0077,8 C20.3257,8 20.6337,7.971 20.9347,7.925 C21.0307,7.911 21.1217,7.887 21.2157,7.868 C21.4187,7.828 21.6187,7.78 21.8117,7.72 C21.9117,7.689 22.0087,7.655 22.1057,7.618 C22.2877,7.55 22.4617,7.474 22.6307,7.39 C22.7167,7.347 22.8027,7.307 22.8847,7.261 C22.9237,7.238 22.9687,7.222 23.0077,7.198 L23.0077,7.198 Z M23.0077,11.433 L23.0077,13 C23.0077,13.249 21.9437,14 20.0077,14 C19.7127,14 19.4237,13.974 19.1417,13.936 C19.0897,13.929 19.0367,13.924 18.9847,13.915 C18.7167,13.872 18.4607,13.813 18.2207,13.738 C18.1997,13.732 18.1797,13.723 18.1587,13.716 C18.1247,13.655 18.0847,13.598 18.0497,13.537 C17.9807,13.42 17.9137,13.304 17.8377,13.19 C17.6827,12.955 17.5177,12.728 17.3367,12.516 C17.3327,12.511 17.3297,12.505 17.3247,12.5 L17.0077,12.13 L17.0077,11.433 C17.0377,11.446 17.0727,11.455 17.1037,11.468 C17.1817,11.5 17.2657,11.527 17.3477,11.557 C17.5187,11.62 17.6957,11.677 17.8807,11.726 C17.9777,11.752 18.0747,11.776 18.1747,11.799 C18.3697,11.842 18.5707,11.877 18.7777,11.906 C18.8727,11.92 18.9637,11.936 19.0607,11.946 C19.3667,11.979 19.6807,12 20.0077,12 C20.3347,12 20.6487,11.979 20.9547,11.946 C21.0517,11.936 21.1427,11.92 21.2377,11.906 C21.4447,11.877 21.6457,11.842 21.8407,11.799 C21.9407,11.776 22.0377,11.752 22.1347,11.726 C22.3197,11.677 22.4967,11.62 22.6677,11.557 C22.7497,11.527 22.8337,11.5 22.9117,11.468 C22.9427,11.455 22.9777,11.446 23.0077,11.433 L23.0077,11.433 Z M23.0077,15.433 L23.0077,17 C23.0077,17.249 21.9437,18 20.0077,18 C19.6577,18 19.3157,17.972 18.9897,17.922 C18.9827,17.921 18.9767,17.918 18.9697,17.917 C19.0517,17.253 19.0337,16.586 18.9267,15.933 C18.9627,15.937 19.0017,15.935 19.0377,15.94 C19.3557,15.975 19.6777,16 20.0077,16 C20.3347,16 20.6487,15.979 20.9547,15.946 C21.0517,15.936 21.1427,15.92 21.2377,15.906 C21.4447,15.877 21.6457,15.842 21.8407,15.799 C21.9407,15.776 22.0377,15.752 22.1347,15.726 C22.3197,15.677 22.4967,15.62 22.6677,15.557 C22.7497,15.527 22.8337,15.5 22.9117,15.468 C22.9427,15.455 22.9777,15.446 23.0077,15.433 L23.0077,15.433 Z M20.0077,0 C18.2657,0 16.7327,0.719 15.8377,1.802 L15.9777,1.243 C16.0697,0.878 15.9477,0.494 15.6647,0.247 C15.3837,0 14.9867,-0.067 14.6367,0.071 L10.0077,1.923 L5.3787,0.071 C5.0307,-0.067 4.6327,0 4.3507,0.247 C4.0677,0.494 3.9457,0.878 4.0377,1.243 L5.7277,8 L14.2877,8 L15.0077,5.122 L15.0077,9 L15.0077,10 L4.8337,10 L2.6917,12.5 C0.9347,14.549 0.5037,17.363 1.5677,19.843 L3.0887,23.394 C3.2457,23.762 3.6077,24 4.0077,24 L16.0077,24 C16.4077,24 16.7697,23.762 16.9267,23.394 L16.9287,23.388 C17.7837,23.778 18.8547,24 20.0077,24 C22.8587,24 25.0077,22.71 25.0077,21 L25.0077,17 L25.0077,13 L25.0077,9 L25.0077,4 C25.0077,1.794 22.7647,0 20.0077,0 L20.0077,0 Z"/></g></g></g><text x="0" y="39" fill="#000000" font-size="5px" font-weight="bold" font-family="'Helvetica Neue', Helvetica, Arial-Unicode, Arial, Sans-serif">Created by Ben Davis</text><text x="0" y="44" fill="#000000" font-size="5px" font-weight="bold" font-family="'Helvetica Neue', Helvetica, Arial-Unicode, Arial, Sans-serif">from the Noun Project</text></svg>