<svg xmlns="http://www.w3.org/2000/svg" xmlns:xlink="http://www.w3.org/1999/xlink" version="1.1" x="0px" y="0px" viewBox="0 0 100 125" style="enable-background:new 0 0 100 100;" xml:space="preserve"><style type="text/css">
	.st0{fill:none;stroke:#000000;stroke-width:2;stroke-linecap:round;stroke-linejoin:round;stroke-miterlimit:10;}
	.st1{fill:none;stroke:#000000;stroke-width:2;stroke-miterlimit:10;}
	.st2{stroke:#000000;stroke-width:2;stroke-linecap:round;stroke-linejoin:round;stroke-miterlimit:10;}
	.st3{fill:none;stroke:#000000;stroke-linecap:round;stroke-linejoin:round;stroke-miterlimit:10;}
</style><path d="M18.7,88.1c0.6,0,1-0.4,1-1v-6.6h7.2v6.6c0,0.6,0.4,1,1,1s1-0.4,1-1v-6.6h7.2v6.6c0,0.6,0.4,1,1,1s1-0.4,1-1v-6.6h7.2v6.6  c0,0.6,0.4,1,1,1s1-0.4,1-1v-6.6h7.2v6.6c0,0.6,0.4,1,1,1s1-0.4,1-1v-6.6h7.2v6.6c0,0.6,0.4,1,1,1s1-0.4,1-1v-6.6h7.2v6.6  c0,0.6,0.4,1,1,1s1-0.4,1-1v-6.6h7.2v6.6c0,0.6,0.4,1,1,1s1-0.4,1-1V14.8c0-0.6-0.4-1-1-1s-1,0.4-1,1v5.1h-7.2v-5.1c0-0.6-0.4-1-1-1  s-1,0.4-1,1v5.1h-7.2v-5.1c0-0.6-0.4-1-1-1s-1,0.4-1,1v5.1h-7.2v-5.1c0-0.6-0.4-1-1-1s-1,0.4-1,1v5.1h-7.2v-5.1c0-0.6-0.4-1-1-1  s-1,0.4-1,1v5.1h-7.2v-5.1c0-0.6-0.4-1-1-1s-1,0.4-1,1v5.1h-7.2v-5.1c0-0.6-0.4-1-1-1s-1,0.4-1,1v5.1h-7.2v-5.1c0-0.6-0.4-1-1-1  s-1,0.4-1,1v72.2C17.7,87.6,18.1,88.1,18.7,88.1z M82.1,21.9v56.6h-7.2V21.9H82.1z M72.9,21.9v56.6h-7.2V21.9H72.9z M63.7,21.9v56.6  h-7.2V21.9H63.7z M54.5,21.9v56.6h-7.2V21.9H54.5z M45.3,21.9v56.6h-7.2V21.9H45.3z M36.1,21.9v56.6h-7.2V21.9H36.1z M26.9,21.9  v56.6h-7.2V21.9H26.9z"/><text x="0" y="115" fill="#000000" font-size="5px" font-weight="bold" font-family="'Helvetica Neue', Helvetica, Arial-Unicode, Arial, Sans-serif">Created by Made by Made</text><text x="0" y="120" fill="#000000" font-size="5px" font-weight="bold" font-family="'Helvetica Neue', Helvetica, Arial-Unicode, Arial, Sans-serif">from the Noun Project</text></svg>