<svg xmlns="http://www.w3.org/2000/svg" xmlns:xlink="http://www.w3.org/1999/xlink" version="1.1" x="0px" y="0px" viewBox="0 0 96 120" style="enable-background:new 0 0 96 96;" xml:space="preserve"><path d="M83,4.7c-5.9,0-10.7,4.8-10.7,10.7c0,3,1.1,5.6,3.2,7.6c0.5,0.5,1,0.9,1.5,1.2l-8.4,23c-0.1,0-0.2,0-0.3,0  c-0.1,0-0.3,0-0.4,0c-4,0-7.6,2.2-9.4,5.7l-14.7-6.1c0-0.1,0-0.2,0-0.3c0-0.2,0.1-0.3,0.1-0.5c0-5.9-4.8-10.7-10.7-10.7  S22.5,40,22.5,45.9c0,2.5,0.8,4.9,2.5,6.7L15.4,70c-0.7-0.2-1.5-0.3-2.3-0.3c-5.9,0-10.7,4.8-10.7,10.7c0,5.9,4.8,10.7,10.7,10.7  s10.7-4.8,10.7-10.7c0-2.6-0.9-5-2.6-7l9.5-17.1c0.8,0.2,1.7,0.3,2.6,0.3c3.1,0,6-1.4,8-3.7l16.3,6.7c0.9,5.1,5.4,8.8,10.6,8.8  c5.9,0,10.7-4.8,10.7-10.7c0-3.2-1.4-6.1-3.7-8.1L84,25.6c5.1-0.3,9.3-4.1,10-9.1c0.1-0.5,0.1-1.1,0.1-1.6C93.7,9.2,88.7,4.7,83,4.7  z M79.2,15.4c0-2.2,1.8-3.9,3.9-3.9c2.1,0,3.9,1.7,3.9,3.9c-0.1,0.2-0.1,0.5-0.1,0.7c-0.3,1.9-2,3.3-3.8,3.3c-0.7,0-1.4-0.2-1.9-0.6  c-0.3-0.2-0.6-0.4-0.8-0.6C79.6,17.4,79.2,16.4,79.2,15.4z M64.1,57.2c0.4-1.8,2-3.1,3.8-3.1c0.8,0,1.5,0.2,2.1,0.6  c1.2,0.7,1.9,1.9,1.9,3.3c0,2.2-1.8,3.9-3.9,3.9c-2.2,0-3.9-1.8-3.9-3.9C64,57.7,64,57.4,64.1,57.2z M16.9,80.6  c0,2.2-1.8,3.9-3.9,3.9S9,82.8,9,80.6c0-2.2,1.8-3.9,3.9-3.9c1.2,0,2,0.5,2.5,1C16.4,78.5,16.9,79.5,16.9,80.6z M37.1,46.1  c0,0,0,0.1,0,0.2c0,0.1-0.1,0.3-0.1,0.4c-0.3,1.9-2,3.3-3.8,3.3c-1.1,0-2.1-0.4-2.7-1.2c-0.8-0.8-1.2-1.7-1.2-2.7  c0-2.2,1.8-3.9,3.9-3.9S37.1,44,37.1,46.1z"/><text x="0" y="111" fill="#000000" font-size="5px" font-weight="bold" font-family="'Helvetica Neue', Helvetica, Arial-Unicode, Arial, Sans-serif">Created by juli</text><text x="0" y="116" fill="#000000" font-size="5px" font-weight="bold" font-family="'Helvetica Neue', Helvetica, Arial-Unicode, Arial, Sans-serif">from the Noun Project</text></svg>