<svg xmlns="http://www.w3.org/2000/svg" xmlns:xlink="http://www.w3.org/1999/xlink" version="1.1" x="0px" y="0px" viewBox="0 0 160 200" style="enable-background:new 0 0 160 160;" xml:space="preserve"><g><path d="M148.214,70.96c-2.087-2.018-3.733-2.112-5.293-1.914l0-5.678c0-4.129-2.996-7.8-7.1-8.261   c-1.395-0.157-2.724,0.057-3.915,0.544c-1.467-1.667-3.609-2.725-5.999-2.725c-3.025,0-5.663,1.688-7.023,4.172   c-1.621-0.417-3.416-0.397-5.332,0.533c-2.902,1.41-4.66,4.447-4.66,7.673v38.45l-5.6-3.88c-3.631-2.514-8.388-2.505-11.994-0.021   c-0.936,0.645-1.735,1.488-2.167,2.539c-0.914,2.224-0.342,4.648,1.29,6.201l8.105,7.713c1.923,1.83,3.331,4.091,4.449,6.498   c0.648,1.397,1.655,2.599,2.92,3.486l6.848,4.8c0.65,0.456,1.037,1.2,1.037,1.994v5.003V155h6.988h16.666h2.995   c2.205,0,3.993-1.788,3.993-3.993v-12.92v-3.982c0-1.37,0.347-2.727,1.005-3.927l3.934-7.196c1.684-3.081,2.567-6.536,2.567-10.047   V80.008C151.931,76.621,150.648,73.314,148.214,70.96z M144.943,112.925c0,2.338-0.592,4.657-1.711,6.705l-3.932,7.192   c-1.219,2.224-1.863,4.742-1.863,7.283v3.982H120.77v-5.006c0-3.068-1.5-5.951-4.014-7.714l-6.848-4.799   c-0.268-0.188-0.479-0.445-0.61-0.746c-1.462-3.326-3.539-6.282-6.169-8.785l-6.329-6.024c0.854-0.115,1.759,0.082,2.513,0.604   l6.6,4.573c1.948,1.349,4.462,1.505,6.563,0.404c2.1-1.1,3.404-3.256,3.404-5.626V64.822c0-0.55,0.454-0.996,1.013-0.996   c0.558,0,1.012,0.447,1.012,0.996v3.87v21.826c0,1.929,1.565,3.494,3.494,3.494s3.494-1.565,3.494-3.494V68.693v-3.87v-3.895   c0-0.559,0.454-1.013,1.013-1.013c0.558,0,1.012,0.454,1.012,1.013v2.131v14.784V90.31c0,1.929,1.565,3.494,3.494,3.494   c1.929,0,3.494-1.565,3.494-3.494V77.842V63.058c0-0.559,0.454-1.013,1.013-1.013c0.558,0,1.012,0.454,1.012,1.013v13.915v4.882   v10.34c0,1.929,1.565,3.494,3.494,3.494c1.929,0,3.494-1.565,3.494-3.494v-10.34v-4.882c0-0.557,0.453-1.01,1.011-1.01   s1.011,0.453,1.011,1.01V112.925z"/><path d="M103.889,128.902c-1.837-1.288-3.284-3.065-4.193-5.111c-0.479-1.108-1.078-2.136-1.777-3.095L70.754,147.76h-11.66   l33.065-32.945l-4.143-3.943c-1.927-1.827-2.945-4.393-2.795-7.048c0.05-0.889,0.24-1.757,0.529-2.576v-8.476   c3.584-2.965,6.22-7.008,7.418-11.551c0.519-1.947,0.889-3.344,1.148-4.363c3.175-0.359,5.72-2.735,6.21-5.9l1.458-9.065   c0.35-2.286-0.309-4.612-1.827-6.369c-0.729-0.859-1.637-1.547-2.636-2.027v-0.549c0-0.01,0-0.01,0-0.01   c0.01-0.01,0.01-0.01,0.01-0.01c0.04-0.02,0.07-0.04,0.11-0.07c0.05-0.04,0.1-0.08,0.15-0.12c0.01-0.01,0.02-0.01,0.02-0.02   c0.09-0.07,0.16-0.14,0.24-0.22c0.16-0.15,0.31-0.329,0.429-0.519c0.05-0.06,0.09-0.13,0.13-0.2c0.14-0.25,0.26-0.519,0.329-0.799   c0.03-0.07,0.05-0.14,0.06-0.22c0.01-0.04,0.02-0.08,0.02-0.12c0.02-0.08,0.03-0.17,0.04-0.25c0.01-0.12,0.02-0.24,0.02-0.359   v-6.449l2.635-2.106c2.456-1.967,4.473-4.502,5.84-7.348c1.368-2.835,2.086-6,2.086-9.145c0-1.577-1.058-2.955-2.576-3.374   l-7.487-2.027C92.188,17.568,85.45,14.104,79.52,9.272c-6.968-5.691-17.091-5.7-24.07,0c-5.92,4.832-12.659,8.296-20.057,10.313   l-7.477,2.027c-1.527,0.419-2.576,1.797-2.576,3.374c0,3.145,0.719,6.309,2.077,9.145c1.368,2.845,3.384,5.381,5.84,7.348   l2.636,2.106v6.449c0,1.118,0.539,2.166,1.448,2.825c0.04,0.03,0.07,0.05,0.11,0.08v0.559c-0.998,0.479-1.907,1.168-2.646,2.027   c-1.507,1.757-2.166,4.083-1.817,6.379l1.438,9.065c0.519,3.165,3.085,5.531,6.24,5.89c0.26,1.018,0.629,2.416,1.138,4.363   c1.218,4.592,3.884,8.656,7.527,11.631v9.274l-24.719,7.028c-9.594,2.027-16.542,10.652-16.542,20.556v13.138   c0,6.559,5.351,11.9,11.94,11.9h90.279v-21.364L103.889,128.902z M68.002,17.644c3.816,0,6.909,3.799,6.909,8.484   s-3.093,8.484-6.909,8.484c-3.816,0-6.909-3.799-6.909-8.484S64.186,17.644,68.002,17.644z M42.891,43.524h49.198v6.988H42.891   V43.524z M48.561,79.424c-1.388-5.261-1.687-6.439-1.727-6.639c-0.3-1.657-1.747-2.865-3.434-2.865h-1.897   c-0.11,0-0.16-0.05-0.17-0.06l-1.428-9.035c-0.05-0.349,0.09-0.609,0.22-0.759c0.12-0.14,0.379-0.369,0.819-0.369   c1.607,0,2.955-1.088,3.354-2.566c0.01,0,0.01,0,0.01,0c7.288,3.694,15.235,5.551,23.181,5.551c7.937,0,15.883-1.847,23.171-5.551   c0,0,0.01,0,0.01-0.01c0.409,1.488,1.747,2.576,3.354,2.576c0.449,0,0.709,0.23,0.829,0.369c0.13,0.15,0.27,0.409,0.22,0.739   l-1.448,9.055c-0.01,0.02-0.06,0.06-0.16,0.06h-1.887c-1.647,0-3.085,1.208-3.424,2.815c-0.04,0.16-0.259,1.088-1.737,6.699   c-1.098,4.123-3.894,7.647-7.667,9.664l-3.943,2.096c-4.582,2.446-10.053,2.446-14.635,0l-3.943-2.096   C52.455,87.082,49.66,83.557,48.561,79.424z M56.318,97.065l0.559,0.299c3.324,1.777,6.968,2.656,10.612,2.656   s7.288-0.889,10.602-2.656l0.669-0.349v5.561L67.44,113.867l-11.121-11.091V97.065z"/></g><text x="0" y="175" fill="#000000" font-size="5px" font-weight="bold" font-family="'Helvetica Neue', Helvetica, Arial-Unicode, Arial, Sans-serif">Created by Symbolon</text><text x="0" y="180" fill="#000000" font-size="5px" font-weight="bold" font-family="'Helvetica Neue', Helvetica, Arial-Unicode, Arial, Sans-serif">from the Noun Project</text></svg>