<svg xmlns="http://www.w3.org/2000/svg" xmlns:xlink="http://www.w3.org/1999/xlink" version="1.1" x="0px" y="0px" viewBox="0 0 50.4 63" enable-background="new 0 0 50.4 50.4" xml:space="preserve"><g><path d="M23.085,25.025v-2.249c0,0-6.523-0.007-7.007,0c-0.391,0.007-1.067,0.07-1.709,0.622L3.792,31.95   c-0.664,0.537-1.04,1.352-1.019,2.206c0.021,0.854,0.438,1.647,1.126,2.151l8.783,6.414c0.489,0.356,1.057,0.529,1.619,0.529   c0.847,0,1.683-0.39,2.223-1.127c0.895-1.227,0.626-2.946-0.599-3.842l-5.895-4.306l7.094-5.736l-0.001,17.673l5.952,4.325h0.011   V28.345l-2.959,1.567v-4.887H23.085z"/><path d="M46.768,31.95L36.19,23.397c-0.509-0.412-1.12-0.61-1.728-0.61l-6.929-0.011v-1.32c1.986-0.873,3.386-2.84,3.432-5.142   H19.504c0.065,3.115,2.601,5.625,5.732,5.625c0.035,0,0.068-0.005,0.1-0.005v8.871h2.102v19.434h0.024l5.988-4.352V28.253   l7.079,5.724l-5.895,4.306c-1.228,0.896-1.495,2.615-0.6,3.842c0.539,0.737,1.374,1.127,2.224,1.127   c0.561,0,1.128-0.173,1.617-0.529l8.784-6.414c0.688-0.504,1.104-1.298,1.126-2.151C47.808,33.302,47.432,32.487,46.768,31.95z    M30.281,29.912l-2.747-1.455v-3.432h2.747V29.912z"/><path d="M30.932,13.295V0.081H19.517v13.214H14.3v1.724h21.845v-1.724H30.932z M27.657,13.677l-2.379-1.731l-2.394,1.706   l0.91-2.797l-2.36-1.752l2.938,0.003L25.31,6.32l0.905,2.797l2.968,0.005l-2.407,1.75L27.657,13.677z M29.356,5.612H21.06v-3.98   h8.297V5.612z"/></g><text x="0" y="65.4" fill="#000000" font-size="5px" font-weight="bold" font-family="'Helvetica Neue', Helvetica, Arial-Unicode, Arial, Sans-serif">Created by Luis Prado</text><text x="0" y="70.4" fill="#000000" font-size="5px" font-weight="bold" font-family="'Helvetica Neue', Helvetica, Arial-Unicode, Arial, Sans-serif">from the Noun Project</text></svg>