<svg xmlns="http://www.w3.org/2000/svg" xmlns:xlink="http://www.w3.org/1999/xlink" version="1.1" x="0px" y="0px" viewBox="0 0 500 625" style="enable-background:new 0 0 500 500;" xml:space="preserve"><g><path d="M44.5,367.5c-2.7,0-5-2.3-5-5V221h419v77.5c5.2,1.2,9.8,3.3,14,6.2V124.5c0-10.5-8.5-19-19-19h-409c-10.5,0-19,8.5-19,19   v238c0,10.5,8.5,19,19,19h322c-0.5-4.6-0.7-9.3-1-14H44.5z M44.5,119.5h409c2.8,0,5,2.2,5,5V162h-419v-37.5   C39.5,121.7,41.7,119.5,44.5,119.5z"/><rect x="63" y="316" width="112" height="25"/><rect x="198" y="316" width="112" height="25"/><path d="M434,307c-30.9,0-56,25.1-56,56s25.1,56,56,56s56-25.1,56-56S464.9,307,434,307z M434,405c-23.2,0-42-18.8-42-42   s18.8-42,42-42s42,18.8,42,42S457.2,405,434,405z"/><polygon points="429.7,370.5 416.7,358.8 407.3,369.2 432.3,391.5 460.8,350 449.2,342  "/></g><text x="0" y="515" fill="#000000" font-size="5px" font-weight="bold" font-family="'Helvetica Neue', Helvetica, Arial-Unicode, Arial, Sans-serif">Created by Martin LEBRETON</text><text x="0" y="520" fill="#000000" font-size="5px" font-weight="bold" font-family="'Helvetica Neue', Helvetica, Arial-Unicode, Arial, Sans-serif">from the Noun Project</text></svg>