<svg xmlns:dc="http://purl.org/dc/elements/1.1/" xmlns:cc="http://creativecommons.org/ns#" xmlns:rdf="http://www.w3.org/1999/02/22-rdf-syntax-ns#" xmlns:svg="http://www.w3.org/2000/svg" xmlns="http://www.w3.org/2000/svg" xmlns:sodipodi="http://sodipodi.sourceforge.net/DTD/sodipodi-0.dtd" xmlns:inkscape="http://www.inkscape.org/namespaces/inkscape" viewBox="0 0 100 125" version="1.1" x="0px" y="0px"><g transform="translate(0,-952.36216)"><path style="color:#000000;font-style:normal;font-variant:normal;font-weight:normal;font-stretch:normal;font-size:medium;line-height:normal;font-family:sans-serif;text-indent:0;text-align:start;text-decoration:none;text-decoration-line:none;text-decoration-style:solid;text-decoration-color:#000000;letter-spacing:normal;word-spacing:normal;text-transform:none;direction:ltr;block-progression:tb;writing-mode:lr-tb;baseline-shift:baseline;text-anchor:start;white-space:normal;clip-rule:nonzero;display:inline;overflow:visible;visibility:visible;opacity:1;isolation:auto;mix-blend-mode:normal;color-interpolation:sRGB;color-interpolation-filters:linearRGB;solid-color:#000000;solid-opacity:1;fill:#000000;fill-opacity:1;fill-rule:evenodd;stroke:none;stroke-width:8;stroke-linecap:round;stroke-linejoin:round;stroke-miterlimit:4;stroke-dasharray:none;stroke-dashoffset:0;stroke-opacity:1;color-rendering:auto;image-rendering:auto;shape-rendering:auto;text-rendering:auto;enable-background:accumulate" d="M 72.455078 8.3339844 A 0.7216217 0.7216217 0 0 0 72.189453 8.3964844 L 71.066406 8.8964844 A 0.7216217 0.7216217 0 0 0 70.638672 9.5019531 L 70.466797 11.849609 L 69.597656 12.990234 A 0.7216217 0.7216217 0 0 0 69.982422 14.121094 L 68.833984 16.552734 A 0.7216217 0.7216217 0 0 0 68.775391 16.988281 L 69.236328 19.585938 L 66.791016 25.253906 L 65.289062 25.050781 L 63.966797 23.564453 A 0.7216217 0.7216217 0 0 0 63.722656 23.384766 L 58.388672 20.994141 L 55.908203 18.824219 L 57.314453 16.273438 A 0.7216217 0.7216217 0 0 0 57.349609 15.646484 L 57.433594 15.646484 A 0.7216217 0.7216217 0 0 0 58.152344 14.962891 L 58.197266 14.117188 L 59.109375 13.445312 A 0.7216217 0.7216217 0 0 0 59.277344 12.457031 L 58.464844 11.271484 A 0.7216217 0.7216217 0 0 0 57.396484 11.134766 L 56.800781 11.652344 A 0.7216217 0.7216217 0 0 0 56.146484 11.474609 L 54.839844 11.775391 L 53.792969 11.029297 A 0.7216217 0.7216217 0 0 0 53.050781 10.970703 L 52.220703 11.384766 L 52.134766 11.056641 A 0.7216217 0.7216217 0 0 0 51.318359 10.529297 L 50.394531 10.683594 L 47.023438 9.3222656 A 0.7216217 0.7216217 0 0 0 46.232422 10.492188 L 47.433594 11.742188 L 45.087891 12.017578 L 44.193359 12.017578 A 0.7216217 0.7216217 0 0 0 43.939453 12.064453 L 42.939453 12.439453 A 0.7216217 0.7216217 0 0 0 42.478516 13.017578 A 0.7216217 0.7216217 0 0 0 41.738281 13.890625 L 41.980469 15.021484 L 41.013672 15.371094 A 0.7216217 0.7216217 0 0 0 40.630859 15.691406 L 39.632812 17.439453 A 0.7216217 0.7216217 0 0 0 39.880859 18.412109 L 40.826172 18.994141 L 40.632812 19.248047 L 38.382812 18.421875 A 0.7216217 0.7216217 0 0 0 37.992188 18.390625 L 37.552734 18.478516 L 36.148438 16.630859 A 0.7216217 0.7216217 0 0 0 35.611328 16.347656 L 33.933594 16.259766 A 0.7216217 0.7216217 0 0 0 33.445312 16.416016 L 32.683594 17.023438 L 32.130859 17.162109 A 0.7216217 0.7216217 0 0 0 31.621094 17.634766 L 31.552734 17.841797 L 31.439453 17.773438 A 0.7216217 0.7216217 0 0 0 30.511719 17.933594 L 29.275391 19.435547 A 0.7216217 0.7216217 0 0 0 29.21875 20.271484 L 28.960938 20.367188 A 0.7216217 0.7216217 0 0 0 28.609375 20.650391 L 27.636719 22.152344 A 0.7216217 0.7216217 0 0 0 27.689453 23.005859 L 27.810547 23.152344 L 26.775391 22.681641 A 0.7216217 0.7216217 0 0 0 25.763672 23.449219 L 25.861328 24.082031 A 0.7216217 0.7216217 0 0 0 25.083984 24.242188 L 23.228516 26.095703 A 0.7216217 0.7216217 0 0 0 23.037109 26.775391 L 23.476562 28.609375 L 21.003906 31.314453 L 16.714844 33.375 A 0.7216217 0.7216217 0 0 0 16.626953 33.423828 L 13.146484 35.744141 L 12.183594 35.607422 A 0.7216217 0.7216217 0 0 0 11.636719 35.751953 L 7.2207031 39.197266 A 0.7216217 0.7216217 0 0 0 6.9628906 39.599609 L 6.8339844 40.142578 A 0.7216217 0.7216217 0 0 0 5.9960938 40.160156 L 5.2890625 40.689453 A 0.7216217 0.7216217 0 0 0 5 41.267578 L 5 46.919922 A 0.7216217 0.7216217 0 0 0 5.0703125 47.230469 L 6.8359375 50.923828 L 6.3574219 51.642578 A 0.7216217 0.7216217 0 0 0 6.4003906 52.498047 L 9.515625 56.306641 L 11.222656 60.234375 L 11.916016 62.662109 A 0.7216217 0.7216217 0 0 0 12.021484 62.878906 L 14.056641 65.761719 L 14.443359 67.568359 L 13.320312 68.191406 A 0.7216217 0.7216217 0 0 0 12.953125 68.75 L 12.775391 70.517578 A 0.7216217 0.7216217 0 0 0 13.226562 71.257812 L 17.642578 73.025391 A 0.7216217 0.7216217 0 0 0 18.019531 73.068359 L 20.316406 72.714844 A 0.7216217 0.7216217 0 0 0 20.787109 72.429688 L 23.578125 68.652344 L 30.644531 68.484375 A 0.7216217 0.7216217 0 0 0 31.316406 67.978516 L 32.271484 64.953125 L 35.955078 63.509766 L 45.931641 61.447266 L 51.507812 63.615234 L 51.474609 63.755859 A 0.7216217 0.7216217 0 0 0 51.791016 64.529297 L 52.919922 65.244141 L 54.333984 68.740234 A 0.7216217 0.7216217 0 0 0 54.636719 69.089844 L 55.607422 69.664062 A 0.7216217 0.7216217 0 0 0 56.685547 69.166016 L 56.826172 68.363281 L 59.373047 65.646484 L 59.363281 66.164062 L 58.425781 67.53125 A 0.7216217 0.7216217 0 0 0 58.302734 67.878906 L 58.242188 68.613281 L 57.816406 68.927734 A 0.7216217 0.7216217 0 0 0 58.181641 70.226562 L 59.617188 70.351562 A 0.7216217 0.7216217 0 0 0 60.105469 70.214844 L 60.154297 70.179688 L 60.101562 70.404297 A 0.7216217 0.7216217 0 0 0 60.503906 71.224609 L 62.431641 72.111328 L 62.646484 74.626953 A 0.7216217 0.7216217 0 0 0 62.806641 75.021484 L 64.742188 77.394531 A 0.7216217 0.7216217 0 0 0 65.054688 77.617188 L 70.925781 79.740234 A 0.7216217 0.7216217 0 0 0 71.634766 79.615234 L 73.728516 77.863281 L 75.271484 79.986328 A 0.7216217 0.7216217 0 0 0 76.236328 80.173828 L 79.046875 78.425781 A 0.7216217 0.7216217 0 0 0 79.134766 78.361328 L 79.837891 77.757812 L 83.859375 77.34375 A 0.7216217 0.7216217 0 0 0 84.482422 76.816406 L 85.832031 71.845703 L 87.857422 68.271484 L 91.773438 64.599609 A 0.7216217 0.7216217 0 0 0 91.953125 64.333984 L 94.951172 56.589844 A 0.7216217 0.7216217 0 0 0 94.994141 56.238281 L 94.505859 52.460938 L 94.992188 48.935547 A 0.7216217 0.7216217 0 0 0 94.923828 48.513672 L 92.175781 43.017578 A 0.7216217 0.7216217 0 0 0 91.943359 42.75 L 90.869141 41.998047 L 89.576172 38.822266 A 0.7216217 0.7216217 0 0 0 88.828125 38.376953 L 88.34375 38.429688 L 87.238281 33.5625 A 0.7216217 0.7216217 0 0 0 86.9375 33.125 L 81.458984 29.431641 L 80.816406 24.818359 A 0.7216217 0.7216217 0 0 0 80.625 24.419922 L 79.583984 23.328125 L 79.699219 19.945312 A 0.7216217 0.7216217 0 0 0 79.503906 19.427734 L 77.630859 17.429688 A 0.7216217 0.7216217 0 0 0 76.923828 17.224609 L 75.808594 17.511719 L 75.511719 14.296875 A 0.7216217 0.7216217 0 0 0 75.455078 14.074219 L 73.144531 8.7675781 A 0.7216217 0.7216217 0 0 0 72.455078 8.3339844 z " transform="translate(0,952.36216)"/><path style="color:#000000;font-style:normal;font-variant:normal;font-weight:normal;font-stretch:normal;font-size:medium;line-height:normal;font-family:sans-serif;text-indent:0;text-align:start;text-decoration:none;text-decoration-line:none;text-decoration-style:solid;text-decoration-color:#000000;letter-spacing:normal;word-spacing:normal;text-transform:none;direction:ltr;block-progression:tb;writing-mode:lr-tb;baseline-shift:baseline;text-anchor:start;white-space:normal;clip-rule:nonzero;display:inline;overflow:visible;visibility:visible;opacity:1;isolation:auto;mix-blend-mode:normal;color-interpolation:sRGB;color-interpolation-filters:linearRGB;solid-color:#000000;solid-opacity:1;fill:#000000;fill-opacity:1;fill-rule:evenodd;stroke:none;stroke-width:8;stroke-linecap:round;stroke-linejoin:round;stroke-miterlimit:4;stroke-dasharray:none;stroke-dashoffset:0;stroke-opacity:1;color-rendering:auto;image-rendering:auto;shape-rendering:auto;text-rendering:auto;enable-background:accumulate" d="M 72.541016 82.894531 A 0.7216217 0.7216217 0 0 0 71.871094 83.476562 L 71.517578 85.287109 A 0.7216217 0.7216217 0 0 0 71.597656 85.78125 L 72.416016 87.228516 L 72.576172 87.121094 A 0.7216217 0.7216217 0 0 0 72.339844 88.060547 L 73.076172 89.449219 L 73.505859 90.4375 A 0.7216217 0.7216217 0 0 0 73.845703 90.796875 L 75.435547 91.591797 A 0.7216217 0.7216217 0 0 0 76.441406 91.177734 L 76.818359 90.068359 L 77.279297 90.527344 A 0.7216217 0.7216217 0 0 0 78.472656 90.25 L 79.400391 87.511719 A 0.7216217 0.7216217 0 0 0 79.4375 87.3125 L 79.570312 84.308594 A 0.7216217 0.7216217 0 0 0 78.634766 83.589844 L 75.947266 84.431641 L 72.890625 82.964844 A 0.7216217 0.7216217 0 0 0 72.613281 82.894531 A 0.7216217 0.7216217 0 0 0 72.541016 82.894531 z " transform="translate(0,952.36216)"/></g><text x="0" y="115" fill="#000000" font-size="5px" font-weight="bold" font-family="'Helvetica Neue', Helvetica, Arial-Unicode, Arial, Sans-serif">Created by anbileru adaleru</text><text x="0" y="120" fill="#000000" font-size="5px" font-weight="bold" font-family="'Helvetica Neue', Helvetica, Arial-Unicode, Arial, Sans-serif">from the Noun Project</text></svg>