<svg xmlns="http://www.w3.org/2000/svg" xmlns:xlink="http://www.w3.org/1999/xlink" version="1.1" x="0px" y="0px" viewBox="0 0 100 125" enable-background="new 0 0 100 100" xml:space="preserve"><g transform="translate(0.000000,2000.000000) scale(0.100000,-0.100000)"><path fill="#000000" d="M53.379,19867.918c-26.748-4.248-47.295-24.131-52.578-50.723c-1.074-5.332-1.074-538.311,0-543.691   c3.594-18.34,14.404-33.721,30.283-43.047c4.668-2.715,10.352-5.02,16.865-6.816l4.922-1.377l300.478-0.156l300.498-0.098   l22.334-22.139c12.305-12.197,49.961-49.609,83.682-83.115c44.482-44.229,62.061-61.338,63.799-62.266   c2.002-1.025,3.232-1.279,6.299-1.328c4.971,0,8.867,1.738,11.533,5.225c3.535,4.668,3.33-0.771,3.33,85.576v78.047h49.141   c41.201,0,49.814,0.098,53.496,0.762c15.684,2.715,29.668,11.016,39.053,23.066c7.432,9.58,11.523,19.365,13.066,31.152   c0.361,2.92,0.508,84.092,0.361,271.172c-0.156,250.068-0.205,267.188-1.025,270.469c-2.363,9.473-6.055,17.52-10.967,24.229   c-9.531,12.812-21.523,20.557-38.33,24.648c-3.389,0.879-29.414,0.928-447.861,0.977   C143.262,19868.592,56.709,19868.484,53.379,19867.918z M945,19838.709c1.699-0.41,5.029-1.738,7.432-2.92   c6.045-2.92,11.787-8.652,14.814-14.805c3.945-8.047,3.633,18.291,3.633-275.947c0-261.543,0-264.512-1.025-268.408   c-3.066-11.992-12.09-21.211-24.336-24.746c-2.822-0.82-7.891-0.928-66.465-1.074l-63.438-0.156l-0.098-73.945l-0.156-73.994   l-23.574,23.369c-12.959,12.861-42.842,42.529-66.357,65.898c-23.525,23.418-46.631,46.221-51.299,50.625l-8.506,8.096   l-304.072,0.107c-288.857,0.146-304.228,0.205-307.148,1.074c-12.354,3.633-21.27,12.705-24.395,24.854   c-0.967,3.789-0.967,8.711-0.967,268.301c0,294.238-0.312,267.9,3.633,275.947c3.027,6.152,8.76,11.885,14.814,14.863   c2.402,1.123,5.635,2.402,7.168,2.812c2.461,0.664,61.953,0.771,445.049,0.771C892.529,19839.48,942.285,19839.383,945,19838.709z"/></g><text x="0" y="115" fill="#000000" font-size="5px" font-weight="bold" font-family="'Helvetica Neue', Helvetica, Arial-Unicode, Arial, Sans-serif">Created by misirlou</text><text x="0" y="120" fill="#000000" font-size="5px" font-weight="bold" font-family="'Helvetica Neue', Helvetica, Arial-Unicode, Arial, Sans-serif">from the Noun Project</text></svg>