<svg xmlns="http://www.w3.org/2000/svg" xmlns:xlink="http://www.w3.org/1999/xlink" version="1.1" x="0px" y="0px" viewBox="0 0 190.01 237.6175" enable-background="new 0 0 190.01 190.094" xml:space="preserve"><path d="M174.677,91.091l-2.973,0.08c5.953-1.741,10.305-7.232,10.305-13.748c0-7.823-6.269-14.17-14.056-14.32  c5.827-1.82,10.056-7.257,10.056-13.684c0-7.294-5.451-13.302-12.5-14.205c6.053-1.678,10.5-7.213,10.5-13.799  c0-7.917-6.417-14.334-14.333-14.334l-71.04,0.002c-31.945,0-47.964,12.521-47.964,27.964v85.709l14.185-0.112  c0.602,0.068,1.212,0.112,1.833,0.112c4.297,0,41.982,1.385,41.982,49.337c0,8.836,7.163,16,16,16s16-7.164,16-16  c0-22.564-6.233-38.669-13.882-49.943l57.143-0.456h0.077v-0.003c7.29-0.673,13-6.8,13-14.267  C189.01,97.509,182.593,91.091,174.677,91.091z"/><rect x="2" y="7.165" width="35.671" height="113.669"/><text x="0" y="205.094" fill="#000000" font-size="5px" font-weight="bold" font-family="'Helvetica Neue', Helvetica, Arial-Unicode, Arial, Sans-serif">Created by corpus delicti</text><text x="0" y="210.094" fill="#000000" font-size="5px" font-weight="bold" font-family="'Helvetica Neue', Helvetica, Arial-Unicode, Arial, Sans-serif">from the Noun Project</text></svg>