<svg xmlns="http://www.w3.org/2000/svg" xmlns:xlink="http://www.w3.org/1999/xlink" version="1.1" x="0px" y="0px" viewBox="0 0 100 125" enable-background="new 0 0 100 100" xml:space="preserve"><polygon fill="#000000" points="17.5,47 20.6,45.5 25.5,38.3 27,37.7 28.6,45 26.5,45.3 24.9,42.3 23.7,47 29,47 34.5,48.4 36.7,47   40.4,50.8 42,43.8 44.6,46.4 46.2,44.2 48.8,43.5 52.6,40 53.2,38.3 56.3,38.8 57.6,40.5 55.3,45.3 61,42.4 61,41 63.2,40.5   65.6,42.9 68,40 68,38 71.9,35.3 73.5,33 76,33 80.4,24.1 84.2,20.2 85.6,22.4 83.4,25.2 84.2,27 86.3,27.4 88,34.8 88,41 91,45.1   92.5,50.8 87.3,47.5 85,38 83.6,38.3 83.4,44.7 79.6,50.8 78.5,60.1 81.1,60.7 82.2,59.4 84.7,62.2 86.6,70.6 86.4,76 84,76   83.1,68.4 81.4,70.7 77.7,69.9 74.7,67.4 71.3,68.6 71.5,74 68.8,74.7 64.8,77.7 60,77.1 58.1,76 55.1,76.5 56.1,77.7 53.7,79.1   51.8,78.2 48.2,79.8 42.7,77.1 40.6,72.3 38.8,72.5 36.7,70.8 36.6,69.5 29.9,68.8 28.8,72.4 24.6,70.5 22.5,67 18,67 17.5,72.6   14.9,73.4 13.6,78.5 12.6,77.6 8.4,66.9 13.4,64.5 12.6,59.8 11.8,55 14,51.9 13.3,50 16.3,46.8 "/><polygon fill="#000000" points="84,58.8 88.6,65.6 90.1,65 88.2,62.2 84,57.8 "/><polygon fill="#000000" points="37,45 37,43 40.5,40.5 43.5,39 40,39 36.9,40.8 35,42.5 35,45 "/><text x="0" y="115" fill="#000000" font-size="5px" font-weight="bold" font-family="'Helvetica Neue', Helvetica, Arial-Unicode, Arial, Sans-serif">Created by Matthieu Rodrigues</text><text x="0" y="120" fill="#000000" font-size="5px" font-weight="bold" font-family="'Helvetica Neue', Helvetica, Arial-Unicode, Arial, Sans-serif">from the Noun Project</text></svg>