<svg xmlns="http://www.w3.org/2000/svg" xmlns:xlink="http://www.w3.org/1999/xlink" version="1.1" x="0px" y="0px" viewBox="0 0 100 125" enable-background="new 0 0 100 100" xml:space="preserve"><path d="M84.926,26.841l-0.025-0.033l-0.035-0.045l-0.02-0.132l-0.075-0.108l-0.004-0.006l-0.021-0.024l-0.108-0.123l-0.107-0.123  l-0.116-0.131l-0.145-0.109l-0.148-0.043l-0.148-0.043l-0.161-0.002l-0.098,0.01l-0.153-0.041l-0.135-0.031l-0.079,0.012  l-0.156-0.09l-0.041-0.063l-0.003-0.005l-0.056-0.086l-0.027-0.041l-0.043-0.137l-0.112-0.087l-0.058-0.036l-0.041-0.095  l-0.001-0.003l-0.004-0.01l-0.026-0.01l-0.034-0.013l-0.162-0.085l-0.136,0.023l-0.005,0.085l-0.016,0.035l-0.102,0.078  l-0.042,0.043l-0.005,0.005l-0.003-0.001l-0.165-0.031l-0.034-0.006l-0.087-0.019l-0.118-0.025l-0.014-0.003l-0.087-0.063  l-0.127-0.093l-0.038-0.027l-0.109-0.077l-0.004-0.003l0.002-0.03l0.102-0.072l0.109-0.07l0.061-0.065l0.009-0.1l0.041-0.04  l0.006-0.071l-0.007-0.061l0.06-0.075l0.086-0.034l0.055-0.052l0.01-0.047l-0.026-0.081l-0.006-0.043l0.032-0.049l-0.009-0.065  l-0.066-0.134l0.004-0.035l0.083-0.032l0.021-0.028l0.009-0.018l-0.05-0.086l0.037-0.133l0.05-0.054l0.002-0.002l0.003-0.042  l-0.042-0.094l0.021-0.104l-0.145-0.183l-0.142-0.07l-0.012-0.065l-0.015-0.138l-0.089-0.02l-0.149-0.119l0.046-0.283l-0.026-0.206  l0.02-0.204l0.206-0.229l0.003-0.004l0.096-0.097l0.033-0.033l-0.056-0.143l0.016-0.134l-0.015-0.119l-0.313-0.046l-0.165-0.031  l-0.002,0l-0.002-0.004l-0.163-0.325l-0.051-0.196l-0.067-0.106l-0.023-0.058l-0.044-0.18l-0.03-0.058l-0.002-0.003l-0.056-0.109  l-0.164-0.18l-0.053-0.028l-0.105,0.014l-0.254-0.138l-0.038-0.167l0.016-0.19l0.001-0.014l-0.037-0.041l-0.026-0.028L80.21,19.3  l-0.109-0.015l-0.169-0.218l-0.188-0.078l0.001-0.005l0.001-0.011l0.007-0.099l-0.145-0.131l-0.084-0.301l-0.053-0.072l-0.004-0.005  l-0.055-0.075l-0.028-0.171l-0.063-0.133l-0.015-0.032l-0.11,0.049l-0.1,0.048L78.9,18.104l-0.208,0.031l-0.089,0.003L78.5,18.193  l-0.128-0.022l-0.045,0l-0.056,0.004l-0.098,0.049l-0.048,0.021l-0.071-0.008l-0.031-0.022l-0.114-0.082l-0.018-0.027l-0.024-0.036  l-0.032-0.013l-0.008-0.073l-0.116-0.029l-0.048-0.038l-0.091-0.013l-0.094-0.029l-0.149,0.069l-0.014,0.103l0.058,0.067  l-0.03,0.186l-0.074,0.127l-0.163,0.046l-0.075-0.2l-0.073-0.004l-0.037-0.002l-0.03,0.007l-0.043,0.006l-0.034,0.021l-0.046-0.003  l-0.055-0.014l-0.067-0.034l-0.032-0.006l-0.044,0.005l-0.043-0.01l-0.064-0.02l-0.046-0.002l-0.073,0.023l-0.077-0.004  l-0.093-0.032l-0.073-0.053l-0.043-0.006l-0.046,0.02L75.95,18.22l-0.017,0.033l-0.007,0.042l0.012,0.025l-0.001,0.052l-0.022,0.036  l-0.053,0.051l-0.084,0.046l-0.062,0.003l-0.057,0.009l-0.101-0.025l-0.072-0.011l-0.007,0.005l-0.005,0.003l-0.052,0.038  l-0.008,0.076l-0.02,0.064l-0.005,0.037l-0.022,0.053l-0.027,0.063l-0.017,0.098l-0.047,0.086l-0.024,0.013l-0.097-0.052  l-0.076,0.007l-0.095,0.004l-0.121-0.047l-0.066-0.048l-0.08-0.016l-0.08-0.042l-0.109,0.025l-0.056,0.045l-0.076,0.025  l-0.081,0.068l-0.061-0.014l-0.107-0.013l-0.098,0.03l-0.085,0.009l-0.301,0.093l-0.1,0.071l-0.054,0.024l-0.038,0.011l-0.033-0.01  l-0.016,0.004l-0.045,0.025l-0.085,0.017l-0.051-0.01l-0.037-0.014l-0.032,0.001l-0.045,0.023l-0.049,0.007l-0.113-0.02  l-0.029-0.001l-0.022,0.036l-0.053,0.036l-0.068,0.037l-0.05-0.001l-0.045-0.01l-0.026-0.004l-0.079-0.04l-0.034-0.006l-0.036-0.02  l-0.104-0.094l-0.052-0.02l-0.065-0.024l-0.049,0.011l-0.032,0.006l-0.04-0.019L72.13,19.07l-0.101-0.009l-0.044,0.02l-0.037,0.006  L71.9,19.073l-0.048-0.005l-0.118-0.04l-0.066-0.031l-0.03-0.007l-0.052-0.006l-0.045-0.027l-0.066-0.067l-0.009-0.036l-0.012-0.021  l-0.049-0.039l-0.064-0.013l-0.043-0.036l-0.034-0.062l-0.07-0.07l-0.037-0.02l-0.198-0.097l-0.036-0.019l-0.036-0.04l-0.029-0.041  l-0.064-0.053l-0.027-0.055l-0.01-0.052l0.009-0.031l-0.015-0.111l0.021-0.072l-0.029-0.059l-0.016-0.049l-0.014-0.018l-0.017-0.012  l-0.023-0.011l-0.032-0.009l-0.037-0.007l-0.033-0.006l-0.034-0.013l-0.026-0.012l-0.026-0.016l-0.008-0.004l-0.09-0.011  l-0.028,0.022l-0.036,0.037l-0.017,0.022l-0.01,0.01l-0.014,0.007l-0.044,0.031l-0.029,0.02l-0.014,0.011l-0.022,0.027l-0.02,0.034  l-0.018,0.045l-0.014,0.037l-0.012,0.02l-0.007,0.007l-0.009,0.008l-0.012,0.007l-0.008,0.003l-0.027,0.011l-0.036,0.017  l-0.007,0.005l-0.007,0.006l-0.002,0.007l-0.003,0.01l-0.005,0.011l-0.009,0.009l-0.008,0.007l-0.025,0.024l-0.031,0.036  l-0.014,0.012l-0.013,0.014l-0.008,0.01l-0.006,0.011l-0.007,0.012l-0.029,0.029l-0.011,0.011l-0.009,0.01l-0.009,0.015  l-0.007,0.011l-0.016,0.017l-0.016,0.015l-0.032,0.022l-0.028,0.021l-0.021,0.017l-0.014,0.011l-0.019,0.011l-0.015,0.006  l-0.022,0.01l-0.017,0.01l-0.008,0.009c0,0-0.015,0.019-0.016,0.019l-0.014,0.019l-0.005,0.013l-0.003,0.015l0,0.009l0.001,0.011  l0.003,0.011l0.006,0.016l0.003,0.012l0.004,0.015l0.001,0.011l-0.001,0.016l-0.001,0.011l-0.005,0.015l-0.004,0.013l-0.007,0.01  l-0.007,0.01l-0.006,0.006l-0.017,0.014l-0.03,0.021l-0.013,0.011l-0.004,0.005l-0.001,0.005l0,0.009l0.002,0.008l0.007,0.018  l0.008,0.016l0.008,0.014l0.008,0.013l0.014,0.021l0.008,0.009l0.006,0.008l0.004,0.009l0.01,0.036l0.007,0.021l0.012,0.03  l0.015,0.033l0.008,0.013l0.006,0.005l0.008,0.005l0.01,0.004l0.012,0.004l0.015,0.005l0.025,0.007l0.011,0.004l0.022,0.013  l0.021,0.012l0.017,0.007l0.022,0.01l0.012,0.009l0.006,0.007l0.006,0.008l0.006,0.012l0.014,0.033l0.005,0.01l0.007,0.013  l0.01,0.017l0.016,0.021l0.007,0.008l0.009,0.01l0.008,0.008l0.022,0.023l0.007,0.007l0.01,0.01l0.008,0.01l0.023,0.036l0.007,0.013  l0.011,0.022l0.004,0.008l0.019,0.052l0.01,0.021l0.008,0.012l0.013,0.009l0.012,0.006l0.014,0.003l0.01,0.002l0.023,0.004  l0.021,0.007l0.025,0.007l0.01,0.008l0.013,0.007l0.032,0.012l0.009,0.007l0.011,0.013l0.006,0.012l0.012,0.034l0.016,0.056  l0.009,0.018l0.014,0.023l0.031,0.046l0.002,0.02l-0.004,0.03l-0.011,0.082l-0.021,0.054l-0.042,0.071l-0.006,0.009l-0.007,0.013  l-0.005,0.016l-0.005,0.029l-0.006,0.023l0.006,0.039l0.014,0.059l0.004,0.019l0.001,0.012l-0.002,0.063l-0.008,0.035l-0.015,0.041  l-0.051,0.081l-0.006,0.019l-0.018,0.062l-0.008,0.018l-0.012,0.019l-0.012,0.005l-0.008,0.007l-0.007,0.011l-0.017,0.041  l-0.01,0.037l-0.001,0.028l0.002,0.025l0.006,0.014l0.006,0.009l0.01,0.006l0.014,0.007l0.013,0.003l0.018,0.005l0.02,0.014  l0.013,0.014l0.019,0.02l0.014,0.018l0.019,0.026l0.006,0.014l0.002,0.012l0,0.014l-0.008,0.032l-0.007,0.018l-0.01,0.01  l-0.026,0.016l-0.012,0.013l-0.003,0.008l0,0.005l0.006,0.013l0.009,0.013l0.011,0.016l0.018,0.03l0.008,0.024l0.006,0.025l0,0.013  l-0.002,0.007l-0.006,0.01l-0.031,0.028l-0.024,0.018l-0.019,0.011l-0.011,0.004l-0.022,0.007l-0.066,0.026l-0.055,0.016  l-0.012,0.003l-0.008,0.002l-0.032,0.015l-0.018,0.015l-0.019,0.018l-0.017,0.024l-0.016,0.038l-0.023,0.037l-0.027,0.036  l-0.014,0.027l-0.014,0.02l-0.045,0.043l-0.035,0.029L69.615,21.7l-0.032,0.046l-0.011,0.021l-0.003,0.019l0.006,0.04l-0.003,0.059  l-0.006,0.053l0,0.064v0.031l-0.005,0.024l-0.016,0.043l-0.006,0.029l-0.001,0.039l-0.007,0.026l-0.012,0.015l-0.02,0.01  l-0.03,0.014l-0.026,0.014l-0.015,0.012l-0.012,0.016L69.394,22.3l-0.033,0.024l-0.029,0.011l-0.03,0.008l-0.013,0.001l-0.032,0.009  l-0.022,0.014l-0.012,0.005l-0.01,0.001l-0.001,0l-0.019-0.003c0,0-0.023-0.004-0.023-0.003l-0.016,0.007l-0.013,0.012l-0.019,0.031  l-0.015,0.021l-0.014,0.006h-0.002l-0.011,0l-0.038-0.021l-0.019-0.011l-0.02-0.007l-0.017-0.002h-0.002l-0.014,0l-0.059,0.026  l-0.071,0.03L68.79,22.48l-0.06,0.024l-0.064,0.037l-0.042,0.019l-0.084,0.048l-0.021,0.012l-0.078,0.045l-0.02,0.022l-0.009,0.021  l-0.003,0.028l0,0.065l-0.015,0.03l-0.036,0.025l-0.031,0.016l-0.041,0.014l-0.033,0.017l-0.016,0.013L68.23,22.96l-0.01,0.031  l-0.013,0.013l-0.02,0.016l-0.032,0.018l-0.078,0.039l-0.042,0.027l-0.037,0.043l-0.011,0.024l-0.006,0.07l-0.005,0.041  l-0.019,0.053l-0.02,0.031l-0.022,0.025L67.894,23.4l-0.036,0.011l-0.071,0.016l-0.058,0.021l-0.037,0.012l-0.053,0.024l-0.01,0.008  l-0.006,0.007l-0.025,0.03l-0.018,0.04l-0.015,0.039l-0.002,0.027l-0.007,0.015l-0.028,0.025l-0.027,0.029l-0.025,0.023  l-0.022,0.014l-0.022,0.012l-0.026,0.006l-0.009,0.001l-0.005,0.001l-0.022,0.003l-0.037,0.01l-0.029,0.006h-0.002l-0.016,0  l-0.022-0.013l-0.034-0.017l-0.022-0.008c0,0-0.025-0.002-0.026-0.002l-0.019,0.005l-0.037,0.019l-0.025,0.009h-0.002l-0.031,0  l-0.022-0.004l-0.034-0.013l-0.016-0.004l-0.001,0l-0.013,0.002l-0.015,0.007l-0.012,0.002l-0.001,0l-0.009-0.002L66.9,23.741  l-0.02-0.009l-0.007-0.003l-0.013-0.009l-0.009-0.015l-0.011-0.015l-0.016-0.011l-0.025-0.017l-0.025-0.008l-0.026-0.003l-0.023,0  l-0.023,0.003l-0.011-0.004l-0.029-0.018l-0.044-0.034L66.59,23.58l-0.012-0.009l-0.042-0.012l-0.043-0.014l-0.015-0.007  l-0.017-0.006l-0.021-0.008l-0.012-0.008l-0.036-0.046l-0.025-0.037l-0.02-0.022l-0.017-0.008l-0.021,0l-0.11,0.007l-0.023,0.001  l-0.055-0.004l-0.032-0.005l-0.031-0.009l-0.033-0.017l-0.019,0l-0.027-0.002l-0.02-0.007l-0.02-0.013l-0.034-0.039l-0.043-0.035  l-0.051-0.049l-0.037-0.034l-0.033-0.019l-0.023-0.011l-0.027-0.004l-0.071-0.002l-0.046-0.005l-0.024-0.003l-0.029-0.01  l-0.071-0.036l-0.005-0.002l-0.002-0.001l-0.004-0.002l-0.012-0.006l-0.009-0.005l-0.02-0.011l-0.007-0.004l-0.076-0.036  l-0.038-0.024l-0.037-0.035l-0.019-0.044l0-0.023l0.003-0.024l0.009-0.069l0.011-0.028l0.006-0.031l-0.002-0.012l-0.016-0.022  l-0.021-0.021l-0.014-0.025l-0.004-0.006l-0.019-0.03l-0.013-0.011l-0.025-0.007l-0.028-0.003l-0.052,0.007l-0.028,0.011  l-0.023,0.004l-0.031-0.002l-0.034-0.007l-0.035-0.006l-0.036,0.007l-0.038,0.013l-0.03,0.008l-0.04-0.001l-0.038-0.006  l-0.037-0.016l-0.016-0.008l-0.038-0.014l-0.053-0.005l-0.043,0.002l-0.039,0.02l-0.042,0.019l-0.035,0.009l-0.052-0.001  l-0.061-0.011l-0.039-0.013l-0.047-0.02l-0.072-0.046l-0.036-0.041L64.1,22.506l-0.007-0.029L64.09,22.43l0.002-0.042l0.006-0.051  l-0.008-0.04l-0.017-0.044l-0.036-0.08l-0.038-0.053l-0.019-0.028l-0.035-0.027l-0.042-0.028l-0.028-0.01l-0.022-0.004l-0.01,0.001  l-0.034,0.004l-0.014,0.001l-0.042-0.007l-0.037-0.008l-0.026-0.017l-0.032-0.022l-0.044-0.036l-0.051-0.034l-0.038-0.023  l-0.027-0.014l-0.071-0.022l-0.058-0.014l-0.066-0.009l-0.009-0.001l-0.005-0.001l-0.033,0.007l-0.004,0.002l-0.008,0.004  l-0.014,0.007l-0.027,0.007l-0.029,0.007l-0.028,0.011l-0.031,0.007l-0.051,0.009l-0.016,0.004l-0.01,0.005l-0.013-0.001  l-0.013-0.004l-0.018-0.008l-0.017-0.011l-0.039-0.022L62.9,21.82l-0.023-0.014l-0.021-0.008l-0.013-0.004l-0.005-0.001  l-0.006-0.001l-0.008-0.001l-0.014,0.002l-0.006,0.001l-0.037,0.003l-0.027-0.001l-0.031-0.005l-0.035-0.011l-0.028-0.007  l-0.038-0.002l-0.017-0.006l-0.02-0.015l-0.022-0.013l-0.012-0.008l-0.012-0.004l-0.004-0.002l-0.012-0.003l-0.005-0.001  l-0.022-0.002l-0.065,0l-0.034,0.001l-0.03,0.001l-0.026-0.004l-0.028-0.011l-0.034-0.013l-0.035-0.016L62.2,21.662l-0.025-0.016  l-0.036-0.021l-0.026-0.016l-0.032-0.021l-0.031-0.029l-0.011-0.007l-0.015-0.009l-0.014-0.006l-0.012-0.005l-0.018-0.002  l-0.008,0.001l-0.013,0.002l-0.021,0.007l-0.012,0.005l-0.002,0.001l-0.01,0.004l-0.035,0.01l-0.026,0.006l-0.025,0.002  l-0.016-0.001l-0.042-0.006l-0.023,0.002l-0.014,0.006l-0.017,0.011l-0.025,0.014l-0.03,0.01l-0.023,0.003l-0.041,0.001  l-0.021,0.003l-0.068-0.001l-0.047,0l-0.027,0.004l-0.015,0l-0.042,0.012l-0.032,0.012l-0.029,0.01l-0.052,0.003l-0.052,0.002  l-0.054-0.004l-0.044-0.006l-0.027-0.006l-0.049-0.008l-0.072-0.001h-0.001l-0.017,0.007l-0.014,0.014l-0.012,0.02L60.9,21.699  l-0.025,0.035l-0.014,0.041l-0.01,0.027L60.84,21.85l-0.009,0.062l-0.005,0.04l-0.01,0.046l-0.003,0.024l-0.002,0.016l-0.002,0.021  l-0.002,0.023l-0.002,0.03l0.002,0.022v0.054v0.004l0,0.031l0.003,0.051l0.003,0.042l0.006,0.038l0.008,0.036l-0.002,0.038  l-0.009,0.031l-0.007,0.025L60.8,22.513l-0.015,0.027l-0.026,0.043l-0.019,0.039l-0.024,0.045l0.005,0.007l0.01,0.013l0.021,0.016  l0.029,0.016l0.024,0.011l0.014,0.006l0.015,0.014l0.014,0.018l0.016,0.026l0.019,0.041l0.012,0.029l0.01,0.024l0.009,0.007  l0.016,0.006l0.024,0.012l0.036,0.025l0.025,0.015l0.037,0.022L61.094,23l0.032,0.019l0.037,0.02l0.02,0.016l0.027,0.033l0.017,0.02  l0.01,0.018l0.006,0.026v0.032l0.002,0.025l0.002,0.038l0,0.019l-0.004,0.019l-0.002,0.018l0,0.017l0,0.021l0.002,0.018l0.004,0.023  l0.007,0.027l0.009,0.027l0.007,0.017l0.009,0.011l0.01,0.011l0.031,0.053l0.007,0.014l0.01,0.008l0.006,0.003l0.01,0.007  l0.017,0.013l0.019,0.013l0.026,0.011l0.019,0.01l0.009,0.006l0.006,0.009l0.002,0.016l0,0.014l-0.004,0.01l-0.005,0.017  l-0.008,0.022l-0.003,0.014l-0.002,0.019l0.001,0.021l0.001,0.03l0.002,0.016l0.002,0.039l0.001,0.017l0.001,0.015l-0.003,0.013  l-0.004,0.005l-0.012,0.013l-0.022,0.017l-0.017,0.014l-0.018,0.017l-0.008,0.01l-0.002,0.012l0,0.01l0,0.005l0.002,0.02l0,0.009  l-0.003,0.016l-0.003,0.021l-0.008,0.039l-0.005,0.01l-0.005,0.004l-0.016,0.001l-0.015,0.002l-0.024,0.001l-0.014,0.001  l-0.028,0.005l-0.023,0.005l-0.039,0.007l-0.018,0.005l-0.027,0.008l-0.03,0.012l-0.041,0.015l-0.099,0.043l-0.051,0.026  l-0.086,0.048l-0.027,0.016l-0.023,0.019l-0.022,0.024l-0.009,0.011l-0.011,0.023l-0.01,0.025l-0.038,0.1l-0.007,0.018l-0.006,0.013  l-0.01,0.017l-0.023,0.039l-0.025,0.046l-0.027,0.043l-0.014,0.021l-0.01,0.013l-0.027,0.032l-0.024,0.023l-0.019,0.017  l-0.013,0.014l-0.009,0.011l-0.007,0.017l-0.003,0.014l-0.005,0.014l-0.002,0.016l0.001,0.015l0.005,0.024l0.002,0.005l0.017,0.027  l0.021,0.035l0.029,0.038l0.014,0.017l0.024,0.033l0.027,0.035l0.002,0.004l0.008,0.014l0.006,0.018l0.002,0.017l0.001,0.023v0.021  l-0.005,0.012l-0.01,0.015l-0.031,0.027l-0.056,0.04l-0.053,0.036l-0.042,0.028l-0.025,0.017l-0.017,0.014l-0.013,0.012l-0.011,0.01  l-0.012,0.016l-0.015,0.033l-0.02,0.045l-0.009,0.027l-0.005,0.019l0,0.024l0.005,0.038l0.005,0.024l0.011,0.106l0.004,0.032  l0.004,0.038l0.002,0.064l-0.001,0.021l-0.003,0.016l-0.004,0.019l-0.008,0.032l-0.007,0.021l-0.033,0.075l-0.038,0.074l-0.01,0.023  L60.2,26.179l-0.011,0.032l-0.006,0.029l-0.002,0.021L60.178,26.3l0.003,0.026l0.008,0.022l0.018,0.038l0.035,0.068l0.023,0.042  l0.024,0.044l0.02,0.047l0.018,0.043l0.01,0.024l0.014,0.05l0.006,0.038l0.002,0.037l0,0.034l-0.002,0.018l-0.008,0.028  l-0.005,0.019l-0.008,0.036l-0.009,0.03l-0.012,0.027l-0.008,0.02l-0.016,0.028l-0.027,0.037L60.224,27.1l-0.029,0.032l-0.027,0.032  l-0.02,0.019l-0.019,0.012l-0.046,0.027l-0.032,0.017l-0.09,0.048l-0.058,0.031l-0.019,0.009l-0.046,0.014l-0.046,0.013l-0.05,0.022  l-0.051,0.029l-0.021,0.023l-0.038,0.054l-0.038,0.08l-0.014,0.039l-0.004,0.018l-0.012,0.038l-0.03,0.094l-0.028,0.112l-0.02,0.116  l-0.009,0.074l0,0.055l-0.013,0.091l-0.027,0.096l-0.042,0.087l-0.072,0.131l-0.066,0.051l-0.192,0.123l-0.121,0.079l-0.095,0.052  l-0.042,0.034l-0.116,0.074l-0.019,0.012l-0.003,0.002l-0.045,0.057l-0.077,0.183l-0.032,0.082l-0.031,0.123l-0.017,0.144  l-0.016,0.159l0,0.129l0.005,0.341l0.005,0.081l0.001,0.018l-0.012,0.216l-0.001,0.007l-0.008,0.149l-0.007,0.071l-0.033,0.074  l-0.001,0.007l-0.011,0.096l-0.025,0.104l-0.014,0.062l-0.063,0.088l-0.011,0.015l-0.111,0.087l-0.093,0.06l0.002-0.045  l-0.015-0.011l-0.089-0.035l-0.021-0.007l-0.06-0.022l-0.062-0.028l-0.002,0l-0.044-0.002l-0.037-0.005l-0.05-0.017l-0.033,0.007  l-0.058-0.003l-0.037,0.006l-0.056,0l-0.081,0.001l-0.057-0.002l-0.052,0.007l-0.027,0.016l-0.035,0.022l-0.066,0.029l-0.078,0.03  l-0.051,0.029l-0.03,0.042l-0.003,0.03l-0.013,0.044l-0.008,0.017l-0.016,0.008l-0.021,0.01l-0.021,0l-0.034-0.007l-0.038,0  l-0.059,0.007l-0.051,0.01l-0.053,0.015l-0.046,0.009l-0.055,0.004l-0.024,0.01l-0.028,0.019l-0.014,0.023l-0.012,0.013l-0.01,0.009  l-0.042,0.024l-0.048,0.015l-0.066,0.007l-0.058,0.004l-0.053-0.01l-0.004-0.001l-0.024-0.004l-0.016-0.001l-0.055,0.014  l-0.032,0.002l-0.037,0l-0.016,0.002l-0.048,0.007l-0.028,0.008l-0.027,0.008l-0.05,0.029L55.9,31.64l-0.015,0l-0.012-0.001  l-0.021-0.008l-0.026-0.014l-0.012-0.002l-0.018,0.004l-0.025,0.009l-0.042,0.013l-0.012,0.003h-0.017l-0.014-0.005l-0.019-0.01  l-0.03-0.023l-0.032-0.02l-0.016-0.007l-0.013-0.002l-0.016,0.001l-0.019,0.004l-0.012,0.006l-0.022,0.011l-0.032,0.014l-0.03,0.011  l-0.038,0.008l-0.043,0.01l-0.016,0.007l-0.022,0.012l-0.001,0.013l-0.007,0.019l-0.013,0.025l-0.025,0.02l-0.028,0.009  l-0.046,0.013l-0.012,0.005l-0.04,0.018l-0.026,0.015l-0.055,0.05l-0.074,0.072l-0.044,0.046l-0.003,0.003l-0.025,0.027l-0.049,0.07  l-0.05,0.069l-0.036,0.05l-0.009,0.019l-0.003,0.032l-0.003,0.008l-0.022,0.031l-0.072,0.067l-0.033,0.026l-0.058,0.036  l-0.002,0.001l-0.017,0.011l-0.026,0.017l-0.004,0.003l-0.007,0.005l-0.049,0.035l-0.029,0.029l-0.027,0.03l-0.015,0.016  l-0.084,0.044l-0.067,0.039l-0.027,0.021l-0.012,0.018l-0.016,0.039L54.2,32.733l-0.01,0.044l-0.004,0.005l-0.029,0.016  l-0.014,0.014l-0.031,0.037l-0.025,0.024l-0.047,0.05l-0.054,0.063l-0.06,0.073l-0.062,0.073l-0.064,0.072l-0.074,0.072  l-0.088,0.074l-0.043,0.033l-0.07,0.046l-0.101,0.064l-0.053,0.037l-0.034,0.032l-0.025,0.06l-0.029,0.073l-0.023,0.053  l-0.011,0.013l-0.018,0.009l-0.035,0.013l-0.032,0.005l-0.028-0.003l-0.029-0.023l-0.046-0.038l-0.035-0.024l-0.021-0.006  l-0.04,0.002l-0.027,0.009l-0.085,0.037L52.8,33.76l-0.033,0.009l-0.002,0l-0.009,0.002l-0.038,0.004l-0.038-0.003l-0.028-0.01  l-0.05-0.022l-0.041-0.024l-0.038-0.032l-0.056-0.046l-0.025-0.015l-0.027-0.015l-0.028-0.008l-0.031-0.007l-0.066-0.008h-0.026  l-0.061-0.001l-0.03-0.003l-0.034-0.006l-0.04-0.011l-0.019-0.008l-0.059-0.029l-0.035-0.018l-0.078-0.047l-0.06-0.043l-0.018-0.017  l-0.049-0.042l-0.021-0.023l-0.053-0.061l-0.056-0.062l-0.062-0.061l-0.061-0.062l-0.042-0.046l-0.017-0.023l-0.026-0.034  l-0.019-0.032l-0.026-0.025l-0.012-0.005l-0.003,0.002l-0.004,0.002l-0.018,0.012l-0.029,0.033l-0.068,0.075l-0.067,0.075  L51.137,33.2l-0.062,0.074l-0.062,0.074l-0.027,0.036l-0.03,0.039l-0.019,0.025l-0.008,0.021l-0.003,0.026l-0.001,0.051l0.001,0.019  l-0.008,0.033l-0.012,0.029l-0.014,0.011l-0.019,0.006l-0.053-0.002l-0.023,0.002l-0.018,0.008l-0.023,0.021l-0.016,0.019  l-0.039,0.065l-0.039,0.065l-0.035,0.067l-0.024,0.038l-0.026,0.028l-0.031,0.024l-0.037,0.024l-0.021,0.012l-0.037,0.023  l-0.029,0.021l-0.022,0.023L50.375,34.1l-0.03,0.011l-0.03,0.008l-0.025,0.012l-0.015,0.011l-0.007,0.013l-0.013,0.034l-0.017,0.065  l-0.018,0.066l-0.008,0.041l-0.006,0.034l-0.013,0.048l-0.012,0.028l-0.029,0.066l-0.028,0.066l-0.002,0.02l0.002,0.046  l-0.004,0.021l-0.007,0.015l-0.023,0.026l-0.064,0.057l-0.009,0.009l-0.003,0.01l-0.003,0.054l0.006,0.065l-0.006,0.064l0.013,0.065  l0.015,0.034l0.018,0.028l0.034,0.035l0.021,0.025l0.007,0.017l0.015,0.047l0.021,0.064l0.015,0.037l-0.001,0.015l-0.009,0.019  l-0.017,0.016l-0.025,0.014l-0.009,0.004l-0.026,0.008l-0.013,0.001l-0.044-0.001l-0.021-0.002l-0.04-0.013l-0.044-0.019  l-0.065-0.023l-0.014-0.002l-0.02,0.001l-0.013,0.007l-0.044,0.035l-0.039,0.019l-0.025-0.004l-0.038,0l-0.031-0.003l-0.044-0.007  l-0.039-0.005l-0.05-0.01l-0.095,0l-0.046-0.005l-0.053-0.002l-0.053-0.003l-0.027,0.002l-0.021,0.011l-0.006,0.006l-0.004,0.003  l-0.001,0.001l-0.008,0.015l-0.004,0.03l-0.002,0.016l-0.007,0.017l-0.021,0.024l-0.025,0.017l-0.022,0.003l-0.027,0.002  l-0.028,0.005l-0.031,0.008l-0.02,0.011l-0.03,0.017l-0.015,0.012l-0.01,0.014l-0.027,0.043l-0.038,0.042l-0.31,0.417l-0.02-0.01  l-0.016-0.009l-0.014-0.004l-0.044-0.002l-0.027-0.001l-0.023-0.001l-0.012,0l-0.034-0.003l-0.03,0.002l-0.038,0l-0.055,0.003  l-0.025,0.001l-0.026-0.002l-0.034-0.014l-0.017-0.008l-0.015-0.012l-0.024-0.024l-0.019-0.023l-0.014-0.014l-0.013-0.011  l-0.021-0.015l-0.018-0.009l-0.02-0.006l-0.012-0.003l-0.014,0.001l-0.012,0.003l-0.029,0.009l-0.016,0.007l-0.011,0.004  l-0.013,0.003h-0.012l-0.015-0.002l-0.023-0.007l-0.019-0.007l-0.05-0.024l-0.036-0.023L47.73,35.89l-0.054-0.026l-0.03-0.013  l-0.067-0.03l-0.034-0.02l-0.036-0.028l-0.058-0.021l-0.061-0.021l-0.046-0.014l-0.03-0.008l-0.017-0.003l-0.01-0.001l-0.02,0.002  l-0.011,0l-0.007-0.004l-0.008-0.009l-0.012-0.013l-0.007-0.007l-0.008-0.004l-0.011-0.004l-0.019-0.005l-0.015-0.004l-0.016-0.011  l-0.012-0.009l-0.013-0.013l-0.017-0.011l-0.014-0.007l-0.036-0.001l-0.068-0.011l-0.02,0L46.942,35.6l-0.033,0.018l-0.028,0.022  l-0.027,0.034l-0.041,0.058l-0.054,0.057l-0.056,0.025l-0.086,0.035l-0.092,0.038l-0.094,0.035l-0.1,0.053l-0.041,0.018l-0.01,0.005  l-0.051,0.028l-0.051,0.031l-0.056,0.031l-0.051,0.022l-0.05,0.022l-0.054,0.024l-0.056,0.015l-0.059,0.014l-0.058,0.011  l-0.037,0.009l-0.02,0.009l-0.024,0.009l-0.02,0l-0.014-0.001l-0.026-0.002l-0.039,0.003l-0.017,0.002l-0.023,0.001l-0.013,0h-0.001  l-0.005,0l-0.02,0.001l-0.022,0.007l-0.038,0.013l-0.015,0.006l-0.053,0.025l-0.063,0.033l-0.063,0.033l-0.063,0.033l-0.057,0.035  l-0.057,0.036l-0.057,0.036l-0.056,0.035l-0.056,0.032l-0.025,0.024l-0.002,0.004l-0.002,0.005l0.005,0.027l0.014,0.047l0.013,0.047  l0.012,0.047l0.005,0.044l0.007,0.06l0.003,0.061l0.001,0.061l-0.002,0.061l-0.004,0.06l-0.004,0.059l-0.007,0.058l-0.008,0.058  l-0.011,0.061l-0.008,0.061l-0.007,0.061l-0.009,0.061l-0.012,0.061l-0.012,0.061l-0.012,0.061l-0.01,0.061l-0.009,0.061  l-0.011,0.061l-0.004,0.026l-0.005,0.036l-0.011,0.063l-0.011,0.06l-0.013,0.06l-0.012,0.06l-0.015,0.06l-0.014,0.06l-0.014,0.06  l-0.018,0.06l-0.015,0.045l-0.006,0.016l-0.02,0.06l-0.02,0.06l-0.017,0.061l-0.017,0.059l-0.021,0.06l-0.02,0.059l-0.026,0.059  l-0.017,0.037l-0.001,0.001l-0.01,0.021l-0.028,0.058l-0.021,0.046l-0.006,0.013l-0.028,0.059l-0.028,0.057l-0.022,0.058  l-0.025,0.059l-0.024,0.059l-0.022,0.058l-0.005,0.014l-0.016,0.044l-0.021,0.058l-0.022,0.058l-0.022,0.058l-0.021,0.059  l-0.024,0.07l-0.014,0.03l-0.078,0.162l-0.034,0.073l-0.007,0.014l-0.033,0.074l-0.026,0.072l-0.345,0.859l-0.186,0.464  l-0.027,0.063l-0.1,0.214l-0.033,0.071l-0.031,0.066l-0.088,0.195l-0.007,0.014l-0.041,0.087l-0.05,0.106l-0.048,0.12l-0.041,0.103  l-0.022,0.055l-0.001,0.003l-0.016,0.136l-0.281,0.186l-0.178,0.031l-0.013,0.002l-0.016,0.003l-0.128,0.023l-0.097,0.061  l-0.049,0.03l-0.002,0.002l-0.006,0.004l-0.434,0.271l-0.004,0.002l-0.118,0.044l-0.337,0.126l-0.396,0.147l-0.188,0.038l-0.001,0  l-0.158,0.032l-0.042,0.009l-0.054,0.011L40.38,43.82l-0.106,0.022l-0.052,0.011l-0.001,0l-0.008,0.002l-0.098,0.02l-0.701,0.085  l-0.116,0.014l-0.036,0.004l-0.516,0.127l-0.228,0.056l-0.229,0.056l-0.004,0.001l-0.138,0.034l-0.062,0.015l-0.298,0.073  l-0.047,0.012c0,0-0.136,0.019-0.137,0.02l-0.151,0.022l-0.677,0.097l-0.228-0.059l-0.002-0.001l-0.076-0.02l-0.001-0.001  l-0.241-0.164l-0.197-0.117l-0.151-0.09l-0.006-0.004l-0.162-0.097l-0.523,0.177l-0.467,0.261l-0.004,0.002l-0.097,0.054  c0,0-0.542,0.451-0.543,0.452l-0.069,0.031l-0.015,0.007l-0.076,0.034l-0.025,0.02l-0.166,0.136c0,0-0.001,0.001-0.001,0.001  l-0.004,0.003l-0.211,0.172l-0.196,0.153l-0.006,0.005l-0.019,0.015l-0.14,0.113l-0.159,0.137l-0.029,0.025l-0.003,0.003  l-0.106,0.091l-0.047,0.04l-0.044,0.061l-0.056,0.058l-0.016,0.016l-0.035,0.049l-0.106,0.205l-0.128-0.072l-0.184-0.118  l-0.029-0.03l-0.053-0.032l-0.039-0.006l0.17-0.005l-0.061-0.056l-0.016-0.014l-0.057-0.052l-0.197,0.051l-0.002-0.004l-0.004-0.007  l-0.071-0.141c0,0-0.016-0.021-0.016-0.022l-0.03-0.04l-0.051-0.084l-0.091-0.135l-0.377-0.568l-0.035-0.037l-0.018-0.014  l-0.007-0.007l-0.29-0.053l-0.002,0.003l-0.035,0.054l-0.016,0.031l0,0.007l0.033,0.038l-0.023,0.057l-0.032,0.042l-0.028,0.022  l-0.021,0.023l-0.01,0.041l-0.011,0.027l-0.041,0.033l-0.025-0.022l0.019-0.033l-0.003-0.022l-0.014-0.019l-0.008-0.029  l-0.002-0.037l0.013-0.046l0.014-0.019l0.029-0.075l0.054-0.097l-0.605,0.486l0.731,0.787l-0.072,0.015l-0.003,0.001l-0.097,0.021  l-0.013,0.003l-0.545-0.078l-0.48,0.158l-0.581,0.191l-0.071,0.023l-0.011,0.004l-0.001,0l-0.401-0.097l-0.635-0.151l-0.045,0.007  l-0.01,0.001l-0.002,0l-0.012,0.002l-0.091,0.061l-0.059,0.027l-0.054-0.01l-0.085-0.031l0.129-0.052l-0.062,0.005L27.75,46.18  l-0.036,0.007l-0.02,0.002l-0.021,0.006l-0.032,0.011l-0.086,0.047l-0.055,0.029l-0.118,0.063l0.033,0.021l-0.057,0.06l0.028,0.103  l-0.043,0.07l-0.194,0.111l-0.085,0.144c0,0-0.019,0.005-0.02,0.005l-0.002,0.001L26.894,46.9l-0.006,0.002l-0.115,0.013  l-0.08,0.064l-0.182,0.214l-0.04,0.054l-0.265,0.355l-0.394,0.391l-0.066,0.062l-0.143,0.134l-0.079,0.086l0.264,0.313l0.077,0.221  l0.286,0.547l0.071,0.105l0.002,0.002l0.094,0.139l0.001,0.002l0.033,0.049l-0.034,0.322l-0.004,0.33l0.021,0.069l0.008,0.028  l0.068,0.121l0.213,0.165l0.124,0.173l0.227,0.242l0.149,0.117l0.013,0.157l-0.067,0.078l-0.004,0.005l-0.061,0.071l-0.073,0.197  l-0.009,0.141l0.014,0.171l0.025,0.311l0.008,0.6l-0.429-0.153l-0.647-0.267l-0.181,0.336l0.004,0.05l0.003,0.063l0.374,0.387  l0.112,0.339l0.536,0.682l0.019,0.024l0.056,0.071l0.056,0.061l0.056,0.011l0.015,0.003l0.087-0.017l0.045-0.009l0,0.03l0.001,0.131  l-0.019,0.097l0.02,0.083l-0.159-0.036l-0.064-0.014l-0.163-0.024L26.5,54.8l-0.066,0.067l-0.213,0.034l-0.011,0.13l-0.045,0.152  l-0.012,0.111l-0.003,0.027l0.023,0.102l0.105,0.465l0.146,0.197l-0.136,0.094L26.2,56.055l-0.12,0.111l-0.056-0.071l-0.03-0.038  l-0.115,0.093l-0.076-0.101l-0.115,0.081l-0.346-0.46l-0.028-0.037l-0.007-0.009l-0.073-0.097l-0.3-0.36l0-0.03l-0.002-0.208  l0.1-0.231l0.01-0.891l-0.165-0.01l-0.043-0.036l-0.128-0.042l-0.171,0.039l-0.061,0.014l-0.122-0.042h-0.08l-0.11-0.063  l-0.108-0.021l-0.02,0.022l-0.002,0.002L23.861,53.8l-0.1,0.011l-0.132,0.01l-0.059,0.023l-0.081,0.069l-0.12,0.03l-0.135-0.05  l-0.045,0.029l-0.141-0.012l-0.037,0.025l-0.102,0.146l-0.263-0.035l-0.081,0.013l-0.204,0.04l-0.159,0.157l0.001,0.007l0.015,0.085  l-0.069,0.081l-0.073,0.073L22.06,54.58l0.027,0.336l-0.084,0.155l-0.01,0.077l-0.007,0.012l-0.018,0.032l-0.002,0.004l-0.038,0.067  l-0.23-0.06l-0.106-0.062l-0.485-0.065l-0.053,0.033h-0.122l-0.106,0.081l-0.009,0.017l-0.033,0.06l-0.102,0.069l-0.035,0.05  l-0.21,0.075l-0.266-0.038l-0.056-0.008l-0.029,0.012l-0.065,0.031l-0.001,0l-0.154,0.072l-0.049,0.123l-0.12-0.004l-0.098,0.003  l-0.081,0.003l-0.171-0.106l-0.104,0.033l-0.088-0.021l-0.062-0.015l-0.045-0.134l-0.184-0.1l-0.076-0.002l-0.087-0.04l-0.112-0.052  l-0.128,0.096l-0.096-0.215l-0.238-0.148l-0.013,0.005l-0.005,0.002l-0.104,0.041l-0.263,0.119l-0.053-0.031l-0.171-0.062  l-0.112,0.06l-0.122,0.03l-0.151,0.071l-0.169-0.063l-0.104-0.065l-0.088-0.09l-0.011-0.011l-0.002-0.002l-0.307,0.072l-0.069,0.075  l-0.145,0.042l-0.047,0.134l-0.145,0.09l-0.11-0.023l-0.092,0.012l-0.102,0.029h-0.067l-0.096-0.105l-0.045-0.021l-0.061,0.04  l-0.129,0.013l-0.226,0.075l-0.053,0.141l0.012,0.017l0.033,0.038l0.028,0.05l0.024,0.047l0.011,0.025l0.005,0.026l0.003,0.035  l-0.002,0.026l-0.016,0.076l-0.011,0.056l-0.004,0.044l-0.002,0.034l0.001,0.028l0.006,0.026l0.015,0.026l0.019,0.024l0.015,0.011  l0.001,0.001l0.008,0.006l0.02,0.012l0.024,0.009l0.019,0.008l0.075,0.029l0.039,0.017l0.026,0.016l0.019,0.019l0.018,0.033  l0.009,0.033l0.008,0.018l0.015,0.012l0.017,0.008l0.068,0.034l0.05,0.035l0.038,0.028l0.008,0.006l0.012,0.02l0.021,0.04  l0.015,0.025l0.023,0.041l0.01,0.017l0.017,0.026l0.024,0.021l0.016,0.017l0.003,0.005l-0.002,0.01L15.8,56.689l-0.002,0.021  l0.003,0.011l0.005,0.012l0.014,0.019l0.012,0.012l0.008,0.009l0.03,0.022l0.015,0.014l0.02,0.02l0.017,0.017l0.018,0.022  l0.022,0.029l0.009,0.012l0.026,0.028l0.015,0.02l0.013,0.016l0.015,0.024l0.004,0.014l0.007,0.017l0.009,0.023l0.011,0.029  l0.012,0.029l0.006,0.01l0.008,0.008l0.015,0.005l0.019,0.003l0.03,0.007l0.017,0.004l0.01,0.003l0.006,0.007l0.014,0.012  l0.007,0.009l0.01,0.015l0.007,0.014l0.005,0.009l0.008,0.019l0.006,0.016l0.003,0.015l0.003,0.016l0.006,0.035l0.004,0.022  l0.006,0.028l0.006,0.035l0.005,0.031l0.012,0.06l0.002,0.01l0.008,0.048l0.003,0.026l0.004,0.027l0.007,0.024l0.004,0.018  l-0.004,0.018l-0.002,0.015l-0.005,0.031l-0.003,0.012l-0.007,0.046l-0.003,0.016l-0.007,0.043l-0.004,0.013l-0.001,0.029  l-0.001,0.017l0.001,0.013l0.001,0.006l0.005,0.007l0.011,0.007l0.018,0.003l0.026-0.002l0.025-0.002l0.035-0.003l0.039,0.001  l0.024,0.002l0.036,0.002l0.019-0.003l0.023-0.004l0.026-0.004l0.007,0.001l0.024,0.004l0.019,0l0.014-0.007l0.016-0.011  l0.025-0.016l0.008-0.005l0.013-0.007l0.021-0.007l0.014-0.004l0.025,0l0.033,0.002l0.008,0h0.002l0.014,0.001l0.029,0.003  l0.018,0.004l0.015,0.004l0.01,0.004l0.004,0.007l0.001,0.014l0.002,0.016l0,0.035l-0.001,0.012l-0.001,0.016l0.002,0.028  l0.002,0.014l0.003,0.012l0.01,0.021l0.011,0.018l0.014,0.012l0.01,0.01l0.004,0.007l0.004,0.01v0.012l0,0.015l-0.003,0.032  l-0.002,0.031l-0.001,0.035l-0.002,0.014l0.001,0.015l0.003,0.023l0.004,0.015l0.007,0.018l0.015,0.024l0.012,0.018l0.023,0.024  l0.022,0.024l0.021,0.021l0.033,0.035l0.026,0.027l0.036,0.042l0.018,0.015l0.019,0.013l0.051,0.036l0.038,0.028l0.051,0.029  l0.039,0.026l0.028,0.01l0.028,0.009l0.038,0.007l0.028,0.003l0.025,0.003l0.026,0.001l0.012,0.004l0.011,0.01l0.017,0.02  l0.011,0.02l0.008,0.019l0.02,0.053l0.011,0.019l0.013,0.015l0.016,0.012l0.025,0.021l0.017,0.018l0.018,0.02l0.01,0.012  l0.014,0.016l0.022,0.024l0.033,0.036l0.02,0.017l0.026,0.017l0.043,0.034l0.028,0.024l0.027,0.022l0.046,0.042l0.035,0.028  l0.052,0.044l0.026,0.026l0.023,0.027l0.015,0.025l0.017,0.017l0.014,0.005l0.02,0.003l0.028,0.002l0.033,0.005l0.025,0.006  l0.04-0.002l0.042-0.002l0.031,0.003l0.028,0.002l0.019-0.001l0.017-0.002h0.014l0.022,0.002l0.027,0.005l0.014,0.004l0.028,0.008  l0.027,0.009l0.027,0.009l0.045,0.016l0.059,0.019l0.048,0.01l0.031,0.005l0.032,0.003l0.041,0.002l0.017,0.001l0.009,0.003  l0.012,0.009l0.023,0.017l0.028,0.016l0.012,0.008l0.01,0.008l0.014,0.011l0.011,0.011l0.016,0.016l0.023,0.021l0.015,0.008  l0.02,0.008l0.015,0.001l0.019,0.002l0.016,0.002l0.014,0.003l0.021,0.002l0.009,0l0.061,0.005l0.051,0.01l0.045,0.02l0.037,0.024  l0.01,0.009l0.005,0.006l0.005,0.007l0.002,0.003l0.016,0.02l0.029,0.025l0.025,0.014l0.03,0.008h0.038l0.034,0.003l0.029,0.013  l0.043,0.02l0.018,0.004l0.022,0.003l0.013,0.01l0.004,0.019l0.004,0.039l-0.003,0.026l0.004,0.012l0.031,0.048l0.022,0.027  l0.03,0.024l0.027,0.014l0.025,0.004l0.04-0.007l0.078-0.006l0.052-0.003l0.075-0.006l0.056,0l0.043-0.002l0.04-0.004l0.028-0.01  l0.017-0.015l0.017-0.016l0.023-0.036l0.036-0.039l0.044-0.035l0.037-0.027l0.038-0.024l0.086-0.011l0.031-0.011l0.014,0.002  l0.028,0.021l0.055,0.049l0.044,0.052l0.025,0.032l0.012,0.035l0.006,0.026l0.004,0.028L20.747,60.1l0.007,0.119l0.011,0.026  l0.021,0.038L20.79,60.3l0.063,0.153l0.001,0.003l0.081,0.196l0.017,0.039l0.02,0.029l0.05,0.062l0.022,0.043l0.013,0.042  l0.003,0.035l0.005,0.061l-0.002,0.063l-0.008,0.048l-0.001,0.032l0.004,0.034l0.012,0.047l0,0.019l-0.006,0.016l-0.016,0.021  l-0.002,0.007l0.002,0.01l0.025,0.021l0.012,0.015l0.002,0.021l-0.009,0.019l-0.017,0.019l-0.011,0.015l-0.002,0.015l-0.001,0.017  l-0.011,0.019l-0.011,0.021l0.001,0.011l0.016,0.031l0.014,0.015l0.015,0.008l0.027,0.005l0.032,0.01l0.006,0.007l0.004,0.011  l-0.001,0.025l-0.002,0.02l-0.002,0.039l0.004,0.026l0.014,0.032l0.025,0.035l0.027,0.035l0.013,0.027l0.017,0.058l0.007,0.026  l0.009,0.044l0.01,0.021l0.014,0.019l0.017,0.014l0.019,0.011l0.026,0.019l0.012,0.018l0.009,0.026l0.002,0.01l0.003,0.015  l0.032,0.01l0.049,0.008l0.032-0.001l0.02-0.004l0.095-0.021l0.019-0.002l0.016,0.001l0.023,0.009l0.022,0.008l0.121,0.053  l0.028,0.018l0.016,0.014l0.065,0.065l0.04,0.045l0.032,0.035l0.018,0.027l0.016,0.033l0.006,0.031l-0.002,0.037l-0.005,0.061  l0,0.025l-0.001,0.03l0.002,0.024l0.012,0.034l0.011,0.029l0.027,0.086l0.004,0.025l0,0.001l0,0.002l0.004,0.024l-0.002,0.066  l-0.005,0.074l-0.008,0.053l-0.005,0.036l-0.008,0.023l-0.026,0.052l-0.024,0.053l-0.033,0.092l-0.024,0.063l-0.012,0.032  l-0.002,0.007l-0.004,0.012l-0.027,0.045L21.81,63.49l-0.1,0.124l-0.07,0.065l-0.185,0.171c0,0-0.004,0.004-0.005,0.005  l-0.018,0.017l-0.067,0.064l-0.188,0.207l-0.142,0.096l-0.037,0.011l-0.002,0l-0.061,0.017l-0.001,0l-0.006,0h-0.003l-0.008,0  l-0.025,0.001l-0.012-0.002l-0.012-0.002l-0.098-0.022l-0.093-0.046L20.6,64.153l-0.054-0.03l-0.041-0.008l-0.091,0.004  l-0.091,0.004l-0.016,0.001l-0.097,0.006l-0.121,0.012l-0.146,0.002l-0.011,0.001l-0.069,0.006l-0.08,0.006l-0.121,0.006  l-0.124,0.008l-0.121,0.038l-0.041,0.126l-0.017,0.054l-0.007,0.023l-0.001,0.002l-0.037,0.113L19.29,64.61l-0.005,0.016  l-0.018,0.055l0.023,0.3l0.281,0.232l-0.033,0.13l0.186,0.166l0.314,0.28l0.568,0.507l0.104-0.034l0.042,0.204l-0.105,0.171  l-0.576-0.491l-0.45,0.442l-0.018,0.018l-2.522-0.065l0.411,0.551l-0.017,0.287l1.975,0.128l0.971,0.063l0.012,0.446l0.021,0.75  l-1.236,0.431l0.032,0.104l0.169,0.548l0.101-0.021l-0.031,0.15l-0.062,0.075l-0.01,0.058l0.062,0.056l-0.016,0.095l-0.026,0.156  l-0.024,0.101l-0.062,0.104l-0.1,0.059l-0.177,0.042l-0.031-0.02l-0.208-0.01l-0.062,0.043l-0.09,0.025l-0.066,0.018l-0.287-0.007  l-0.137,0.011l-0.117,0.032l-0.002,0l-0.043,0.012l-0.193-0.019l-0.13,0.026l-0.137,0.07l-0.13,0.067l-0.039,0.059l-0.086,0.033  l-0.083-0.129l-0.098,0.015l-0.047-0.033l-0.071-0.015l-0.047,0.044l0.012,0.115l0.027,0.044l0.094,0.015l0.008,0.083l0.008,0.084  l-0.13-0.026l0.039,0.196l0.039,0.018l-0.083,0.081l-0.043,0.011l-0.098-0.03l-0.071,0.004l-0.114,0.059l-0.13,0.004l-0.271,0.055  l-0.142,0.056l-0.232,0.111h-0.067l-0.027,0.022l-0.008,0.147l0.02,0.052l0.055,0.037l0.035,0.059l-0.023,0.133l-0.035,0.122  l0.012,0.104l0.079,0.17l0.291,0.186l0.295-0.008l0.306-0.026l0.126,0.008l0.145,0.092l0.01,0.027l0.034,0.095l-0.02,0.081  l0.023,0.118l0.11,0.174l0.079,0.078l0.204,0.056l0.263,0.214l0.169,0.224l0.059,0.329l0.012,0.233l-0.083,0.311l-0.086,0.166  l-0.012,0.01l-0.02,0.016l-0.024,0.011l-0.085-0.013l-0.001-0.07l-0.023-0.001l-0.003,0.072l-0.067-0.008l-0.102-0.043l-0.105-0.019  l-0.051,0.035l-0.017,0.053l0.099,0.147l0.023,0.168l0.102,0.149l0.057,0.043l0.235,0.013l0.167-0.032l0.012,0.096h0.031  l-0.003-0.104l0.082-0.011l0.147,0.075l0.098,0.129l0.007,0.01l0.004,0.021l0.015,0.084l0.013,0.076l0.003,0.015l-0.071,0.388  l-0.185,0.174h-0.256l-0.327-0.081l-0.313-0.027l-0.356,0.174l0.156,0.348l0.071,0.174l0.655-0.187l0.028,0.321l0.057,0.147  l0.427,0.013l0.185,0.107l0.37-0.013l0.171,0.147l0.057,0.094l0.369,0.04l0.286,0.134l0.213,0.228l-0.142,0.482l-0.697,0.174  l-0.071,0.121l0.569,0.295l0.028,0.214l-0.157,0.134l-0.413,0.04l-0.157-0.027l-0.014,0.549l0.498,0.08l0.043,0.321l0.071,0.161  l-0.128,0.081l-0.029,0.482l0.313,0.027l0.612-0.121l0.228,0.027l-0.057,0.308l-0.171,0.174l-0.128,0.375l0.057,0.174l0.356-0.067  l0.071-0.228l0.341-0.362l0.199-0.013l0.1-0.107l-0.014-0.254l0.27-0.147l0.228-0.174l0.171,0.067l0.114-0.027l0.043-0.161  l-0.356-0.482l0.157-0.522l0.171-0.228l0.042-0.268l-0.138-0.211l-0.629-0.739l-0.025-0.029l-0.023-0.549l0.432-0.254l0.214-0.76  l0.051-0.083l0.21-0.342l0.164-0.533l-0.017-0.04l-0.001-0.002l-0.049-0.113l0.015-0.141l0.12-0.141l0.129-0.098l0.065-0.05  l0.524-0.197l0.022-0.106l-0.082-0.148l0.037-0.338l0.007-0.183l0.135-0.106l0.09-0.398l-0.015-0.169l-0.12-0.085l-0.007-0.042  l0.052-0.042l0.015-0.24l-0.075-0.817l-0.006-0.058l-0.017-0.16l-0.232-0.402l-0.278-0.321l0.007-0.12l-0.082-0.141l-0.007-0.035  l-0.045-0.211l0.247-0.247l0.322-0.169l0.397-0.098h0.172l0.352-0.141l0.09,0.014l0.105-0.021l0.072-0.068l0.033-0.031l-0.187-0.19  l-0.157-0.127l-0.052-0.148l-0.112-0.106l-0.007-0.141l-0.037-0.035l-0.032-0.003l-0.131-0.012l-0.076-0.007l-0.404,0.049  l-0.127,0.063l-0.217-0.049l-0.112,0.028l-0.254-0.099l-0.082-0.006l-0.3-0.022l-0.142-0.246l0.015-0.113l-0.109-0.247l-0.071-0.162  l-0.397-0.091l-0.01,0.023l0.01,0.052l-0.076,0.114l0.024,0.042l-0.01,0.186l0.042,0.134l0,0.005l-0.003,0.063l-0.049,0.233  l-0.003,0.081l-0.031,0.196l0.042,0.091l-0.125,0.116l-0.106,0.099l-0.118,0.01L20.9,69.839l-0.038-0.033l0.052-0.078l-0.021-0.013  l0.069-0.184l0.012-0.556l0.01-1.384l1.558-0.039l0.002,0l0.432-0.012h0.002l0.482-0.01l0.61-0.016h0.001l1.217-0.03h0.004  l0.293-0.007l0.535-0.013l0.125,0.048l0.326,0.122l-0.008,0.838l-0.025,0.269l0.008,0.293l-0.034,0.126l-0.145,0.018h-1.431  l-0.283-0.233h-0.159l-0.159,0.25l0.212,0.216l1.82,1.048l0.152,0.027l1.049,0.189l0.159-0.332l0.225-0.225l0.234-2.471l0.191-0.608  l0.12-0.38l0.185-0.59l0-0.002l0.081-0.256l0.186-0.593l0.434-1.579l0.168-0.612l0.002-0.006l0.064-0.233l0.037-0.134l0.002-0.008  l0.001-0.003l0.172-0.627l0.166-0.596l-0.037-0.13l0-0.032l0.294,0.081l-0.027,0.109l0.042,0.013l0.032-0.113l0.328,0.087  l-0.118,0.385l-0.139,0.156l-0.195,0.159l-0.066,0.101l-0.097,0.174l-0.002,0.005l-0.001,0.003l-0.039,0.125l-0.018,0.106  l0.026,0.214l0.059,0.181l-0.014,0.164l-0.038,0.263l-0.099,0.688l-0.038,0.264L29.79,64.72l-0.074,0.355l-0.069,0.329v0.077  l-0.051,0.154l-0.066,0.194l-0.076,0.225l-0.001,0.003l0,0.002l-0.032,0.093l-0.084,0.249l-0.001,0.003l0,0.022l0.006,0.374  l0.005,0.368l0,0.005l0.007,0.445l0.573-0.023l0.463-0.018l0.105-0.004l0.006,0l0.11-0.005l0.459-0.018l0.434-0.017l0.178-0.007  l0.001-0.398l0.001-0.335l0.491-0.16l0.427-0.14l0.005-0.002l0.292-0.095l2.428,1.278l1.713-0.018l0.018,0.07l0,0.001l0.227,0.872  l0.032,0.302l0.031,0.094l0.1,0.399l0.002,0.008l0.223,0.885l0.001,0.006l0.001,0.002l0.052,0.208l0.141,0.564l0.002,0.008  l0.001,0.003l0.073,0.292l-0.161,0.222l0.031,0.105l0.255,0.421l0.099,0.28l0.123,0.099l0.262-0.01l0.132-0.005l0.174,0.097  l0.147,0.041l0.019,0.039l0.008,0.621l-0.141,0.353l-0.093,0.138l-0.005,0.108l0.054,0.23l0.033,0.061l0.03,0.011l0.015,0.005  l0.041,0.014l0.022,0.057l0.054,0.046l0.013-0.003l0.025,0.302l0.081,0.1l0.052,0.013l0.017,0.088l0.065,0.002l0.112-0.106  l0.028-0.133l-0.01-0.056l0.002-0.169l0.023-0.097l0.026-0.05l0.04-0.048l0.052-0.036l0.043-0.018l0.043,0l0.031,0.009l0.086-0.003  l0.043-0.034l0.038-0.036l0.031-0.025l0.024-0.007l0.096,0.038l0.041,0.018l0.036-0.034l-0.103-0.096L39.964,73.9l-0.01-0.052  l0.007-0.054l0.088-0.099l0.078-0.084l0.038-0.054l-0.774,0.053L39.3,73.582l0.005-0.006l0.49-0.015l0.397-0.425l0.005-0.067  l-0.245-0.128L39.8,72.875l-0.065-0.036l-0.065-0.123l-0.007-0.071l0.049-0.161l0.012-0.039l0.062-0.05l0.065-0.052l0.233-0.093  l0.109,0.11l0.019-0.011l-0.124-0.128l0.118-0.043l0.066,0.04l0.044,0.026l0.055,0.012L40.4,72.25l0.023-0.006l0.113-0.029  l0.056,0.136l0.006,0l0.081,0.001l0.138,0.007l0.339,0.016l0.302-0.009l-0.066-0.258l0.066-0.098l0.019-0.12l0.066-0.138  l-0.028-0.049l-0.364-0.182l-0.279,0.009l-0.298,0.004l-0.128-0.044l-0.052,0.036l-0.047-0.013l-0.043,0.009L40.3,71.521  l-0.056-0.016l-0.156-0.164l0.001-0.038l0.003-0.098h0.071h0.004l0.014-0.102l-0.062-0.012l0.016-0.104l0.106,0.001l0.167,0.002  l0.075,0.001l0.005,0.098c0,0,0.052,0.041,0.052,0.041l0.02,0.015l0.013,0.01l0.118,0.04l0.076-0.027l0.004-0.186l0.022-0.053  l0.12-0.054l0.23-0.104l0.609-0.299l0.056,0.03l0.084,0.046l-0.019,0.024l0.015,0.035l0.099,0.032l0.075,0.04l0.103,0.026  l0.091,0.028l0.327,0.768l0.015,0.026l-0.06,0.057l0.01,0.063l0.027,0.095l-0.023,0.051l-0.027,0.011l-0.016,0.106l0.05,0.098  l0.019,0.127l0.046,0.025l0.166-0.007l0.12,0.036l0.077-0.051l0.097,0.117l0.07,0.022l0.085-0.022l0.145-0.02l0.106-0.018  l0.033-0.007l0.264-0.056l0.104,0.148l0.056-0.013l0.157-0.046l-0.25-0.743l-0.012-0.03l-0.082-0.202l-0.241-0.596l-0.131-0.325  l-0.16-0.509l-0.003-0.522l-0.002-0.305l-0.016-0.118v-0.299l-0.136-0.005l-0.037-0.127v-0.074h-0.052l-0.01-0.176l0.13-0.094  l0.047-0.03l0.005-0.181l-0.002-0.004l0-0.001l-0.27-0.525l-0.07-0.169l0.042-0.592l0.564,0.123l0.029,0.073l0.089,0.274  l0.026,0.078l0.055,0.003l0.01-0.039l0.148-0.039l0.254,0.054l0.032-0.13l-0.28-0.073l-0.071-0.197l-0.02-0.054l0.283-0.082  l-0.039-0.121l0.048-0.03l0.177,0.043l0.016-0.034l-0.061-0.197l0.196-0.021l0.074,0.154l0.129,0.1l0,0.002l-0.107,0.338  l-0.05,0.157l0.08,0.449l0.006,0.039l0.003,0.016l0.027,0.181l0.017,0.118l0.02,0.138l0.025,0.175l0.075,0.493l0.003,0.004  l0.052,0.076l0.093,0.14l0.074,0.101l0.09,0.136l0.009,0.014l0.148,0.215l0.082,0.118l0.22,0.07l0.144,0.096l-0.025,0.125  l-0.031,0.157l-0.219,0.027l-0.027,0.003l-0.055,0.007l-0.134,0.017l-0.006,0.066l0.033,0.266l0.032,0.015l0.014,0.03l-0.002,0.094  l0.115,0.529l0.026,0.153l0.129,0.476l0.241-0.101l0.055,0.059l-0.372,0.189l-0.232,0.118l0.021,0.041l0.182-0.089l0.483-0.237  l0.027,0.011l0.033,0.021l0.103-0.004l0.106-0.046l0.072-0.078l0.051-0.146l0.001-0.053l-0.029-0.047l-0.082-0.023l0.01-0.11  l0.017-0.097l0.024-0.132l0.058-0.02l0.079-0.013l0.107-0.007l0.117-0.039l-0.003-0.026l0.01-0.077l0.004-0.009l0.037-0.088  l-0.027-0.078l0.058-0.045l0.062-0.032l0.127-0.084l0.162-0.11l0.048-0.087l0.083,0.01l0.076-0.01l0.031-0.062v-0.055l-0.055-0.039  l-0.11-0.003l-0.163-0.805l-0.001-0.006l-0.046-0.226L46.7,68.869l-0.045-0.043l-0.111-0.113l-0.056-0.057l-0.003-0.003  l-0.004-0.005c0,0-0.041-0.088-0.041-0.088l-0.027-0.039l-0.132-0.058l-0.064-0.052l-0.007-0.021l-0.076-0.235l-0.034-0.051  l-0.032-0.007l-0.017-0.029l-0.008-0.036l0.063-0.127l0.013-0.016l0.164-0.197l0.006-0.007l0.005-0.006l0.071-0.053l0.048-0.002  l0.004,0l0.021-0.005l0.034-0.038l0.053-0.031l0.122-0.023l0.079-0.002c0,0,0.011,0.01,0.011,0.011l0.016,0.015l0.021,0.032  l0.023,0.017l-0.019,0.05l0.026,0.034l0.044,0.043l0.031,0.01l0.045-0.01l0.026,0.021l0.019,0.034l-0.032,0.058l-0.027-0.012  l-0.021-0.005l-0.013,0.009l-0.011,0.018l-0.009,0.018l-0.006,0.028l0.002,0.027l0.017,0.027l0.026,0.01l0.028-0.007l0.033-0.012  l0.023-0.012l0.01-0.032l-0.007-0.037l-0.015-0.013l0.029-0.049l0.053,0.016l0.048-0.005l0.015,0.005l0.016-0.005l0.003-0.014  v-0.009l0.023-0.012l0.053,0.007l0.019-0.01l0.001-0.001l0-0.001l0.015-0.053l0.029-0.225l0.051-0.278l0.04-0.255l0.012-0.085  l0.012-0.057l0.023-0.111l0.01-0.048l0.024-0.121l0.011-0.083l0.007-0.005l0.007,0.001l0.011,0.002l0.04,0.004l0.007,0l0.006-0.002  l0.005-0.003l0.003-0.003l0.002-0.003l-0.002-0.006l-0.007-0.006l0-0.013l-0.073-0.01l0.002-0.008l0.003-0.014l0.004-0.017  l0.003-0.019l0.004-0.019l0.002-0.014l0.002-0.01l0.005-0.007l0.01-0.006l0.014-0.004l0.017,0l0.012-0.001l-0.003-0.036  l-0.002-0.018l-0.049,0.005l-0.047,0.005l-0.026-0.022l-0.017-0.158l-0.008-0.065l0.198-0.019l-0.012-0.118l-0.198,0.019  l-0.002-0.014l-0.023-0.219l0.196-0.019l-0.014-0.121l-0.196,0.019l-0.004-0.036v-0.001l-0.016-0.147l-0.011-0.106l-0.011,0  l-0.004-0.034l-0.007-0.064l-0.006-0.039l0-0.001l-0.003-0.023l-0.006-0.027l-0.007-0.031l0-0.005l0-0.006l0.004-0.023l0.003-0.018  l0.002-0.009l0.007-0.038l0.004-0.021l0-0.002l0.008-0.046l0.003-0.019l0.009-0.049l0.01-0.059l0.003-0.018l0.003-0.021l0.05-0.021  l0.005,0.01l0.015-0.007l0.009-0.004l-0.007-0.016l0.021-0.008l0.002,0.006l0.098-0.029l0.002,0.007l0.009-0.003l0.055-0.016  l-0.002-0.007l0.024-0.007l0.047-0.014l0.045-0.013l0.035-0.011l0.001,0l0.024,0.055l0.441-0.098l0.027-0.006l-0.004-0.027  l0.072-0.007l0.017-0.002l0.011-0.002l0.023-0.005l0.021-0.005l0.023-0.003l0.007-0.001l0.01-0.002c0,0,0.01-0.002,0.011-0.002  l0.015-0.002l0.02,0.002l0.043,0.012l0.042,0.015l0.041,0.015l0.014,0.001l0.023,0.001l0.02,0l0.01-0.001l0.011,0.034l0.002,0.005  l-0.015,0.001l-0.014,0.001l-0.011,0.001l-0.006,0.004l-0.053,0.008l-0.006,0.001l-0.001,0.007l0.005,0.004l0.007-0.001l0.036-0.005  l0.015-0.002l0.009-0.001l0.011-0.001l0.013-0.001l0.006,0l0.001,0.004l0.003,0.007l0.006,0.001l0.008-0.001l0.004-0.001  l0.077-0.022l0.047,0.135l0.044,0.133l-0.057,0.017l-0.027,0.008l0.021,0.067l0.052,0.157l0.023,0.071l0.061,0.024l0.036,0.014  l-0.041,0.081l0,0.001l-0.008-0.003l-0.07-0.027l-0.088-0.035l-0.016-0.007l-0.001,0l-0.033-0.013l-0.019-0.007  c0,0-0.043-0.017-0.043-0.017l-0.054-0.021c0,0-0.017-0.016-0.017-0.017l-0.002-0.002l-0.038-0.036l-0.01-0.011l-0.003-0.004  l0.011-0.013l-0.005-0.002l-0.011,0.011l-0.006-0.004l-0.005-0.005l-0.002-0.002l-0.009-0.009l-0.005-0.002l-0.011,0.001  l-0.013,0.001l-0.066,0.003l-0.007-0.026l0.023-0.009l-0.004-0.005l-0.005-0.002l-0.01-0.002l0.001-0.008l0.009-0.005l-0.002-0.009  l-0.006-0.002l-0.018,0.002l-0.012,0.001l0-0.006l0.011-0.002l-0.012-0.003l0.001-0.005l0.015-0.003l-0.012-0.003l0.001-0.005  l0.021-0.005l0.007-0.002l0.018-0.003l0.011-0.005l-0.002-0.007l-0.012-0.007l-0.006-0.014l-0.008-0.007l-0.033-0.023l-0.006,0.002  l-0.048,0.013l-0.04,0.011l-0.001,0l-0.06,0.016l-0.004,0.001l-0.05,0.014l-0.003,0.008l-0.004,0.004l-0.003,0.007l-0.002,0.005  l0,0.005l0.01,0.002l-0.001,0.004l-0.008,0.002l0.008,0.006l-0.002,0.005l-0.015,0.004l0.001,0.012l0.011,0.002l0.001,0.019  l-0.011,0.003l0.005,0l0.005,0.002l-0.003,0.004h-0.006h-0.005l-0.008,0.005l-0.055,0l0.001,0.007h0.005l0.048,0.001l0.005,0.006  l-0.001,0.005l-0.005,0l-0.006,0.002l-0.004,0.004l0.003,0.026h0.012l0.007,0.002l-0.006,0.003l-0.008,0.001l-0.004,0.003v0.004  l0,0.008l0.002,0.005l0.007,0.001h0.01l-0.001,0.006l-0.006,0.005L48.112,65.1l-0.003,0.007v0.007l-0.001,0.009l-0.002,0.005  l-0.002,0.005l-0.002,0.005l-0.001,0.008l0.005,0.007l0.005,0.006l-0.002,0.008l-0.002,0.008l0.002,0.007l-0.024,0.007l0.006,0.004  l0.019,0.001c0,0,0.016,0.027,0.017,0.027l0.002,0.004l0.012,0.019l0.007-0.002l0.066,0.086l0.001,0.005l-0.003,0.01l-0.001,0.01  l-0.008,0.008l0.007,0.011l0.013-0.005l0.019,0.021l-0.024,0.014l-0.051,0.031l0.007,0.008l0.037-0.019l0.022,0.031l0.022,0.03  l0.028-0.013l0.013,0.017l-0.044,0.029l0.01,0.009l0.046-0.028l0.027-0.012l0.014,0.033l-0.011,0.008l0.005,0.014l0.037,0.06  l0.03,0.01l0.005-0.001l0.022-0.007l0.002-0.001l0.01-0.003l0.098-0.031l0.002-0.001l0.008-0.002l0.023-0.054l0.012-0.003  l0.011,0.004c0,0,0.048,0.019,0.049,0.019l0.001,0l0.091,0.035l0.033,0.012l0.001,0l0.051,0.021l-0.033,0.078l-0.031,0.012  l-0.024,0.009l-0.008-0.001l-0.078-0.031l-0.093-0.036l-0.018,0.002l-0.029-0.009l-0.005-0.001l-0.005,0l-0.005,0.001l-0.065,0.019  l-0.002,0.006l0.003,0.018l-0.006,0.006l-0.024,0.01l-0.011,0.005l-0.008,0.007l-0.001,0.005l0.013,0.004l-0.005,0.015l-0.009,0.003  l-0.01,0l-0.009,0.002l-0.008,0.002l-0.004,0.002l-0.005,0.002l-0.007,0.001l-0.029,0.002l-0.039,0.002l-0.026,0.002l-0.004-0.001  l-0.007-0.002l-0.006,0.003l-0.002,0.006l0.002,0.007l0.006,0.004l0.011,0l0.042-0.002l-0.001,0.01l0.064-0.002l0.007,0.003  l0.008,0.004l0.007,0.003l0.007,0.004l0.007,0.004l0.008,0.005l0.007,0.004l0.007,0.004l0.007,0.004l0.007,0.004l0.007,0.004  l0.008,0.004l0.008,0.006l0.007,0.005l0.006,0.005l0.005,0.004l0.004,0.003l0.002,0.008l0.001,0.009l0.005,0.007l0.004,0.003  l0.005,0.002l0.005,0.003l0.006,0.004l0.004,0.004l0.002,0.004l0.002,0.005l0.002,0.006l0.001,0.009l0.002,0.006l0.004,0.007  l0.006,0.005l0.004,0.005l0.002,0.005l0.002,0.008l0.002,0.007l0.002,0.008l0,0.011c0,0,0,0.001,0,0.001l0,0.005l0,0.006  l-0.001,0.006l-0.005,0.014l-0.002,0.005l0.003,0.007L48.525,66l-0.006,0.002l-0.007,0.002l-0.005,0.001l-0.004,0.005l0.004,0.008  l0.008,0.025l0.005,0.002l0.004,0.004l0.002,0.004l0.002,0.006l0.002,0.007l0.002,0.007l0.002,0.006l0.002,0.008l0.002,0.01  l0.002,0.01v0.013l-0.031,0.008l0.016,0.051l0.004,0.02l0,0.006l0.001,0.008l0.002,0.005l0.002,0.005l-0.056,0.05h-0.008  l-0.06,0.052h-0.005l-0.009,0.006l-0.006,0.003l-0.005,0.003l-0.005,0.003l-0.004,0.005l-0.004,0.006l0,0.005l0.001,0.005  l0.002,0.005l0.003,0.004l0.003,0.004l0.004,0.005l0.005,0.003l0.005,0.002l0.008-0.002l0.004-0.003l0.005-0.005l0.005-0.005  l0.005-0.004l0.006-0.005l0.005-0.003l0.006-0.004l0.006-0.004l0.004-0.003l0.012-0.01l0.008-0.007l0.005-0.006l0.006-0.007  l0.007-0.007l0.006-0.006l0.005-0.004l0.005-0.002h0.008l0.009,0.001l0.009,0.002l0.011,0.002l0.049,0.008l0.008,0.003l0.007,0.004  l0.006,0.005l0.054,0.051l0.056,0.053l0.027,0.027l0.047,0.049l0.037,0.035l0.038,0.036l0.024,0.022l0.244,0.221l0.033,0.036  l-0.009,0.012l0.021,0.022l0.008-0.002l0.01-0.008l0.127,0.117l0.018,0.006l0.027,0.002l0.026-0.006l0.032-0.021l0.031-0.027  l0.039,0.015l0.09,0.062l0.045,0.049l0.033,0.032l0.05,0.042v0.011l0.037,0.021l0.031,0.018l0.037,0.024l0.019,0.022l0.022,0.027  l0.026,0.025l0.032,0.032l0.007,0.008l0.047,0.051l0.007,0.007l0.102,0.097l0.032,0.03l0.039,0.036l0.026,0.033l0.027,0.046  l0.004,0.008l0.007,0.007l0.018,0.022l0.016,0.001l0.016,0.022l0.04,0.04l0.026,0.022l0.027,0.029l0.012,0.008l0.007,0.024  l0.002,0.039l0.006,0.01l0.009-0.005l0.001-0.02l0.016-0.003l0.005,0.006l0.001,0.015l0.03,0.005l0.005-0.02l0.063,0.022l0.011,0.01  l-0.005,0.014l-0.002,0.011l0.004,0.022l0.008-0.003l0.017-0.012l0.013-0.02l0.05,0.027l0.041,0.031l0.019,0.021l0.071,0.111  l0.046,0.03l0.038,0.04l0.007-0.003l0.012-0.017l0.013,0.005l0.029,0.004l0.031,0.015l0.03,0.021l0.043,0.037l-0.023,0.028  l0.061,0.081l0.148,0.099l0.167,0.109l0.128,0.069l0.177,0.062l0.049,0.039l0.013,0.042l0.115,0.011l0.098-0.018l0.091-0.042  l0.079,0.016l0.064,0.025l0.041,0.023l0.008,0.005l0.097-0.007l0.161-0.019l0.046-0.024l0.091,0.021l0.056,0.021l0.086,0.051  l0.04,0.025l0.008,0.014l-0.008,0.019l0.033,0.025l0.013-0.004l0.02-0.004l0.013,0.012l0.003,0.013l0.007,0.017l0.013,0.013  l0.001,0.001l0.011,0.011l0.025,0.053l-0.015,0.058l0.001,0.012l0.006,0.02l-0.02,0.02l-0.005,0.018l0.005,0.014L52.9,69.202  l0.401,0.087l0.054,0.122l-0.298,0.127l0.004,0.271l0.059-0.027l0.02,0.041l0.032-0.009l0.041-0.002l0.083,0.048l-0.02,0.091  l0.012,0.032l0.077,0.015l0.053,0.024l0.055,0.054l0.002,0.058l0.026,0.041h0.045l0.036,0.039l0.039,0.048l-0.006,0.049l0.037,0.032  l0.014,0.072l0.02,0.022l0.116-0.033l0.061-0.005l0.049-0.043l0.067-0.046l0.081-0.13l0.045-0.058l0.039-0.011l0.03,0.006  l0.033-0.026l0.061-0.017l0.042-0.015l0.039,0.003l0.001,0l0.062,0.005l0.097,0.02l0.047,0.027l0.008,0.005l0.028,0.026  l-0.032,0.047l-0.002,0.015l0.035,0.021l0.037,0.004l0.023-0.007l0.005,0.006l0.039,0.046l-0.004,0.02l0.016,0.012l0.032,0.044  l0.047,0.085l0.052,0.065l0.048,0.054l-0.004,0.041l-0.001,0.096l0.014,0.01l0.001,0.051l0.02,0.011l0.021-0.002l0.018,0.006  l0.005,0.023l0.018,0.016l0.014,0.017l0.022,0.001l0.023-0.017l0.019-0.043l0.017-0.011l0.015,0.01l0.043,0.023l0.035,0.031  l0.019,0.046l0.002,0.066l-0.001,0.038l0.018,0.018l0.016,0.012v0.015l-0.015,0.011l-0.001,0.012l0.014,0.019l0.005,0.034  l-0.004,0.024l-0.008,0.01l-0.022-0.004l-0.028,0.02l-0.003,0.023l-0.006,0.041v0.056V71.3l0.014,0.017l0.005,0.012l-0.008,0.014  l-0.001,0.019l0.017,0.006l0.029,0.007l0.003,0.025l0.012,0.032l0.016,0.006l0.021-0.004l-0.006,0.014l-0.007,0.015l-0.014,0.005  v0.017l0.01,0.025l0.024,0.003l0.02,0.006l-0.021,0.017l-0.012,0.033v0.019l0.015,0.012l0.047,0.049l0.053,0.037l0.048,0.017  l0.037,0.001l0.043,0.002l0.048-0.014l0.02-0.003l0.01,0.014l0.023,0.021h0.029l0.015-0.01l0.032,0.001l0.007,0.006l-0.003,0.013  l0.014,0.01l0.033-0.001l0.022,0.007l0.004,0.011l0.007,0.004l0.016-0.006l0.033,0.033l-0.004,0.013l-0.004,0.016l-0.007,0.009  l0.003,0.007l0.035,0.008l0.002,0.007l0.04,0.003l0.028-0.009l0.022,0.007l0.008-0.007l0.028-0.009l0.008-0.012l0.002-0.014  l0.015-0.007l0.014,0.009l0.016,0.01l0.03,0.002l0.057-0.021l0.027-0.031l0.005-0.016l0.042-0.016l0.035-0.012l0.047,0.007  l0.018-0.011l0.004-0.023l-0.001-0.023l0.095-0.028l0.031-0.011l0.048,0.011l0.015-0.009l0.014-0.028l0.085-0.051l0.041-0.036  l0.078-0.079l-0.001-0.011l-0.022-0.003l-0.014-0.003l0.007-0.01l0.029-0.008l0.046-0.035l0.004-0.044l0.002-0.034l-0.017-0.047  l-0.045-0.042l-0.018,0.008l-0.01-0.023l0.006-0.051l0.016-0.04l0.059-0.089l0.01,0.001l0.014,0.001l0.017-0.004l0.021-0.007  l0.013-0.006l0.009-0.008l0.002-0.007v-0.013l-0.004-0.009l-0.015-0.012l-0.007-0.005l-0.003-0.005l0-0.009l0.006-0.021l0.006-0.016  l0.007-0.009l0.007-0.003l0.013-0.004l0.008,0l0.013,0.003l0.012,0.001l0.008-0.004l0.005-0.009l0.001-0.012l-0.002-0.011  l0.001-0.008l0.003-0.007l0.014-0.013l0.018-0.019l0.012-0.012l0.005-0.003h0.008l0.013-0.005l0.004-0.012l0.001-0.009l0.006-0.007  l0.008-0.015l-0.004-0.015l0.009-0.007l0.01-0.002l0.017,0.001l0.013-0.003l0.012-0.01l0.007-0.013l0.007-0.011l0.004-0.012l0-0.009  l0-0.006l0.004-0.002l0.007-0.003l0.008-0.008l0.002-0.01l-0.008-0.012l-0.015-0.003l-0.012,0.002l-0.011,0.004l-0.005,0l0.001-0.01  l-0.002-0.011l0.002-0.01l0.004-0.012l0.006-0.007l0.007-0.012l0.01-0.008l0.011-0.015l0.008-0.014l0.002-0.012l0-0.008  l-0.002-0.009l0.004-0.006l0.014-0.008l0.022-0.008l0.014-0.006l0.006-0.009l0-0.008l-0.001-0.009l-0.005-0.004l-0.011-0.005  l0.01-0.004l0.006-0.006l0.014-0.01l0.016,0.002l0.011-0.001l0.013-0.003l0.009-0.007l0.004-0.011l0.001-0.011l0-0.014l-0.004-0.01  l-0.004-0.009l-0.006-0.011l-0.001-0.005l0.002-0.007l0.002-0.01l-0.001-0.008l-0.002-0.01l0-0.007l0.004-0.007l0.012-0.012  l0.021-0.021l0.014-0.016l0.004-0.011l0.006-0.016l0.002-0.014l-0.002-0.011l-0.008-0.007l-0.011-0.003l-0.01-0.005l-0.01-0.005  l-0.012-0.002l0.001-0.008l-0.001-0.012l-0.006-0.011l-0.012-0.003l-0.011,0.001l-0.009,0.007l-0.002,0.007l-0.007-0.007  l-0.01-0.006l-0.01-0.001L57.1,70.123l-0.008,0.005l-0.01,0.002l-0.009-0.001l-0.012-0.002l-0.021-0.003l-0.02,0.001l-0.011-0.001  l-0.013-0.005l-0.012-0.006l-0.015-0.002l-0.009-0.004l-0.012-0.009l-0.017-0.006l-0.017-0.004l-0.013-0.002l-0.006,0l-0.005-0.007  l-0.004-0.008l-0.005-0.017l-0.006-0.01l-0.004-0.005l0.001-0.007l-0.002-0.012l-0.006-0.005l-0.014-0.003l-0.025,0.001  l-0.013,0.002l-0.011,0.004l-0.016,0.01l-0.008,0.003l0.003-0.008l-0.003-0.011l-0.011-0.005l-0.011-0.003l-0.011-0.002  l-0.012-0.001l-0.011,0.003l-0.009,0.005l-0.017,0.007l-0.006,0.003l-0.018-0.002l-0.007-0.002l-0.009-0.003l-0.012-0.001  l-0.012-0.002l-0.005-0.002l-0.001-0.004l0.007-0.007l0.001-0.009l-0.004-0.009l-0.012-0.004l-0.012,0l-0.016,0.002l-0.021,0.002  l-0.019,0.002l-0.027,0.006l-0.013,0h-0.014l-0.01-0.001l-0.009-0.003l-0.015-0.008l-0.008-0.005l-0.018-0.016l-0.011-0.013  l-0.013-0.012l-0.011-0.012l-0.012-0.012l-0.012-0.008l-0.013-0.006l-0.011-0.007l-0.011-0.003l-0.019-0.006l-0.015-0.003  l-0.012-0.004l-0.017-0.005l-0.015-0.007l-0.012-0.007l-0.01-0.007l-0.006-0.004l-0.004-0.007l-0.002-0.007l0-0.006l0.005-0.009  L56.24,69.8l-0.001-0.009l-0.008-0.007l-0.007-0.003l-0.012-0.001l-0.008,0.003l-0.005,0l-0.006-0.001l-0.006-0.003l-0.009-0.005  l-0.016-0.008l-0.01-0.006l-0.009-0.005l-0.002-0.005l-0.007-0.012l-0.015-0.011l-0.01-0.005l-0.013-0.005l-0.015-0.004  l-0.012-0.001l-0.003,0l-0.009,0.001h-0.001l-0.008,0.001l-0.007-0.001l-0.006-0.002l-0.007-0.006l-0.024-0.017l-0.012-0.008  l-0.013-0.012l-0.018-0.007l-0.005-0.006l-0.005-0.005l0.007-0.004l0.003-0.004l0.002-0.005l0.002-0.005l0.001-0.004l0.001-0.006  l-0.006-0.006l-0.009-0.002l-0.006,0.001l-0.004,0.002l-0.002,0.004l-0.005,0.006L55.93,69.63l0.003-0.003l0.003-0.007l-0.002-0.008  l-0.012,0.003l-0.006,0.002l-0.006-0.006l-0.003-0.003l-0.002-0.006l-0.012-0.017l-0.011-0.017l-0.003-0.005l-0.006-0.01  l-0.002-0.004l-0.001-0.006l-0.001-0.007l-0.004-0.004l0-0.01l-0.008-0.001l-0.005-0.003l-0.003-0.008l-0.003-0.005L55.844,69.5  l-0.004-0.006l-0.001-0.007l-0.001-0.005l-0.004-0.004l0.002-0.005l0.009-0.003l0.005-0.006l0.002-0.007l-0.004-0.004l-0.002-0.005  l-0.006-0.004l-0.008-0.002l-0.007,0.001l-0.004,0.002l-0.003-0.006l-0.002-0.005l-0.002-0.006l0.006-0.002l0.005-0.004l0.002-0.007  l-0.001-0.006l-0.005-0.003l-0.009-0.002l-0.005,0.001l-0.008,0.002l-0.006,0.002L55.79,69.41l-0.009-0.002l-0.008,0l-0.002-0.004  l0-0.007l0-0.006l-0.001-0.007l-0.001-0.007l-0.002-0.007l-0.005-0.005l-0.005-0.007l-0.004-0.011l-0.006-0.014l-0.004-0.009  l-0.004-0.007l-0.003-0.006l-0.01-0.016l-0.002-0.002l-0.002-0.003l-0.005-0.007l-0.003-0.006l-0.001-0.008l-0.003-0.004  l-0.002-0.005l0.003-0.006v-0.008l-0.006-0.007l0.002-0.005l0.003-0.003l0.003-0.007l0.006-0.004l0.004-0.003l0.002-0.004  l-0.002-0.006L55.73,69.2l0-0.005l-0.006-0.003l-0.015-0.003l-0.016-0.005l-0.006,0l-0.007-0.001l0.004-0.014l0.002-0.005  l0.002-0.007l-0.004-0.003l-0.002-0.006l0.002-0.007l-0.001-0.005l-0.008-0.004l-0.005-0.001l-0.008,0l-0.005-0.007l-0.002-0.006  l0.006,0l0.006-0.001l0.008-0.006v-0.008l-0.006-0.006l-0.004-0.003l-0.007-0.005l-0.005-0.004l-0.002-0.006l-0.002-0.006  l-0.003-0.004l-0.011-0.004l-0.005-0.004l-0.006-0.006l-0.004-0.006l0.008,0l0.008-0.001l0.006-0.001l0.007,0l0.008-0.001  l0.003-0.007l-0.003-0.007l-0.007-0.003l-0.006-0.006l-0.005-0.006l-0.007-0.005l-0.009-0.002l-0.001-0.006l-0.006-0.002  l-0.005-0.005l-0.004-0.006l-0.013-0.002l-0.008-0.003l-0.005,0.002l-0.008-0.001l-0.001-0.005l-0.01-0.022l0.001-0.02l0.001-0.02  l0.014-0.007l0.01-0.006l-0.004-0.007l-0.002-0.005l-0.003-0.005l-0.001-0.217l0-0.013l0.006-0.035l-0.106-0.299l-0.023-0.006  l-0.034,0.016v0.034l0.019,0.03l0.011,0.006l0.058,0.177l0.026,0.078l0.007,0.119l0.004,0.076l-0.034,0.006l-0.081-0.049  l-0.077-0.026l-0.037-0.016l-0.015-0.035l-0.051-0.043l-0.024-0.02l-0.017,0.01l-0.004,0.038l-0.037-0.013l-0.043-0.015l-0.045-0.04  l0.01-0.011l0.002-0.002l0.032-0.037l0.026-0.054l-0.051-0.153l-0.032,0.006l0.047,0.147l-0.039,0.064l-0.086-0.093l-0.017-0.004  l-0.037-0.026l-0.019-0.054l0.002-0.03l-0.008-0.038l0.079-0.04l0.08-0.04l0.6-0.339l0.146,0.188l0.097-0.029l0.503-0.218  l0.448-0.517l0.089-0.246l-0.1-0.272l-0.52,0.06l-0.261,0.11l-0.728,0.045l0.015,0.203l0.022,0.334l0.201,0.254l-0.087,0.047  l-0.325-0.495l-0.04-0.054l-0.001-0.001l0.007-0.003l-0.035-0.04L54.9,67.032l0.03-0.176L54.778,66.7l-0.067-0.068l-0.007-0.007  l-0.095-0.096l-0.055-0.09l-0.002-0.002l0.02-0.03l0.048-0.056l-0.029-0.043l0.108-0.094l-0.193-0.209l-0.012-0.052l-0.004-0.048  l0-0.024l-0.131-0.102l-0.153-0.186l0.006-0.007l-0.013-0.019l-0.014,0.01l-0.005-0.008l0.01-0.01l-0.016-0.02l-0.012,0.009  l-0.008-0.011l0.01-0.01l-0.013-0.016l-0.013,0.007l-0.129-0.156l-0.019-0.032l-0.085-0.104l-0.066-0.081l-0.003-0.004l-0.029-0.039  l-0.053-0.062l-0.074-0.09l-0.067-0.084l-0.005-0.006l-0.002-0.002l-0.025-0.032l-0.038-0.035l-0.067-0.058l-0.025,0.021  l-0.007-0.007l0.021-0.021l-0.003-0.007l-0.116-0.103l-0.054-0.048l-0.015-0.013l-0.051-0.046l-0.019-0.01l-0.026-0.013l-0.05-0.026  l-0.023-0.012l-0.007-0.003l-0.031-0.016l-0.039-0.021l-0.011-0.006l-0.022-0.011l-0.041-0.02l-0.017-0.009l-0.032-0.017  l-0.025-0.013l-0.009-0.004l-0.005-0.009l-0.004-0.005l-0.011-0.006l-0.058-0.028l-0.007-0.003l-0.007-0.003l-0.029-0.007  l-0.056-0.029l-0.106-0.054l-0.145-0.074l-0.062-0.029l-0.038-0.017l-0.093,0.153l-0.034-0.019l0.087-0.157l-0.098-0.052  l-0.024,0.032l-0.029-0.015l0.021-0.036l-0.287-0.157l-0.001,0l-0.007-0.005l-0.026-0.02L51.85,63.78l-0.002-0.001l-0.013-0.017  l-0.038-0.035l-0.042-0.025l-0.062,0.074l-0.058,0.026l-0.078,0.039l-0.005-0.008l-0.089,0.041l0.004,0.01l-0.057,0.025  l-0.049-0.119l0.032-0.012l0.006-0.042l-0.014,0l-0.005,0.032l-0.079,0.026l-0.09,0.034l-0.35,0.126l-0.046,0.017l-0.01,0.021  l0.014,0.033l0.027,0.066l0.02,0.048l0.033,0.081l0.037,0.087l0.047,0.115l-0.019,0.006l-0.006,0.005l-0.001,0.005l-0.016,0.009  l-0.007-0.007l-0.011,0.004l-0.027-0.065l-0.036-0.087l-0.006-0.004l-0.022,0.005l-0.005,0.002l-0.002,0.006l0,0.007l0.008,0.021  l0.014,0.035l0.03,0.073l0.034,0.082l0.035,0.087l-0.008,0.016l-0.01,0.004l-0.016-0.007l-0.021-0.051l-0.024-0.058l-0.022-0.055  l-0.034-0.08l-0.001-0.004l-0.022-0.049l-0.002-0.006l-0.004-0.003l-0.007-0.001l-0.066,0.024l-0.031-0.076l-0.018-0.044  l-0.01-0.023l-0.027-0.066l-0.029-0.072l-0.004-0.002l-0.005-0.002l-0.022,0.007l-0.003,0.006l0.038,0.1l-0.025,0.009l-0.005-0.001  l-0.058,0.02l-0.002,0.007l0.009,0.025l0.019,0.053l-0.036,0.011l-0.004,0.004l-0.001,0.005l-0.029,0.01l-0.009-0.021l-0.029-0.067  l-0.079,0.029l-0.016,0.094l0.06,0.141l0.014,0.007l0.135,0.106l-0.014,0.039l-0.011,0.027l-0.002-0.015l-0.036-0.002l-0.007,0.003  l-0.008,0.001l-0.008,0l-0.004-0.003l-0.003-0.004l-0.012-0.003l-0.017-0.003l0.002-0.01l-0.013-0.004l-0.005-0.001l-0.008-0.002  l-0.007-0.002l-0.006-0.002l-0.005-0.002l-0.006-0.002l-0.007-0.002l-0.008,0.002l-0.026,0.058l-0.005-0.001l-0.005,0.003  l0.03-0.078l-0.004-0.002l-0.018-0.011l-0.015-0.007l-0.01,0.02l-0.042-0.007l0.008-0.034l0.016-0.06l0.001-0.011l0-0.005  l-0.001-0.012l-0.023-0.003l-0.001,0.005l-0.025-0.005l0.001-0.005l-0.025-0.011l-0.004,0.002l-0.014,0.036l-0.017-0.005  l0.015-0.041l-0.007-0.002l-0.154-0.058l-0.013,0.034l0.014,0.004l-0.016,0.044l-0.027-0.032l-0.008,0.004l0.013,0.023l-0.025-0.006  l-0.002,0l-0.096-0.03l-0.201,0.076l-0.06,0.023l-0.036,0.013l-0.001,0l-0.042,0.015l-0.044,0.016l-0.089,0.032l-0.026,0.01  l-0.088,0.058l-0.003,0.002l-0.053,0.04l-0.083-0.157l-0.001-0.002l-0.098-0.196l-0.022-0.081l0.039-0.012l0.012-0.04l0.072,0.018  l0.042-0.071l0.017-0.095l-0.131-0.034l0.005-0.018l-0.009-0.004l-0.007-0.102l0-0.005l0.187,0.05l0.017-0.06l-0.037-0.01  l0.04-0.139l-0.2-0.05l-0.007-0.007l0.004-0.022l-0.024-0.002l-0.003-0.037l0.042,0.007l0.005-0.02l-0.048-0.012l-0.004-0.057  L49,63.533l-0.01-0.164l0-0.002l-0.002-0.031l0.032-0.073l0.2-0.011l-0.108,0.135l0.158,0.105l0.035-0.044l0.278,0.19l0.193-0.241  l-0.525-0.363l-0.007-0.005l-0.01-0.007l0.071-0.19l0.473,0.325l0.11-0.142l-0.515-0.355l0.073-0.144l0.038-0.066l0.037-0.065  l0.029-0.049l0.01-0.016l0.005-0.011l0.004-0.007l0.02,0.007l0.015-0.038l0.003-0.008l0.013-0.022l0.31-0.791l0.111,0.041  l0.552,0.375l0.14-0.171l-0.583-0.398l0.15-0.383l0.693,0.482l-0.003-0.271l-0.362-0.254l0.035-0.045l-0.126-0.085l-0.016,0.023  l-0.127-0.084l0.136-0.351l0.028-0.073l0.012-0.031l0.009-0.023l0.002-0.007l0.382-0.239l-0.041-0.047l0.024-0.06l0.058-0.006  l0.195-0.021h0.001l0.046,0.032l0.063,0.044l-0.002,0.377l-0.368,0.362l0.055,0.051l-0.024,0.038l0.463,0.33l0.235-0.293l0.528-0.67  l0.425-0.531l-0.035-0.264h-0.033l-0.013-0.097l0.133-0.013l0.123-0.012l0.006,0.048l0.004,0.033l0.022,0.193l0.008,0.057  l0.022,0.078l0.013,0.048l0.01,0.066l0.011,0.076l-0.008,0.004l-0.027,0.015l0,0.006l0.003,0.007l0.002,0.004l0.004,0.006  l0.003,0.003l0.007,0.002l0.006,0.003l0.004,0.007l0,0.005l-0.027,0.061l-0.033,0.073l-0.019,0.045l-0.022,0.049l-0.022,0.049  l-0.025,0.057l-0.02,0.045l-0.002,0.006L52.7,60.254l0.243,0.096l0.091,0.035l0.028,0.011l0.093,0.037l0.008,0.003l0.004-0.005  l0.095-0.124l0.072-0.097l0.006-0.007l0.02,0.007l0.032,0.011l0.081,0.027l0.062,0.021l0.081,0.027l0.144,0.051l-0.47,0.623  l0.213,0.141l0.046-0.054l0.122-0.163l0.138,0.091l0.046,0.131l0.032,0.088l-0.16,0.119l-0.034,0.013l-0.014,0.021l-0.062-0.008  l0.034-0.071l-0.042,0.011l0.003,0.013l-0.167,0.285l-0.026-0.01l-0.019,0.03l0.011,0.006l-0.051,0.061l-0.014-0.007l-0.035-0.018  l-0.155,0.252l0.009,0.073l0.03,0.016l-0.011,0.021l0.053,0.026l0.013-0.02l0.128,0.069l-0.013,0.024l-0.025,0.007l-0.33,0.537  l0.032,0.021l1.049,0.61l0.567-0.012l1.184-0.024l-0.041-0.562l0.61-0.116l0.136,0.042l0.13-0.007l0.149,1.329l0.232-0.023  l0.077-0.008l0.1-0.007l0.089-0.001l0.007-0.007l0.015-0.001v0.007l0.002,0.004l0.004,0.005l-0.002,0.006l-0.001,0.009l-0.001,0.01  l0.005,0.011l0.012,0.015l0.017,0.017l0.009,0.008l0.01,0.005l0.015-0.002l0.004-0.002l0.007,0.004l0.008,0.002l0.009,0.007  l0.011,0.006l0.008,0.01l0.015-0.001l0.014-0.007l0.009,0l-0.003,0.01l-0.002,0.012l-0.003,0.02l0,0.012l0.006,0.005l0.013,0.004  l0.015-0.003l0.019-0.001l0.012-0.002l0.013-0.003l0.021-0.007l0.01-0.004l0.011-0.004l0.011,0l0.013-0.007l0.02-0.012l0.018-0.01  l0.01-0.005l0.009-0.004L57.698,64l-0.001,0.006l0,0.01l0.002,0.012l0.006,0.01l0.011,0.006l0.011-0.002l0.006-0.004l0.001-0.006  l0.003-0.012l0.007-0.002l0.003,0.003l0.005,0.007l0.004,0.007l0.005,0.011l0.01,0.006l0.013,0.004l0.005-0.002l0.005-0.011  l0.001-0.015l-0.001-0.01l0.008,0.005l0.007,0.005l0.013,0.004l0.008,0.003l0.014,0.003l0.014,0.001l0.015-0.004l0.023-0.012  l0.007-0.007l0.012-0.006l0.005-0.001l0.001,0.004l-0.002,0.015l0.001,0.011l0.012,0.008l0.012-0.002l0.006-0.01l0.009-0.002  l0.008-0.006l0.01-0.002l0.014-0.001L58,64.024l0.014-0.002l0.012-0.003l0.01-0.014l0.004-0.01l0.001-0.013l-0.001-0.022  l-0.002-0.021l0.003,0.004l0.002,0.009l0.006,0.007l0.012,0.018l0.009,0.009l0.009,0.005l0.013,0.004l0.026-0.001l0.026-0.003  l0.012-0.003l0.012-0.004l0.013-0.005l0.009-0.004l0.009-0.006l0.017-0.019l0.013-0.014l0.015-0.017l0.015-0.019l0.018-0.028  l0.017-0.025l0.011-0.019l0.012-0.016l0.014-0.018l0.004-0.01l0.007-0.01l0.006-0.008l0.423-0.376l0.244,0.189l0.181-0.181  l0.147-0.124l0.003,0.003l0.05,0.008l-0.002,0.022l0.019,0.026l0.002,0.025l0.002,0.023l0.015,0.028l0.019,0.006l0.006,0.02  l0.021,0.056v0.036l0.017,0.022l0.038,0.008l0.021,0.039l0.025-0.002l0.025-0.014l0.029,0.022l0.007,0.022l-0.017,0.01l0.002,0.016  l0.019,0.006l0.049-0.008l0.023,0.004l-0.004,0.018l-0.023,0.012l0.007,0.016l0.04,0.022l0.078-0.006l0.082-0.01l0.032-0.022  l0.025,0.02l0.006,0.024l0.015,0.01l0.072,0.022l0.032,0.006l0.048,0.039l0.004,0.014l0.013,0.02l0.08,0.016l0.048-0.024l0.101-0.02  l0.078-0.002l0.082,0.01l0.07-0.016l0.021-0.036l0.017-0.016l0.025,0.02l0.093,0.068l0.009,0.012l0.025,0.035l0.023,0.016  l0.053-0.03l0.04-0.039l0.017-0.032l-0.019-0.02l-0.002-0.022l0.017-0.014v-0.022l-0.002-0.038l0.061-0.028l0.011-0.03l0.051-0.022  l0.004-0.026l-0.032-0.004l-0.044-0.006l-0.015-0.034l-0.042-0.032l-0.048-0.012l-0.032-0.048l0.006-0.034l0.036-0.053l0.017-0.054  l0.03-0.062l0.152-0.378l0.072-0.14l0.104-0.201l-0.004-0.219l0.075-0.064l0.057-0.057l0.011-0.097l-0.021-0.118l-0.053-0.183  l-0.036-0.339l-0.002-0.079l-0.029-0.71l-0.018-0.084l-0.154-0.191l-0.143-0.177l-0.301-0.646l-0.049-0.123l0.033-0.071l0.027-0.077  l0.011-0.044l-0.009-0.054l-0.049-0.002l-0.047-0.019l-0.007-0.142l-0.042-0.034l-0.062-0.228l-0.029-0.122l-0.011-0.045  l-0.027,0.019l-0.011-0.042l0.013-0.056l-0.016-0.061l-0.066-0.105l-0.273,0.339l-0.044,0.015l0.004,0.017l0.004,0.023l-0.153,0.198  l-0.072,0.022l-0.016-0.01l-0.185-0.117l0.029-0.039l0.012-0.017l0.097-0.131l0.087-0.118l-0.193-0.136l-0.037-0.022l-0.028-0.017  l-0.04-0.024l-0.066-0.035l-0.122-0.064l-0.223-0.103l0.437-0.082l0.474-0.105l0.175-0.065l0.173-0.128l0.167-0.196l0.615-0.739  l0.531-0.674l0.298-0.378l0.475-0.595l0.063-0.133l0.048-0.171l-0.007-0.181l-0.061-0.142l-0.09-0.148l-0.187-0.269l-0.08-0.116  l-0.001-0.002l0.083,0.006l0.077,0.007l0.027-0.007l0.314,0.285l0.002,0.038l-0.012,0.064l-0.002,0.017l0.02,0.018l0.12-0.009  l0.086,0.083l-0.036,0.04l-0.007,0.028l0.01,0.012l0.026,0.005l0.083-0.006l0.067,0.064l0.051,0.09l0,0.001l0.002,0.005l0.021,0.075  l0.057,0.12l0.122,0.099l0.049,0.012l0.078,0.02l0.437,0.13l0.052,0.002l0.028-0.014l0.019-0.01l0.026-0.029l0.011-0.03l0.011-0.029  v-0.026l0.05-0.218l0.014-0.048l0.001-0.004l0.011-0.036l0.06-0.051l0.027,0.008l0.015-0.008l0.003-0.021l0.217-0.067l0.015,0.015  l0.01-0.003l-0.003-0.017l0.257-0.089l0.018,0.028l-0.14,0.099l-0.005,0.032l-0.019-0.002l-0.031,0.005l-0.052,0.25l-0.041-0.003  l-0.003,0.041l-0.078,0.009l0.003,0.055l0.06,0.008l0.017,0.051l-0.027,0.109l-0.018,0.043l-0.032,0.014l-0.008,0.015l0.026,0.015  l0.009,0.044l-0.004,0.025l0.051,0.068l0.037,0.012l0.016-0.009l0.039-0.013l0.055-0.004l0.024,0.022l0.015,0.003l0.008-0.004  l0.035-0.035l0.01-0.003l0.008,0.02l0.014,0.012l0.065,0.003l0.053-0.02l-0.003-0.026l0.018-0.035l-0.002-0.011l0.022-0.036  l0.025-0.051l-0.008-0.012l-0.007-0.034l0.046-0.077l-0.014-0.014l-0.008-0.039l0.057-0.072l0.092-0.053l0.01-0.032v-0.035  l-0.001-0.05l-0.01-0.03l-0.011-0.011l0.014-0.104l0.003-0.004l0.001-0.001l0.015-0.021l0.108-0.074l0.177-0.091l0.227-0.086  l0.134-0.039l0.139-0.045l0.046-0.013l0.085-0.025l0.144-0.026l0.021-0.003l0.159-0.022l0.07-0.014l0.124-0.015l0.047-0.001  l0.147-0.003l0.251-0.035l0.172,0.038l0.033,0.005l0.001,0l0.016,0.002l-0.012,0.026l0.007,0.009l0.064,0.058l-0.008,0.014l0,0.009  l0.021,0.014l0.012-0.011l0.046,0.045l0.018,0l0.048-0.035l0.014,0.013l0.007-0.002l0.023,0.021l0.001,0.016l-0.003,0.014  l-0.011,0.002l-0.048-0.005l-0.007,0.002l-0.005,0.014l-0.031,0.007l-0.027-0.005l-0.012,0.004l0.001,0.015l0.012,0.026l0.111-0.021  l0.02,0.013l0.029-0.01l0.011,0.005l0.015,0.011l0.047,0.024l0.042,0.016l0.048,0.035l0.021,0.024l0.062,0.036l0.099,0.048  l0.066,0.018l0.071,0.029l0.03,0.007l0.031,0.014l0.018,0.017l0.034,0.01l0.029,0.005l0.008,0.014l0.012,0.008l0.008,0.021  l0.008,0.007l0.016,0.007l0.007,0.011l0.012,0.003l0.006,0.016l0.011,0.006l0.018,0.002l0.027-0.004l0.011-0.001l0.007,0.003  l0.008,0.015l0.002,0.005l0.101,0.007l0.022-0.014l0.065-0.011l0.072,0.017l0.045,0.012l0.08-0.001l0.022,0.014l0.075-0.01  l0.142-0.062l0.139-0.083l0.093-0.079l0.099-0.104l0.043-0.124l0.112-0.183l0.019-0.045l0.151-0.079l0.093-0.046l0.105-0.017  l0.094,0.001l0.158-0.027l0.102-0.03l0.017-0.025l0.03-0.014l0.046,0.084l-0.049,0.058v0.018l0.036,0.021l0.075-0.079l0.007-0.024  l0.082-0.102l0.051-0.008l0.054-0.022l0.061-0.069h0.015l0.007-0.007l-0.011-0.016l0.021-0.12l0.006-0.057l0.139-0.108l-0.042-0.05  l-0.074,0.05l-0.002-0.001l-0.033-0.02l-0.174-0.209l0.192-0.205l0.076,0.018l0.084,0.053l0.025,0.006l0.068,0.017l0.004,0.001  l0.033-0.326l0.047-0.09l0.029-0.098l0.02-0.062l0.006-0.14l0.059-0.078l-0.022-0.053l0.025-0.458l-0.048-0.238l-0.018-0.066  l-0.038-0.097l0.012-0.028l0.04-0.099l0.033-0.08l0.11-0.198l0.109-0.107l0.065-0.044l0.292-0.165l0.024-0.008l0.035-0.011  l0.088-0.018l0.074-0.012l0.085-0.002l0.01,0.063l0.053,0.186l0.1-0.012l0.088-0.077l0.102-0.058l0.036-0.021l0.033-0.064  l-0.027-0.117l0.067-0.118l0.056-0.018l0.15-0.02l0.016-0.008l0.107-0.053l0.07,0.01l0.016,0.025l-0.016,0.03l0.005,0.066  l0.118,0.086l0.091,0.045l0.064-0.01l0.086-0.328l0.045-0.182l0.008-0.035v-0.121l-0.07-0.03l-0.011-0.056l0.036-0.03l0.141-0.121  l0.161,0.066l0.268-0.04l0.054,0.222l0.037,0.04l0.075,0.096l0.059,0.045l0.129,0.02l0.118-0.086l0.096-0.01l0.038-0.04v-0.06  l0.091-0.045h0.08l0.123-0.111l0.064,0.005l0.038-0.091l-0.027-0.045l-0.054-0.02l-0.065-0.071l0.026-0.051l0.012-0.025l0.001-0.002  l0.03-0.059l0.011-0.131L74.383,49.3l-0.043-0.116l0.257-0.303l0.214-0.136l0.381-0.488l0.027-0.309l0.011-0.125l-0.01-0.317  l0.181-0.164l-0.043-0.068l-0.21-0.369l0.01-0.042l0-0.001l0.386-1.571l0.001-0.003l0.002-0.009l-0.363-0.749l-0.101-0.007H74.88  l-0.007-0.099l-0.001-0.013l-0.005-0.071l0-0.004l-0.002-0.031l0.284-0.152l0.099,0.149l0.195,0.023l0.104,0.047l0.341,0.102  l0.101-0.021l0.32-0.15l0.196-0.355l0.041-0.224l0.017-0.097l0.196-0.239l-0.037-0.13l-0.145-0.143l0.08-0.157l0.203-0.027  l0.08-0.13l0.232-0.089l0.012-0.037l0.001-0.002l0.023-0.07l-0.051-0.434l-0.051-0.171l-0.138-0.171l-0.022-0.143l0.051-0.089  l0.109-0.007l0.08,0.075l0.065-0.034l0.08-0.075l0.058-0.143l0.014-0.017l0.16-0.194l-0.039-0.14l-0.041-0.147l0.029-0.244  l0.487-0.219l0.202-0.328l-0.016-0.555l-0.07-0.327l-0.071-0.23l0.041-0.042l-0.005-0.08l-0.072-0.034l-0.027-0.08l0.013-0.114  l0.193-0.101V38.52l-0.013-0.034l-0.184-0.089l0.027-0.195l0.032-0.025V38.08l-0.095-0.097l-0.117,0.013l-0.058,0.072l0.013,0.08  l-0.022,0.042l-0.045-0.021l-0.076-0.068l-0.081-0.021h-0.108l-0.103,0.021l-0.09,0.093l-0.09,0.127l-0.041,0.025l-0.103-0.03  l-0.027-0.199l-0.122-0.114l-0.072,0.021l-0.068,0.051l0.009,0.068l-0.063,0.03l-0.09-0.025h-0.041l-0.094,0.072l-0.022,0.063  l-0.139,0.119l-0.058,0.047l-0.126-0.021l-0.13-0.102l-0.018-0.011l-0.017-0.01l-0.05,0.013l-0.049,0.047l-0.045,0.03l-0.126-0.072  l-0.135-0.148l-0.081-0.25l0.01-0.168v-0.002l0.001-0.013l0.003-0.05l0.051-0.1l0.001-0.003l0.042-0.083l0.123-0.162l0.002-0.001  l0.001,0l0.05-0.026l0.044-0.003h0.004l0.008,0h0.002l0.055,0.001l0.047,0.001l0.011,0l0.01,0.02l-0.013,0.038l-0.012,0.011  l0.005,0.016l0.042,0.059l0.01-0.008l0.022-0.054l0.036-0.023l0.024-0.015l0.022-0.005l0.054-0.04l0.066-0.007l0.022-0.002  l0.075,0.01l-0.008,0.08l0.04,0.006l0.012-0.08l0.019,0.002l0.027-0.005l0.076-0.053l0.053,0.002l0.013-0.01l0.168,0.073l0.01,0.034  l-0.022,0.021l-0.002,0.061l0.01,0.026l0.01,0.01l0.027-0.012l0.012-0.054l-0.003-0.048l0.045-0.011l0.027-0.042l-0.021-0.113  l-0.027-0.039l0.006-0.017l0.033-0.025l0.063-0.062l0.012-0.025l0.033-0.235l-0.075-0.14l-0.03-0.122l0.009-0.116l0.002-0.01  l0-0.002l0.019-0.084l0.081-0.122l0.029-0.027l0.079-0.074l0.045-0.028l0.096-0.025l0.033,0.006l-0.012,0.071l-0.018,0.071  l0.015,0.011l-0.036,0.104l0.036,0.011l0.06-0.158l0.102,0.023l0.127-0.01l0.153,0.021l0.072-0.021l0.095,0.051l0.036,0.11  l0.054-0.009l0.171-0.081l0.189-0.267l0.153-0.22l0.05-0.199l-0.031-0.042l-0.041-0.056v-0.165l0.011-0.081l0.03-0.216l0.05-0.079  l0.063-0.099l0.076-0.032l0.055-0.023l0.072,0.004l0.009,0.144l0.095-0.004V34.8l0.185-0.11l0.041-0.085l-0.013-0.089l-0.018-0.124  l-0.061-0.129l-0.088-0.093l-0.045-0.064l0.012-0.035l0.018-0.04l0.012-0.025l-0.002-0.026l-0.011-0.02l-0.02-0.012l-0.004-0.004  l0.008-0.026l-0.002-0.016l-0.015-0.022l-0.032-0.066l0.013-0.018l0.023-0.015l0.025-0.075l-0.025-0.046l-0.005,0.008l0.007,0.02  l-0.049,0.056l-0.017,0.012l-0.01-0.021l-0.021-0.023L78.697,33.7l-0.056-0.018l-0.021-0.049l0.012-0.026l0.015-0.025l0.019-0.021  l0.022-0.016l0.027-0.02l0.067-0.045l0.082-0.057l0.066-0.054l0.065-0.035l0.021-0.036l0.005-0.009l0.005-0.032l0.012-0.024  l0.017-0.023l0.007-0.006l0.008-0.006l0.007-0.005l0.03-0.019l0.028-0.028l-0.004-0.04l-0.017-0.028l-0.016-0.021l-0.011-0.026  l-0.007-0.013l-0.015-0.029l-0.002-0.022l0.03-0.042l0.001-0.027l0.012-0.018l0.014-0.03l0.036-0.045l0.011-0.029l0.001-0.003  l0.017-0.046l0.007-0.044l0-0.033l-0.005-0.015l-0.009-0.026l-0.013-0.012l-0.019-0.025l-0.024-0.02l-0.005-0.024l-0.008-0.036  l-0.003-0.034l0.005-0.044l0.006-0.007l0.034-0.009l0.037-0.024l0.058-0.03l-0.016-0.026l-0.006-0.011l0.007-0.003l0.026-0.002  l0.009-0.001l0.113-0.004l0.027-0.001l0.037-0.025l0.006-0.041l-0.006-0.047l-0.015-0.082l-0.031-0.029l-0.009-0.029l0.029-0.075  l0.036-0.069l0.033-0.069l-0.036-0.058l-0.046,0.001l-0.039,0.021l-0.032,0.076l-0.058,0.08l-0.061,0.075l-0.045,0.024l-0.055,0  l-0.006-0.01l0.032,0.006l0.015-0.036l0.005-0.011l-0.003-0.011l-0.011-0.039l-0.051-0.007l0-0.018v-0.013l-0.001-0.031v-0.001  l-0.002-0.051l-0.044-0.002l-0.039,0.007l-0.008,0.024l-0.003-0.029l-0.001-0.013l-0.005-0.103l-0.031-0.067l-0.011-0.084  l-0.004-0.063l0-0.005l0-0.024l0.001-0.03l0.005-0.014l0.008-0.021l0.001-0.002l0.002-0.005l0.025-0.028l0.022-0.04l0.032-0.046  l0.037-0.09l0.046-0.055l0.07-0.115l0.011-0.058l-0.046-0.052l-0.064,0.088l-0.043,0.079l-0.026,0.045l-0.026,0.037l-0.017,0.022  l-0.025,0.015l0.02-0.022l0.021-0.03l0.002-0.025l-0.024-0.035l-0.045-0.011l-0.035,0.037l-0.025,0.034l-0.01-0.007l-0.013-0.009  l-0.022-0.027L78.826,31.1L78.8,31.066l-0.014-0.039l-0.019-0.062l-0.009-0.031l-0.019-0.019l-0.013-0.021l-0.009-0.013  l-0.006-0.008l0.006-0.004l-0.002-0.006l-0.011-0.03L78.7,30.819l0.029-0.035l0.032-0.043l-0.048-0.023l-0.021,0.006l0.001-0.015  l0.018-0.035l0.037-0.039l0.001-0.001l0.029-0.033l0.019-0.016l0.017-0.007l0.056,0.038l0.041,0.025l0.032,0.01l0.028-0.021  l0.005-0.029l-0.015-0.022l-0.035-0.024l-0.012-0.009l-0.056-0.038L78.845,30.5l0.003-0.008l0.007-0.015l0.021-0.03l0.014-0.021  l0.005-0.005l0.021-0.024l0.008-0.026l0.014-0.013l0.043-0.072l0.09-0.143l0.051,0.023l0.051-0.157l0.091-0.759l0.305-0.632  l0.412-0.338l0.074-0.06l0.097,0.02l0.125-0.072l0.075-0.111l0.022-0.033l0.382-0.091l0.354-0.183l0.132-0.052l-0.063-0.111  l0.086-0.027l0.011-0.004l0.464-0.146l0.083-0.026l0.35,0.025l0.011,0.001l0.004,0.031l0.045,0.387l0.354,0.033l0.09,0.039  l-0.021,0.118l-0.007,0.209l0.035,0.026l0.014,0.124l-0.139-0.052l-0.07,0.033l0.049,0.078l0.125,0.052l0.056-0.007l0.076,0.15  l0.139,0.065l0.132-0.104l1.159,0.059l0.188-0.261l0.187-0.072l0.111-0.17l-0.035-0.059l-0.187-0.065l-0.091-0.065l0.091-0.321  l0.068-0.24l0.076-0.065v-0.078l-0.035-0.02l-0.007-0.085l0.042-0.098l0.075-0.082l0.099-0.108l0.09,0.033l0.04-0.041L84.926,26.841  z M40.764,74.673l-0.022,0.055l-0.034,0.015l-0.016-0.01l-0.034-0.017l0,0.017l-0.014,0.051l-0.03,0.044l-0.073,0.007l-0.051-0.051  l0-0.053l0.009-0.044l0.016-0.045l0.012-0.043l0.035-0.055l0.039-0.026l0.057-0.011l0.022-0.034l0.04-0.002l0.016,0.007l0.018,0.01  l-0.006,0.057l-0.018,0.025l0.02,0.047L40.764,74.673z M40.221,75.032l-0.023,0.035l0.002,0.048l-0.008,0.056l0.003,0.036  l0.006,0.051l0.005,0.068l-0.03,0.074l-0.072,0.025l-0.053-0.036l-0.031-0.038l-0.035-0.038l-0.028-0.038l-0.019-0.051l-0.014-0.035  l-0.024-0.032l-0.061-0.019l-0.045,0.078l-0.056,0.038l-0.082-0.018l-0.027-0.059l0.009-0.056l0.014-0.038l0.045-0.048l0.041,0.003  l0.045,0l0.02-0.084l0.028-0.038l0.015-0.036l-0.014-0.043l0.009-0.06l0.018-0.018l0.041-0.043l0.012-0.042l0.02-0.035l0.017-0.043  l0.019-0.051l0.046-0.049l0.057-0.032l0.06-0.019l0.071,0.018l0.046,0.024l0.034,0.046l0.034,0.04l0.027,0.061l0.005,0.046  l0.008,0.056l-0.014,0.048l-0.016,0.053l-0.021,0.053l-0.023,0.032l-0.016,0.046l-0.021,0.038L40.221,75.032z M41.308,73.638  l-0.05,0.015l-0.066-0.017l-0.05-0.053l-0.002-0.054l-0.001-0.057l0.021-0.052l0.035-0.048l0.043-0.041l0.058-0.002l0.027-0.002  l0.047,0.042l0.017,0.068l-0.015,0.043l-0.007,0.036l-0.006,0.039l-0.015,0.046L41.308,73.638z M40.335,72.663l0.021,0.011  l0.043,0.01l0.033,0.017l0.041,0.014l0.035,0.023l0.027,0.026l0.029,0.024l0.025,0.031l0.027,0.025l0.032,0.026l0.023,0.039  l0.019,0.044l-0.008,0.06l-0.026,0.041l-0.018,0.028l-0.024,0.014l-0.045,0.009l-0.052-0.011l-0.032-0.016l-0.032-0.008  l-0.029-0.021l-0.028-0.008l-0.018-0.007l-0.027-0.019l-0.025-0.023l-0.026-0.015l-0.017-0.008l-0.016-0.011l-0.029-0.03  l-0.023-0.023l-0.025-0.024l-0.034-0.025l-0.021-0.012l-0.058-0.057l-0.018-0.074l0.015-0.053l0.043-0.019l0.027,0.006l0.018,0.011  l0.026,0.008h0.012l0.015-0.012l0.022-0.018l0.055,0.019L40.335,72.663z M46.059,72.291l-0.002,0.036l0.026-0.003l0.014-0.02  l0.016-0.003l0.012,0.013l0.007,0.014l0.014,0.014l-0.006,0.043l-0.032,0.042l-0.054-0.012l-0.013-0.029l-0.035-0.006l-0.025,0.007  l-0.028-0.05l0.012-0.023l-0.029-0.001l-0.034-0.003l-0.046-0.014l-0.04-0.032l-0.006-0.044l0.017-0.039l0-0.025l-0.009-0.046  l0.009-0.046l-0.001-0.032l0.004-0.04l0.006-0.056l0.033-0.043l0.033-0.021l0.044,0.007l0.06,0.025l0.041,0.04l0.019,0.037  l0.025,0.046l0.008,0.04l0.006,0.04l0.012,0.046l0.002,0.043l-0.008,0.047l-0.025,0.036L46.059,72.291z M49.035,64.423l-0.175,0.072  l-0.086,0.026l0.044,0.133l0.046,0.134l0.078-0.022l0.014,0.042l0.023,0.073l0.013,0.04l0.009,0.026l0.006,0.003l0.037,0.014  l0.023,0.009l0.017-0.016l0.01-0.065l0.018-0.115l-0.085-0.001v-0.011l0.103,0.002l0.006-0.005l0.046-0.033l0.009-0.006  l-0.087-0.167L49.035,64.423z M40.764,74.673l-0.022,0.055l-0.034,0.015l-0.016-0.01l-0.034-0.017l0,0.017l-0.014,0.051l-0.03,0.044  l-0.073,0.007l-0.051-0.051l0-0.053l0.009-0.044l0.016-0.046l0.012-0.043l0.035-0.055l0.039-0.026l0.057-0.011l0.022-0.034  l0.04-0.002l0.016,0.007l0.018,0.01l-0.006,0.057l-0.018,0.025l0.021,0.047L40.764,74.673z M40.221,75.032l-0.023,0.035l0.002,0.049  l-0.008,0.056l0.003,0.036l0.006,0.051l0.005,0.068l-0.03,0.074l-0.072,0.025l-0.053-0.036l-0.031-0.038l-0.035-0.038l-0.028-0.038  l-0.019-0.051l-0.014-0.035l-0.024-0.032l-0.061-0.019l-0.045,0.078l-0.056,0.038l-0.082-0.018l-0.027-0.059l0.009-0.056  l0.013-0.038l0.045-0.048l0.041,0.003l0.045,0l0.02-0.084l0.028-0.038l0.015-0.036l-0.014-0.043l0.009-0.06l0.018-0.018l0.041-0.043  l0.012-0.042l0.02-0.035l0.017-0.043l0.019-0.051l0.046-0.049l0.057-0.032l0.06-0.019l0.071,0.018l0.046,0.024l0.034,0.046  l0.034,0.04l0.027,0.061l0.005,0.046l0.008,0.056l-0.014,0.048l-0.016,0.053l-0.021,0.053l-0.023,0.032l-0.016,0.046l-0.021,0.038  L40.221,75.032z M41.308,73.638l-0.05,0.015l0,0l-0.066-0.017l-0.05-0.053l-0.002-0.054l-0.001-0.057l0.021-0.052l0.035-0.048  l0.043-0.041l0.058-0.002l0.027-0.002h0l0.047,0.042l0.017,0.068l-0.015,0.043l-0.007,0.036l-0.006,0.039l-0.015,0.046  L41.308,73.638z M40.335,72.663l0.021,0.011l0.043,0.01l0.033,0.017l0.041,0.014l0.035,0.023l0.027,0.026l0.029,0.024l0.025,0.031  l0.027,0.025l0.032,0.026l0.023,0.039l0.019,0.044l-0.008,0.06l-0.026,0.041l-0.018,0.028l-0.024,0.014l-0.045,0.009l0,0  l-0.052-0.011l-0.032-0.016l-0.032-0.009l-0.029-0.021l-0.028-0.008l-0.018-0.007l-0.026-0.019l-0.025-0.023l-0.026-0.015  l-0.017-0.008l-0.016-0.011l-0.029-0.03l-0.023-0.023l-0.025-0.024l-0.034-0.025l-0.021-0.012l-0.058-0.057l-0.018-0.074  l0.014-0.053l0.043-0.019l0.027,0.006l0.018,0.011l0.026,0.008l0.012,0h0l0.015-0.012l0.022-0.018l0.055,0.019L40.335,72.663z   M46.059,72.291l-0.002,0.036l0.026-0.003l0.014-0.02l0.016-0.003l0.012,0.013l0.007,0.014l0.014,0.014l-0.006,0.043l-0.032,0.042  l-0.054-0.012l-0.013-0.029l-0.035-0.006l-0.025,0.007l-0.028-0.05l0.012-0.023l-0.029-0.001l-0.034-0.003l-0.046-0.014l-0.04-0.032  l-0.006-0.044l0.017-0.039l0-0.025l-0.009-0.046l0.009-0.046l-0.001-0.032l0.004-0.04l0.006-0.056l0.033-0.043l0.033-0.021  l0.044,0.007l0.06,0.025l0.041,0.04l0.019,0.037l0.025,0.046l0.008,0.04l0.006,0.04l0.012,0.046l0.002,0.043l-0.008,0.047  l-0.025,0.036L46.059,72.291z M62.153,54.229l0.155,0.228l0.07,0.111l0.046,0.13l0.013,0.175l-0.026,0.113l-0.039,0.091  l-0.037,0.062l-0.348,0.459l-0.408,0.503l-0.818,1.008l-0.469,0.57l-0.104,0.085l-0.116,0.066l-0.098,0.033l-0.336,0.051  l-0.288,0.05l-0.261,0.025l0.077-0.088l0.001-0.002l0.007-0.008l0.226-0.259l0.038,0.031L59.417,57.7l0.006,0.006l-0.057,0.096  l-0.044-0.02l-0.014,0.016l0.078,0.034l0.184-0.32l0.006-0.003l0-0.03l0.088,0.011l0.206-0.064v-0.233l-0.008-0.063l-0.011-0.676  l0-0.03L59.8,56.422l0,0.012h-0.262l-0.017-0.037l-0.039-0.114l0.01-0.127l-0.01-0.013l0.01-0.016l0.006-0.069l0.021-0.046  l0.064-0.141l0.009-0.014l0.081-0.125l0.027-0.019l0.002-0.003l0.089-0.145l0.003-0.014l0.012-0.051l0.073-0.08l0.053-0.03  l0.001-0.001l0.066-0.076l0.039-0.045l0.11-0.076l0.029-0.014l0.068-0.041l0.099-0.039l0.096-0.016l0.012-0.002l0.159,0.012  l0.037-0.006l0.084,0.245l0.033,0.096l0.02-0.006l0.002-0.001l0.333-0.103l0.022,0.063l0.019,0.02l0.404,0.059l0.013-0.034  l-0.387-0.059l-0.03-0.091l0.05-0.043l0.062-0.054l0.027-0.008l0.024-0.007l0.085-0.025l0.002,0l0.187-0.038l0.052,0.077  l-0.176,0.095l0.011,0.026l0.032,0.01l0.172-0.087l0.043-0.022l-0.024-0.055l0.362-0.106l0.001,0l0.045-0.013l0.056-0.055  l0.067-0.099l-0.013-0.155l-0.058-0.083l-0.03-0.043l-0.081-0.082l-0.063-0.064l-0.011-0.011l-0.021-0.021l-0.017-0.034  l-0.017-0.021l-0.001-0.001l-0.064-0.077l-0.023-0.028l-0.034-0.041l-0.01-0.013l-0.025-0.031L61.712,54.1l-0.01-0.012l-0.009-0.011  l-0.049-0.059l0.077-0.041l0.102-0.054l0.064-0.034L62.153,54.229z"/><text x="0" y="115" fill="#000000" font-size="5px" font-weight="bold" font-family="'Helvetica Neue', Helvetica, Arial-Unicode, Arial, Sans-serif">Created by Pablo Fernndez Vallejo</text><text x="0" y="120" fill="#000000" font-size="5px" font-weight="bold" font-family="'Helvetica Neue', Helvetica, Arial-Unicode, Arial, Sans-serif">from the Noun Project</text></svg>