<svg xmlns:dc="http://purl.org/dc/elements/1.1/" xmlns:cc="http://creativecommons.org/ns#" xmlns:rdf="http://www.w3.org/1999/02/22-rdf-syntax-ns#" xmlns:svg="http://www.w3.org/2000/svg" xmlns="http://www.w3.org/2000/svg" xmlns:sodipodi="http://sodipodi.sourceforge.net/DTD/sodipodi-0.dtd" xmlns:inkscape="http://www.inkscape.org/namespaces/inkscape" version="1.1" x="0px" y="0px" viewBox="0 0 100 125"><g transform="translate(0,-952.36218)"><path style="text-indent:0;text-transform:none;direction:ltr;block-progression:tb;baseline-shift:baseline;color:#000000;enable-background:accumulate;" d="m 28.630509,960.28047 c -0.005,0.002 -0.009,0.003 -0.0141,0.004 -0.0373,0.006 -0.0724,0.0248 -0.0989,0.0518 l -1.28606,1.19655 -1.28135,1.19184 -1.28606,1.19656 c -0.0209,0.0194 -0.0372,0.0438 -0.0471,0.0707 l -1.08349,2.93957 c -0.008,0.0274 -0.01,0.0567 -0.005,0.0848 l 0.20256,1.74301 0.20257,1.74301 0.0989,0.83853 -2.98668,8.13092 c -1.21104,1.72502 -2.26458,3.54251 -3.15155,5.43632 l 0.48993,-5.43632 0.5229,-0.83382 0.93275,-1.48862 0.92803,-1.49335 c 0.0148,-0.0226 0.0246,-0.0486 0.0283,-0.0754 l 0.27794,-3.11857 c 0.004,-0.03 0.001,-0.0611 -0.009,-0.0896 l -0.65011,-1.62524 -0.65009,-1.63466 -0.64539,-1.62995 c -0.0281,-0.0744 -0.10919,-0.12518 -0.18843,-0.11778 -0.0128,0.002 -0.0255,0.005 -0.0377,0.009 -0.006,0.003 -0.0127,0.006 -0.0189,0.009 -0.0329,0.0149 -0.0611,0.0399 -0.0801,0.0707 l -0.93275,1.48864 -0.92804,1.48862 -0.93274,1.48863 c -0.0155,0.024 -0.0253,0.0517 -0.0283,0.0801 l -0.28265,3.11858 c -0.002,0.0289 0.003,0.0581 0.0141,0.0848 l 0.65009,1.62995 0.64539,1.62995 0.2167,0.53704 -0.89035,9.83153 c -0.47454,1.42643 -0.86002,2.88421 -1.15416,4.36224 l -0.86208,-4.98407 0.21198,-0.68778 0.51349,-1.67236 0.51348,-1.68648 c 0.008,-0.0274 0.01,-0.0567 0.005,-0.0848 l -0.53702,-3.08561 c -0.005,-0.0272 -0.0165,-0.0532 -0.033,-0.0753 l -1.05051,-1.40854 -1.04581,-1.40384 -1.05052,-1.40854 c -0.0342,-0.0502 -0.0947,-0.0815 -0.15546,-0.0801 -0.006,-3e-4 -0.0126,-3e-4 -0.0189,0 -0.0272,0.005 -0.0532,0.0165 -0.0754,0.0329 -0.003,0.003 -0.006,0.006 -0.009,0.009 -0.0278,0.0247 -0.0478,0.058 -0.0565,0.0942 l -0.51819,1.68176 -0.51348,1.67235 -0.5134801,1.67706 c -0.01,0.027 -0.013,0.0563 -0.009,0.0848 l 0.5323201,3.09031 c 0.007,0.0276 0.0195,0.0536 0.0377,0.0754 l 1.05052,1.40855 1.04581,1.40854 0.50406,0.67365 1.48391,8.55489 c -0.0928,1.0535 -0.14603,2.1152 -0.14603,3.17976 0,1.0448 0.0496,2.0773 0.13661,3.0998 l -2.29889,-4.96996 0.033,-0.9798 0.066,-1.7572 0.0565,-1.75712 c 0.001,-0.0273 -0.004,-0.0549 -0.0141,-0.0801 l -1.31904,-2.84063 c -0.0112,-0.0273 -0.0292,-0.0518 -0.0518,-0.0707 l -1.3755901,-1.08161 -1.38028,-1.08821 -1.37556,-1.09292 c -0.0621,-0.0492 -0.15726,-0.0513 -0.22141,-0.005 -0.0102,0.007 -0.0197,0.0148 -0.0283,0.0236 -0.004,0.006 -0.007,0.0124 -0.009,0.0188 -0.0211,0.0302 -0.0327,0.0669 -0.033,0.10364 l -0.066,1.75244 -0.0612,1.75714 -0.0612,1.75244 c -0.002,0.0289 0.003,0.0581 0.0141,0.0848 l 1.31432,2.84059 c 0.0132,0.026 0.0328,0.049 0.0565,0.066 l 1.37557,1.0882 1.3755601,1.0882 0.45696,0.3581 4.15025,8.9694 c 6e-4,0 -6e-4,0.01 0,0.01 0.30239,1.4763 0.69183,2.9196 1.16829,4.3246 l -3.23164,-3.8771 -0.16017,-0.7019 -0.391,-1.7054 -0.40042,-1.7146 c -0.006,-0.028 -0.0195,-0.054 -0.0377,-0.076 l -2.00682,-2.4026 c -0.0176,-0.022 -0.0404,-0.04 -0.066,-0.052 l -1.6158201,-0.6925 -1.61111,-0.6925 -1.61111,-0.6972 c -0.0844,-0.036 -0.19369,0 -0.23554,0.085 -0.002,0 -0.003,0.01 -0.005,0.014 -0.0134,0.036 -0.015,0.076 -0.005,0.1131 l 0.391,1.71 0.39571,1.7053 0.391,1.71 c 0.006,0.03 0.0189,0.057 0.0377,0.08 l 2.00211,2.4073 c 0.0208,0.022 0.0469,0.038 0.0754,0.047 l 1.6064,0.6925 1.6111101,0.6972 0.77729,0.3345 5.5588,6.6658 c 0.89461,1.9175 1.95312,3.7428 3.15626,5.4599 l -4.49885,-3.1704 -0.46167,-0.8668 -0.81968,-1.5545 -0.82911,-1.5499 c -0.0125,-0.024 -0.0303,-0.045 -0.0518,-0.061 l -2.5627,-1.7996 c -0.0231,-0.019 -0.0509,-0.032 -0.0801,-0.038 l -1.7335901,-0.2496 -1.74302,-0.2545 -1.73359,-0.2543 c -0.0775,-0.012 -0.16,0.032 -0.19314,0.1036 -0.006,0.012 -0.0108,0.024 -0.0141,0.038 -3.2e-4,0.01 -3.2e-4,0.013 0,0.019 -0.003,0.038 0.005,0.076 0.0236,0.1083 l 0.81968,1.5499 0.8244,1.5498 0.8244,1.5499 c 0.0132,0.026 0.0328,0.049 0.0565,0.066 l 2.5579901,1.8043 c 0.024,0.015 0.0517,0.025 0.0801,0.028 l 1.7383,0.2544 1.73359,0.2543 0.57472,0.08 8.13092,5.7332 c 0.9918,1.1118 2.04992,2.1646 3.1704,3.1468 l -4.78151,-1.7571 -0.48992,-0.5277 -1.19185,-1.2813 -1.20126,-1.286 c -0.0195,-0.021 -0.0439,-0.037 -0.0707,-0.047 l -2.93957,-1.0789 c -0.027,-0.01 -0.0563,-0.013 -0.0848,-0.01 l -1.74301,0.2073 -1.74301,0.2026 -1.74302,0.2026 c -0.0931,0.01 -0.17042,0.1 -0.16488,0.1931 10e-4,0 0.003,0.01 0.005,0.014 0.007,0.037 0.0249,0.072 0.0518,0.099 l 1.19656,1.2861 1.19184,1.2814 1.19656,1.286 c 0.0195,0.021 0.0439,0.037 0.0707,0.047 l 2.93956,1.0835 c 0.0274,0.01 0.0567,0.01 0.0848,0 l 1.74302,-0.2025 1.74301,-0.2026 0.83853,-0.099 8.17332,3.0055 c 1.70535,1.1969 3.52339,2.245 5.42689,3.1374 l -5.46929,-0.4946 -0.83382,-0.5229 -1.48863,-0.9328 -1.49334,-0.928 c -0.0226,-0.015 -0.0486,-0.024 -0.0754,-0.028 l -3.11858,-0.278 c -0.03,0 -0.0611,0 -0.0895,0.01 l -1.62524,0.6502 -1.63466,0.6501 -1.62995,0.6454 c -0.0745,0.028 -0.12517,0.1091 -0.11777,0.1883 0.002,0.013 0.005,0.025 0.009,0.038 0.003,0.01 0.006,0.013 0.009,0.019 0.015,0.033 0.0399,0.061 0.0707,0.08 l 1.48862,0.9328 1.48863,0.9281 1.48863,0.9327 c 0.024,0.015 0.0517,0.025 0.0801,0.028 l 3.11858,0.2826 c 0.0288,0 0.0582,0 0.0848,-0.014 l 1.62996,-0.65 1.62995,-0.6454 0.53704,-0.2167 9.85979,0.895 c 0.4237,0.1408 0.8508,0.2707 1.28135,0.3957 l 2.01154,0.9328 -3.94298,0.6831 -0.6925,-0.2121 -1.67235,-0.5134 -1.68177,-0.5135 c -0.0274,-0.01 -0.0567,-0.01 -0.0848,0 l -3.0856,0.5371 c -0.0272,0.01 -0.0532,0.016 -0.0754,0.033 l -1.40855,1.0505 -1.40854,1.0504 -1.40854,1.0458 c -0.0763,0.054 -0.0984,0.1715 -0.0471,0.2498 0.005,0 0.009,0.01 0.0141,0.01 0.024,0.03 0.0575,0.051 0.0942,0.061 l 1.67706,0.5134 1.67235,0.5135 1.68177,0.5182 c 0.0274,0.01 0.0567,0.01 0.0848,0 l 3.08561,-0.5323 c 0.0276,-0.01 0.0536,-0.02 0.0754,-0.038 l 1.40854,-1.0505 1.40854,-1.0458 0.67836,-0.5041 5.56351,-0.961 3.82992,1.7713 -0.51348,-0.019 -1.75243,-0.066 -1.75715,-0.057 c -0.0273,0 -0.0549,0 -0.0801,0.014 l -2.84064,1.319 c -0.0273,0.011 -0.0517,0.029 -0.0707,0.052 l -1.0835,1.3756 -1.09291,1.3803 -1.08821,1.3755 c -0.0506,0.061 -0.0547,0.1563 -0.009,0.2214 0.008,0.011 0.0179,0.02 0.0283,0.028 0.006,0 0.0124,0.01 0.0189,0.01 0.0283,0.022 0.0632,0.035 0.0989,0.038 l 1.75715,0.061 1.75243,0.061 1.75715,0.061 c 0.0289,0 0.0582,0 0.0848,-0.014 l 2.84065,-1.3143 c 0.0261,-0.014 0.0489,-0.032 0.066,-0.057 l 1.0882,-1.3756 1.0882,-1.3755 0.35803,-0.457 1.04109,-0.4805 1.0411,0.4805 0.35802,0.457 1.08821,1.3755 1.08821,1.3756 c 0.017,0.023 0.0399,0.043 0.066,0.057 l 2.84064,1.3143 c 0.0266,0.012 0.056,0.016 0.0848,0.014 l 1.75714,-0.061 1.75243,-0.061 1.75715,-0.061 c 0.0357,0 0.0706,-0.016 0.0989,-0.038 0.006,0 0.0128,-0.01 0.0188,-0.01 0.0104,-0.01 0.0199,-0.018 0.0283,-0.028 0.0453,-0.065 0.0412,-0.1603 -0.01,-0.2214 l -1.0882,-1.3755 -1.09292,-1.3803 -1.0835,-1.3756 c -0.0189,-0.023 -0.0434,-0.041 -0.0707,-0.052 l -2.84063,-1.319 c -0.0252,-0.011 -0.0528,-0.015 -0.0801,-0.014 l -1.75715,0.057 -1.75243,0.066 -0.51349,0.019 3.82992,-1.7713 5.56351,0.961 0.67836,0.5041 1.40855,1.0458 1.40853,1.0505 c 0.0218,0.018 0.0478,0.032 0.0754,0.038 l 3.08561,0.5323 c 0.0281,0.01 0.0574,0 0.0848,0 l 1.68177,-0.5182 1.67235,-0.5135 1.67706,-0.5134 c 0.0367,-0.01 0.0702,-0.032 0.0942,-0.061 0.004,0 0.01,-0.01 0.0141,-0.01 0.0513,-0.078 0.0292,-0.1955 -0.0471,-0.2498 l -1.40853,-1.0458 -1.40855,-1.0504 -1.40854,-1.0506 c -0.0222,-0.016 -0.0481,-0.028 -0.0753,-0.033 l -3.08561,-0.537 c -0.0281,-0.01 -0.0574,0 -0.0848,0 l -1.68177,0.5135 -1.67234,0.5134 -0.6925,0.2121 -3.94298,-0.6831 2.00682,-0.9281 c 0.43305,-0.1255 0.85995,-0.2587 1.28606,-0.4004 l 9.8598,-0.895 0.53703,0.2167 1.62996,0.6454 1.62995,0.65 c 0.0266,0.012 0.056,0.016 0.0848,0.014 l 3.11858,-0.2827 c 0.0284,0 0.0561,-0.013 0.0801,-0.028 l 1.48862,-0.9326 1.48863,-0.9281 1.48862,-0.9328 c 0.0308,-0.019 0.0557,-0.047 0.0707,-0.08 0.004,-0.01 0.006,-0.013 0.01,-0.019 0.004,-0.013 0.007,-0.025 0.01,-0.038 0.007,-0.079 -0.0433,-0.1603 -0.11777,-0.1883 l -1.62995,-0.6454 -1.63466,-0.6502 -1.62524,-0.6501 c -0.0284,-0.011 -0.0595,-0.014 -0.0895,-0.01 l -3.11858,0.278 c -0.0268,0 -0.0527,0.014 -0.0754,0.028 l -1.49333,0.928 -1.48863,0.9328 -0.83382,0.5229 -5.46929,0.4946 c 1.9035,-0.8924 3.72153,-1.9405 5.42689,-3.1374 l 8.17331,-3.0055 0.83853,0.099 1.74302,0.2026 1.74301,0.2025 c 0.0281,0.01 0.0574,0 0.0848,0 l 2.93957,-1.0835 c 0.0268,-0.01 0.0512,-0.026 0.0707,-0.047 l 1.19655,-1.286 1.19185,-1.2814 1.19655,-1.2861 c 0.0269,-0.027 0.0454,-0.062 0.0518,-0.099 0.002,0 0.004,-0.01 0.004,-0.014 0.005,-0.093 -0.0718,-0.1839 -0.16488,-0.1931 l -1.743,-0.2026 -1.74301,-0.2026 -1.74301,-0.2073 c -0.0284,0 -0.0578,-2e-4 -0.0848,0.01 l -2.93957,1.0789 c -0.0268,0.01 -0.0512,0.026 -0.0707,0.047 l -1.20127,1.286 -1.19185,1.2813 -0.48992,0.5277 -4.7815,1.7571 c 1.12048,-0.9822 2.1786,-2.035 3.17039,-3.1468 l 8.13092,-5.7332 0.57472,-0.08 1.73359,-0.2543 1.7383,-0.2544 c 0.0284,0 0.0561,-0.013 0.0801,-0.028 l 2.558,-1.8043 c 0.0238,-0.017 0.0433,-0.04 0.0565,-0.066 l 0.8244,-1.5499 0.82439,-1.5498 0.81969,-1.5499 c 0.0187,-0.032 0.0271,-0.071 0.0236,-0.1083 3e-4,-0.01 3e-4,-0.013 0,-0.019 -0.004,-0.013 -0.008,-0.026 -0.0141,-0.038 -0.0331,-0.071 -0.11569,-0.1153 -0.19314,-0.1036 l -1.73359,0.2543 -1.74302,0.2545 -1.73358,0.2496 c -0.0292,0.01 -0.057,0.019 -0.0801,0.038 l -2.56271,1.7996 c -0.0215,0.016 -0.0393,0.037 -0.0518,0.061 l -0.8291,1.5499 -0.81969,1.5545 -0.46166,0.8668 -4.49886,3.1704 c 1.20314,-1.7171 2.26165,-3.5424 3.15627,-5.4599 l 5.5588,-6.6658 0.77728,-0.3345 1.61111,-0.6972 1.6064,-0.6925 c 0.0284,-0.01 0.0546,-0.025 0.0753,-0.047 l 2.0021,-2.4073 c 0.0188,-0.023 0.0319,-0.051 0.0377,-0.08 l 0.39101,-1.71 0.39571,-1.7053 0.39099,-1.71 c 0.0104,-0.037 0.009,-0.077 -0.004,-0.1131 -0.002,0 -0.003,-0.01 -0.005,-0.014 -0.0418,-0.082 -0.15116,-0.1212 -0.23554,-0.085 l -1.61111,0.6972 -1.61111,0.6925 -1.61581,0.6925 c -0.0256,0.012 -0.0483,0.03 -0.066,0.052 l -2.00683,2.4026 c -0.0182,0.022 -0.0311,0.048 -0.0377,0.076 l -0.40042,1.7146 -0.391,1.7054 -0.16017,0.7019 -3.23164,3.8771 c 0.47646,-1.4051 0.8659,-2.8483 1.16829,-4.3246 6e-4,0 -6.1e-4,-0.01 0,-0.01 l 4.15025,-8.9695 0.45695,-0.358 1.37557,-1.0882 1.37557,-1.0882 c 0.0238,-0.017 0.0433,-0.04 0.0565,-0.066 l 1.31433,-2.8406 c 0.0113,-0.0266 0.0162,-0.056 0.0141,-0.0848 l -0.0612,-1.75244 -0.0613,-1.75714 -0.066,-1.75244 c -3.1e-4,-0.0368 -0.0119,-0.0734 -0.0329,-0.10364 -0.003,-0.006 -0.006,-0.0128 -0.01,-0.0188 -0.009,-0.009 -0.0181,-0.0166 -0.0283,-0.0236 -0.0642,-0.0465 -0.1593,-0.0446 -0.22142,0.005 l -1.37556,1.09292 -1.38028,1.08821 -1.37557,1.08349 c -0.0226,0.0189 -0.0406,0.0434 -0.0518,0.0707 l -1.31904,2.84063 c -0.0106,0.0252 -0.0155,0.0528 -0.0141,0.0801 l 0.0565,1.75713 0.066,1.7572 0.0329,0.9798 -2.29889,4.96998 c 0.0869,-1.0225 0.13661,-2.055 0.13661,-3.0998 0,-1.06458 -0.0532,-2.12628 -0.14604,-3.17978 l 1.48392,-8.5549 0.50406,-0.67365 1.04581,-1.40854 1.05052,-1.40855 c 0.0182,-0.0218 0.0311,-0.0478 0.0377,-0.0754 l 0.53233,-3.09031 c 0.004,-0.0285 3e-4,-0.0578 -0.009,-0.0848 l -0.51349,-1.67705 -0.51349,-1.67236 -0.51819,-1.68176 c -0.009,-0.0362 -0.0287,-0.0696 -0.0565,-0.0942 -0.003,-0.004 -0.006,-0.006 -0.009,-0.009 -0.0222,-0.0165 -0.0482,-0.0279 -0.0753,-0.0329 -0.006,-3e-4 -0.0126,-3e-4 -0.0188,0 -0.0607,-0.002 -0.12127,0.0299 -0.15546,0.0801 l -1.05051,1.40854 -1.04581,1.40384 -1.05052,1.40854 c -0.0165,0.0222 -0.0279,0.0481 -0.0329,0.0753 l -0.53704,3.08561 c -0.005,0.0281 -0.004,0.0574 0.005,0.0848 l 0.51349,1.68648 0.51348,1.67236 0.21199,0.68779 -0.86208,4.98407 c -0.29415,-1.47804 -0.67963,-2.93582 -1.15416,-4.36225 l -0.89035,-9.83153 0.2167,-0.53704 0.64538,-1.62995 0.6501,-1.62995 c 0.0113,-0.0266 0.0162,-0.056 0.0141,-0.0848 l -0.28266,-3.11858 c -0.003,-0.0284 -0.0128,-0.0561 -0.0283,-0.0801 l -0.93275,-1.48863 -0.92803,-1.48862 -0.93275,-1.48864 c -0.019,-0.0308 -0.0472,-0.0557 -0.0801,-0.0707 -0.006,-0.004 -0.0124,-0.006 -0.0188,-0.009 -0.0121,-0.005 -0.0248,-0.007 -0.0377,-0.009 -0.0793,-0.007 -0.16036,0.0433 -0.18844,0.11778 l -0.64538,1.62995 -0.6501,1.63466 -0.6501,1.62525 c -0.0104,0.0284 -0.0138,0.0595 -0.009,0.0896 l 0.27794,3.11857 c 0.004,0.0268 0.0134,0.0527 0.0283,0.0754 l 0.92803,1.49334 0.93275,1.48863 0.5229,0.83382 0.48994,5.43632 c -0.88697,-1.89381 -1.94051,-3.7113 -3.15155,-5.43632 l -2.98666,-8.13092 0.0989,-0.83853 0.20256,-1.74301 0.20256,-1.74301 c 0.005,-0.0281 0.004,-0.0574 -0.004,-0.0848 l -1.0848,-2.93957 c -0.01,-0.0268 -0.0262,-0.0512 -0.0471,-0.0707 l -1.28606,-1.19656 -1.28135,-1.19184 -1.28606,-1.19656 c -0.0266,-0.0269 -0.0617,-0.0453 -0.0989,-0.0518 -0.005,-0.002 -0.009,-0.004 -0.0141,-0.005 -0.0934,-0.005 -0.18396,0.0718 -0.19314,0.16488 l -0.20257,1.74301 -0.20257,1.74301 -0.20728,1.74302 c -0.004,0.0284 -3e-4,0.0578 0.01,0.0848 l 1.07879,2.93957 c 0.01,0.0268 0.0262,0.0512 0.0471,0.0707 l 1.28606,1.20126 1.28135,1.19185 0.52761,0.48992 2.24236,6.09584 -0.26381,0.21669 -10.04351,-8.37588 -0.16488,-0.38629 -0.69721,-1.6111 -0.69249,-1.61583 a 0.13568591,0.13568591 0 0 0 -0.0377,-0.0518 l -2.40726,-2.00682 a 0.13568591,0.13568591 0 0 0 -0.0518,-0.0236 l -1.71475,-0.39571 -1.71003,-0.39572 -1.71004,-0.39099 a 0.13568591,0.13568591 0 0 0 -0.01,-0.005 0.13568591,0.13568591 0 0 0 -0.0236,-0.005 0.13568591,0.13568591 0 0 0 -0.12248,0.19314 l 0.6972,1.6111 0.69249,1.61112 0.6925,1.61581 a 0.13568591,0.13568591 0 0 0 0.0377,0.0518 l 2.40724,2.00682 a 0.13568591,0.13568591 0 0 0 0.0565,0.0236 l 1.71004,0.39571 1.71003,0.39572 0.27794,0.0613 10.16601,8.47951 c 1.14984,1.44256 2.17474,2.96685 3.06676,4.5601 l -7.82472,-3.61793 -0.43811,-0.55587 -1.0882,-1.37557 -1.0835,-1.38028 c -0.0189,-0.0226 -0.0434,-0.0406 -0.0707,-0.0518 l -2.84064,-1.31906 c -0.0149,-0.007 -0.0309,-0.0116 -0.0471,-0.0141 -0.0125,-0.002 -0.0252,-0.002 -0.0377,0 l -1.75714,0.0612 -1.75243,0.0612 -1.75244,0.0613 c -0.13767,0.003 -0.2256,0.19636 -0.13662,0.30149 l 1.08821,1.37557 1.08821,1.37557 1.08821,1.37556 c 0.0171,0.0238 0.0399,0.0433 0.066,0.0565 l 2.84064,1.31432 c 0.0266,0.0113 0.056,0.0162 0.0848,0.0141 l 1.75243,-0.0612 1.75243,-0.0612 0.85266,-0.0329 9.12961,4.22563 c 2.22488,4.58243 3.40124,9.64058 3.40124,14.80139 0,0.1432 -0.003,0.2861 -0.004,0.4288 l -4.96053,-7.03332 -0.0989,-0.6972 -0.25438,-1.73831 -0.24967,-1.73359 c -0.004,-0.0288 -0.0158,-0.0565 -0.0329,-0.0801 l -1.79954,-2.5627 c -0.0106,-0.0143 -0.0234,-0.027 -0.0377,-0.0377 -0.0103,-0.007 -0.0213,-0.0138 -0.0329,-0.0188 l -1.54987,-0.82439 -1.54987,-0.8244 -1.54516,-0.8244 c -0.12088,-0.0718 -0.30061,0.0553 -0.27323,0.19314 l 0.25438,1.73831 0.25911,1.73359 0.25438,1.73359 c 0.002,0.0301 0.0121,0.0594 0.0283,0.0848 l 1.79953,2.55799 c 0.0189,0.0226 0.0434,0.0406 0.0707,0.0518 l 1.54516,0.82439 1.54987,0.8244 0.75374,0.39571 5.78963,8.22039 c -0.3811,5.4224 -2.0371,10.4926 -4.66845,14.9099 l -0.77729,-8.5832 0.2591,-0.6596 0.65009,-1.6298 0.65481,-1.63 c 0.01,-0.027 0.013,-0.057 0.009,-0.085 l -0.27794,-3.1186 c -0.002,-0.018 -0.007,-0.035 -0.0141,-0.052 -0.005,-0.012 -0.0114,-0.022 -0.0188,-0.033 l -0.93275,-1.4886 -0.92804,-1.4887 -0.92805,-1.4839 c -0.0266,-0.046 -0.0744,-0.08 -0.12718,-0.089 -0.0847,-0.014 -0.17523,0.041 -0.20258,0.1225 l -0.64538,1.6299 -0.65009,1.63 -0.64539,1.6299 c -0.013,0.026 -0.0194,0.056 -0.0188,0.085 l 0.28265,3.1186 c 0.005,0.029 0.0158,0.057 0.0329,0.08 l 0.92803,1.4839 0.92805,1.4887 0.45695,0.7207 0.90448,10.0153 c -2.95227,4.3568 -6.89073,7.9911 -11.49918,10.5758 l 3.61794,-7.8247 0.55587,-0.4381 1.37557,-1.0882 1.38028,-1.0835 c 0.0226,-0.019 0.0406,-0.043 0.0518,-0.07 l 1.31903,-2.8407 c 0.006,-0.015 0.0116,-0.031 0.0141,-0.047 0.002,-0.013 0.002,-0.025 0,-0.038 l -0.0612,-1.7572 -0.0612,-1.7523 -0.0612,-1.7525 c -0.002,-0.089 -0.0766,-0.1701 -0.16488,-0.179 -0.0487,0 -0.0992,0.011 -0.13661,0.042 l -1.37556,1.0882 -1.37557,1.0882 -1.37557,1.0882 c -0.0238,0.017 -0.0433,0.04 -0.0565,0.066 l -1.31432,2.8407 c -0.0113,0.027 -0.0162,0.056 -0.0141,0.085 l 0.0612,1.7524 0.0612,1.7525 0.0329,0.8526 -4.22564,9.1296 c -3.46082,1.6825 -7.25007,2.7911 -11.24949,3.2082 l -1.85607,-1.3097 4.90869,-3.4577 0.70192,-0.1037 1.73359,-0.2544 1.7383,-0.2496 c 0.0288,0 0.0565,-0.016 0.0801,-0.033 l 2.56271,-1.7996 c 0.0123,-0.01 0.0234,-0.021 0.0329,-0.033 0.007,-0.01 0.0138,-0.022 0.0188,-0.033 l 0.8291,-1.5546 0.81969,-1.5498 0.8244,-1.5452 c 0.06,-0.1043 -0.0171,-0.2587 -0.13661,-0.2733 -0.0189,0 -0.0381,2e-4 -0.0565,0 l -1.7336,0.2545 -1.7383,0.2543 -1.73359,0.2544 c -0.0284,0 -0.0561,0.013 -0.0801,0.028 l -2.5627,1.8043 c -0.0221,0.018 -0.04,0.04 -0.0518,0.066 l -0.8244,1.5452 -0.8244,1.5499 -0.39571,0.7536 -5.15837,3.6368 -5.15838,-3.6368 -0.39571,-0.7536 -0.8244,-1.5499 -0.8244,-1.5452 c -0.0119,-0.025 -0.0298,-0.049 -0.0518,-0.066 l -2.5627,-1.8043 c -0.024,-0.015 -0.0517,-0.025 -0.0801,-0.028 l -1.73359,-0.2544 -1.7383,-0.2543 -1.73359,-0.2545 c -0.0185,0 -0.0376,-0.01 -0.0565,0 -0.11953,0.014 -0.19669,0.169 -0.13662,0.2733 l 0.8244,1.5452 0.81969,1.5498 0.82911,1.5546 c 0.005,0.012 0.0114,0.023 0.0189,0.033 0.01,0.013 0.0206,0.023 0.033,0.033 l 2.5627,1.7996 c 0.0236,0.017 0.0513,0.029 0.0801,0.033 l 1.7383,0.2496 1.73359,0.2544 0.70192,0.1037 4.9087,3.4578 -1.85608,1.3096 c -3.99771,-0.4175 -7.79001,-1.5264 -11.24949,-3.2082 l -4.22563,-9.1296 0.033,-0.8526 0.0612,-1.7525 0.0612,-1.7524 c 0.002,-0.029 -0.003,-0.058 -0.0141,-0.085 l -1.31434,-2.8407 c -0.0132,-0.026 -0.0328,-0.049 -0.0565,-0.066 l -1.37556,-1.0882 -1.37557,-1.0882 -1.37557,-1.0881 c -0.0374,-0.031 -0.0879,-0.048 -0.13661,-0.042 -0.0883,0.01 -0.16331,0.09 -0.16488,0.179 l -0.0612,1.7524 -0.0612,1.7524 -0.0612,1.7571 c -0.001,0.013 -0.001,0.025 0,0.038 0.002,0.016 0.007,0.032 0.0141,0.047 l 1.31904,2.8407 c 0.0113,0.027 0.0292,0.052 0.0518,0.07 l 1.38028,1.0835 1.37557,1.0882 0.55588,0.4381 3.61793,7.8248 c -4.60844,-2.5848 -8.54691,-6.2191 -11.49918,-10.5759 l 0.90449,-10.0153 0.45695,-0.7207 0.92803,-1.4887 0.92804,-1.4839 c 0.0172,-0.023 0.0286,-0.051 0.033,-0.08 l 0.28265,-3.1185 c 6.1e-4,-0.029 -0.006,-0.058 -0.0189,-0.085 l -0.64538,-1.63 -0.6501,-1.63 -0.64539,-1.6299 c -0.0273,-0.081 -0.11785,-0.1361 -0.20256,-0.1225 -0.0527,0.01 -0.10063,0.043 -0.1272,0.089 l -0.92803,1.484 -0.92804,1.4886 -0.93274,1.4886 c -0.007,0.01 -0.0137,0.022 -0.0189,0.033 -0.007,0.016 -0.012,0.034 -0.0141,0.052 l -0.27794,3.1186 c -0.004,0.029 -3.1e-4,0.058 0.009,0.085 l 0.6548,1.63 0.6501,1.6299 0.2591,0.6596 -0.77729,8.5831 c -2.63137,-4.4173 -4.28737,-9.4875 -4.66846,-14.9099 l 5.78963,-8.22037 0.75374,-0.39571 1.54986,-0.8244 1.54516,-0.82439 c 0.0273,-0.0113 0.0517,-0.0292 0.0707,-0.0518 l 1.79954,-2.55799 c 0.0162,-0.0254 0.026,-0.0548 0.0283,-0.0848 l 0.25439,-1.73359 0.2591,-1.73359 0.25438,-1.73831 c 0.0274,-0.13791 -0.15234,-0.26496 -0.27323,-0.19314 l -1.54516,0.8244 -1.54986,0.8244 -1.54987,0.82439 c -0.0116,0.005 -0.0227,0.0114 -0.033,0.0188 -0.0143,0.0106 -0.027,0.0234 -0.0377,0.0377 l -1.79954,2.5627 c -0.0172,0.0236 -0.0286,0.0513 -0.033,0.0801 l -0.24968,1.73359 -0.25438,1.73831 -0.0989,0.6972 -4.96052,7.0333 c -0.002,-0.1427 -0.005,-0.2856 -0.005,-0.4287 0,-5.16089 1.17636,-10.21904 3.40123,-14.80147 l 9.12961,-4.22563 0.85267,0.0329 1.75243,0.0612 1.75243,0.0612 c 0.0289,0.002 0.0582,-0.003 0.0848,-0.0141 l 2.84064,-1.31433 c 0.0261,-0.0132 0.0489,-0.0328 0.066,-0.0565 l 1.0882,-1.37556 1.08821,-1.37556 1.0882,-1.37557 c 0.089,-0.10513 10e-4,-0.29909 -0.13661,-0.30149 l -1.75244,-0.0613 -1.75243,-0.0612 -1.75714,-0.0612 c -0.0125,-0.002 -0.0252,-0.002 -0.0377,0 -0.0162,0.003 -0.0321,0.007 -0.0471,0.0141 l -2.84064,1.31904 c -0.0273,0.0113 -0.0517,0.0292 -0.0707,0.0518 l -1.0835,1.38027 -1.0882,1.37557 -0.43811,0.55588 -7.82472,3.61793 c 0.89202,-1.59326 1.91693,-3.11754 3.06676,-4.5601 l 10.16601,-8.47952 0.27794,-0.0612 1.71003,-0.39571 1.71004,-0.39572 a 0.13568591,0.13568591 0 0 0 0.0565,-0.0236 l 2.40724,-2.00682 a 0.13568591,0.13568591 0 0 0 0.0377,-0.0518 l 0.6925,-1.61583 0.69249,-1.6111 0.69721,-1.61111 a 0.13568591,0.13568591 0 0 0 -0.12249,-0.19315 0.13568591,0.13568591 0 0 0 -0.0236,0.005 0.13568591,0.13568591 0 0 0 -0.009,0.005 l -1.71003,0.39101 -1.71004,0.39571 -1.71475,0.39571 a 0.13568591,0.13568591 0 0 0 -0.0518,0.0236 l -2.40724,2.00682 a 0.13568591,0.13568591 0 0 0 -0.0377,0.0518 l -0.69249,1.61581 -0.69721,1.61111 -0.16488,0.3863 -10.04352,8.37588 -0.26381,-0.21671 2.24237,-6.09583 0.52761,-0.48993 1.28135,-1.19184 1.28606,-1.20127 c 0.0209,-0.0194 0.0372,-0.0438 0.0471,-0.0707 l 1.07879,-2.93957 c 0.01,-0.027 0.013,-0.0563 0.009,-0.0848 l -0.20728,-1.74301 -0.20257,-1.74301 -0.20256,-1.74301 c -0.009,-0.0931 -0.0998,-0.17042 -0.19315,-0.16488 z m 21.36839,73.08883 1.01755,0.7207 c -0.33784,0.016 -0.67717,0.026 -1.01755,0.033 -0.34037,-0.01 -0.67969,-0.016 -1.01753,-0.033 l 1.01753,-0.7207 z m -2.51558,2.9301 c 0.61548,0.053 1.2366,0.091 1.86078,0.1131 l 0,0.023 c 0.21829,0 0.43736,-0.01 0.6548,-0.01 0.21744,0 0.43653,0.01 0.65482,0.01 l 0,-0.023 c 0.62519,-0.022 1.2443,-0.059 1.86078,-0.1131 l 0.91391,0.1602 -3.42951,1.5829 -3.42949,-1.5829 0.91391,-0.1602 z" fill="#000000" fill-opacity="1" stroke="none" marker="none" visibility="visible" display="inline" overflow="visible"/></g><text x="0" y="115" fill="#000000" font-size="5px" font-weight="bold" font-family="'Helvetica Neue', Helvetica, Arial-Unicode, Arial, Sans-serif">Created by Jakob Vogel</text><text x="0" y="120" fill="#000000" font-size="5px" font-weight="bold" font-family="'Helvetica Neue', Helvetica, Arial-Unicode, Arial, Sans-serif">from the Noun Project</text></svg>