<svg xmlns="http://www.w3.org/2000/svg" xmlns:xlink="http://www.w3.org/1999/xlink" version="1.1" x="0px" y="0px" viewBox="0 0 100 125" enable-background="new 0 0 100 100" xml:space="preserve"><g><path d="M23.712,19.45c0-4.362-3.521-7.869-7.882-7.869c-4.348,0-7.882,3.507-7.882,7.869c0,4.347,3.534,7.882,7.882,7.882   C20.191,27.332,23.712,23.797,23.712,19.45L23.712,19.45z"/></g><g><path d="M2.494,57.337c-0.014,2.535,2.04,4.601,4.574,4.614c0.026,0,0.026,23.658,0.026,23.658c0,2.546,2.054,4.602,4.602,4.602   c2.534,0,4.601-2.056,4.601-4.602c0,2.546,2.054,4.602,4.602,4.602c2.533,0,4.6-2.056,4.6-4.602v-0.813   c-7.974-9.215-7.974-22.898,0-32.112V42.161l4.841,6.228c2.147-1.453,4.521-2.548,7.014-3.268L27.006,31.812   c-0.694-0.88-1.773-1.413-2.907-1.413h-4.801l-3.468,5l-3.454-5H6.162c-2.027,0-3.667,1.651-3.667,3.681V57.337"/></g><g><path d="M68.36,72.326h23.045c1.106,0,2.001,0.882,2.001,1.974v4.521c0,1.121-0.895,2.001-2.001,2.001H65.439   C66.934,78.194,67.92,75.313,68.36,72.326z"/></g><g><path d="M67.813,62.472h25.593c1.093,0,1.986,0.894,1.986,2.001v4.521c0,1.094-0.894,2.001-1.986,2.001H68.521   C68.773,68.127,68.534,65.258,67.813,62.472z"/></g><g><path d="M62.6,52.643h26.779c1.093,0,1.986,0.88,1.986,2.001v4.507c0,1.107-0.894,1.987-1.986,1.987H67.427   C66.4,58.017,64.76,55.122,62.6,52.643z"/></g><g><path d="M56.277,32.946h39.222c1.107,0,1.987,0.905,1.987,2.001v4.521c0,1.092-0.88,2-1.987,2H56.277c-1.106,0-2-0.908-2-2v-4.521   C54.277,33.852,55.171,32.946,56.277,32.946z"/></g><g><path d="M54.411,23.117h39.221c1.107,0,2.001,0.88,2.001,2v4.507c0,1.107-0.894,2.002-2.001,2.002H54.411   c-1.094,0-1.987-0.895-1.987-2.002v-4.507C52.424,23.997,53.317,23.117,54.411,23.117z"/></g><g><path d="M61.359,51.309c-4.041-4.001-9.349-6.494-15.003-7.026c0.227-0.867,1.027-1.482,1.934-1.482h39.221   c1.095,0,2.001,0.881,2.001,1.987v4.534c0,1.094-0.906,1.987-2.001,1.987H61.359z"/></g><path d="M65.56,68.739c0,11.87-9.628,21.472-21.483,21.472c-11.87,0-21.484-9.602-21.484-21.472  c0-11.868,9.615-21.484,21.484-21.484C55.932,47.255,65.56,56.871,65.56,68.739L65.56,68.739z M42.608,60.605  c-0.066,0.013-0.12,0.038-0.173,0.052c-0.454,0.133-0.88,0.334-1.267,0.574c-0.374,0.268-0.68,0.587-0.92,0.974  c-0.187,0.306-0.279,0.652-0.279,1c0,0.372,0.093,0.693,0.279,1.014c0.24,0.386,0.547,0.706,0.92,0.96  c0.387,0.266,0.813,0.453,1.267,0.586c0.053,0.027,0.106,0.041,0.173,0.054V60.605z M45.53,76.646  c0.067-0.025,0.12-0.038,0.173-0.052c0.454-0.12,0.88-0.32,1.267-0.586c0.374-0.254,0.693-0.588,0.92-0.963  c0.187-0.305,0.28-0.652,0.28-1.011c0-0.348-0.093-0.694-0.28-0.989c-0.227-0.386-0.546-0.72-0.92-0.972  c-0.387-0.268-0.813-0.468-1.267-0.602c-0.053-0.013-0.106-0.013-0.173-0.026V76.646z M42.608,81.981v1.521h2.921v-1.521  c0.746-0.105,1.48-0.267,2.187-0.534c1.093-0.386,2.106-0.972,2.973-1.72c0.867-0.733,1.561-1.651,2.068-2.667  c0.44-0.947,0.68-1.985,0.68-3.025c0-1.041-0.239-2.081-0.68-3.015c-0.508-1.014-1.201-1.934-2.068-2.669  c-0.866-0.759-1.879-1.346-2.973-1.731c-0.707-0.242-1.441-0.429-2.187-0.534v-5.48c0.067,0.013,0.12,0.038,0.173,0.052  c0.454,0.133,0.88,0.334,1.267,0.574c0.187,0.134,0.36,0.292,0.507,0.44l4.881-2.2c-0.453-0.733-1.014-1.389-1.668-1.949  c-0.866-0.747-1.879-1.332-2.973-1.718c-0.707-0.254-1.441-0.441-2.187-0.534v-1.534h-2.921v1.534  c-0.746,0.093-1.48,0.28-2.188,0.534c-1.093,0.386-2.093,0.971-2.973,1.718c-0.867,0.748-1.561,1.655-2.053,2.682  c-0.454,0.934-0.694,1.961-0.694,3.001c0,1.052,0.24,2.081,0.694,3.015c0.493,1.039,1.187,1.932,2.053,2.693  c0.88,0.746,1.88,1.333,2.973,1.706c0.708,0.254,1.441,0.439,2.188,0.533v5.494c-0.066-0.025-0.12-0.038-0.173-0.052  c-0.454-0.12-0.88-0.32-1.267-0.586c-0.187-0.134-0.36-0.268-0.506-0.428l-4.868,2.186c0.44,0.749,1,1.388,1.654,1.961  c0.88,0.748,1.88,1.334,2.973,1.72C41.128,81.715,41.862,81.876,42.608,81.981z"/><text x="0" y="115" fill="#000000" font-size="5px" font-weight="bold" font-family="'Helvetica Neue', Helvetica, Arial-Unicode, Arial, Sans-serif">Created by Aldric Rodríguez</text><text x="0" y="120" fill="#000000" font-size="5px" font-weight="bold" font-family="'Helvetica Neue', Helvetica, Arial-Unicode, Arial, Sans-serif">from the Noun Project</text></svg>