<svg id="Layer_1" data-name="Layer 1" xmlns="http://www.w3.org/2000/svg" viewBox="0 0 559 558.93"><defs><style>.cls-1{fill:#ed8568;}.cls-2{fill:#f5dace;}.cls-3,.cls-4,.cls-5,.cls-6,.cls-7{fill:none;stroke:#f5dace;}.cls-11,.cls-3,.cls-4,.cls-5,.cls-6,.cls-7,.cls-8{stroke-miterlimit:10;}.cls-3{stroke-width:4.65px;}.cls-4{stroke-width:2.88px;}.cls-5{stroke-width:3.13px;}.cls-7{stroke-width:3.05px;}.cls-8,.cls-9{fill:#de6651;}.cls-8{stroke:#de6651;}.cls-10{fill:#7fd1e9;}.cls-11{fill:#c3e7f0;stroke:#000;stroke-width:0.5px;}</style></defs><title>bitcoin-3125488-color-border</title><circle class="cls-1" cx="499.96" cy="500" r="273.16" transform="translate(-323.64 -89.62) rotate(-13.54)"/><rect class="cls-1" x="451.42" y="308.42" width="38.24" height="41.22"/><polygon class="cls-1" points="456.98 314.6 456.98 322.39 484.24 349.65 484.24 339.94 456.98 314.6"/><polygon class="cls-1" points="463.95 316.3 484.12 336.47 484.12 326.39 469.94 312.2 459.93 312.2 463.95 316.3"/><polygon class="cls-1" points="458.03 327.05 478.76 347.78 464.53 347.78 455.44 338.7 455.44 324.34 458.03 327.05"/><path class="cls-2" d="M500.21,714.9c-118.5,0-214.9-96.4-214.9-214.9s96.4-214.9,214.9-214.9c106.46,0,197.58,79,212.7,184h13.47v4h-17l-.24-1.75C695.07,367.5,605.25,289.14,500.21,289.14c-116.27,0-210.86,94.59-210.86,210.86s94.59,210.87,210.86,210.87c80.88,0,155.64-47.2,190.45-120.24l3.64,1.73C658.82,666.8,582.63,714.9,500.21,714.9Z" transform="translate(-220.5 -220.54)"/><path class="cls-2" d="M500.21,706.67c-114,0-206.67-92.71-206.67-206.67s92.71-206.66,206.67-206.66A206.3,206.3,0,0,1,700.33,448.19h7v4H697.18l-.38-1.53A202.26,202.26,0,0,0,500.21,297.37c-111.73,0-202.63,90.9-202.63,202.63s90.9,202.63,202.63,202.63a202.35,202.35,0,0,0,154.87-72l3.08,2.61A206.39,206.39,0,0,1,500.21,706.67Z" transform="translate(-220.5 -220.54)"/><path class="cls-2" d="M656.62,632" transform="translate(-220.5 -220.54)"/><path class="cls-2" d="M661.73,625.68" transform="translate(-220.5 -220.54)"/><path class="cls-2" d="M692.29,458.77" transform="translate(-220.5 -220.54)"/><path class="cls-2" d="M677.48,584.69" transform="translate(-220.5 -220.54)"/><path class="cls-2" d="M677.48,584.69" transform="translate(-220.5 -220.54)"/><path class="cls-2" d="M653.34,623" transform="translate(-220.5 -220.54)"/><path class="cls-2" d="M503.49,698.41V676.07h4v18.19a194.1,194.1,0,0,0,144.23-72.51l3.14,2.53a198.13,198.13,0,0,1-149.34,74.08Z" transform="translate(-220.5 -220.54)"/><path class="cls-2" d="M472.32,696.5l-2.32-.35A198.48,198.48,0,0,1,301.78,500c0-109.41,89-198.43,198.43-198.43,93,0,174.65,65.93,194.05,156.78l-3.95.84c-19-89-99-153.58-190.1-153.58C393,305.61,305.82,392.81,305.82,500c0,94.41,69.67,176.44,162.46,191.79V673.25h4Z" transform="translate(-220.5 -220.54)"/><path class="cls-2" d="M685,464.42" transform="translate(-220.5 -220.54)"/><path class="cls-2" d="M671.92,577.1" transform="translate(-220.5 -220.54)"/><path class="cls-2" d="M513.37,689.76V676.07h4v9.3a186.17,186.17,0,0,0,132-74.06l.19-.22,26.31-26.31h68l16.19,8.27-1.84,3.59L743,588.82H677.61l-25,25a190.19,190.19,0,0,1-137,75.74Z" transform="translate(-220.5 -220.54)"/><path class="cls-2" d="M465.64,687.08l-2.41-.48C374.45,669.11,310,590.63,310,500A189.57,189.57,0,0,1,468.26,312.48l2.35-.4v31.14h-4V316.87A185.54,185.54,0,0,0,314.05,500c0,87.89,61.91,164.1,147.56,182.15v-8.9h4Z" transform="translate(-220.5 -220.54)"/><path class="cls-2" d="M775,497.1l-19.31-8.56-54.44-.18-18.16-23.09-.09-.48A185.31,185.31,0,0,0,510.78,314.14v29.93h-4V309.9l2.11.1A189.34,189.34,0,0,1,686.92,463.55l16.34,20.78,53.34.18,20.08,8.9Z" transform="translate(-220.5 -220.54)"/><path class="cls-2" d="M678.53,475.73" transform="translate(-220.5 -220.54)"/><path class="cls-2" d="M665.78,570.59" transform="translate(-220.5 -220.54)"/><path class="cls-2" d="M533.11,679l-.73-4a177.12,177.12,0,0,0,111.9-70.61l.21-.24,26.39-26.39h75l17.22,7.71-1.65,3.68L745,581.81H672.56l-25.1,25.1A181.12,181.12,0,0,1,533.11,679Z" transform="translate(-220.5 -220.54)"/><path class="cls-2" d="M450.89,675.2c-78.1-21.94-132.64-94-132.64-175.2,0-84.75,60-159.48,142.62-177.69l2.45-.54v24.5h-4V326.81c-79.54,18.73-137,91.16-137,173.19,0,79.41,53.33,149.86,129.7,171.31Z" transform="translate(-220.5 -220.54)"/><path class="cls-2" d="M775.58,506.51l-19.41-9.68H695.25l-18.64-20.19-.09-.63c-10.91-80.9-77.36-144.92-158.44-153v21.8h-4V318.55l2.19.19C600,326,668.93,391.65,680.44,474.83l16.58,18h60.11l20.26,10.11Z" transform="translate(-220.5 -220.54)"/><path class="cls-2" d="M500.21,673.72A174,174,0,0,1,332.48,545.4l-.36-1.35,15.25-10.93h60v4h-58.7l-11.92,8.54a169.74,169.74,0,0,0,304.48,48.73l.25-.3,24.45-24.45h81.17l17.74,7.57-1.58,3.71-17-7.24H667.59l-23.13,23.13A173.6,173.6,0,0,1,500.21,673.72Z" transform="translate(-220.5 -220.54)"/><path class="cls-2" d="M423.87,529.75H342.23l-15.14-15.14-.06-.74c-.36-4.59-.55-9.26-.55-13.87,0-78,52.45-146.86,127.55-167.52l2.55-.7v22.28h-4v-17a170.1,170.1,0,0,0-122,162.9c0,4.25.16,8.56.48,12.81l12.91,12.9h80Z" transform="translate(-220.5 -220.54)"/><path class="cls-2" d="M773.51,514.68l-17.29-8.79H688.94l-19.67-20.65-.06-.7c-7-77.9-67.93-141.7-145.19-152.57v21h-4V327.37l2.27.29c80,10.13,143.33,75.6,150.91,155.81l17.51,18.38h66.52l18.16,9.23Z" transform="translate(-220.5 -220.54)"/><path class="cls-2" d="M671.92,500" transform="translate(-220.5 -220.54)"/><path class="cls-2" d="M660.52,561.64" transform="translate(-220.5 -220.54)"/><path class="cls-2" d="M385.41,619.19A166.08,166.08,0,0,1,343,551.73l-.42-1.28,11.06-9.54h50.55v4H355.11l-7.88,6.8a162.11,162.11,0,0,0,41,64.54Z" transform="translate(-220.5 -220.54)"/><path class="cls-2" d="M500.21,665.49a165.62,165.62,0,0,1-48.07-7.09l1.17-3.86a161.71,161.71,0,0,0,183.07-67.77l.29-.36,27.54-26.79h13.26v4H665.85l-26.19,25.48A164.9,164.9,0,0,1,500.21,665.49Z" transform="translate(-220.5 -220.54)"/><path class="cls-2" d="M775,524.75,753,514H681.56l-20.17-23.4,0-.68c-5.24-84.87-76-151.35-161.14-151.35-89,0-161.45,72.43-161.45,161.45,0,.85,0,1.69,0,2.53l16.86,16.86H399v4H354l-19.2-19.2,0-.81q0-1.7,0-3.42c0-91.25,74.24-165.49,165.49-165.49,87,0,159.42,67.79,165.13,154.45l18.08,21H754l22.76,11.2Z" transform="translate(-220.5 -220.54)"/><path class="cls-2" d="M387.86,610a156.52,156.52,0,0,1-34.12-52.69l-.51-1.29,9.3-8.49h27.11v4H364.09L358,557.15a152.46,152.46,0,0,0,32.73,50Z" transform="translate(-220.5 -220.54)"/><path class="cls-2" d="M500.21,657.25a157.14,157.14,0,0,1-47.48-7.3l1.22-3.85a153.44,153.44,0,0,0,179.28-70l.32-.42,22.89-22.93h17.85v4H658.11l-21.52,21.56A157.76,157.76,0,0,1,500.21,657.25Z" transform="translate(-220.5 -220.54)"/><path class="cls-2" d="M773.49,530.75l-17.33-9.12-79.41-.7-23.34-23.34,0-.81c-1.71-82.71-70.42-150-153.18-150a152.78,152.78,0,0,0-153,145.94l18.72,18.72h26.71v4H364.21l-21.16-21.16,0-.88a157.25,157.25,0,0,1,314.32,2.44l21,21,78.74.69,18.2,9.58Z" transform="translate(-220.5 -220.54)"/><path class="cls-2" d="M647.1,505.68" transform="translate(-220.5 -220.54)"/><path class="cls-2" d="M773.5,536.93l-18.24-9.42L665.52,527l-20.47-20.47,0-.88q.11-2.79.11-5.61c0-79.94-65-145-145-145A144.41,144.41,0,0,0,356,484.61l20.79,20.79h17.39v4H375.16l-23.33-23.33.09-1A148.43,148.43,0,0,1,500.21,351c82.17,0,149,66.85,149,149q0,2.45-.08,4.88l18.06,18.05,89,.55,19.1,9.86Z" transform="translate(-220.5 -220.54)"/><path class="cls-2" d="M390.51,600.86a149.11,149.11,0,0,1-25.06-37.17l-.61-1.29,7.44-7.44h23v4H374l-4.24,4.24a145.14,145.14,0,0,0,23.77,34.88Z" transform="translate(-220.5 -220.54)"/><path class="cls-2" d="M516.07,649H500.21a148.73,148.73,0,0,1-48.13-7.95l1.3-3.82A144.77,144.77,0,0,0,500.21,645h15.86Z" transform="translate(-220.5 -220.54)"/><path class="cls-2" d="M671.44,534.76H662L636.7,508.42l0-.88c.14-2.51.2-5.05.2-7.55,0-75.4-61.34-136.74-136.74-136.74A136.19,136.19,0,0,0,365.47,476.51l23.82,23.82h7.49v4h-9.16l-26.47-26.47.17-1A140.22,140.22,0,0,1,500.21,359.22C577.84,359.22,641,422.37,641,500c0,2.28-.06,4.59-.17,6.89l22.92,23.83h7.7Z" transform="translate(-220.5 -220.54)"/><path class="cls-2" d="M392.68,590.87a141.3,141.3,0,0,1-15-21.56l-.87-1.53L386.93,560l2.45,3.2L382,568.85a137.32,137.32,0,0,0,13.73,19.42Z" transform="translate(-220.5 -220.54)"/><polygon class="cls-2" points="454.81 320.51 435.18 320.43 433.09 319.82 399.85 286.57 402.7 283.72 435.22 316.24 436.04 316.48 454.81 316.48 454.81 320.51"/><rect class="cls-2" x="156.87" y="269.19" width="45.76" height="4.04"/><path class="cls-2" d="M423.13,488.57H384.37l-14-14,.25-1.09c.37-1.62,9.32-40,27.54-51.6l2.17,3.4c-15.24,9.74-23.93,41.74-25.51,48L386,484.53h37.09Z" transform="translate(-220.5 -220.54)"/><path class="cls-2" d="M423.13,482H397l-14.85-15.48.06-.89c1-15.24,22-39.81,22.89-40.85l3.06,2.63C408,427.61,388,451,386.31,465l12.41,12.93h24.41Z" transform="translate(-220.5 -220.54)"/><polygon class="cls-2" points="202.63 253.39 189.02 253.39 171.13 236.53 186.74 211.75 202.63 211.75 202.63 215.78 188.97 215.78 176.31 235.87 190.63 249.35 202.63 249.35 202.63 253.39"/><polygon class="cls-2" points="167.63 360.98 164.99 357.93 174.8 349.41 201.33 349.41 201.33 353.45 176.31 353.45 167.63 360.98"/><rect class="cls-2" x="327.98" y="412.99" width="26.2" height="4.04"/><path class="cls-2" d="M435.19,653.81,407.78,638l.32-1.67a2.18,2.18,0,0,1,2.11-1.62h24v4H417.15l20.05,11.55Zm-24.06-18.52h0Z" transform="translate(-220.5 -220.54)"/><rect class="cls-2" x="253.89" y="88.64" width="4.04" height="32.18"/><polygon class="cls-2" points="549.4 345.09 531.21 337.12 487.07 337.12 487.07 333.08 532.05 333.08 551.02 341.4 549.4 345.09"/><polygon class="cls-2" points="549.4 336.07 531.21 328.1 487.07 328.1 487.07 324.06 532.05 324.06 551.02 332.38 549.4 336.07"/><polygon class="cls-2" points="549.4 328.31 531.21 320.33 487.07 320.33 487.07 316.3 532.06 316.3 551.02 324.62 549.4 328.31"/><polygon class="cls-2" points="549.4 320.55 531.21 312.57 487.07 312.57 487.07 308.54 532.05 308.54 551.02 316.85 549.4 320.55"/><polygon class="cls-2" points="544.76 353.14 526.46 345.26 487.07 345.26 487.07 341.23 527.29 341.23 546.36 349.44 544.76 353.14"/><path class="cls-3" d="M473.9,373.79s15.51-6.94,48.13-2.11" transform="translate(-220.5 -220.54)"/><path class="cls-4" d="M494.62,429.2H521s13.94,1.6,15.21,13.5v19.68s1,8.19-13.47,13.93H503.23v-3.79h-17.1v6.25h4V483" transform="translate(-220.5 -220.54)"/><path class="cls-4" d="M492,432.48s.17-4.52-4.85-3.29" transform="translate(-220.5 -220.54)"/><line class="cls-4" x1="272.69" y1="234.53" x2="309.87" y2="234.53"/><polyline class="cls-4" points="274.13 231.16 298.41 231.16 298.41 234.06"/><polyline class="cls-4" points="274.13 237.95 308.64 237.95 308.64 247.37"/><polyline class="cls-4" points="264.4 243.89 270.13 243.89 270.13 247.37 273.4 247.37 273.4 251.67"/><polyline class="cls-4" points="282.18 237.95 282.18 245.53 270.13 245.53"/><polyline class="cls-4" points="264.4 236.31 270.13 236.31 270.13 240.17"/><rect class="cls-2" x="269.6" y="213.67" width="3.8" height="6.13" rx="0.73" ry="0.73"/><rect class="cls-2" x="276.59" y="210.79" width="11.18" height="18.01" rx="2.15" ry="2.15"/><rect class="cls-2" x="309.37" y="222.16" width="12.79" height="18.01" rx="2.29" ry="2.29"/><rect class="cls-2" x="291.56" y="211.95" width="13.69" height="16.76" rx="2.29" ry="2.29"/><rect class="cls-2" x="269.6" y="220.33" width="3.8" height="6.13" rx="0.73" ry="0.73"/><polyline class="cls-5" points="264.06 336.17 301.93 336.17 301.93 323.13"/><polyline class="cls-5" points="261.99 344.45 285.72 344.45 285.72 347.14 285.72 353.76 267.99 353.76 262.82 353.76"/><polyline class="cls-5" points="264.06 358.72 271.09 358.72 271.09 353.76 278.96 353.76 278.96 360.59 278.96 369.48"/><path class="cls-6" d="M499.46,582.16h27.31l7.75-8.28a13.43,13.43,0,0,0,3.63-9.18V550.19" transform="translate(-220.5 -220.54)"/><path class="cls-7" d="M557.66,555.36v7a13.44,13.44,0,0,1-8.08,12.5l-22.82,7.3" transform="translate(-220.5 -220.54)"/><path class="cls-5" d="M484.56,533.53h47.18a6.41,6.41,0,0,1,6.41,6.41h0" transform="translate(-220.5 -220.54)"/><path class="cls-6" d="M482.49,524.1c12.69,0,25.39.21,38.06.85,6.21.31,12.45.68,18.61,1.52a39.74,39.74,0,0,1,6.32,1.2c5.15,1.59,10,6.67,9.58,12.23" transform="translate(-220.5 -220.54)"/><path class="cls-8" d="M500,779C374,779,259.52,693,228.78,565.29c-36-149.53,56.36-300.47,205.89-336.47s300.47,56.37,336.47,205.9h0A279.06,279.06,0,0,1,500,779Zm0-546.39A267.08,267.08,0,0,0,437.37,240C294,274.54,205.48,419.24,240,562.59,269.46,685,379.27,767.42,500,767.43a267.44,267.44,0,0,0,260-330h0C730.47,315,620.66,232.57,500,232.57Z" transform="translate(-220.5 -220.54)"/><path class="cls-8" d="M470.3,733.77c-1.57-.19-4.15-.54-5.71-.78l-3.65-.59a2.86,2.86,0,0,1-2.32-3.33l1.55-8.51a3,3,0,0,1,3.37-2.41l22.16,2.61a3,3,0,0,1,2.72,3.13l-.46,8.64a2.82,2.82,0,0,1-3,2.66Z" transform="translate(-220.5 -220.54)"/><path class="cls-8" d="M449.92,727.31a2.85,2.85,0,0,1-3.43,2.16s-3.79-.89-7.06-1.76c-6.35-1.7-16.12-5-16.12-5a2.82,2.82,0,0,1-1.76-3.63l2.92-8.14a3,3,0,0,1,3.71-1.8s9,3,15,4.61c3.07.82,6.46,1.61,6.46,1.61a2.93,2.93,0,0,1,2.18,3.47Z" transform="translate(-220.5 -220.54)"/><path class="cls-8" d="M499.65,735.67a2.78,2.78,0,0,1-2.84-2.83l.13-8.65a3,3,0,0,1,2.93-2.93l22.3-1.09a3,3,0,0,1,3.2,2.63l1,8.59a2.78,2.78,0,0,1-2.55,3.1Z" transform="translate(-220.5 -220.54)"/><path class="cls-8" d="M413.26,716a2.78,2.78,0,0,1-3.71,1.52l-21.78-10.41a2.78,2.78,0,0,1-1.15-3.84l4.22-7.55a3,3,0,0,1,4-1.19l20.13,9.62a3,3,0,0,1,1.56,3.83Z" transform="translate(-220.5 -220.54)"/><path class="cls-8" d="M538.42,732.55a2.78,2.78,0,0,1-3.27-2.32l-1.3-8.55a3,3,0,0,1,2.4-3.38l21.8-4.77a3,3,0,0,1,3.59,2.07l2.38,8.31a2.78,2.78,0,0,1-2,3.48Z" transform="translate(-220.5 -220.54)"/><path class="cls-8" d="M379,698.75a2.78,2.78,0,0,1-3.91.88l-19.76-13.88a2.78,2.78,0,0,1-.5-4l5.41-6.74a3,3,0,0,1,4.11-.52l18.25,12.82a3,3,0,0,1,.91,4Z" transform="translate(-220.5 -220.54)"/><path class="cls-8" d="M576.11,723.06a2.78,2.78,0,0,1-3.61-1.75l-2.7-8.22a3,3,0,0,1,1.81-3.73l20.72-8.29a3,3,0,0,1,3.88,1.45l3.71,7.81a2.78,2.78,0,0,1-1.4,3.76Z" transform="translate(-220.5 -220.54)"/><path class="cls-8" d="M348,676.1a2.78,2.78,0,0,1-4,.22l-17.18-16.94a2.78,2.78,0,0,1,.16-4l6.45-5.76a3,3,0,0,1,4.14.17l15.88,15.65a3,3,0,0,1,.23,4.14Z" transform="translate(-220.5 -220.54)"/><path class="cls-8" d="M611.71,707.51a2.78,2.78,0,0,1-3.85-1.14l-4-7.66a3,3,0,0,1,1.17-4l19.08-11.57a3,3,0,0,1,4.06.79l4.94,7.1a2.78,2.78,0,0,1-.77,3.94Z" transform="translate(-220.5 -220.54)"/><path class="cls-8" d="M321.18,648.66a2.78,2.78,0,0,1-4-.44L303,628.69a2.78,2.78,0,0,1,.82-3.93l7.31-4.63a3,3,0,0,1,4.05.84L328.3,639a3,3,0,0,1-.46,4.12Z" transform="translate(-220.5 -220.54)"/><path class="cls-8" d="M644.28,686.34a2.78,2.78,0,0,1-4-.49l-5.21-6.9a3,3,0,0,1,.51-4.11l16.92-14.53a3,3,0,0,1,4.14.12l6,6.19a2.78,2.78,0,0,1-.11,4Z" transform="translate(-220.5 -220.54)"/><path class="cls-8" d="M299.24,617.18a2.78,2.78,0,0,1-3.86-1.09l-10.79-21.6a2.78,2.78,0,0,1,1.45-3.74l8-3.37a3,3,0,0,1,3.86,1.5l10,20a3,3,0,0,1-1.12,4Z" transform="translate(-220.5 -220.54)"/><path class="cls-8" d="M672.92,660.14a2.78,2.78,0,0,1-4,.17l-6.27-6a3,3,0,0,1-.17-4.14l14.28-17.1a3,3,0,0,1,4.1-.57l7,5.11a2.78,2.78,0,0,1,.55,4Z" transform="translate(-220.5 -220.54)"/><path class="cls-8" d="M282.73,582.52a2.78,2.78,0,0,1-3.63-1.71L272,557.73a2.78,2.78,0,0,1,2-3.45l8.41-2a3,3,0,0,1,3.56,2.11l6.56,21.33a3,3,0,0,1-1.76,3.75Z" transform="translate(-220.5 -220.54)"/><path class="cls-8" d="M696.85,629.59a2.78,2.78,0,0,1-3.92.83l-7.17-4.84a3,3,0,0,1-.86-4.05l11.27-19.25a3,3,0,0,1,4-1.24l7.73,3.88a2.78,2.78,0,0,1,1.2,3.83Z" transform="translate(-220.5 -220.54)"/><path class="cls-8" d="M272.14,545.6a2.78,2.78,0,0,1-3.3-2.28l-3.19-24a2.78,2.78,0,0,1,2.59-3.07l8.63-.59a3,3,0,0,1,3.17,2.67l3,22.13a3,3,0,0,1-2.36,3.41Z" transform="translate(-220.5 -220.54)"/><path class="cls-8" d="M267.8,507.42a2.78,2.78,0,0,1-2.88-2.8l.82-24.13a2.78,2.78,0,0,1,3.06-2.59l8.61.85a3,3,0,0,1,2.68,3.16l-.76,22.29a3,3,0,0,1-2.89,3Z" transform="translate(-220.5 -220.54)"/><path class="cls-8" d="M269.84,469.08c-1.57-.22-2.82-.64-2.78-.94s.3-1.82.57-3.38l4.56-22.36a2.84,2.84,0,0,1,3.46-2.1l8.39,2.11a18.35,18.35,0,0,1,2.77.81l-.69,2.92-4.21,20.65c-.27,1.56-.52,3.07-.56,3.35s-1.36.34-2.93.12Z" transform="translate(-220.5 -220.54)"/><path class="cls-8" d="M290.1,432.3a3,3,0,0,1-3.69,1.88l-8.26-2.55a2.78,2.78,0,0,1-1.82-3.58l8.56-22.57a2.78,2.78,0,0,1,3.73-1.47l7.88,3.58a3,3,0,0,1,1.52,3.85Z" transform="translate(-220.5 -220.54)"/><path class="cls-8" d="M304.13,398.63a3,3,0,0,1-4,1.24L292.45,396a2.78,2.78,0,0,1-1.2-3.83l12.18-20.85a2.78,2.78,0,0,1,3.92-.83l7.17,4.83a3,3,0,0,1,.86,4.05Z" transform="translate(-220.5 -220.54)"/><path class="cls-8" d="M717.88,448.26a3,3,0,0,1-3.57-2.11l-6.58-21.33a3,3,0,0,1,1.76-3.75l8.09-3.07a2.78,2.78,0,0,1,3.63,1.7l7.12,23.08a2.78,2.78,0,0,1-2,3.45Z" transform="translate(-220.5 -220.54)"/><path class="cls-8" d="M323.51,367.78a3,3,0,0,1-4.1.57l-7-5.1a2.78,2.78,0,0,1-.55-4l15.45-18.53a2.78,2.78,0,0,1,4-.17l6.28,5.95a3,3,0,0,1,.18,4.14Z" transform="translate(-220.5 -220.54)"/><path class="cls-8" d="M706.31,413.15a3,3,0,0,1-3.86-1.49l-10-20a3,3,0,0,1,1.12-4l7.47-4.35a2.78,2.78,0,0,1,3.86,1.09L715.72,406a2.78,2.78,0,0,1-1.45,3.74Z" transform="translate(-220.5 -220.54)"/><path class="cls-8" d="M347.72,340.57a3,3,0,0,1-4.14-.11l-6-6.19a2.78,2.78,0,0,1,.11-4l18.29-15.74a2.78,2.78,0,0,1,4,.49l5.21,6.9a3,3,0,0,1-.51,4.11Z" transform="translate(-220.5 -220.54)"/><path class="cls-8" d="M689.13,380.42a3,3,0,0,1-4.06-.84l-13.12-18a3,3,0,0,1,.45-4.12l6.66-5.52a2.78,2.78,0,0,1,4,.44l14.19,19.52a2.78,2.78,0,0,1-.81,3.93Z" transform="translate(-220.5 -220.54)"/><path class="cls-8" d="M376.1,317.68a3,3,0,0,1-4.07-.79l-4.95-7.09a2.78,2.78,0,0,1,.77-3.94l20.63-12.53a2.78,2.78,0,0,1,3.85,1.13l4,7.66a3,3,0,0,1-1.17,4Z" transform="translate(-220.5 -220.54)"/><path class="cls-8" d="M666.85,351a3,3,0,0,1-4.14-.16l-15.89-15.64a3,3,0,0,1-.23-4.14l5.66-6.54a2.78,2.78,0,0,1,4-.22l17.2,16.92a2.78,2.78,0,0,1-.16,4Z" transform="translate(-220.5 -220.54)"/><path class="cls-8" d="M407.86,299.75A3,3,0,0,1,404,298.3l-3.72-7.81a2.78,2.78,0,0,1,1.4-3.76l22.41-9a2.78,2.78,0,0,1,3.61,1.75l2.7,8.21a3,3,0,0,1-1.81,3.73Z" transform="translate(-220.5 -220.54)"/><path class="cls-8" d="M640,325.57a3,3,0,0,1-4.11.52l-18.27-12.8a3,3,0,0,1-.91-4l4.5-7.39a2.78,2.78,0,0,1,3.91-.88l19.78,13.86a2.78,2.78,0,0,1,.5,4Z" transform="translate(-220.5 -220.54)"/><path class="cls-8" d="M442.14,287.25a3,3,0,0,1-3.59-2.06l-2.39-8.31a2.78,2.78,0,0,1,2-3.48l23.6-5.18a2.78,2.78,0,0,1,3.27,2.32l1.31,8.55a3,3,0,0,1-2.4,3.38Z" transform="translate(-220.5 -220.54)"/><path class="cls-8" d="M609.38,304.95a3,3,0,0,1-4,1.2l-20.14-9.6a3,3,0,0,1-1.57-3.83l3.22-8a2.78,2.78,0,0,1,3.71-1.52l21.79,10.39a2.78,2.78,0,0,1,1.16,3.84Z" transform="translate(-220.5 -220.54)"/><path class="cls-8" d="M478,280.58a3,3,0,0,1-3.2-2.63l-1-8.59a2.78,2.78,0,0,1,2.55-3.1l24.14-1.2a2.78,2.78,0,0,1,2.84,2.83l-.12,8.65a3,3,0,0,1-2.92,2.93Z" transform="translate(-220.5 -220.54)"/><path class="cls-8" d="M575.73,289.69a3,3,0,0,1-3.7,1.8s-8.88-3-14.79-4.55c-3.11-.83-6.67-1.66-6.67-1.66a2.93,2.93,0,0,1-2.18-3.47l1.87-8.44a2.85,2.85,0,0,1,3.43-2.16s4,.92,7.27,1.81c6.29,1.68,15.91,4.9,15.91,4.9a2.82,2.82,0,0,1,1.76,3.63Z" transform="translate(-220.5 -220.54)"/><path class="cls-8" d="M514.49,279.95a3,3,0,0,1-2.72-3.12l.46-8.64a2.78,2.78,0,0,1,3-2.64l24,2.81a2.78,2.78,0,0,1,2.34,3.26L540,280.13a3,3,0,0,1-3.37,2.41Z" transform="translate(-220.5 -220.54)"/><path class="cls-8" d="M468.34,728.32a233.88,233.88,0,0,1-27.57-5.62A230.14,230.14,0,1,1,559.62,278C682.21,310.8,755.29,437.2,722.53,559.79A230.21,230.21,0,0,1,468.34,728.32Zm63.16-451.91A226.12,226.12,0,1,0,718.63,558.75l1.95.52-1.95-.52A226.1,226.1,0,0,0,558.58,281.93,230,230,0,0,0,531.49,276.41Z" transform="translate(-220.5 -220.54)"/><rect class="cls-9" x="507.05" y="279.83" width="17.17" height="6.36" rx="2.7" ry="2.7"/><rect class="cls-9" x="507.05" y="288.21" width="17.17" height="6.36" rx="2.7" ry="2.7"/><rect class="cls-9" x="507.05" y="295.46" width="17.17" height="6.36" rx="2.7" ry="2.7"/><rect class="cls-9" x="504.05" y="307.37" width="17.17" height="6.36" rx="2.7" ry="2.7"/><rect class="cls-9" x="504.05" y="315.14" width="17.17" height="6.36" rx="2.7" ry="2.7"/><rect class="cls-9" x="504.05" y="323.28" width="17.17" height="6.36" rx="2.7" ry="2.7"/><rect class="cls-2" x="415.17" y="322.39" width="27.21" height="9.31"/><rect class="cls-2" x="669.24" y="529.68" width="4.21" height="5.46" transform="translate(1122.19 844.28) rotate(180)"/><rect class="cls-2" x="669.24" y="536.53" width="4.21" height="5.46" transform="translate(1122.19 857.99) rotate(180)"/><rect class="cls-2" x="669.24" y="552.03" width="4.21" height="5.46" transform="translate(1122.19 888.99) rotate(180)"/><rect class="cls-2" x="669.24" y="558.89" width="4.21" height="5.46" transform="translate(1122.19 902.7) rotate(180)"/><rect class="cls-2" x="397.25" y="254.87" width="15.59" height="9.08" rx="1.99" ry="1.99"/><rect class="cls-2" x="399.74" y="245.19" width="10.61" height="6.18" rx="1.35" ry="1.35"/><rect class="cls-2" x="399.74" y="238.23" width="10.61" height="6.18" rx="1.35" ry="1.35"/><rect class="cls-2" x="617.35" y="448.34" width="10.61" height="6.18" rx="1.35" ry="1.35" transform="translate(853.59 -391.76) rotate(90)"/><rect class="cls-2" x="186.62" y="234.53" width="13.3" height="8.17"/><rect class="cls-2" x="186.62" y="221.84" width="13.3" height="8.17"/><rect class="cls-2" x="189.58" y="219.37" width="2.78" height="2.78"/><rect class="cls-2" x="194.84" y="219.37" width="2.78" height="2.78"/><rect class="cls-2" x="189.58" y="228.93" width="2.78" height="2.78"/><rect class="cls-2" x="194.84" y="228.93" width="2.78" height="2.78"/><rect class="cls-2" x="189.58" y="232.45" width="2.78" height="2.78"/><rect class="cls-2" x="194.84" y="232.45" width="2.78" height="2.78"/><rect class="cls-2" x="189.58" y="242.01" width="2.78" height="2.78"/><rect class="cls-2" x="194.84" y="242.01" width="2.78" height="2.78"/><rect class="cls-2" x="186.15" y="355.37" width="13.3" height="8.17"/><rect class="cls-2" x="189.11" y="353.29" width="2.78" height="2.78"/><rect class="cls-2" x="194.37" y="353.29" width="2.78" height="2.78"/><rect class="cls-2" x="189.11" y="362.84" width="2.78" height="2.78"/><rect class="cls-2" x="194.37" y="362.84" width="2.78" height="2.78"/><rect class="cls-2" x="318.56" y="154.32" width="13.28" height="8.16"/><rect class="cls-2" x="321.51" y="152.24" width="2.77" height="2.77"/><rect class="cls-2" x="326.76" y="152.24" width="2.77" height="2.77"/><rect class="cls-2" x="321.51" y="161.79" width="2.77" height="2.77"/><rect class="cls-2" x="326.76" y="161.79" width="2.77" height="2.77"/><rect class="cls-2" x="212.74" y="412.12" width="13.3" height="8.17"/><rect class="cls-2" x="215.7" y="410.04" width="2.78" height="2.78"/><rect class="cls-2" x="220.96" y="410.04" width="2.78" height="2.78"/><rect class="cls-2" x="215.7" y="419.6" width="2.78" height="2.78"/><rect class="cls-2" x="220.96" y="419.6" width="2.78" height="2.78"/><rect class="cls-2" x="212.74" y="426.67" width="13.3" height="8.17"/><rect class="cls-2" x="215.7" y="424.59" width="2.78" height="2.78"/><rect class="cls-2" x="220.96" y="424.59" width="2.78" height="2.78"/><rect class="cls-2" x="215.7" y="434.14" width="2.78" height="2.78"/><rect class="cls-2" x="220.96" y="434.14" width="2.78" height="2.78"/><rect class="cls-2" x="165.01" y="275.54" width="23.27" height="13.77"/><path class="cls-2" d="M408.78,498.41v10.66h13.05V498.41ZM419.12,505h-6.65v-4.51h6.65Z" transform="translate(-220.5 -220.54)"/><rect class="cls-2" x="165.01" y="290.57" width="23.27" height="13.77"/><path class="cls-2" d="M408.78,513.44V524.1h13.05V513.44ZM419.12,520h-6.65v-4.51h6.65Z" transform="translate(-220.5 -220.54)"/><rect class="cls-2" x="165.01" y="305.6" width="23.27" height="13.77"/><path class="cls-2" d="M408.78,528.46v10.66h13.05V528.46Zm10.34,6.59h-6.65v-4.51h6.65Z" transform="translate(-220.5 -220.54)"/><rect class="cls-2" x="165.01" y="320.63" width="23.27" height="13.77"/><path class="cls-2" d="M408.78,543.49v10.66h13.05V543.49Zm10.34,6.59h-6.65v-4.51h6.65Z" transform="translate(-220.5 -220.54)"/><rect class="cls-2" x="165.01" y="335.65" width="23.27" height="13.77"/><path class="cls-2" d="M408.78,558.52v10.66h13.05V558.52Zm10.34,6.59h-6.65V560.6h6.65Z" transform="translate(-220.5 -220.54)"/><rect class="cls-2" x="172.26" y="271.2" width="4.39" height="79.45"/><rect class="cls-2" x="180.29" y="271.2" width="4.39" height="79.45"/><rect class="cls-2" x="318.25" y="411.52" width="10.49" height="9.37"/><rect class="cls-2" x="320.05" y="419.45" width="2.04" height="3.37"/><rect class="cls-2" x="324.14" y="418.97" width="1.42" height="3.85"/><rect class="cls-2" x="320.05" y="409.72" width="2.04" height="3.37"/><rect class="cls-2" x="324.14" y="409.72" width="1.42" height="3.85"/><rect class="cls-2" x="264.89" y="88.64" width="15.7" height="10.5"/><rect class="cls-2" x="264.89" y="102.31" width="15.7" height="10.5"/><path class="cls-2" d="M475.68,331.57h10.38v-6.95H475.68Zm3.79-4.9h4.27v2.85h-4.27Z" transform="translate(-220.5 -220.54)"/><path class="cls-2" d="M475.68,317.07h10.38v-6.95H475.68Zm3.79-4.9h4.27V315h-4.27Z" transform="translate(-220.5 -220.54)"/><rect class="cls-2" x="267.6" y="87.62" width="3.05" height="12.59"/><rect class="cls-2" x="274.49" y="87.62" width="3.05" height="12.59"/><rect class="cls-2" x="267.6" y="101.27" width="3.05" height="12.59"/><rect class="cls-2" x="274.49" y="101.27" width="3.05" height="12.59"/><rect class="cls-2" x="264.92" y="457.27" width="15.7" height="10.5"/><rect class="cls-2" x="264.92" y="470.95" width="15.7" height="10.5"/><path class="cls-2" d="M475.71,700.21H486.1v-6.95H475.71Zm3.79-4.9h4.27v2.85H479.5Z" transform="translate(-220.5 -220.54)"/><path class="cls-2" d="M475.71,685.7H486.1v-6.95H475.71Zm3.79-4.9h4.27v2.85H479.5Z" transform="translate(-220.5 -220.54)"/><rect class="cls-2" x="267.63" y="456.25" width="3.05" height="12.59"/><rect class="cls-2" x="274.52" y="456.25" width="3.05" height="12.59"/><rect class="cls-2" x="267.63" y="469.9" width="3.05" height="12.59"/><rect class="cls-2" x="274.52" y="469.9" width="3.05" height="12.59"/><rect class="cls-2" x="354.44" y="637.56" width="19.95" height="7.92" rx="3.96" ry="3.96" transform="translate(306.15 -298.76) rotate(42.3)"/><rect class="cls-2" x="346.23" y="616.8" width="19.95" height="7.92" rx="3.96" ry="3.96" transform="translate(386.83 -269.97) rotate(50.39)"/><rect class="cls-2" x="340.98" y="595.53" width="19.95" height="7.92" rx="3.96" ry="3.96" transform="translate(441.23 -242.31) rotate(56.92)"/><rect class="cls-2" x="355.75" y="363.31" width="19.95" height="7.92" rx="3.96" ry="3.96" transform="translate(663.08 168.77) rotate(137.32)"/><rect class="cls-2" x="376.77" y="355.77" width="19.95" height="7.92" rx="3.96" ry="3.96" transform="translate(692.29 186.72) rotate(142.23)"/><rect class="cls-2" x="398.2" y="351.21" width="19.95" height="7.92" rx="3.96" ry="3.96" transform="translate(720.86 226.67) rotate(148.77)"/><rect class="cls-2" x="624.58" y="364.43" width="19.95" height="7.92" rx="3.96" ry="3.96" transform="translate(565.55 865.79) rotate(-132.05)"/><rect class="cls-2" x="631.89" y="385.52" width="19.95" height="7.92" rx="3.96" ry="3.96" transform="translate(498.35 915.79) rotate(-127.13)"/><rect class="cls-2" x="636.22" y="407.01" width="19.95" height="7.92" rx="3.96" ry="3.96" transform="translate(400.93 955.84) rotate(-120.6)"/><path class="cls-9" d="M272.11,421.5l-19.46-7.21,1.55-4.18a17.55,17.55,0,0,1,.85-2,5.65,5.65,0,0,1,.83-1.2,5.76,5.76,0,0,1,2.8-1.76,5.2,5.2,0,0,1,3.19.21,5.28,5.28,0,0,1,2.14,1.37,3.57,3.57,0,0,1,.9,2,4.3,4.3,0,0,1,2.49-1.66,5.36,5.36,0,0,1,3.21.24,6.9,6.9,0,0,1,2.37,1.46,5.43,5.43,0,0,1,1.79,4.54,12.65,12.65,0,0,1-.84,3.26Zm-10.27-8,.16-.44a4.24,4.24,0,0,0,.31-2.56,2.11,2.11,0,0,0-1.42-1.41,2,2,0,0,0-1.89.14,4.25,4.25,0,0,0-1.37,2.09l-.2.54Zm8.2,3,.43-1.15a4.72,4.72,0,0,0,.36-2.77,2.2,2.2,0,0,0-1.49-1.48,2.57,2.57,0,0,0-2.32.12,4.22,4.22,0,0,0-1.61,2.26L265,414.7Z" transform="translate(-220.5 -220.54)"/><path class="cls-9" d="M277.81,406.69l-19.07-8.18,1.6-3.73L279.42,403Z" transform="translate(-220.5 -220.54)"/><path class="cls-9" d="M267,380.58l3.28,1.59-1.7,3.51,15.4,7.44-1.76,3.65-15.4-7.44-1.7,3.51-3.28-1.59Z" transform="translate(-220.5 -220.54)"/><path class="cls-9" d="M283.66,363.49l-2.47,4.3a5.75,5.75,0,0,0-2.61.92,6.2,6.2,0,0,0-1.9,2.11,6.14,6.14,0,0,0-.78,2.3,5.9,5.9,0,0,0,.19,2.41,6.91,6.91,0,0,0,8.17,4.82,6,6,0,0,0,3.91-2.92,6.43,6.43,0,0,0,.87-2.66,4.91,4.91,0,0,0-.45-2.54l2.48-4.31a11,11,0,0,1,2.21,5.74,11.09,11.09,0,0,1-4.43,9.1,10.59,10.59,0,0,1-4.08,1.74,10.1,10.1,0,0,1-3.9.07,11.63,11.63,0,0,1-3.82-1.4,10.38,10.38,0,0,1-3.15-2.77,11.13,11.13,0,0,1-1.86-3.87,10.45,10.45,0,0,1-.27-4,10.33,10.33,0,0,1,1.32-3.82,10.17,10.17,0,0,1,4.31-4.23A11.67,11.67,0,0,1,283.66,363.49Z" transform="translate(-220.5 -220.54)"/><path class="cls-9" d="M288.89,363a11.15,11.15,0,0,1-2.37-2.24A10.34,10.34,0,0,1,285,358a10.63,10.63,0,0,1,1.36-10,10.27,10.27,0,0,1,3-2.78,10.85,10.85,0,0,1,8.07-1.37,10.3,10.3,0,0,1,3.79,1.69,11.41,11.41,0,0,1,3,3,10.21,10.21,0,0,1,1.52,3.83,10.37,10.37,0,0,1,0,4.25,10.57,10.57,0,0,1-1.71,3.88,10.81,10.81,0,0,1-3.15,3,10,10,0,0,1-4,1.4,10.57,10.57,0,0,1-4.09-.21A11.1,11.1,0,0,1,288.89,363Zm2.35-3.56a6.93,6.93,0,0,0,2.29,1.08,6.64,6.64,0,0,0,2.48.15,6.77,6.77,0,0,0,2.56-.84,5.87,5.87,0,0,0,1.91-1.72,6.06,6.06,0,0,0,1.06-4.85,6.73,6.73,0,0,0-2.87-4.3,6.18,6.18,0,0,0-4.77-1.1,6.07,6.07,0,0,0-4.11,2.56,6.34,6.34,0,0,0-1.15,4.85A6.12,6.12,0,0,0,291.24,359.46Z" transform="translate(-220.5 -220.54)"/><path class="cls-9" d="M312,349.18,295.9,336.07l2.57-3.14L314.54,346Z" transform="translate(-220.5 -220.54)"/><path class="cls-9" d="M319.91,339.75l-2.71,2.93-15.25-14.07,2.61-2.83,15.56,2.68-9.74-9,2.69-2.92,15.25,14.06-2.55,2.77-15.9-2.89Z" transform="translate(-220.5 -220.54)"/><path class="cls-9" d="M324.67,319.8a1.83,1.83,0,0,1-.53-1.38,2,2,0,0,1,2-1.91,1.83,1.83,0,0,1,1.36.59,1.95,1.95,0,0,1-.06,2.76,1.94,1.94,0,0,1-2.76-.06Z" transform="translate(-220.5 -220.54)"/><path class="cls-9" d="M343.58,316.64l-5.4,4.54-13.37-15.87,5.31-4.47a14.7,14.7,0,0,1,3.82-2.47,8.07,8.07,0,0,1,3.58-.52,9.23,9.23,0,0,1,3.92,1.2,13,13,0,0,1,3.51,3,11.7,11.7,0,0,1,2.45,4.54,9.34,9.34,0,0,1,0,4.78,7.24,7.24,0,0,1-1.18,2.56A16.17,16.17,0,0,1,343.58,316.64Zm-2.49-2.56q2.59-2.17,2.74-4.47t-2.11-5a6.9,6.9,0,0,0-4.58-2.72,6.5,6.5,0,0,0-4.89,1.77l-2,1.71L339,315.82Z" transform="translate(-220.5 -220.54)"/><path class="cls-9" d="M354.32,308l-12.38-16.65,3.26-2.42,12.38,16.65Z" transform="translate(-220.5 -220.54)"/><path class="cls-9" d="M372.06,282.65l.2.29.2.29a12,12,0,0,1,1.14,2.22,9.12,9.12,0,0,1,.55,2.21,11,11,0,0,1-.91,6,11,11,0,0,1-8.08,6,10.81,10.81,0,0,1-4.46-.29,10.47,10.47,0,0,1-3.52-1.73,11.3,11.3,0,0,1-2.75-3,10.24,10.24,0,0,1-1.52-3.91,11.13,11.13,0,0,1,.15-4.31,10.14,10.14,0,0,1,1.65-3.76,11.35,11.35,0,0,1,3.11-2.89,10.1,10.1,0,0,1,5.75-1.76,10.45,10.45,0,0,1,5.76,2l-4.14,2.67a5.82,5.82,0,0,0-2.69-.27,6.46,6.46,0,0,0-2.6,1,6,6,0,0,0-2.75,4.07,6.84,6.84,0,0,0,5.1,7.87,6.21,6.21,0,0,0,4.91-.89,6.17,6.17,0,0,0,2.76-6.29l-6.85,4.42-1.89-2.92Z" transform="translate(-220.5 -220.54)"/><path class="cls-9" d="M381.12,290.4,371,272.26l3.55-2,10.08,18.14Z" transform="translate(-220.5 -220.54)"/><path class="cls-9" d="M388.58,263.13l1.63,3.27-3.5,1.74,7.64,15.3-3.62,1.81-7.64-15.3-3.5,1.74L378,268.42Z" transform="translate(-220.5 -220.54)"/><path class="cls-9" d="M400.29,275.84l.22,4.63-3.87,1.65-.73-22.25,3.22-1.37,15.44,16-4,1.71-3.21-3.36Zm4.34-6-4.87-5.19.31,7.13Z" transform="translate(-220.5 -220.54)"/><path class="cls-9" d="M426.13,270.54,416.19,274l-6.86-19.58,3.8-1.33,5.65,16.14,6.15-2.15Z" transform="translate(-220.5 -220.54)"/><path class="cls-9" d="M426.79,259.51A1.84,1.84,0,0,1,427,258a2,2,0,0,1,2.65-.79,1.84,1.84,0,0,1,.94,1.15,2,2,0,0,1-2.8,2.28A1.87,1.87,0,0,1,426.79,259.51Z" transform="translate(-220.5 -220.54)"/><path class="cls-9" d="M445,265.36l-6.88,1.58-4.64-20.22,6.76-1.55a14.55,14.55,0,0,1,4.53-.46,8.13,8.13,0,0,1,3.43,1.17,9.22,9.22,0,0,1,2.94,2.86,13,13,0,0,1,1.76,4.26,11.71,11.71,0,0,1,.1,5.16,9.41,9.41,0,0,1-2.16,4.26,7.34,7.34,0,0,1-2.22,1.74A16.19,16.19,0,0,1,445,265.36Zm-1-3.41q3.29-.76,4.48-2.73t.4-5.4a6.92,6.92,0,0,0-2.83-4.51,6.48,6.48,0,0,0-5.16-.66l-2.58.59,3.05,13.31Z" transform="translate(-220.5 -220.54)"/><path class="cls-9" d="M469.47,260.87l-11.08,1.68L455.28,242l11.08-1.68.54,3.61L459.8,245l.71,4.68,7.1-1.07.54,3.55-7.1,1.08.77,5.07,7.1-1.08Z" transform="translate(-220.5 -220.54)"/><path class="cls-9" d="M491.88,244.34l-4.95.35a5.74,5.74,0,0,0-2.22-1.64,6.2,6.2,0,0,0-2.81-.4,6.07,6.07,0,0,0-2.34.64,5.94,5.94,0,0,0-1.89,1.51,6.91,6.91,0,0,0,.57,9.47,6,6,0,0,0,4.61,1.61,6.42,6.42,0,0,0,2.7-.76,4.88,4.88,0,0,0,1.85-1.79l5-.35a11,11,0,0,1-3.53,5,11.07,11.07,0,0,1-10,1.41,10.59,10.59,0,0,1-3.72-2.41,10.1,10.1,0,0,1-2.24-3.19,11.6,11.6,0,0,1-1-4,10.39,10.39,0,0,1,.53-4.16,11.13,11.13,0,0,1,2.16-3.71,10.52,10.52,0,0,1,3.19-2.48,11,11,0,0,1,9.83.16A11.64,11.64,0,0,1,491.88,244.34Z" transform="translate(-220.5 -220.54)"/><path class="cls-9" d="M507.2,259.07,496,259l.16-20.75,11.2.09,0,3.65-7.18-.05,0,4.73,7.18.05,0,3.59-7.18-.06,0,5.13,7.18.05Z" transform="translate(-220.5 -220.54)"/><path class="cls-9" d="M515.25,259.48l-4-.33,1.7-20.68,3.84.32,7.47,13.91,1.08-13.21,4,.32-1.7,20.68-3.75-.31-7.51-14.31Z" transform="translate(-220.5 -220.54)"/><path class="cls-9" d="M545.09,242.16l-.55,3.6-3.86-.59-2.58,16.9-4-.61,2.58-16.91-3.86-.59.55-3.61Z" transform="translate(-220.5 -220.54)"/><path class="cls-9" d="M548.67,264l-4-.86,4.42-20.27,4.82,1a27.22,27.22,0,0,1,3.38.91,7.12,7.12,0,0,1,1.8.94,6.14,6.14,0,0,1,2.14,2.83,7,7,0,0,1-2,7.3,5.89,5.89,0,0,1-4,1.31l3.35,9-4.73-1-3.18-10.56Zm2.27-10.41.88.19a6.53,6.53,0,0,0,3.84-.08,3,3,0,0,0,1.8-2.27,2.81,2.81,0,0,0-.53-2.61,5.65,5.65,0,0,0-3.09-1.48l-1.48-.32Z" transform="translate(-220.5 -220.54)"/><path class="cls-9" d="M565.72,263.66l-2.78,3.71-4-1.19,13.61-17.61,3.36,1,1.72,22.15-4.17-1.23-.34-4.64Zm7.18-1.89-.45-7.1-4.3,5.7Z" transform="translate(-220.5 -220.54)"/><path class="cls-9" d="M588.93,276l-9.88-3.65,7.18-19.47,3.77,1.39-5.92,16,6.11,2.26Z" transform="translate(-220.5 -220.54)"/><path class="cls-9" d="M592,277.33l8.08-19.11,3.74,1.58-8.08,19.11Z" transform="translate(-220.5 -220.54)"/><path class="cls-9" d="M610.37,285.73l-11.73-5.64,1.56-3.24,13.15-8.45-6.86-3.3,1.67-3.47,11,5.29-1.44,3-13.41,8.62,7.71,3.7Z" transform="translate(-220.5 -220.54)"/><path class="cls-9" d="M622.78,292.6,613,287.13,623.14,269l9.77,5.47-1.78,3.19-6.27-3.51-2.31,4.13,6.27,3.51-1.75,3.13-6.27-3.51-2.51,4.48,6.27,3.51Z" transform="translate(-220.5 -220.54)"/><path class="cls-9" d="M632.21,298.55l-5.88-3.9,11.46-17.3,5.79,3.83a14.56,14.56,0,0,1,3.45,3,8,8,0,0,1,1.51,3.29,9.18,9.18,0,0,1-.05,4.1,13,13,0,0,1-1.88,4.21,11.69,11.69,0,0,1-3.67,3.63,9.4,9.4,0,0,1-4.58,1.37,7.25,7.25,0,0,1-2.79-.41A16.17,16.17,0,0,1,632.21,298.55Zm1.75-3.11q2.82,1.86,5.06,1.37t4.19-3.43a6.91,6.91,0,0,0,1.32-5.16,6.49,6.49,0,0,0-3.08-4.19l-2.21-1.46-7.54,11.38Z" transform="translate(-220.5 -220.54)"/><path class="cls-9" d="M650.21,298.45a1.85,1.85,0,0,1,1.28-.75,2,2,0,0,1,2.2,1.67,1.84,1.84,0,0,1-.37,1.44,2,2,0,0,1-3.5-.9A1.87,1.87,0,0,1,650.21,298.45Z" transform="translate(-220.5 -220.54)"/><path class="cls-9" d="M654.07,314.71,651,312.09l13.38-15.87,3.94,3.33a17.72,17.72,0,0,1,2.23,2.16,4.94,4.94,0,0,1,1,1.7,6.07,6.07,0,0,1,.06,3.06,6.57,6.57,0,0,1-1.4,2.8,6.11,6.11,0,0,1-4.57,2.37,7.6,7.6,0,0,1-5.2-2.06l-1.16-1Zm7.4-8.77.82.69a4,4,0,0,0,2.46,1.11,2.54,2.54,0,0,0,2-1,2.51,2.51,0,0,0,.69-2.17,4.26,4.26,0,0,0-1.59-2.24l-.79-.67Z" transform="translate(-220.5 -220.54)"/><path class="cls-9" d="M671,330.13l-8.07-7.76,14.38-15,8.08,7.76-2.53,2.63-5.18-5-3.28,3.41,5.18,5-2.49,2.59-5.18-5-3.55,3.7,5.18,5Z" transform="translate(-220.5 -220.54)"/><path class="cls-9" d="M681.5,341.4l-7.56-8.27,15.31-14,7.56,8.27-2.69,2.46-4.85-5.3-3.49,3.2,4.85,5.3L688,335.48l-4.85-5.3-3.79,3.46,4.85,5.3Z" transform="translate(-220.5 -220.54)"/><path class="cls-9" d="M686.76,347.74l-2.53-3.18,16.24-12.92,3.07,3.86a26.47,26.47,0,0,1,2.05,2.84,7.13,7.13,0,0,1,.8,1.87,6.11,6.11,0,0,1-.13,3.54,7,7,0,0,1-6.16,4.39,5.9,5.9,0,0,1-3.91-1.49l-3.07,9.07-3-3.79,4.2-10.19Zm8.34-6.64.56.7a6.55,6.55,0,0,0,3,2.37,3,3,0,0,0,2.83-.62,2.82,2.82,0,0,0,1.24-2.35,5.68,5.68,0,0,0-1.46-3.1l-.94-1.18Z" transform="translate(-220.5 -220.54)"/><path class="cls-9" d="M723.4,363.65l-3.07,2-2.11-3.29-14.4,9.22-2.18-3.41,14.4-9.22-2.11-3.29,3.07-2Z" transform="translate(-220.5 -220.54)"/><path class="cls-9" d="M716,371.3a11.27,11.27,0,0,1,3-1.17,10.42,10.42,0,0,1,3.14-.19,10.64,10.64,0,0,1,4.89,1.7,10.78,10.78,0,0,1,3.53,3.85,10.28,10.28,0,0,1,1.23,3.87,10.65,10.65,0,0,1-.35,4.11,10.83,10.83,0,0,1-1.91,3.76,10.43,10.43,0,0,1-3.17,2.69,11.43,11.43,0,0,1-4,1.36,10.93,10.93,0,0,1-7.93-2.15,10.5,10.5,0,0,1-2.76-3.22,10.77,10.77,0,0,1-1.35-4.14,10,10,0,0,1,.46-4.22,10.63,10.63,0,0,1,2-3.6A11.21,11.21,0,0,1,716,371.3Zm2.19,3.66a6.88,6.88,0,0,0-2,1.59,6.71,6.71,0,0,0-1.21,2.17,6.85,6.85,0,0,0-.35,2.67,5.87,5.87,0,0,0,.72,2.47,6.05,6.05,0,0,0,3.91,3.05,6.71,6.71,0,0,0,5.12-.73,6.19,6.19,0,0,0,3.06-3.82,6.08,6.08,0,0,0-.53-4.81,6.33,6.33,0,0,0-3.87-3.13A6.11,6.11,0,0,0,718.17,375Z" transform="translate(-220.5 -220.54)"/><path class="cls-9" d="M723.66,410.44l-1.49-3.78,19.31-7.6,1.89,4.8a17.36,17.36,0,0,1,.93,3,4.86,4.86,0,0,1,0,2,6.09,6.09,0,0,1-1.4,2.71,6.49,6.49,0,0,1-2.57,1.8,6.11,6.11,0,0,1-5.15-.08,7.6,7.6,0,0,1-3.6-4.28l-.55-1.4Zm10.68-4.2.39,1a4,4,0,0,0,1.64,2.15,2.55,2.55,0,0,0,2.29.07,2.51,2.51,0,0,0,1.63-1.58,4.26,4.26,0,0,0-.33-2.73l-.38-1Z" transform="translate(-220.5 -220.54)"/><path class="cls-9" d="M731.22,432l-3.42-10.67L747.56,415,751,425.67l-3.47,1.11-2.2-6.84-4.5,1.45,2.19,6.84-3.42,1.1-2.19-6.84-4.88,1.57,2.19,6.84Z" transform="translate(-220.5 -220.54)"/><path class="cls-9" d="M735.11,447l-2.73-10.87,20.13-5,2.73,10.86-3.54.89-1.75-7L745.37,437l1.75,7-3.49.88-1.75-7-5,1.25,1.75,7Z" transform="translate(-220.5 -220.54)"/><path class="cls-9" d="M736.73,455l-.72-4,20.42-3.67.87,4.85a27.27,27.27,0,0,1,.46,3.47,7.12,7.12,0,0,1-.18,2,6.16,6.16,0,0,1-1.8,3.05,7,7,0,0,1-7.51.95,5.91,5.91,0,0,1-2.73-3.17l-7,6.53-.86-4.77,8.54-7Zm10.49-1.88.16.88a6.52,6.52,0,0,0,1.54,3.52,3,3,0,0,0,2.79.8,2.82,2.82,0,0,0,2.21-1.48,5.67,5.67,0,0,0,.18-3.42l-.27-1.49Z" transform="translate(-220.5 -220.54)"/><path class="cls-9" d="M714.66,609.42l1.73-3.5,15.85,7.85,1.61-3.24,2.74,1.36-3.34,6.74Z" transform="translate(-220.5 -220.54)"/><path class="cls-9" d="M723.55,636.17l-3.16-1.82,2-3.38-14.81-8.55,2-3.51,14.81,8.55,2-3.38,3.16,1.82Z" transform="translate(-220.5 -220.54)"/><path class="cls-9" d="M701.89,631.55l2.25-3.38,17.27,11.49-2.73,4.1a26.45,26.45,0,0,1-2.07,2.82,7.09,7.09,0,0,1-1.53,1.33,6.1,6.1,0,0,1-3.41,1,7,7,0,0,1-6.07-4.52,5.91,5.91,0,0,1,.22-4.19l-9.58-.14,2.68-4,11,.88Zm8.87,5.9-.5.75a6.54,6.54,0,0,0-1.33,3.61,3,3,0,0,0,1.46,2.5,2.83,2.83,0,0,0,2.62.46,5.68,5.68,0,0,0,2.5-2.35l.84-1.26Z" transform="translate(-220.5 -220.54)"/><path class="cls-9" d="M703.3,648.23a11.18,11.18,0,0,1,2.24,2.37,10.42,10.42,0,0,1,1.38,2.83,10.63,10.63,0,0,1-1.9,9.9,10.24,10.24,0,0,1-3.11,2.62A10.65,10.65,0,0,1,698,667.2a10.83,10.83,0,0,1-4.21-.32,10.43,10.43,0,0,1-3.7-1.9,11.41,11.41,0,0,1-2.79-3.2,10.13,10.13,0,0,1-1.31-3.91,10.29,10.29,0,0,1,.26-4.24,10.49,10.49,0,0,1,1.92-3.78,10.9,10.9,0,0,1,3.31-2.83,10.07,10.07,0,0,1,4.07-1.19,10.64,10.64,0,0,1,4.07.43A11.13,11.13,0,0,1,703.3,648.23Zm-2.54,3.42a6.92,6.92,0,0,0-2.23-1.2,6.62,6.62,0,0,0-2.47-.29,6.78,6.78,0,0,0-2.6.7,5.84,5.84,0,0,0-2,1.61,6.06,6.06,0,0,0-1.33,4.78,6.74,6.74,0,0,0,2.64,4.45,6.19,6.19,0,0,0,4.7,1.36,6.08,6.08,0,0,0,4.25-2.33,6.34,6.34,0,0,0,1.41-4.77A6.13,6.13,0,0,0,700.76,651.65Z" transform="translate(-220.5 -220.54)"/><path class="cls-9" d="M680.39,670.83l-5.46-5.09,2.77-3,5.46,5.09,13.77,4.71-3,3.26-9-3.46,4.1,8.7-3,3.24Z" transform="translate(-220.5 -220.54)"/><path class="cls-9" d="M677.83,678a11.12,11.12,0,0,1,1.84,2.69,10.38,10.38,0,0,1,.92,3,10.59,10.59,0,0,1-.51,5.15,10.7,10.7,0,0,1-2.92,4.33,10.22,10.22,0,0,1-3.47,2.11,10.7,10.7,0,0,1-4.08.63,10.93,10.93,0,0,1-4.1-1,10.46,10.46,0,0,1-3.35-2.45,11.41,11.41,0,0,1-2.26-3.59,10.9,10.9,0,0,1,.24-8.22,10.4,10.4,0,0,1,2.49-3.43,10.86,10.86,0,0,1,3.71-2.28,10,10,0,0,1,4.21-.53,10.66,10.66,0,0,1,4,1.06A11.14,11.14,0,0,1,677.83,678Zm-3,3a7,7,0,0,0-2-1.54,6.6,6.6,0,0,0-2.39-.66,6.76,6.76,0,0,0-2.68.28,5.83,5.83,0,0,0-2.23,1.28,6,6,0,0,0-2.06,4.52,6.73,6.73,0,0,0,1.91,4.81,6.19,6.19,0,0,0,4.43,2.08,6.07,6.07,0,0,0,4.56-1.64,6.33,6.33,0,0,0,2.14-4.5A6.11,6.11,0,0,0,674.78,681Z" transform="translate(-220.5 -220.54)"/><path class="cls-9" d="M643.21,693.87l10.26-8,2.21,2.84,1.72,15.53,6-4.68,2.36,3-9.65,7.52-2-2.62-1.77-15.85-6.74,5.26Z" transform="translate(-220.5 -220.54)"/><path class="cls-9" d="M627.36,704.5l3.6-2.23-.27,8.49c.28-.26.5-.47.69-.62a5.42,5.42,0,0,1,.54-.39,5.53,5.53,0,0,1,4.75-.55,7.32,7.32,0,0,1,4.13,3.29,6.8,6.8,0,0,1,.89,2.33,7.94,7.94,0,0,1,.08,2.6,7.21,7.21,0,0,1-1.08,3,7.31,7.31,0,0,1-2.31,2.16,7.44,7.44,0,0,1-2.68,1,7.14,7.14,0,0,1-2.83-.09,7.29,7.29,0,0,1-2.55-1.13,6.69,6.69,0,0,1-1.87-2,8.59,8.59,0,0,1-1.13-2.95,22.92,22.92,0,0,1-.21-4.74Zm4.22,13.5a3.78,3.78,0,0,0,2.24,1.72,3.12,3.12,0,0,0,2.61-.34,3.18,3.18,0,0,0,1.53-2.15,4,4,0,0,0-2.71-4.41,3.12,3.12,0,0,0-2.57.41,3.28,3.28,0,0,0-1.53,2.16A3.35,3.35,0,0,0,631.58,718Z" transform="translate(-220.5 -220.54)"/><path class="cls-9" d="M612.06,713.26l3.77-1.93-1,8.44c.3-.24.54-.43.74-.57a4.94,4.94,0,0,1,.57-.35,5.52,5.52,0,0,1,4.78-.16,7.28,7.28,0,0,1,3.85,3.61,6.78,6.78,0,0,1,.69,2.4,7.94,7.94,0,0,1-.13,2.6,7.25,7.25,0,0,1-1.31,2.86,7.84,7.84,0,0,1-5.23,2.77,7.1,7.1,0,0,1-2.81-.32,7.32,7.32,0,0,1-2.45-1.34,6.64,6.64,0,0,1-1.7-2.11,8.59,8.59,0,0,1-.88-3,22.88,22.88,0,0,1,.18-4.74Zm3.1,13.8a3.77,3.77,0,0,0,2.09,1.9,3.14,3.14,0,0,0,2.63-.12,3.2,3.2,0,0,0,1.7-2,3.64,3.64,0,0,0-.33-2.75,3.68,3.68,0,0,0-2-1.87,3.15,3.15,0,0,0-2.59.19,3.31,3.31,0,0,0-1.7,2A3.36,3.36,0,0,0,615.17,727.06Z" transform="translate(-220.5 -220.54)"/><path class="cls-9" d="M596,721l3.88-1.69-1.49,8.36c.31-.22.57-.39.77-.52a5.3,5.3,0,0,1,.59-.31,5.54,5.54,0,0,1,4.78.14,7.32,7.32,0,0,1,3.61,3.85,7,7,0,0,1,.54,2.44,8,8,0,0,1-.3,2.59,6.8,6.8,0,0,1-4.09,4.58,7.48,7.48,0,0,1-2.8.63,7.12,7.12,0,0,1-2.78-.5,7.28,7.28,0,0,1-2.36-1.49,6.63,6.63,0,0,1-1.57-2.21,8.56,8.56,0,0,1-.69-3.08,22.64,22.64,0,0,1,.48-4.72Zm2.23,14a3.77,3.77,0,0,0,2,2,3.14,3.14,0,0,0,2.63,0,3.21,3.21,0,0,0,1.82-1.91,4,4,0,0,0-2-4.76,3.13,3.13,0,0,0-2.6,0,3.29,3.29,0,0,0-1.82,1.92A3.36,3.36,0,0,0,598.27,734.92Z" transform="translate(-220.5 -220.54)"/><path class="cls-9" d="M576.93,728.41l6.22,19.8-10.69,3.36-1.09-3.48,6.85-2.15-1.42-4.52-6.85,2.15-1.08-3.42,6.85-2.15-2.63-8.38Z" transform="translate(-220.5 -220.54)"/><path class="cls-9" d="M562.49,732.74l5.23,20.08-3.93,1-5.23-20.08Z" transform="translate(-220.5 -220.54)"/><path class="cls-9" d="M550.54,735.66l3.92-.77,4,20.36-3.78.75-11-11.35,2.56,13-3.9.77-4-20.36,3.69-.73,11.12,11.73Z" transform="translate(-220.5 -220.54)"/><path class="cls-9" d="M523,740l11.12-1.33,2.47,20.6-11.12,1.33-.43-3.62,7.13-.86-.56-4.7-7.13.85-.43-3.56,7.13-.85-.61-5.09-7.13.85Z" transform="translate(-220.5 -220.54)"/><path class="cls-9" d="M490,755.58h5a5.79,5.79,0,0,0,2.1,1.8,6.23,6.23,0,0,0,2.77.6,6.07,6.07,0,0,0,2.38-.47,5.92,5.92,0,0,0,2-1.37,6.7,6.7,0,0,0,1.43-2.17,7,7,0,0,0-1.33-7.31,5.94,5.94,0,0,0-4.48-1.93,6.39,6.39,0,0,0-2.74.57,4.87,4.87,0,0,0-2,1.65h-5a11,11,0,0,1,3.88-4.77,11.08,11.08,0,0,1,10.1-.7,10.63,10.63,0,0,1,3.54,2.66,10.15,10.15,0,0,1,2,3.34,11.59,11.59,0,0,1,.68,4,10.45,10.45,0,0,1-.82,4.11,11.17,11.17,0,0,1-2.42,3.54,10.5,10.5,0,0,1-3.35,2.25,11,11,0,0,1-9.79-.86A11.67,11.67,0,0,1,490,755.58Z" transform="translate(-220.5 -220.54)"/><path class="cls-9" d="M487,751.28a11.19,11.19,0,0,1-.76,3.17,10.4,10.4,0,0,1-1.62,2.7,10.61,10.61,0,0,1-9.34,3.81,10.33,10.33,0,0,1-3.89-1.17,10.69,10.69,0,0,1-3.19-2.61,10.82,10.82,0,0,1-2-3.7,10.45,10.45,0,0,1-.42-4.14,11.39,11.39,0,0,1,1.15-4.09,10.9,10.9,0,0,1,6.26-5.32,10.38,10.38,0,0,1,4.22-.45,10.8,10.8,0,0,1,4.18,1.23,10,10,0,0,1,3.22,2.77,10.59,10.59,0,0,1,1.87,3.65A11.17,11.17,0,0,1,487,751.28Zm-4.26-.26a6.91,6.91,0,0,0-.21-2.53,6.61,6.61,0,0,0-1.11-2.22,6.79,6.79,0,0,0-2-1.8,5.85,5.85,0,0,0-2.44-.8,6,6,0,0,0-4.73,1.5A6.72,6.72,0,0,0,470,749.8a6.18,6.18,0,0,0,1.42,4.68,6.08,6.08,0,0,0,4.27,2.29,6.34,6.34,0,0,0,4.77-1.42A6.12,6.12,0,0,0,482.78,751Z" transform="translate(-220.5 -220.54)"/><path class="cls-9" d="M459.62,737.55l4,.71L460,758.69l-5.08-.9a17.39,17.39,0,0,1-3-.75,5,5,0,0,1-1.68-1,6.08,6.08,0,0,1-1.59-2.61,6.54,6.54,0,0,1-.19-3.13,6.1,6.1,0,0,1,2.77-4.34,7.6,7.6,0,0,1,5.53-.83l1.49.26Zm-2,11.3-1.05-.19a4,4,0,0,0-2.69.27,2.56,2.56,0,0,0-1.26,1.91,2.52,2.52,0,0,0,.5,2.22,4.27,4.27,0,0,0,2.5,1.15l1,.18Z" transform="translate(-220.5 -220.54)"/><path class="cls-9" d="M444.21,734.4l3.95,1-5,20.15-5-1.23a17.83,17.83,0,0,1-3-.95,5,5,0,0,1-1.61-1.1,6.11,6.11,0,0,1-1.41-2.71,6.55,6.55,0,0,1,0-3.14,6.11,6.11,0,0,1,3-4.15,7.6,7.6,0,0,1,5.57-.47l1.47.36Zm-2.74,11.14-1-.26a4,4,0,0,0-2.7.09,2.55,2.55,0,0,0-1.38,1.82,2.52,2.52,0,0,0,.35,2.25,4.25,4.25,0,0,0,2.42,1.3l1,.25Z" transform="translate(-220.5 -220.54)"/><path class="cls-9" d="M422.12,728.08l10.68,3.37-6.24,19.79-10.68-3.37,1.1-3.48,6.85,2.16,1.42-4.52-6.85-2.16,1.08-3.43,6.85,2.16,1.54-4.89L421,731.56Z" transform="translate(-220.5 -220.54)"/><path class="cls-9" d="M414.41,725.25l3.78,1.48-7.56,19.33-4.59-1.8a27.35,27.35,0,0,1-3.2-1.43,7.31,7.31,0,0,1-1.63-1.21,6.15,6.15,0,0,1-1.67-3.13,7,7,0,0,1,3.13-6.9,5.91,5.91,0,0,1,4.14-.66l-1.9-9.39,4.51,1.76,1.48,10.93Zm-3.88,9.93-.84-.32a6.53,6.53,0,0,0-3.81-.53,3,3,0,0,0-2.14,2,2.83,2.83,0,0,0,.11,2.66,5.66,5.66,0,0,0,2.82,1.94l1.41.55Z" transform="translate(-220.5 -220.54)"/><path class="cls-9" d="M390,714.51l3.53,1.93-10,18.21-4.71-2.58,2.61-15.77L369.63,727l-4.71-2.58,10-18.21,3.51,1.92L371,721.3l11.83-10.7,2.69,1.47-2.61,15.74Z" transform="translate(-220.5 -220.54)"/><path class="cls-9" d="M359.47,704.53a17.27,17.27,0,0,1,1.91-2.53,5.39,5.39,0,0,1,1.64-1.16,5,5,0,0,1,2.69-.43,6.19,6.19,0,0,1,2.74,1,5.49,5.49,0,0,1,2.66,3.6,6.28,6.28,0,0,1-1.24,4.53l-3.37-2.21,0,0a2,2,0,0,0,.41-1.38,1.46,1.46,0,0,0-.71-1.06,1.42,1.42,0,0,0-1.61-.06,7.25,7.25,0,0,0-1.93,2.2l-7.32,11.15L352,715.94Z" transform="translate(-220.5 -220.54)"/><path class="cls-9" d="M359.85,696.15l-12.44,16.6-3.57-2.67a17.69,17.69,0,0,1-1.66-1.38,5.56,5.56,0,0,1-.91-1.14,5.72,5.72,0,0,1-.89-3.18,5.75,5.75,0,0,1,3-4.66,3.58,3.58,0,0,1,2.21-.29,4.33,4.33,0,0,1-.89-2.85,5.35,5.35,0,0,1,1.15-3,6.84,6.84,0,0,1,2.07-1.86,5.44,5.44,0,0,1,4.86-.43,12.8,12.8,0,0,1,2.89,1.74Zm-10.56,7.58-.37-.28a4.27,4.27,0,0,0-2.37-1,2.12,2.12,0,0,0-1.75,1,2,2,0,0,0-.41,1.85,4.23,4.23,0,0,0,1.62,1.91l.47.35Zm5.25-7-1-.74a4.74,4.74,0,0,0-2.55-1.14,2.19,2.19,0,0,0-1.85,1,2.57,2.57,0,0,0-.55,2.26,4.24,4.24,0,0,0,1.71,2.19l1,.73Z" transform="translate(-220.5 -220.54)"/><path class="cls-9" d="M337.27,677.92l2.89,2.8-14.42,14.92-3.86-3.74,6.7-14.51-14.27,7.19-3.86-3.73,14.42-14.92,2.88,2.78-10.57,10.73,14.24-7.19,2.2,2.13-6.69,14.48Z" transform="translate(-220.5 -220.54)"/><path class="cls-9" d="M314.86,670.47a11,11,0,0,1-2.76,1.73,10.39,10.39,0,0,1-3,.8,10.64,10.64,0,0,1-5.13-.72,10.78,10.78,0,0,1-4.2-3.09,10.36,10.36,0,0,1-2-3.56,10.69,10.69,0,0,1-.46-4.1,10.85,10.85,0,0,1,1.14-4.06,10.43,10.43,0,0,1,2.59-3.25,11.33,11.33,0,0,1,3.68-2.11,10.13,10.13,0,0,1,4.09-.52,10.33,10.33,0,0,1,4.1,1.1,10.48,10.48,0,0,1,3.33,2.63,10.9,10.9,0,0,1,2.13,3.8,10.07,10.07,0,0,1,.36,4.23,10.6,10.6,0,0,1-1.22,3.91A11.18,11.18,0,0,1,314.86,670.47ZM312,667.3a6.91,6.91,0,0,0,1.62-1.95,6.68,6.68,0,0,0,.77-2.36,6.88,6.88,0,0,0-.17-2.69A5.92,5.92,0,0,0,313,658a6.06,6.06,0,0,0-4.43-2.24,6.73,6.73,0,0,0-4.88,1.71,6.2,6.2,0,0,0-2.26,4.34,6.08,6.08,0,0,0,1.45,4.63,6.34,6.34,0,0,0,4.4,2.32A6.12,6.12,0,0,0,312,667.3Z" transform="translate(-220.5 -220.54)"/><path class="cls-9" d="M305,641.63l2.28,3.27-17,11.88-2.2-3.15L294,639l-10.87,7.58-2.28-3.26,17-11.88,2.15,3.09-6.25,14.91Z" transform="translate(-220.5 -220.54)"/><path class="cls-9" d="M290,618.27l5.72,9.63-17.85,10.59-5.72-9.63,3.14-1.87,3.67,6.18,4.07-2.42-3.66-6.17,3.09-1.84,3.67,6.18,4.41-2.62-3.67-6.17Z" transform="translate(-220.5 -220.54)"/><path class="cls-9" d="M264.78,614.85l3.25-1.66,1.78,3.48L285,608.86l1.85,3.61-15.22,7.8,1.78,3.47-3.25,1.67Z" transform="translate(-220.5 -220.54)"/><path class="cls-9" d="M277.29,602.95l4.63-.29,1.71,3.84-22.23,1.06-1.42-3.2,15.75-15.67,1.76,4-3.31,3.26Zm-6.1-4.25-5.12,5,7.13-.42Z" transform="translate(-220.5 -220.54)"/><path class="cls-9" d="M273.88,583.4l1.37,3.82-19.53,7-1.67-4.64a27.49,27.49,0,0,1-1-3.34,7.25,7.25,0,0,1-.16-2,6.16,6.16,0,0,1,1.27-3.32,7,7,0,0,1,7.25-2.18,5.9,5.9,0,0,1,3.22,2.67l5.83-7.6,1.64,4.56-7.26,8.29Zm-10,3.6-.3-.85a6.52,6.52,0,0,0-2.1-3.22,3,3,0,0,0-2.88-.32,2.82,2.82,0,0,0-1.94,1.83,5.69,5.69,0,0,0,.39,3.4l.51,1.42Z" transform="translate(-220.5 -220.54)"/><path class="cls-9" d="M260.34,565.68l7.18-2,1.11,3.91-7.18,2-11.16,9.34-1.22-4.29,7.62-5.9-9.57-1-1.21-4.27Z" transform="translate(-220.5 -220.54)"/><path class="cls-9" d="M262.75,543.06l.61,4-20.51,3.14-.81-5.31,14.12-7.5-15.71-2.91-.82-5.31L260.13,526l.61,4-14.91,2.14,15.69,2.9.46,3-14.09,7.48Z" transform="translate(-220.5 -220.54)"/><path class="cls-9" d="M259.15,510.83l.76,11.17-20.7,1.41-.76-11.18,3.64-.25.49,7.16,4.72-.32-.49-7.17,3.58-.24.49,7.17,5.12-.35-.49-7.17Z" transform="translate(-220.5 -220.54)"/><path class="cls-9" d="M238.19,496.45l3.65,0,0,3.9,17.1-.14,0,4-17.1.14,0,3.9-3.65,0Z" transform="translate(-220.5 -220.54)"/><path class="cls-9" d="M254.75,491.48l4.26,1.84-.22,4.19-20.3-9.12.18-3.5L259.81,478l-.23,4.34-4.43,1.41Zm-3.51-6.55-6.8,2.1,6.54,2.85Z" transform="translate(-220.5 -220.54)"/><path class="cls-9" d="M261.36,466l-1.24,10.46L239.51,474l.47-4,17,2,.77-6.47Z" transform="translate(-220.5 -220.54)"/><path class="cls-9" d="M255.28,462.89l.64-3.65.3.05a3.1,3.1,0,0,0,2.19-.3,2.3,2.3,0,0,0,1.1-1.66,2.58,2.58,0,0,0-.38-2,2.74,2.74,0,0,0-1.83-1.05q-2-.35-3.34,2.33l-.29.54a7.49,7.49,0,0,1-2.75,3.16,5.28,5.28,0,0,1-3.66.53,6.69,6.69,0,0,1-4.33-2.42,5.57,5.57,0,0,1-1-4.56,5.29,5.29,0,0,1,2.26-3.68,6.8,6.8,0,0,1,4.64-.86l-.65,3.62-.17,0a2.21,2.21,0,0,0-1.69.31,2.09,2.09,0,0,0-.88,1.43,2,2,0,0,0,.34,1.66,2.41,2.41,0,0,0,1.58.87,2.49,2.49,0,0,0,.81,0,1.8,1.8,0,0,0,.69-.26,5.62,5.62,0,0,0,1.61-2.26q.38-.8.61-1.22a6.38,6.38,0,0,1,2.61-2.74,5.57,5.57,0,0,1,3.59-.39,7.32,7.32,0,0,1,4.75,2.66,6.09,6.09,0,0,1,1.08,5,5.76,5.76,0,0,1-2.64,4.09A7.27,7.27,0,0,1,255.28,462.89Z" transform="translate(-220.5 -220.54)"/><rect class="cls-2" x="272.54" y="317.96" width="15.73" height="15.73" rx="1.6" ry="1.6"/><rect class="cls-2" x="290.75" y="317.96" width="13.24" height="15.73" rx="1.6" ry="1.6"/><rect class="cls-2" x="309.79" y="317.96" width="13.24" height="15.73" rx="1.6" ry="1.6"/><rect class="cls-2" x="326.09" y="316.93" width="14.99" height="17.8" rx="1.6" ry="1.6"/><rect class="cls-2" x="286.35" y="344.57" width="25.9" height="7.73" rx="1.28" ry="1.28"/><rect class="cls-2" x="650.74" y="626.82" width="15.27" height="6.87" transform="matrix(0.64, -0.77, 0.77, 0.64, -467.69, 512.79)"/><rect class="cls-2" x="641.36" y="624.46" width="15.27" height="6.87" transform="translate(-469.26 504.73) rotate(-50.24)"/><rect class="cls-2" x="571.79" y="648.81" width="15.27" height="6.87" transform="translate(-452.04 110) rotate(-26.75)"/><rect class="cls-2" x="550.79" y="649.16" width="15.27" height="6.87" transform="matrix(0.94, -0.34, 0.34, 0.94, -409.71, 9.25)"/><rect class="cls-2" x="394.01" y="277.63" width="22.07" height="12.85" rx="2.82" ry="2.82"/><rect class="cls-2" x="396.13" y="266.02" width="17.82" height="10.38" rx="2.28" ry="2.28"/><path class="cls-10" d="M586.86,495c18.84-9.51,30.63-26.27,27.87-54.19-3.71-38.15-36.94-50.94-78.88-54.59V333.35h-32.5v51.53c-8.55,0-17.27.17-25.94.34V333.37H444.93v52.9c-7,.14-13.95.28-20.7.28v-.16l-44.83,0v34.4s24-.45,23.6,0c13.16,0,17.46,7.58,18.69,14.12v145c-.58,4.1-3,10.66-12.22,10.67.42.37-23.64,0-23.64,0L379.41,629h42.29c7.88,0,15.62.13,23.22.19l0,53.52H477.4v-53c8.93.18,17.55.26,26,.25v52.71h32.5l0-53.43c54.63-3.11,92.87-16.75,97.63-67.61,3.84-40.95-15.6-59.22-46.62-66.6Zm-108.68-72c18.33,0,76-5.79,76,32.17,0,36.39-57.63,32.14-76,32.14v-64.3Zm0,167.69V519.87c22,0,91.09-6.28,91.1,35.44,0,40-69.08,35.45-91.11,35.47Z" transform="translate(-220.5 -220.54)"/><path class="cls-11" d="M480.28,685.57H442.06L442,632l-5.2-.05c-5-.05-10-.11-15.14-.11H376l7.42-44.27,2.48,0c5.59.09,11.59.15,16.09.16l-.17-.15h7.68c5.39,0,8.53-2.7,9.34-8V435.16c-1.54-7.64-6.86-11.51-15.81-11.52h-6.52l.17-.18c-4.88,0-11.84.1-17.19.2l-2.94.05V383.49l50.59,0v.15c5,0,10.14-.12,14.93-.21v-53h38.24v51.8c7.32-.14,13.76-.25,20.18-.28V330.47h38.26v53.17c32.56,3.12,74.58,12.85,78.87,56.94,2.37,24-5.45,42-23.27,53.52,31.63,9.82,45.4,32.07,42,67.83-5.23,55.94-49.68,67-97.61,70.06l0,53.6H500.47V632.87c-6.79,0-13.45-.07-20.21-.19Zm26-5.77H533l0-53.27,2.72-.15c63.44-3.61,90.94-22.45,94.92-65,3.31-35.28-10.75-55.46-44.26-63.49l-9.22-1.15,8.41-4.27c19.83-10,28.68-27.28,26.3-51.33-3-31.22-27.27-47.74-76.26-52l-2.63-.23V336.24H506.23v51.53h-2.88c-8.19,0-16.23.15-25.89.34l-2.94.06V336.25h-26.7v52.85l-2.83.06c-6.48.13-13.82.28-20.75.28h-2.88v-.15l-39.06,0v28.58c12.66-.24,18.17-.31,20.74,0,16,0,20.34,10.33,21.5,16.47l.05.53V580l0,.2c-1.16,8.23-6.79,13.14-15.07,13.15v-.06c-2.67.35-8.36.29-21.21.09l-5.47,32.66h38.88c5.13,0,10.19.06,15.2.11l10.9.1,0,53.49h26.7v-53l2.94.06c8.69.18,17.16.25,25.91.25h2.89Zm-11.7-86c-3.65,0-7,0-10.06-.09-2.38,0-4.49,0-6.31-.06h-2.89V517h2.88c2.18,0,4.83-.06,7.83-.14,20.78-.5,59.44-1.41,76.94,15.68,6.11,6,9.22,13.63,9.22,22.78a29.45,29.45,0,0,1-8.86,21.77C548.08,592.09,516.64,593.81,494.54,593.81Zm-13.5-5.9,3.52,0c20.51.27,58.67.81,74.68-15a23.57,23.57,0,0,0,7.15-17.66c0-7.64-2.45-13.74-7.48-18.65-15.76-15.39-52.85-14.5-72.77-14l-5.09.11Zm11.22-97.47c-3.2,0-6.16-.05-8.78-.09-2,0-3.79-.06-5.3-.06h-2.88V420.21h2.88c1.83,0,4.07-.06,6.6-.13,18.13-.48,48.5-1.27,63.6,13.44,5.75,5.6,8.66,12.91,8.66,21.74,0,8.35-2.82,15.35-8.37,20.81C535.64,488.89,510.27,490.44,492.25,490.44Zm-11.2-5.9,2.51,0c16.58.27,47.44.78,61.06-12.62,4.47-4.39,6.64-9.86,6.64-16.7,0-7.32-2.27-13.08-6.92-17.61-13.36-13-43.33-12.22-59.43-11.8l-3.87.09Z" transform="translate(-220.5 -220.54)"/></svg>