<?xml version="1.0" encoding="utf-8"?>
<!-- Svg Vector Icons : http://www.onlinewebfonts.com/icon -->
<!DOCTYPE svg PUBLIC "-//W3C//DTD SVG 1.1//EN" "http://www.w3.org/Graphics/SVG/1.1/DTD/svg11.dtd">
<svg version="1.1" xmlns="http://www.w3.org/2000/svg" xmlns:xlink="http://www.w3.org/1999/xlink" x="0px" y="0px" viewBox="0 0 1000 1000" enable-background="new 0 0 1000 1000" xml:space="preserve">
<metadata> Svg Vector Icons : http://www.onlinewebfonts.com/icon </metadata>
<g><path d="M215.4,557.1c24.7-74.8,49.1-148.7,75.1-227.4c25.3,79,48.9,152.6,72.8,227.4C313.2,557.1,265.1,557.1,215.4,557.1z M566.1,764.7c-66.5-186.8-132.6-373.8-198.4-560.9c-4-11.3-9.7-13.9-20.7-13.7c-36.5,0.7-73,0.9-109.4-0.1c-13.2-0.4-18.4,4.3-22.6,16.3C156.8,370.4,98.1,534.1,39.7,698c-9.9,27.8-19.5,55.7-29.7,85.1c42.1,0,82.1-0.4,122.1,0.2c10.6,0.2,11.3-7.3,13.4-13.5c10.6-31.5,21.3-63.1,30.9-94.9c3.1-10.4,7.9-13.7,18.7-13.6c62.8,0.6,125.6,0.6,188.4-0.1c11.3-0.1,15.1,4,18.1,14c9.3,31.3,20,62.2,29.3,93.5c3.2,10.9,8.2,15,20,14.7c34.1-0.9,68.2-1.3,102.3,0.1C570.5,784.2,571.2,779.1,566.1,764.7z"/><path d="M872,648.8c-8.2,27-29.8,43.7-57.5,45.4c-8.9,0.6-7.7-4.6-7.7-9.9c0-47.6,0-95.3,0-143.1C864.4,555.9,888.2,595.4,872,648.8z M902.2,464.8c-27.4-13.2-55.6-24.3-84.2-34.4c-6.4-2.3-11.6-3.9-11.5-12.9c0.5-47.2,0.2-94.4,0.2-141.7c36.1,3.7,54,18.6,60.9,50.4c1.5,7,3.5,14.1,3.5,21.1c0,9.2,3.2,12.6,12.6,12.4c28.1-0.5,56.2-0.4,84.3-0.1c8.9,0.1,11.8-1.6,11.4-12.1c-3.3-83.7-55.4-143.3-139.9-158.9c-32.8-6-33.8-6.1-32.4-40.6c0.7-16-4.9-19.1-19-17.7c-11.4,1.1-22.9-3.6-21.6,17c2.2,36.3,0.5,36.4-35.4,40.8c-67.1,8.2-122.2,60.2-134.4,132c-12.2,71.5,8,134.8,76.3,171.7c25.8,13.9,53.4,23.1,81.8,30.1c9.3,2.3,13,6.4,12.8,17.1c-0.8,47.8-0.6,95.7-0.1,143.5c0.1,10.3-2.1,14.3-12.9,11c-28.6-8.6-50.9-23.1-56-55.4c-1.9-11.8-5.5-23.3-6.4-35.1c-0.6-8.3-3.8-9.6-11-9.5c-30.5,0.3-61,0.2-91.5,0.1c-5.1,0-8.2,0.1-9.3,7.1c-10.6,67.5,35.6,144.7,101.3,168.5c24.8,9,50.5,13.8,76.4,17.3c8,1.1,9.5,3.9,9.3,11.1c-0.4,19.7-0.3,39.5,0,59.2c0.1,4.1-2.3,9.1,5.3,11c24.4,6.2,34.1-0.7,34.1-25.5c0-10.2,0-20.3,0-30.5c0-24.9,0.1-24.1,24.8-28.3c72.8-12.1,144-51.5,156.1-145.2C997.5,563.5,977.3,500.9,902.2,464.8z M766.6,413.4c-46-10.6-70.6-38.2-67.3-76.5c2.4-28.9,16-60.4,67.3-60.5C766.6,322,766.6,367.6,766.6,413.4z"/></g>
</svg>