<?xml version="1.0" encoding="utf-8"?>
<!-- Svg Vector Icons : http://www.onlinewebfonts.com/icon -->
<!DOCTYPE svg PUBLIC "-//W3C//DTD SVG 1.1//EN" "http://www.w3.org/Graphics/SVG/1.1/DTD/svg11.dtd">
<svg version="1.1" xmlns="http://www.w3.org/2000/svg" xmlns:xlink="http://www.w3.org/1999/xlink" x="0px" y="0px" viewBox="0 0 1000 1000" enable-background="new 0 0 1000 1000" xml:space="preserve">
<metadata> Svg Vector Icons : http://www.onlinewebfonts.com/icon </metadata>
<g><path d="M562.4,990H442.7c-6,0-11.2-2.1-15.7-6.3c-4.4-4.2-6.6-9.5-6.6-16V738H220c-6,0-11.3-2.1-15.7-6.3c-4.4-4.2-6.6-9.5-6.6-16V644c0-6,2.2-11.3,6.6-15.7c4.4-4.4,9.6-6.6,15.7-6.6h200.4v-59.2H220c-6,0-11.3-2.1-15.7-6.3c-4.4-4.2-6.6-9.5-6.6-16v-72.4c0-6,2.2-11.3,6.6-15.7c4.4-4.4,9.6-6.6,15.7-6.6h148.9L145.5,43.4c-3.7-7.4-3.7-14.8,0-22.3C150.1,13.7,156.6,10,165,10h135c8.8,0,15.5,4.2,20.2,12.5l149.6,295.8c8.8,17.6,21.8,46.6,39,87c4.6-11.1,11.7-26.9,21.2-47.3c9.5-20.4,15.9-34.5,19.1-42.4L682.1,23.2c3.7-8.8,10.4-13.2,20.2-13.2h132.9c7.9,0,14.2,3.7,18.8,11.1c4.2,6.5,4.4,13.7,0.7,21.6L636.9,445.7h149.6c6,0,11.2,2.2,15.7,6.6c4.4,4.4,6.6,9.6,6.6,15.7v72.4c0,6.5-2.2,11.8-6.6,16c-4.4,4.2-9.6,6.3-15.7,6.3H584.6v59.2h201.8c6,0,11.2,2.2,15.7,6.6c4.4,4.4,6.6,9.6,6.6,15.7v71.7c0,6.5-2.2,11.8-6.6,16c-4.4,4.2-9.6,6.3-15.7,6.3H584.6v229.7c0,6-2.2,11.3-6.6,15.7C573.6,987.8,568.4,990,562.4,990L562.4,990z"/></g>
</svg>