<?xml version="1.0" encoding="utf-8"?>
<!-- Svg Vector Icons : http://www.onlinewebfonts.com/icon -->
<!DOCTYPE svg PUBLIC "-//W3C//DTD SVG 1.1//EN" "http://www.w3.org/Graphics/SVG/1.1/DTD/svg11.dtd">
<svg version="1.1" xmlns="http://www.w3.org/2000/svg" xmlns:xlink="http://www.w3.org/1999/xlink" x="0px" y="0px" viewBox="0 0 1000 1000" enable-background="new 0 0 1000 1000" xml:space="preserve">
<metadata> Svg Vector Icons : http://www.onlinewebfonts.com/icon </metadata>
<g><path d="M291.1,698.6L335.4,535h-86.9l41,164.1c0.4,0.4,0.6,0.9,0.6,1.6c0,0.7,0.2,1.2,0.6,1.6c0-0.4,0.1-1,0.3-1.9C291,699.6,291.1,698.9,291.1,698.6L291.1,698.6z M354.5,465l19.1-70H213.9l17.5,70H354.5z M459.5,465h76l-19.1-70h-38.3L459.5,465z M705,699.1L747.7,535H659l44.3,163.5c0,0.4,0.1,1,0.3,1.9c0.2,0.9,0.5,1.5,0.8,1.9c0-0.4,0.1-0.9,0.3-1.6C704.9,700,705,699.5,705,699.1L705,699.1z M765.7,465l18.1-70H621.4l18.6,70H765.7L765.7,465z M989.9,482.5v35c0,5.1-1.6,9.3-4.9,12.6c-3.3,3.3-7.5,4.9-12.6,4.9H855.9l-89.7,336.9c-2.6,8.7-8.2,13.1-16.9,13.1h-86.9c-8.7,0-14.4-4.4-16.9-13.1L554.7,535H440.4L349,871.9c-2.6,8.7-8.2,13.1-16.9,13.1h-86.9c-4,0-7.6-1.3-10.6-3.9s-5-5.7-5.7-9.3L141.3,535H27.5c-5.1,0-9.3-1.6-12.6-4.9c-3.3-3.3-4.9-7.5-4.9-12.6v-35c0-5.1,1.6-9.3,4.9-12.6s7.5-4.9,12.6-4.9h95.7l-18.1-70H27.5c-5.1,0-9.3-1.6-12.6-4.9c-3.3-3.3-4.9-7.5-4.9-12.6v-35c0-5.1,1.6-9.3,4.9-12.6s7.5-4.9,12.6-4.9h59.6L38.5,136.9c-1.8-5.5-0.9-10.6,2.7-15.3c3.6-4.4,8.4-6.6,14.2-6.6h74.9c9.5,0,15.1,4.4,16.9,13.1l49.2,196.8h196.4l53.1-196.8c2.6-8.7,8.2-13.1,16.9-13.1h68.9c8.7,0,14.4,4.4,16.9,13.1l53.6,196.8h199.6l50.9-196.8c1.8-8.7,7.5-13.1,16.9-13.1h74.9c5.8,0,10.6,2.2,14.2,6.6c3.6,4.8,4.6,9.9,2.7,15.3L911.8,325h60.7c5.1,0,9.3,1.6,12.6,4.9c3.3,3.3,4.9,7.5,4.9,12.6v35c0,5.1-1.6,9.3-4.9,12.6c-3.3,3.3-7.5,4.9-12.6,4.9h-79.3l-18.6,70h97.9c5.1,0,9.3,1.6,12.6,4.9C988.3,473.1,990,477.3,989.9,482.5L989.9,482.5z"/></g>
</svg>