<?xml version="1.0" encoding="utf-8"?>
<!-- Svg Vector Icons : http://www.onlinewebfonts.com/icon -->
<!DOCTYPE svg PUBLIC "-//W3C//DTD SVG 1.1//EN" "http://www.w3.org/Graphics/SVG/1.1/DTD/svg11.dtd">
<svg version="1.1" xmlns="http://www.w3.org/2000/svg" xmlns:xlink="http://www.w3.org/1999/xlink" x="0px" y="0px" viewBox="0 0 1000 1000" enable-background="new 0 0 1000 1000" xml:space="preserve">
<metadata> Svg Vector Icons : http://www.onlinewebfonts.com/icon </metadata>
<g><path d="M780.5,314.2c0-46.4-15.1-84-45.2-112.8c-30.2-28.8-69.8-43.2-119-43.2H393.5v311.8h222.7c49.2,0,88.9-14.4,119-43.2C765.4,398.1,780.5,360.6,780.5,314.2z M945.5,314.2c0,89.6-29.3,162.6-88,219.2C798.7,590,723,618.3,630.2,618.3H393.5v82.1H745c6.5,0,11.8,2.1,16,6.3s6.3,9.5,6.3,16v89.1c0,6.5-2.1,11.8-6.3,16c-4.2,4.2-9.5,6.3-16,6.3H393.5v133.6c0,6.5-2.2,11.8-6.6,16c-4.4,4.2-9.6,6.3-15.7,6.3H255c-6.5,0-11.8-2.1-16-6.3c-4.2-4.2-6.3-9.5-6.3-16V834.1H76.8c-6.5,0-11.8-2.1-16-6.3c-4.2-4.2-6.3-9.5-6.3-16v-89.1c0-6.5,2.1-11.8,6.3-16c4.2-4.2,9.5-6.3,16-6.3h155.9v-82.1H76.8c-6.5,0-11.8-2.1-16-6.3c-4.2-4.2-6.3-9.5-6.3-16V492.3c0-6,2.1-11.3,6.3-15.7c4.2-4.4,9.5-6.6,16-6.6h155.9V32.3c0-6.5,2.1-11.8,6.3-16c4.2-4.2,9.5-6.3,16-6.3h375.2c92.8,0,168.6,28.3,227.3,84.9C916.1,151.5,945.5,224.6,945.5,314.2L945.5,314.2z"/></g>
</svg>