<?xml version="1.0" encoding="utf-8"?>
<!-- Generator: Adobe Illustrator 16.0.0, SVG Export Plug-In . SVG Version: 6.00 Build 0)  -->
<!DOCTYPE svg PUBLIC "-//W3C//DTD SVG 1.1//EN" "http://www.w3.org/Graphics/SVG/1.1/DTD/svg11.dtd">
<svg version="1.1" id="Layer_1" xmlns="http://www.w3.org/2000/svg" xmlns:xlink="http://www.w3.org/1999/xlink" x="0px" y="0px"
	 width="850.39px" height="850.39px" viewBox="0 0 850.39 850.39" enable-background="new 0 0 850.39 850.39" xml:space="preserve">
<g>
	<g>
		<path fill-rule="evenodd" clip-rule="evenodd" fill="#F4B22B" d="M279.752,354.22c0,7.021-7.095,14.856-14.856,14.856
			c7.021,0,14.856,7.095,14.856,14.856c0-7.022,7.096-14.856,14.856-14.856C287.586,369.076,279.752,361.98,279.752,354.22z"/>
		<circle fill-rule="evenodd" clip-rule="evenodd" fill="#F4B22B" cx="257.323" cy="346.063" r="5.243"/>
		<path fill-rule="evenodd" clip-rule="evenodd" fill="#F4B22B" d="M257.905,368.202c0-3.378-2.739-6.117-6.117-6.117
			c-2.246,0-4.205,1.214-5.268,3.019c-14.018-11.532-31.967-18.458-51.535-18.458c-44.831,0-81.174,36.343-81.174,81.174
			c0,44.825,36.343,81.169,81.174,81.169c44.831,0,81.174-36.344,81.174-81.169c0-20.978-7.959-40.096-21.021-54.502
			C256.804,372.224,257.905,370.343,257.905,368.202z"/>
	</g>
	<path fill="#E07824" d="M146.842,390.776c11.124-14.424,28.562-23.741,48.143-23.741c33.516,0,60.783,27.268,60.783,60.784
		c0,13.249-4.276,25.513-11.502,35.511c1.788,2.162,3.533,4.362,5.236,6.606c9.029-11.658,14.422-26.267,14.422-42.117
		c0-38.014-30.926-68.94-68.939-68.94c-22.85,0-43.127,11.183-55.678,28.354C141.798,388.372,144.312,389.556,146.842,390.776z"/>
	<path fill="#F2D830" d="M244.267,463.33c-11.05,15.291-29.017,25.268-49.281,25.268c-33.516,0-60.783-27.268-60.783-60.778
		c0-13.935,4.725-26.779,12.64-37.043c-2.53-1.22-5.044-2.404-7.535-3.543c-8.329,11.395-13.262,25.422-13.262,40.586
		c0,38.009,30.926,68.935,68.939,68.935c22.16,0,41.897-10.521,54.518-26.817C247.8,467.692,246.054,465.492,244.267,463.33z"/>
	<g>
		<defs>
			<path id="SVGID_1_" d="M193.639,380.905c2.646,0.75,5.248,1.489,7.877,2.235c-1.197,4.213-2.386,8.407-3.578,12.604
				c2.102,0.596,4.178,1.185,6.298,1.787c1.2-4.227,2.385-8.407,3.576-12.604c2.648,0.751,5.25,1.49,7.879,2.235
				c-1.221,4.305-2.437,8.589-3.663,12.907c0.641,0.259,1.267,0.5,1.882,0.761c3.398,1.438,6.659,3.112,9.377,5.668
				c2.453,2.303,4.032,5.063,4.299,8.476c0.187,2.407-0.246,4.727-1.049,6.985c-0.722,2.027-1.82,3.812-3.437,5.254
				c-1.683,1.503-3.675,2.381-5.856,2.871c-0.1,0.022-0.198,0.049-0.332,0.082c0.672,0.433,1.325,0.825,1.95,1.254
				c1.846,1.275,3.452,2.792,4.602,4.742c1.4,2.375,1.842,4.954,1.541,7.66c-0.408,3.668-1.651,7.058-3.677,10.138
				c-2.396,3.645-5.815,5.769-10.079,6.572c-2.696,0.51-5.406,0.485-8.123,0.234c-2.587-0.24-5.136-0.71-7.673-1.248
				c-0.079-0.018-0.158-0.028-0.271-0.049c-1.23,4.337-2.458,8.664-3.692,13.013c-2.635-0.749-5.237-1.487-7.873-2.235
				c1.212-4.271,2.421-8.53,3.645-12.847c-2.108-0.599-4.182-1.187-6.289-1.785c-1.204,4.245-2.419,8.527-3.644,12.84
				c-2.63-0.746-5.231-1.485-7.878-2.234c1.229-4.331,2.459-8.666,3.705-13.06c-5.312-1.508-10.581-3.003-15.901-4.512
				c1.426-3.021,2.824-5.98,4.24-8.983c0.138,0.04,0.266,0.076,0.397,0.112c1.836,0.517,3.664,1.066,5.51,1.548
				c1.699,0.443,3.145-0.435,3.625-2.133c3.273-11.54,6.549-23.082,9.823-34.623c0.491-1.732-0.188-3.554-1.744-4.462
				c-0.634-0.371-1.339-0.655-2.045-0.87c-1.636-0.497-3.291-0.93-4.94-1.388c-0.121-0.034-0.243-0.068-0.393-0.11
				c0.793-2.793,1.578-5.563,2.379-8.385c5.266,1.494,10.541,2.99,15.857,4.499C191.197,389.512,192.416,385.218,193.639,380.905z
				 M183.88,446.1c0.736,0.21,1.442,0.403,2.143,0.61c3.84,1.141,7.699,2.188,11.723,2.443c1.841,0.118,3.666,0.04,5.462-0.44
				c4.545-1.212,5.886-5.241,5.435-8.346c-0.275-1.898-1.326-3.375-2.715-4.628c-1.963-1.774-4.303-2.908-6.732-3.87
				c-2.653-1.056-5.406-1.798-8.163-2.526c-0.738-0.193-1.471-0.414-2.222-0.627C187.157,434.548,185.527,440.295,183.88,446.1z
				 M195.533,405.085c-1.502,5.295-2.984,10.513-4.464,15.733c0.057,0.025,0.086,0.042,0.119,0.052
				c2.724,0.794,5.431,1.658,8.24,2.121c1.989,0.327,3.986,0.496,6.001,0.25c3.381-0.415,5.56-2.243,6.342-5.392
				c0.496-1.997,0.222-3.875-0.988-5.581c-0.948-1.338-2.222-2.297-3.615-3.114c-1.602-0.942-3.31-1.654-5.078-2.195
				C199.923,406.292,197.733,405.709,195.533,405.085z"/>
		</defs>
		<clipPath id="SVGID_2_">
			<use xlink:href="#SVGID_1_"  overflow="visible"/>
		</clipPath>
		<g clip-path="url(#SVGID_2_)">
			<g>
				<path fill-rule="evenodd" clip-rule="evenodd" fill="#C1272D" d="M145.168,459.611c5.292-8.812,7.654-18.941,8.184-29.122
					c17.382-18.566,84.743-9.593,79.053,22.64c-1.388,11.427-5.804,19.059-12.166,28.348
					C195.221,474.169,170.197,466.883,145.168,459.611z"/>
				<path fill-rule="evenodd" clip-rule="evenodd" fill="#006837" d="M155.167,400.901c1.391-11.429,5.805-19.061,12.167-28.352
					c25.019,7.308,50.042,14.595,75.071,21.865c-5.291,8.812-7.655,18.941-8.186,29.123
					C212.168,427.212,176.265,446.037,155.167,400.901z"/>
				<path fill-rule="evenodd" clip-rule="evenodd" fill="#FFFFFF" d="M153.315,430.994c0.562-10.124,0.669-20.26,1.887-30.343
					c17.88,42.121,53.748-1.947,79.038,22.634c-0.543,10.126-0.659,20.263-1.906,30.341
					C208.224,413.597,174.194,460.338,153.315,430.994z"/>
			</g>
		</g>
	</g>
	<g>
		<path d="M342.189,454.869c-10.324,0-18.086-0.517-31.95-2.064l21.338-100.388h22.582l-5.869,27.614
			c4.642-1.806,10.253-2.709,15.544-2.709c21.807,0,29.623,10.582,24.742,33.549l-1.92,9.033
			C381.253,445.322,366.577,454.869,342.189,454.869z M366.28,410.742c2.633-12.388,0.488-16.259-9.19-16.259
			c-2.709,0-8.599,0.387-12.596,2.194l-8.64,40.646c2.295,0.13,5.983,0.387,10.241,0.387c10.324,0,15.249-3.742,18.266-17.935
			L366.28,410.742z"/>
		<path d="M389.355,452.934l15.633-73.547h22.453l-15.633,73.547H389.355z M406.742,369.321l3.592-16.904h23.357l-3.593,16.904
			H406.742z"/>
		<path d="M453.438,454.869c-15.614,0-21.136-6.193-17.681-22.448l7.872-37.034l-12.527-1.162l3.153-14.839h12.775l3.949-18.582
			h22.452l-3.949,18.582H486l-3.401,16h-16.518l-7.816,36.775c-1.288,6.064-1.175,7.353,4.503,7.353
			c3.483,0,8.57-0.257,10.433-0.515l-2.935,13.805C468.22,453.321,460.922,454.869,453.438,454.869z"/>
		<path d="M507.766,454.869c-22.582,0-30.252-11.87-25.425-34.578l1.755-8.259c4.938-23.227,17.545-34.582,40.127-34.582
			c11.743,0,20.004,1.806,24.045,2.838l-3.265,15.356c-9.67-0.646-15.911-1.033-20.169-1.033c-9.808,0-15.343,2.969-18.414,17.421
			l-1.756,8.259c-3.072,14.451,1.303,17.545,10.981,17.545c4.258,0,10.663-0.384,20.608-1.03l-3.236,15.225
			C528.539,453.062,519.509,454.869,507.766,454.869z"/>
		<path d="M573.242,454.869c-22.323,0-33.006-10.45-27.878-34.578l1.729-8.129c5.156-24.259,20.282-34.711,42.606-34.711
			c22.582,0,33.265,10.453,28.108,34.711l-1.728,8.129C610.951,444.419,595.824,454.869,573.242,454.869z M595.354,412.162
			c2.77-13.033-0.142-17.55-9.304-17.55c-9.032,0-13.864,4.517-16.634,17.55l-1.729,8.129c-2.77,13.032,0.143,17.545,9.175,17.545
			c9.162,0,13.992-4.514,16.763-17.545L595.354,412.162z"/>
		<path d="M618.859,452.934l15.633-73.547h22.454l-15.634,73.547H618.859z M636.246,369.321l3.592-16.904h23.357l-3.593,16.904
			H636.246z"/>
		<path d="M700.414,452.934l9.9-46.578c1.894-8.904,0.874-12.002-6.223-12.002c-4.13,0-10.164,1.679-16.621,4.129l-11.574,54.451
			h-22.453l15.634-73.547h21.162l-1.261,5.936c8.471-4.645,17.416-7.871,25.803-7.871c22.195,0,21.389,12.903,17.986,28.905
			l-9.9,46.578H700.414z"/>
	</g>
	<g>
		<path d="M300.981,503.211l2.241-9.746h11l-2.24,9.746H300.981z"/>
		<path d="M331.959,504.103c-11.001,0-14.71-5.468-12.306-15.929l0.874-3.803c2.458-10.698,8.627-15.928,19.628-15.928
			c5.721,0,9.743,0.832,11.708,1.308l-1.625,7.072c-4.709-0.299-7.749-0.475-9.823-0.475c-4.779,0-7.481,1.366-9.012,8.022
			l-0.874,3.803c-1.53,6.657,0.594,8.084,5.31,8.084c2.074,0,5.195-0.178,10.042-0.476l-1.612,7.014
			C342.083,503.271,337.68,504.103,331.959,504.103z"/>
		<path d="M364.218,504.103c-10.875,0-16.055-4.813-13.5-15.929l0.86-3.743c2.568-11.174,9.96-15.987,20.836-15.987
			c11.002,0,16.183,4.813,13.615,15.987l-0.86,3.743C382.614,499.289,375.221,504.103,364.218,504.103z M375.09,484.431
			c1.38-6.003-0.027-8.082-4.491-8.082c-4.4,0-6.765,2.079-8.145,8.082l-0.86,3.743c-1.38,6.004,0.029,8.084,4.429,8.084
			c4.464,0,6.827-2.08,8.208-8.084L375.09,484.431z"/>
		<path d="M427.947,503.211l5.067-22.048c0.739-3.21,1.085-4.993-2.624-4.993c-1.697,0-4.173,0.653-6.417,1.663
			c-0.058,1.07-0.333,2.259-0.578,3.33l-5.068,22.048h-10.938l5.068-22.048c0.737-3.21,1.022-4.993-2.372-4.993
			c-2.075,0-4.605,0.892-6.558,1.723l-5.82,25.318h-10.938l7.787-33.875h10.31l-0.614,2.673c3.46-2.2,7.671-3.565,11.632-3.565
			c4.4,0,6.601,1.365,7.641,3.685c4.625-2.614,8.83-3.685,12.163-3.685c9.87,0,9.838,5.883,8.321,12.48l-5.122,22.287H427.947z"/>
		<path d="M445.013,503.211l2.24-9.746h11.001l-2.24,9.746H445.013z"/>
		<path d="M503.267,503.211l5.068-22.048c0.738-3.21,1.084-4.993-2.624-4.993c-1.697,0-4.174,0.653-6.417,1.663
			c-0.059,1.07-0.333,2.259-0.578,3.33l-5.068,22.048h-10.938l5.068-22.048c0.737-3.21,1.021-4.993-2.373-4.993
			c-2.074,0-4.604,0.892-6.557,1.723l-5.82,25.318h-10.938l7.786-33.875h10.311l-0.614,2.673c3.46-2.2,7.671-3.565,11.632-3.565
			c4.4,0,6.601,1.365,7.641,3.685c4.625-2.614,8.83-3.685,12.163-3.685c9.87,0,9.838,5.883,8.321,12.48l-5.123,22.287H503.267z"/>
		<path d="M542.554,478.548l8.469-9.212h11.189l-15.963,16.938l7.987,16.937h-12.133l-4.562-9.688l-8.891,9.688h-11.19l16.45-17.414
			l-7.784-16.461h12.134L542.554,478.548z"/>
	</g>
</g>
</svg>
