<svg xmlns="http://www.w3.org/2000/svg" data-name="Layer 1" viewBox="0 0 100 125" x="0px" y="0px"><title>Artboard 10</title><path d="M68,68.52a.26.26,0,0,1-.19-.25V66.49a6.8,6.8,0,0,1-2.65-2.13,6.67,6.67,0,0,1-1.3-4.68l-.33.48a19.26,19.26,0,0,1-9,7.13,13.55,13.55,0,0,1-9.08,0,18.72,18.72,0,0,1-9.08-7.15,20.78,20.78,0,0,1-3.46-8.4.64.64,0,0,0-.59-.54c-.35,0-1.6-.54-3.13-6-1.2-4.24-.69-5.78-.29-6.32a1.38,1.38,0,0,1,1.19-.52h.29a.64.64,0,0,0,.68-.59c0-.09.75-9.23,6.17-12.52,2.71-1.65,6.18-1.58,10.32.18a42.28,42.28,0,0,0,5.12,1.82A21.89,21.89,0,0,1,72.14,15.37h2.37a18.73,18.73,0,0,0-6.75-8,6.72,6.72,0,0,0,1.92-4.89.64.64,0,0,0-.23-.45A.68.68,0,0,0,69,1.92c-.14,0-13.77,1.55-20.34.19C41.9.72,34.49,5.84,33,11.08a9.89,9.89,0,0,0-6.46,3.65c-3,3.67-3.89,9.51-2.71,17.35.08,1,.2,2,.38,3l-.12.15c-2.61,3.46-1.66,8.3-.71,11.64.58,2.06,1.66,5.87,4.1,8.28a26.59,26.59,0,0,0,1.95,5,29.45,29.45,0,0,0,2.79,4.47v3.64a.25.25,0,0,1-.19.25c-9.33,2.15-31,9-31,26.22a3.39,3.39,0,0,0,3.38,3.38H95.65A3.39,3.39,0,0,0,99,94.73C99,77.54,77.34,70.67,68,68.52ZM50,81.68a17.89,17.89,0,0,1-14.66-7.29,7,7,0,0,0,3.19-3.79A22.71,22.71,0,0,0,43.42,73a19.72,19.72,0,0,0,13.16,0,23.19,23.19,0,0,0,4.88-2.46,7,7,0,0,0,3.2,3.84A17.89,17.89,0,0,1,50,81.68ZM82.6,20.81H72.14A16.43,16.43,0,0,0,55.71,37.24h0a16.43,16.43,0,0,0,14,16.25A14.77,14.77,0,0,1,69.34,60a1.32,1.32,0,0,0,1.86,1.55c2.73-1.38,6.6-3.92,8.67-7.85H82.6A16.43,16.43,0,0,0,99,37.24h0A16.43,16.43,0,0,0,82.6,20.81Zm2.67,23.71H69.47a1.59,1.59,0,1,1,0-3.18H85.28a1.59,1.59,0,1,1,0,3.18Zm0-5.69H69.47a1.59,1.59,0,0,1,0-3.18H85.28a1.59,1.59,0,1,1,0,3.18Zm0-5.69H69.47a1.59,1.59,0,1,1,0-3.18H85.28a1.59,1.59,0,1,1,0,3.18Z"/><text x="0" y="115" fill="#000000" font-size="5px" font-weight="bold" font-family="'Helvetica Neue', Helvetica, Arial-Unicode, Arial, Sans-serif">Created by Gregor Cresnar</text><text x="0" y="120" fill="#000000" font-size="5px" font-weight="bold" font-family="'Helvetica Neue', Helvetica, Arial-Unicode, Arial, Sans-serif">from the Noun Project</text></svg>