<svg xmlns="http://www.w3.org/2000/svg" xmlns:xlink="http://www.w3.org/1999/xlink" version="1.1" x="0px" y="0px" viewBox="-255 347 100 125" style="enable-background:new -255 347 100 100;" xml:space="preserve"><path d="M-179.2,393.2c1.9-1.3,3.1-3.5,3.1-5.9c0-3.8-2.9-6.9-6.7-7.2l1.8,6.6L-179.2,393.2z"/><path d="M-177.6,409l-5.8-21.6l-5.8-21.7c-0.3-1.3-1.4-2-2.6-2c-0.7,0-1.5,0.3-2.2,0.9c-9.9,11-23.2,17.3-28.6,19.5l0.1,0.4  l6.7,25.1v0.1c2.5-0.3,6.7-0.8,11.8-0.8c6.7,0,14.9,0.8,22.9,3.4c0.3,0.1,0.6,0.1,0.9,0.1C-178.5,412.4-177.1,410.8-177.6,409z"/><path d="M-210.3,426.3c-4.9-4.8-6.8-10.5-7.5-13.7l-12.1,3.3c0.7,3.4,2.8,9.5,8.3,14.4c0.7,0.7,1.8,0.9,2.7,0.7l7.2-1.9  C-209.9,428.6-209.5,427.2-210.3,426.3z"/><path d="M-238.5,388.8c-7.8,2.1-12.6,9.4-10.7,16.3c1.5,5.6,7,9.3,13.2,9.3c1.4,0,2.8-0.2,4.2-0.6l13.6-3.7l0,0c-0.1,0-0.1,0-0.1,0  l-3.4-12.5l-3.4-12.5c0,0,0.1,0,0.2-0.1l0,0L-238.5,388.8z"/><g><path d="M-170.1,385.1c-0.6,0-1.1-0.4-1.3-1c-0.2-0.7,0.2-1.4,0.9-1.6l12.1-3.2c0.7-0.2,1.4,0.2,1.6,0.9c0.2,0.7-0.2,1.4-0.9,1.6   l-12.1,3.2C-169.9,385.1-170,385.1-170.1,385.1z"/></g><g><path d="M-159,399.3c-0.2,0-0.4-0.1-0.7-0.2l-10.8-6.3c-0.6-0.4-0.8-1.2-0.5-1.8c0.4-0.6,1.2-0.8,1.8-0.5l10.8,6.3   c0.6,0.4,0.8,1.2,0.5,1.8C-158.1,399.1-158.6,399.3-159,399.3z"/></g><g><path d="M-173.6,378.1c-0.2,0-0.4-0.1-0.6-0.2c-0.6-0.4-0.8-1.1-0.5-1.8l6.2-10.9c0.4-0.6,1.1-0.8,1.8-0.5c0.6,0.4,0.8,1.1,0.5,1.8   l-6.2,10.9C-172.7,377.9-173.1,378.1-173.6,378.1z"/></g><text x="-255" y="462" fill="#000000" font-size="5px" font-weight="bold" font-family="'Helvetica Neue', Helvetica, Arial-Unicode, Arial, Sans-serif">Created by Lizzy Gregory</text><text x="-255" y="467" fill="#000000" font-size="5px" font-weight="bold" font-family="'Helvetica Neue', Helvetica, Arial-Unicode, Arial, Sans-serif">from the Noun Project</text></svg>