<svg xmlns="http://www.w3.org/2000/svg" xmlns:xlink="http://www.w3.org/1999/xlink" version="1.1" x="0px" y="0px" viewBox="0 0 500 625" enable-background="new 0 0 500 500" xml:space="preserve"><path fill="#000000" d="M73.875,270.971c0,0,11.262-64.283-45.805-85.958C28.07,185.013,10.801,247.203,73.875,270.971z"/><path fill="#000000" d="M75.825,208.786c0,0,32.483-56.604-13.788-96.418C62.037,112.368,24.618,164.958,75.825,208.786z"/><path fill="#000000" d="M105.98,158.672c0,0,46.742-45.543,13.145-96.509C119.125,62.163,68.734,102.495,105.98,158.672z"/><path fill="#000000" d="M97.45,332.215c0,0-8.446-64.714-69.38-68.361C28.07,263.854,30.158,328.363,97.45,332.215z"/><path fill="#000000" d="M133.675,376.688c0,0-30.44-57.729-88.834-39.939C44.841,336.746,69.25,396.496,133.675,376.688z"/><path fill="#000000" d="M186.25,407.342c0,0-47.541-44.711-96.992-8.921C89.258,398.421,131.75,447.002,186.25,407.342z"/><path fill="#000000" d="M248.136,423.432c0,0-59.265-27.33-94.815,22.294C153.32,445.726,209.023,478.326,248.136,423.432z"/><path fill="#000000" d="M248.805,439.247c0,0-29.717,10.298-25.494,39.411C223.311,478.658,253.551,471.381,248.805,439.247z"/><path fill="#000000" d="M249.18,408.207c-45.326,0-87.823-17.617-119.664-49.607c-31.675-31.822-49.119-74.062-49.119-118.939  c0-30.236,8.101-59.895,23.426-85.768l4.302,2.548c-14.869,25.103-22.728,53.88-22.728,83.22  c0,90.181,73.472,163.548,163.782,163.548c90.181,0,163.547-73.367,163.547-163.548c0-29.343-7.857-58.12-22.727-83.22l4.303-2.548  c15.324,25.871,23.424,55.529,23.424,85.768C417.729,332.598,342.118,408.207,249.18,408.207z"/><path fill="#000000" d="M424.255,270.971c0,0-11.263-64.283,45.803-85.958C470.058,185.013,487.327,247.203,424.255,270.971z"/><path fill="#000000" d="M422.304,208.786c0,0-32.481-56.604,13.788-96.418C436.092,112.368,473.51,164.958,422.304,208.786z"/><path fill="#000000" d="M392.148,158.672c0,0-46.743-45.543-13.146-96.509C379.004,62.163,429.395,102.495,392.148,158.672z"/><path fill="#000000" d="M400.678,332.215c0,0,8.447-64.714,69.38-68.361C470.058,263.854,467.971,328.363,400.678,332.215z"/><path fill="#000000" d="M364.454,376.688c0,0,30.438-57.729,88.833-39.939C453.287,336.746,428.88,396.496,364.454,376.688z"/><path fill="#000000" d="M311.88,407.342c0,0,47.54-44.711,96.991-8.921C408.871,398.421,366.379,447.002,311.88,407.342z"/><path fill="#000000" d="M249.994,423.432c0,0,59.264-27.33,94.812,22.294C344.809,445.726,289.104,478.326,249.994,423.432z"/><path fill="#000000" d="M249.324,439.247c0,0,29.717,10.298,25.494,39.411C274.818,478.658,244.578,471.381,249.324,439.247z"/><path fill="#000000" d="M247.151,29.006c0.381-0.771,1.167-1.26,2.026-1.26c0.86,0,1.646,0.488,2.027,1.26l8.062,16.328l18.021,2.62  c0.853,0.124,1.559,0.72,1.823,1.538c0.268,0.818,0.045,1.717-0.57,2.317l-13.04,12.71l3.077,17.946  c0.146,0.848-0.203,1.705-0.898,2.21c-0.695,0.506-1.617,0.573-2.381,0.172l-16.118-8.472l-16.114,8.472  c-0.762,0.4-1.685,0.333-2.38-0.172c-0.696-0.505-1.045-1.362-0.899-2.21l3.078-17.945l-13.038-12.71  c-0.616-0.601-0.838-1.499-0.572-2.317c0.266-0.818,0.973-1.415,1.825-1.538l18.018-2.62L247.151,29.006z"/><path fill="#000000" d="M188.004,59.905c-0.201-0.409-0.619-0.669-1.076-0.669c-0.457,0-0.875,0.259-1.078,0.669l-4.283,8.676  l-9.574,1.393c-0.452,0.065-0.828,0.382-0.97,0.817s-0.022,0.911,0.305,1.23l6.929,6.753l-1.637,9.535  c-0.076,0.451,0.109,0.906,0.479,1.175c0.37,0.269,0.861,0.305,1.266,0.092l8.564-4.502l8.562,4.501  c0.404,0.213,0.895,0.178,1.266-0.091c0.369-0.269,0.555-0.725,0.478-1.175l-1.636-9.535l6.928-6.753  c0.327-0.319,0.445-0.796,0.303-1.23c-0.141-0.436-0.516-0.752-0.969-0.817l-9.574-1.393L188.004,59.905z"/><path fill="#000000" d="M310.125,59.905c0.201-0.409,0.619-0.669,1.076-0.669s0.875,0.259,1.077,0.669l4.281,8.676l9.575,1.393  c0.452,0.065,0.828,0.382,0.972,0.817c0.141,0.435,0.021,0.911-0.308,1.23l-6.928,6.753l1.636,9.535  c0.077,0.451-0.106,0.906-0.478,1.175s-0.86,0.305-1.268,0.092l-8.562-4.502l-8.562,4.501c-0.406,0.213-0.896,0.178-1.267-0.091  c-0.369-0.269-0.556-0.725-0.479-1.175l1.637-9.535l-6.928-6.753c-0.326-0.319-0.445-0.796-0.304-1.23  c0.142-0.436,0.517-0.752,0.97-0.817l9.574-1.393L310.125,59.905z"/><path fill="#000000" d="M246.453,442.817c-0.066-0.931-1.414-22.998,16.268-41.806c15.834-16.843,41.448-25.377,76.144-25.377  c0.654,0,1.31,0.004,1.973,0.01l-0.047,5c-34.261-0.306-59.288,7.689-74.427,23.792c-16.197,17.229-14.938,37.82-14.922,38.026  L246.453,442.817z"/><path fill="#000000" d="M251.439,442.817l-4.987-0.351c0.014-0.207,1.212-20.93-14.988-38.103  c-15.146-16.054-40.152-24.009-74.357-23.722l-0.046-5c35.69-0.332,61.98,8.207,78.114,25.368  C252.855,419.819,251.507,441.888,251.439,442.817z"/><circle fill="#000000" cx="105.244" cy="240.726" r="2.713"/><path fill="#000000" d="M105.244,245.439c-2.599,0-4.713-2.114-4.713-4.713s2.114-4.713,4.713-4.713  c2.599,0,4.713,2.114,4.713,4.713S107.843,245.439,105.244,245.439z M105.244,240.013c-0.393,0-0.713,0.32-0.713,0.713  s0.32,0.713,0.713,0.713s0.713-0.32,0.713-0.713S105.637,240.013,105.244,240.013z"/><circle fill="#000000" cx="393.068" cy="240.539" r="2.713"/><path fill="#000000" d="M393.068,245.252c-2.6,0-4.713-2.114-4.713-4.713s2.113-4.713,4.713-4.713c2.599,0,4.713,2.114,4.713,4.713  S395.667,245.252,393.068,245.252z M393.068,239.826c-0.395,0-0.713,0.32-0.713,0.713s0.318,0.713,0.713,0.713  c0.394,0,0.713-0.32,0.713-0.713S393.462,239.826,393.068,239.826z"/><circle fill="#000000" cx="147.461" cy="342.459" r="2.713"/><path fill="#000000" d="M147.461,347.172c-2.599,0-4.713-2.113-4.713-4.713s2.114-4.713,4.713-4.713s4.713,2.113,4.713,4.713  S150.06,347.172,147.461,347.172z M147.461,341.746c-0.393,0-0.713,0.318-0.713,0.713s0.32,0.713,0.713,0.713  s0.713-0.318,0.713-0.713S147.854,341.746,147.461,341.746z"/><circle fill="#000000" cx="350.983" cy="342.327" r="2.714"/><path fill="#000000" d="M350.983,347.041c-2.601,0-4.716-2.114-4.716-4.714c0-2.601,2.115-4.714,4.716-4.714  c2.6,0,4.714,2.113,4.714,4.714C355.697,344.927,353.583,347.041,350.983,347.041z M350.983,341.613  c-0.396,0-0.716,0.32-0.716,0.714s0.32,0.714,0.716,0.714c0.394,0,0.714-0.32,0.714-0.714S351.377,341.613,350.983,341.613z"/><circle fill="#000000" cx="117.135" cy="297.913" r="2.713"/><path fill="#000000" d="M117.135,302.626c-2.599,0-4.713-2.114-4.713-4.713s2.114-4.713,4.713-4.713  c2.599,0,4.713,2.114,4.713,4.713S119.734,302.626,117.135,302.626z M117.135,297.2c-0.393,0-0.713,0.319-0.713,0.713  s0.32,0.713,0.713,0.713c0.394,0,0.713-0.319,0.713-0.713S117.528,297.2,117.135,297.2z"/><circle fill="#000000" cx="381.178" cy="183.35" r="2.712"/><path fill="#000000" d="M381.178,188.062c-2.599,0-4.712-2.114-4.712-4.712s2.113-4.712,4.712-4.712c2.6,0,4.712,2.114,4.712,4.712  S383.776,188.062,381.178,188.062z M381.178,182.638c-0.393,0-0.712,0.319-0.712,0.712s0.319,0.712,0.712,0.712  c0.394,0,0.712-0.319,0.712-0.712S381.57,182.638,381.178,182.638z"/><circle fill="#000000" cx="116.566" cy="184.677" r="2.712"/><path fill="#000000" d="M116.566,189.389c-2.598,0-4.712-2.114-4.712-4.712c0-2.598,2.114-4.712,4.712-4.712  s4.712,2.114,4.712,4.712C121.278,187.275,119.164,189.389,116.566,189.389z M116.566,183.965c-0.393,0-0.712,0.319-0.712,0.712  c0,0.393,0.319,0.712,0.712,0.712s0.712-0.32,0.712-0.712C117.278,184.285,116.958,183.965,116.566,183.965z"/><path fill="#000000" d="M380.688,299.085c-1.379-0.583-2.024-2.176-1.442-3.556c0.584-1.379,2.176-2.025,3.557-1.442  c1.377,0.583,2.027,2.175,1.443,3.558C383.66,299.021,382.066,299.667,380.688,299.085z"/><path fill="#000000" d="M381.741,301.299c-0.631,0-1.247-0.125-1.831-0.371c-2.395-1.012-3.52-3.781-2.509-6.176  c0.74-1.75,2.445-2.88,4.345-2.88c0.631,0,1.248,0.126,1.833,0.372c2.394,1.014,3.519,3.785,2.508,6.179  C385.345,300.171,383.64,301.299,381.741,301.299z M381.746,295.872c-0.22,0-0.523,0.114-0.66,0.438  c-0.152,0.359,0.018,0.779,0.381,0.934c0.293,0.125,0.741,0.078,0.938-0.381c0.15-0.359-0.02-0.78-0.382-0.934  C381.934,295.893,381.84,295.872,381.746,295.872z"/><path fill="#000000" d="M181.038,314.779V161.854l173.292,52.438v46.519L181.038,314.779z M191.038,175.328v125.865L344.33,253.45  v-31.736L191.038,175.328z"/><path fill="#000000" d="M363.492,272.611h-9.441c-5.359,0-9.721-4.36-9.721-9.721v-50.699c0-5.36,4.36-9.721,9.721-9.721h9.441  c5.359,0,9.721,4.361,9.721,9.721v50.699C373.213,268.251,368.853,272.611,363.492,272.611z M354.33,262.611h8.883v-50.139h-8.883  V262.611z"/><path fill="#000000" d="M176.596,327.962h-1.109c-7.963,0-14.442-6.478-14.442-14.44V163.599c0-8.575,6.976-15.551,15.551-15.551  c7.963,0,14.442,6.479,14.442,14.442v151.031C191.038,321.484,184.56,327.962,176.596,327.962z M176.596,158.048  c-3.061,0-5.551,2.49-5.551,5.551v149.922c0,2.447,1.993,4.439,4.442,4.439h1.109c2.449,0,4.442-1.992,4.442-4.439V162.49  C181.038,160.041,179.045,158.048,176.596,158.048z"/><path fill="#000000" d="M262.116,321.273c-15.9,0.002-30.888-9.685-36.886-25.137l9.322-3.619  c5.545,14.285,21.386,21.969,36.072,17.484l18.795-5.738c14.888-4.546,23.693-19.945,20.049-35.06l9.722-2.345  c4.884,20.248-6.91,40.88-26.851,46.968l-18.795,5.739C269.757,320.725,265.909,321.273,262.116,321.273z"/><rect x="265.169" y="183.575" transform="matrix(-0.2815 -0.9596 0.9596 -0.2815 85.2212 601.1337)" fill="#000000" width="4.999" height="170.171"/><rect x="245.932" y="197.981" transform="matrix(-0.2815 -0.9596 0.9596 -0.2815 65.9855 575.4393)" fill="#000000" width="4.999" height="130.07"/><rect x="166.045" y="289.665" fill="#000000" width="19.993" height="5"/><rect x="348.774" y="242.199" fill="#000000" width="19.993" height="5"/><rect x="166.045" y="277.588" fill="#000000" width="19.993" height="5"/><text x="0" y="515" fill="#000000" font-size="5px" font-weight="bold" font-family="'Helvetica Neue', Helvetica, Arial-Unicode, Arial, Sans-serif">Created by Aman</text><text x="0" y="520" fill="#000000" font-size="5px" font-weight="bold" font-family="'Helvetica Neue', Helvetica, Arial-Unicode, Arial, Sans-serif">from the Noun Project</text></svg>