<svg xmlns="http://www.w3.org/2000/svg" xmlns:xlink="http://www.w3.org/1999/xlink" version="1.1" x="0px" y="0px" viewBox="0 0 1024 1280" style="enable-background:new 0 0 1024 1024;" xml:space="preserve"><g><path d="M816.3,207.7c-168-168-440.5-168-608.5,0s-168,440.5,0,608.5s440.5,168,608.5,0S984.3,375.8,816.3,207.7z    M663.9,337.3c34.2,0,61.9,27.7,61.9,61.9s-27.7,61.9-61.9,61.9c-34.2,0-61.9-27.7-61.9-61.9S629.7,337.3,663.9,337.3z    M360.1,333.4c34.2,0,61.9,27.7,61.9,61.9c0,34.2-27.7,61.9-61.9,61.9c-34.2,0-61.9-27.7-61.9-61.9   C298.1,361.1,325.9,333.4,360.1,333.4z M731,628c-19.9,38.1-50.2,70.5-86.2,93.8c-55.3,35.7-124.5,46.6-188.5,32.3   C387,738.5,325.8,690.9,293,628c-7.8-14.9-3.4-31.9,10.8-41.1c13.2-8.5,33.8-3.2,41.1,10.8c3.2,6.2,6.7,12.2,10.4,18   c1.9,3,3.9,5.8,5.9,8.7c0.9,1.3,2.2,2.6,3,4c8.1,10,17,19.2,26.7,27.6c2.2,1.9,4.4,3.7,6.6,5.5c-0.5-0.3-1-0.7-1.4-1.1   c-0.3-0.2-0.4-0.3-0.5-0.3c0.2,0.2,3.2,2.5,3.5,2.7c-0.1-0.1-0.5-0.5-1.5-1.2c0.6,0.5,1.3,1,2,1.4c4.4,3.2,9,6.3,13.6,9.2   c8.3,5.1,16.9,9.6,25.8,13.6c15.5,6.2,31.5,10.6,48,13.1c16.7,1.9,33.5,1.9,50.2,0c16.4-2.6,32.5-6.9,48-13.1   c8.9-3.9,17.5-8.5,25.8-13.6c4.9-3,9.6-6.2,14.2-9.6c0.3-0.2,0.6-0.4,0.9-0.6c-0.4,0.3-0.8,0.6-1.2,1c0.6-0.4,1.1-0.9,1.7-1.3   c-0.1,0.1-0.3,0.2-0.4,0.3c0.3-0.3,0.7-0.6,1-0.8c2.1-1.7,4.1-3.4,6.1-5.1c9.8-8.5,18.8-17.8,26.9-27.9c0.5-0.6,1-1.3,1.5-1.9   c0.2-0.3,0.5-0.6,0.7-0.9c-0.2,0.3-0.4,0.5-0.6,0.8c0.4-0.6,0.8-1.3,1.2-1.8c2-2.8,4-5.7,5.9-8.7c3.8-5.8,7.2-11.8,10.4-18   c7.8-14.9,27.3-18.1,41.1-10.8C735,594.8,738.2,614.1,731,628z"/></g><text x="0" y="1039" fill="#000000" font-size="5px" font-weight="bold" font-family="'Helvetica Neue', Helvetica, Arial-Unicode, Arial, Sans-serif">Created by shashank singh</text><text x="0" y="1044" fill="#000000" font-size="5px" font-weight="bold" font-family="'Helvetica Neue', Helvetica, Arial-Unicode, Arial, Sans-serif">from the Noun Project</text></svg>