<svg xmlns="http://www.w3.org/2000/svg" xmlns:xlink="http://www.w3.org/1999/xlink" version="1.1" x="0px" y="0px" viewBox="0 0 50 62.5" enable-background="new 0 0 50 50" xml:space="preserve"><g><path d="M28.844,20.146c-0.848-0.847-1.822-1.487-2.862-1.935l-1.725,1.725c-0.681,0.681-0.997,1.581-0.976,2.474   c0.783,0.173,1.528,0.554,2.136,1.162l1.011,1.011c1.699,1.7,1.699,4.467,0,6.166l-8.133,8.134c-1.701,1.699-4.466,1.699-6.166,0   l-1.012-1.011c-1.7-1.701-1.7-4.466,0-6.167l5.961-5.96c-0.752-2.122-0.776-4.441-0.081-6.578c-0.41,0.292-0.805,0.612-1.173,0.979   l-8.133,8.133c-3.589,3.59-3.589,9.429,0,13.019l1.012,1.01c3.589,3.59,9.428,3.59,13.017,0l8.134-8.133   c3.589-3.589,3.589-9.428,0.001-13.017L28.844,20.146z"/><path d="M42.309,8.704l-1.011-1.012c-3.59-3.589-9.43-3.589-13.019,0l-8.133,8.133c-1.054,1.054-1.79,2.304-2.224,3.632   l-0.004,0.011c-0.076,0.236-0.143,0.476-0.201,0.718c-0.001,0.008-0.004,0.016-0.006,0.025c-0.342,1.458-0.326,2.987,0.045,4.433   c0.006,0.025,0.011,0.05,0.018,0.075c0.055,0.206,0.119,0.409,0.188,0.61c0.439,1.284,1.161,2.491,2.183,3.516l1.012,1.011   c0.847,0.848,1.823,1.487,2.861,1.934l1.724-1.724c0.68-0.68,1.005-1.579,0.984-2.472c-0.785-0.173-1.535-0.555-2.145-1.164   l-1.011-1.011c-0.627-0.627-1.02-1.401-1.184-2.212l-0.059-0.013l-0.016-0.678c-0.048-1.176,0.362-2.367,1.258-3.264l8.134-8.133   c1.699-1.7,4.465-1.7,6.165,0l1.012,1.012c1.7,1.7,1.7,4.465,0,6.166l-5.964,5.964c0.751,2.123,0.779,4.439,0.083,6.575   c0.41-0.293,0.807-0.613,1.174-0.979l8.132-8.134C45.896,18.132,45.896,12.292,42.309,8.704z"/></g><text x="0" y="65" fill="#000000" font-size="5px" font-weight="bold" font-family="'Helvetica Neue', Helvetica, Arial-Unicode, Arial, Sans-serif">Created by Kick</text><text x="0" y="70" fill="#000000" font-size="5px" font-weight="bold" font-family="'Helvetica Neue', Helvetica, Arial-Unicode, Arial, Sans-serif">from the Noun Project</text></svg>