<svg xmlns="http://www.w3.org/2000/svg" xmlns:xlink="http://www.w3.org/1999/xlink" version="1.1" x="0px" y="0px" viewBox="0 0 20 25" style="enable-background:new 0 0 20 20;" xml:space="preserve"><style type="text/css">
	.st0{fill:#231F20;}
</style><g><path d="M10.9,9.6c-0.4-0.2-0.8-0.1-1.1,0.2l-2,2c-0.4,0.4-0.4,1,0,1.4s1,0.4,1.4,0l0.2-0.2v2.6c0,0.6,0.4,1,1,1s1-0.4,1-1v-5   C11.5,10.1,11.2,9.7,10.9,9.6z"/><path d="M19,0h-4c-0.4,0-0.7,0.2-0.9,0.5l-3,5.6C10.4,6,9.6,6,8.8,6.1L5.9,0.5C5.7,0.2,5.4,0,5,0H1C0.2,0-0.2,0.8,0.1,1.5l4.1,7.7   C3.4,10.3,3,11.6,3,13c0,3.9,3.1,7,7,7s7-3.1,7-7c0-1.4-0.4-2.7-1.2-3.9l4.1-7.7C20.2,0.8,19.8,0,19,0z M4.4,2l2.5,4.7   C6.4,7,5.9,7.3,5.6,7.6L2.7,2H4.4z M10,18c-2.8,0-5-2.2-5-5c0-2.8,2.3-5,5-5c2.7,0,5,2.2,5,5C15,15.8,12.8,18,10,18z M14.4,7.5   c-0.4-0.3-0.9-0.6-1.3-0.8L15.6,2h1.7L14.4,7.5z"/></g><text x="0" y="35" fill="#000000" font-size="5px" font-weight="bold" font-family="'Helvetica Neue', Helvetica, Arial-Unicode, Arial, Sans-serif">Created by ProSymbols</text><text x="0" y="40" fill="#000000" font-size="5px" font-weight="bold" font-family="'Helvetica Neue', Helvetica, Arial-Unicode, Arial, Sans-serif">from the Noun Project</text></svg>