<svg xmlns="http://www.w3.org/2000/svg" xmlns:xlink="http://www.w3.org/1999/xlink" version="1.1" x="0px" y="0px" viewBox="0 0 64 80" enable-background="new 0 0 64 64" xml:space="preserve"><g><path d="M49.104,13.405l-2.143-1.796l-0.492-2.752c-0.492-2.81-2.926-4.837-5.764-4.837h-2.795l-2.144-1.796   c-2.187-1.839-5.344-1.839-7.531,0l-2.144,1.796h-2.795c-2.853,0-5.272,2.028-5.764,4.837l-0.492,2.752l-2.143,1.796   c-2.172,1.825-2.723,4.953-1.303,7.415l1.405,2.419l-0.492,2.752c-0.217,1.26-0.029,2.505,0.492,3.592   c0.072,0.145,0.159,0.275,0.246,0.42c0.087,0.145,0.174,0.304,0.29,0.449c0.666,0.927,1.608,1.651,2.737,2.071l2.621,0.956   l1.405,2.419c0.42,0.724,0.97,1.332,1.622,1.796c0.912,0.666,1.984,1.057,3.114,1.115c0.768,0.058,1.579-0.058,2.346-0.333   L32,37.519l2.621,0.956c0.652,0.232,1.332,0.348,2.013,0.348c0.116,0,0.232,0,0.348-0.029c1.144-0.043,2.216-0.449,3.114-1.101   c0.637-0.478,1.202-1.086,1.608-1.796l1.405-2.419l2.621-0.956c1.13-0.42,2.071-1.144,2.737-2.071   c0.116-0.145,0.203-0.304,0.29-0.449c0.087-0.145,0.174-0.275,0.246-0.42c0.521-1.086,0.71-2.332,0.492-3.592l-0.478-2.752   l1.39-2.419C51.827,18.359,51.277,15.23,49.104,13.405z M32,33.956c-7.782,0-14.122-6.34-14.122-14.122   c0-7.783,6.34-14.122,14.122-14.122s14.122,6.34,14.122,14.122C46.122,27.616,39.782,33.956,32,33.956z"/><g><path d="M44.414,37.001c-1.471,2.556-4.03,4.419-6.966,4.686c-1.311,0.119-2.605-0.049-3.822-0.498l-1.071-0.39l8.538,22.355    l1.558-3.218c1.267-2.618,4.354-3.797,7.044-2.69L53,58.607l-8.385-21.956L44.414,37.001z"/><path d="M30.367,41.195c-4.01,1.45-8.456-0.171-10.581-3.85l-0.401-0.695L11,58.607l3.306-1.36c2.69-1.107,5.776,0.072,7.044,2.69    l1.558,3.218l8.537-22.353L30.367,41.195z"/></g><path d="M32,9.059c-5.943,0-10.777,4.834-10.777,10.777S26.057,30.613,32,30.613c5.942,0,10.777-4.834,10.777-10.777   S37.942,9.059,32,9.059z M32,29.185c-5.155,0-9.349-4.194-9.349-9.349s4.194-9.349,9.349-9.349c5.156,0,9.349,4.194,9.349,9.349   S37.156,29.185,32,29.185z"/><path d="M33.118,13.934l0.736,2.265c0.157,0.484,0.609,0.812,1.118,0.812h2.381c1.139,0,1.613,1.458,0.691,2.127l-1.926,1.4   c-0.412,0.299-0.585,0.83-0.427,1.315l0.736,2.265c0.352,1.083-0.888,1.984-1.809,1.315l-1.926-1.4   c-0.412-0.299-0.97-0.299-1.382,0l-1.926,1.4c-0.922,0.67-2.161-0.231-1.809-1.315l0.736-2.265   c0.157-0.484-0.015-1.015-0.427-1.315l-1.926-1.4c-0.922-0.67-0.448-2.127,0.691-2.127h2.381c0.509,0,0.961-0.328,1.118-0.812   l0.736-2.265C31.234,12.851,32.766,12.851,33.118,13.934z"/></g><text x="0" y="79" fill="#000000" font-size="5px" font-weight="bold" font-family="'Helvetica Neue', Helvetica, Arial-Unicode, Arial, Sans-serif">Created by Arafat Uddin</text><text x="0" y="84" fill="#000000" font-size="5px" font-weight="bold" font-family="'Helvetica Neue', Helvetica, Arial-Unicode, Arial, Sans-serif">from the Noun Project</text></svg>