<svg xmlns="http://www.w3.org/2000/svg" xmlns:xlink="http://www.w3.org/1999/xlink" version="1.1" x="0px" y="0px" viewBox="0 0 100 125" enable-background="new 0 0 100 100" xml:space="preserve"><path d="M56.9,44.3H43.3v-4c0-3.5,2.6-6.6,6.1-7c0.2,0,0.4,0,0.7,0c3.8,0,6.8,3.1,6.8,6.8V44.3L56.9,44.3z M50,50.6  c-0.1,0-0.2,0-0.3,0c-1.2,0.1-2.1,1-2.3,2.2c-0.2,1,0.2,1.9,0.9,2.5l-0.7,3.4c-0.1,0.4,0.2,0.7,0.6,0.7H50h1.8  c0.4,0,0.7-0.4,0.6-0.7l-0.7-3.3c0.6-0.5,1-1.2,1-2.1C52.7,51.8,51.5,50.6,50,50.6z M30.7,17.7c3.1-1.9,6.5-3.3,9.9-4.2l1.5-9  c0.3-1.7,1.7-2.9,3.4-2.9l4.5,0l4.5,0c1.7,0,3.1,1.2,3.4,2.9l1.5,9c3.4,0.9,6.6,2.2,9.7,4l7.4-5.3c1.4-1,3.2-0.8,4.4,0.3l3.2,3.2  l3.2,3.2c1.2,1.2,1.4,3.1,0.4,4.5l-5.3,7.4c1.8,3.1,3.2,6.3,4,9.7l9,1.5c1.7,0.3,2.9,1.7,2.9,3.4l0,4.5l0,4.5c0,1.7-1.2,3.1-2.9,3.4  l-9,1.5c-0.9,3.4-2.2,6.6-4,9.7l5.3,7.4c1,1.4,0.8,3.3-0.4,4.5l-3.2,3.2L81,87.4c-1.2,1.2-3.1,1.4-4.5,0.4l-7.4-5.3  c-3,1.8-6.2,3.1-9.5,3.9l-1.5,9.1c-0.3,1.7-1.7,2.9-3.4,2.9l-4.5,0l-4.5,0c-1.7,0-3.1-1.2-3.4-2.9l-1.5-8.9c-3.3-0.9-6.6-2.2-9.7-4  l-7.5,5.3c-1.4,1-3.3,0.8-4.5-0.4L16,84.3l-3.2-3.2c-1.2-1.2-1.4-3.1-0.4-4.5l5.2-7.4c-1.8-3-3.2-6.3-4.1-9.7l-9.1-1.5  c-1.7-0.3-2.9-1.7-2.9-3.4l0-4.5l0-4.5c0-1.7,1.2-3.1,2.9-3.4l8.9-1.4c0.9-3.3,2.2-6.6,4-9.7l-5.3-7.5c-1-1.4-0.8-3.3,0.4-4.5  l3.2-3.2l3.2-3.2c1.2-1.2,3.1-1.4,4.5-0.4L30.7,17.7z M34.5,62.3c0,1.8,1.4,3.2,3.2,3.2h24.5c1.8,0,3.2-1.4,3.2-3.2V47.5  c0-1.8-1.4-3.2-3.2-3.2h-0.1v-4.2c0-6.7-5.4-12.1-12.1-12.1c-0.2,0-0.3,0-0.5,0C43.1,28.3,38,33.9,38,40.4v3.9h-0.3  c-1.8,0-3.2,1.4-3.2,3.2V62.3z"/><text x="0" y="115" fill="#000000" font-size="5px" font-weight="bold" font-family="'Helvetica Neue', Helvetica, Arial-Unicode, Arial, Sans-serif">Created by Gregor Cresnar</text><text x="0" y="120" fill="#000000" font-size="5px" font-weight="bold" font-family="'Helvetica Neue', Helvetica, Arial-Unicode, Arial, Sans-serif">from the Noun Project</text></svg>