<svg xmlns="http://www.w3.org/2000/svg" xmlns:xlink="http://www.w3.org/1999/xlink" version="1.1" x="0px" y="0px" viewBox="206 206 100 125" enable-background="new 206 206 100 100" xml:space="preserve"><path d="M297.732,274.871c-0.086-15.984-10.829-30.307-15.643-35.924l0.752-0.755c1.182-1.194,1.349-3.059,0.431-4.439l1.831-1.846  c1.371-1.382,1.359-3.623-0.022-4.994l-0.576-0.572c-0.668-0.661-1.55-1.024-2.487-1.024c-0.948,0-1.84,0.371-2.508,1.046  l-1.831,1.846c-1.386-0.908-3.25-0.727-4.437,0.469l-0.749,0.755c-5.661-4.765-20.086-15.384-36.067-15.33  c-0.082-0.009-0.164,0.019-0.226,0.081c-0.011,0.011-0.015,0.024-0.024,0.035c-0.001,0.002-0.003,0.006-0.005,0.008  c-0.041,0.062-0.056,0.132-0.045,0.201c0.002,0.004,0.002,0.009,0.004,0.013c0.006,0.026,0.015,0.05,0.028,0.074  c0.007,0.015,0.017,0.029,0.028,0.042c0.005,0.007,0.007,0.017,0.015,0.022c0.006,0.005,0.013,0.009,0.019,0.013  c0.015,0.015,0.034,0.026,0.053,0.037c0.003,0.002,0.007,0.006,0.013,0.007c0.019,0.008,0.038,0.015,0.058,0.019  c0.369,0.082,9.248,2.201,29.384,21.604l-3.189,3.217c-1.186,1.196-1.35,3.063-0.431,4.441l-18.26,18.42l-4.444-4.444l4.327-4.327  c0.373,0.289,0.828,0.446,1.309,0.446c0.575,0,1.116-0.224,1.522-0.631c0.837-0.837,0.837-2.201,0-3.04  c-0.406-0.407-0.947-0.63-1.522-0.63c-0.574,0-1.115,0.224-1.52,0.63c-0.77,0.77-0.832,1.984-0.185,2.829l-4.532,4.532  c-0.102,0.109-0.101,0.281,0.005,0.39l4.646,4.642l-1.755,1.771l-7.909-7.908l0.004-6.678c1.096-0.099,1.958-1.02,1.958-2.139  c0-1.186-0.966-2.151-2.15-2.151c-1.186,0-2.15,0.965-2.15,2.151c0,1.059,0.772,1.941,1.782,2.115l-0.003,6.818  c0,0.074,0.03,0.146,0.082,0.198l7.991,7.99l-2.381,2.404l-4.48-4.479c0.288-0.373,0.446-0.826,0.446-1.306  c0-0.575-0.224-1.115-0.63-1.521c-0.407-0.406-0.946-0.631-1.52-0.631c-0.575,0-1.116,0.225-1.52,0.631  c-0.839,0.837-0.839,2.202-0.002,3.041c0.406,0.405,0.947,0.629,1.522,0.629c0.479,0,0.934-0.159,1.309-0.448l4.481,4.481  l-2.579,2.603l-11.71-11.71c-0.053-0.053-0.124-0.082-0.198-0.082h-5.501c-0.071-0.442-0.276-0.849-0.598-1.172  c-0.407-0.406-0.948-0.63-1.522-0.63s-1.113,0.224-1.52,0.63c-0.837,0.839-0.839,2.202,0,3.042c0.406,0.406,0.945,0.629,1.52,0.629  s1.115-0.225,1.522-0.629c0.356-0.356,0.57-0.814,0.619-1.311h5.365l11.63,11.629l-1.673,1.687l-7.786-7.781  c-0.11-0.104-0.282-0.101-0.388,0.006l-5.335,5.336c-0.373-0.287-0.828-0.446-1.308-0.446c-0.573,0-1.113,0.225-1.52,0.631  c-0.837,0.84-0.837,2.203,0,3.041c0.407,0.405,0.947,0.629,1.522,0.629c0.574,0,1.113-0.224,1.52-0.63  c0.406-0.405,0.63-0.945,0.63-1.521c0-0.481-0.159-0.936-0.447-1.311l5.136-5.136l7.583,7.578l-4.43,4.47  c-1.371,1.381-1.361,3.621,0.023,4.991l0.576,0.573c0.666,0.659,1.548,1.023,2.485,1.023c0.952,0,1.841-0.37,2.509-1.046  l4.405-4.442l7.909,7.911l-5.138,5.138c-0.375-0.289-0.83-0.447-1.311-0.447c-0.574,0-1.113,0.225-1.52,0.628  c-0.406,0.407-0.63,0.948-0.63,1.521c0,0.574,0.224,1.114,0.63,1.521c0.405,0.407,0.946,0.631,1.52,0.631  c0.575,0,1.116-0.224,1.522-0.631c0.771-0.77,0.83-1.984,0.185-2.827l5.335-5.336c0.101-0.101,0.108-0.265,0.019-0.375  c-0.007-0.007-0.013-0.015-0.021-0.022l-8.106-8.108l1.673-1.686l11.975,11.977v5.364c-0.494,0.048-0.953,0.264-1.309,0.619  c-0.84,0.839-0.84,2.204,0,3.041c0.405,0.406,0.945,0.63,1.52,0.63c0.574,0,1.113-0.224,1.52-0.63  c0.839-0.837,0.839-2.202,0.002-3.041c-0.322-0.324-0.731-0.527-1.173-0.6v-5.502c0-0.072-0.029-0.143-0.082-0.197l-12.059-12.059  l2.577-2.602l4.855,4.853c-0.289,0.374-0.448,0.828-0.448,1.309c0,0.575,0.224,1.115,0.63,1.522c0.406,0.407,0.945,0.631,1.52,0.631  c0.574,0,1.115-0.224,1.521-0.631c0.407-0.407,0.629-0.947,0.629-1.52c0.001-0.574-0.222-1.115-0.629-1.52  c-0.406-0.409-0.947-0.634-1.521-0.634c-0.479,0-0.935,0.159-1.308,0.448l-4.854-4.856l2.381-2.404l8.388,8.392  c0.054,0.052,0.125,0.079,0.2,0.079l6.816-0.003c0.175,1.01,1.056,1.783,2.116,1.783c1.185,0,2.15-0.965,2.15-2.148  c0-1.187-0.966-2.15-2.15-2.15c-1.12,0-2.042,0.86-2.141,1.956l-6.676,0.003l-8.31-8.307l1.757-1.771l5.057,5.061  c0.054,0.055,0.125,0.082,0.198,0.082c0.062,0,0.125-0.021,0.176-0.063c0.009-0.007,0.017-0.015,0.024-0.022l4.525-4.523  c0.373,0.289,0.827,0.445,1.307,0.445c0.574,0,1.116-0.224,1.522-0.63c0.404-0.405,0.628-0.945,0.628-1.521  c0-0.574-0.224-1.113-0.631-1.52c-0.406-0.406-0.945-0.631-1.52-0.631s-1.112,0.225-1.52,0.631  c-0.772,0.771-0.831,1.988-0.183,2.829l-4.329,4.328l-4.861-4.864l18.284-18.442c0.585,0.382,1.255,0.571,1.922,0.571  c0.916,0,1.828-0.353,2.513-1.042l3.19-3.218c19.562,19.953,21.772,28.826,21.855,29.196c0.002,0.003,0.004,0.006,0.004,0.009  c0.008,0.026,0.017,0.049,0.03,0.073c0.003,0.004,0.005,0.007,0.009,0.012c0.017,0.027,0.039,0.054,0.065,0.073  c0.051,0.038,0.108,0.056,0.168,0.056c0.084,0,0.167-0.039,0.225-0.111C297.726,275.019,297.744,274.944,297.732,274.871z   M248.824,267.705c0,0,0,0-0.002,0.001c0,0,0,0,0,0.002l-4.926,4.966l-2.972,2.999l-2.063,2.082c0,0-0.001,0-0.004,0.001  c0,0,0,0.003-0.001,0.005l-4.601,4.64c-0.561,0.566-1.311,0.88-2.111,0.88c-0.789,0-1.533-0.306-2.092-0.861l-0.576-0.573  c-1.164-1.152-1.173-3.038-0.019-4.201l4.622-4.662c0.001-0.002,0.004-0.002,0.004-0.002c0.001-0.001,0.001-0.004,0.003-0.004  l2.057-2.075c0.001-0.002,0.004-0.002,0.005-0.005c0.001-0.001,0.001-0.003,0.004-0.005l2.963-2.989  c0.002-0.002,0.004-0.002,0.006-0.004s0.002-0.004,0.004-0.006l2.771-2.795l2.146-2.166c0.001-0.002,0.001-0.002,0.004-0.002  c0.001-0.001,0.001-0.003,0.003-0.006l18.404-18.563c0.033,0.038,0.069,0.075,0.104,0.11l4.581,4.54  c0.036,0.038,0.074,0.073,0.113,0.108L248.824,267.705z M278.127,228.55l1.78-1.793c0.562-0.567,1.312-0.88,2.11-0.88  c0.788,0,1.532,0.306,2.092,0.861l0.578,0.573c1.164,1.154,1.172,3.04,0.019,4.203l-1.781,1.796  c-0.035-0.039-0.07-0.076-0.105-0.111l-4.582-4.543C278.201,228.621,278.166,228.586,278.127,228.55z"/><text x="206" y="321" fill="#000000" font-size="5px" font-weight="bold" font-family="'Helvetica Neue', Helvetica, Arial-Unicode, Arial, Sans-serif">Created by Iconika</text><text x="206" y="326" fill="#000000" font-size="5px" font-weight="bold" font-family="'Helvetica Neue', Helvetica, Arial-Unicode, Arial, Sans-serif">from the Noun Project</text></svg>