<svg xmlns="http://www.w3.org/2000/svg" xmlns:xlink="http://www.w3.org/1999/xlink" version="1.1" x="0px" y="0px" viewBox="0 0 44 55" style="enable-background:new 0 0 44 44;" xml:space="preserve"><g><g><circle cx="30" cy="22" r="1"/><circle cx="14" cy="22" r="1"/><circle cx="10" cy="29" r="1"/><circle cx="34" cy="15" r="1"/><circle cx="10" cy="10" r="1"/><circle cx="7" cy="12" r="1"/><circle cx="13" cy="8" r="1"/><circle cx="17" cy="8" r="1"/><circle cx="21" cy="8" r="1"/><circle cx="34" cy="34" r="1"/><circle cx="37" cy="32" r="1"/><circle cx="31" cy="36" r="1"/><circle cx="27" cy="36" r="1"/><circle cx="23" cy="36" r="1"/><path d="M24.5,11.9l5,3C29.6,15,29.8,15,30,15s0.4,0,0.5-0.1l5-3c0.3-0.2,0.5-0.5,0.5-0.9V5c0-0.4-0.2-0.7-0.5-0.9l-5-3    c-0.3-0.2-0.7-0.2-1,0l-5,3C24.2,4.3,24,4.6,24,5v6C24,11.4,24.2,11.7,24.5,11.9z M34,10.4l-3,1.8V8.6l3-1.8V10.4z M30,3.2L33.1,5    L30,6.8L26.9,5L30,3.2z M26,6.8l3,1.8v3.7l-3-1.8V6.8z"/><path d="M43.5,18.1l-5-3c-0.3-0.2-0.7-0.2-1,0l-5,3C32.2,18.3,32,18.6,32,19v6c0,0.4,0.2,0.7,0.5,0.9l5,3C37.6,29,37.8,29,38,29    s0.4,0,0.5-0.1l5-3c0.3-0.2,0.5-0.5,0.5-0.9v-6C44,18.6,43.8,18.3,43.5,18.1z M37,26.2l-3-1.8v-3.7l3,1.8V26.2z M38,20.8L34.9,19    l3.1-1.8l3.1,1.8L38,20.8z M42,24.4l-3,1.8v-3.7l3-1.8V24.4z"/><path d="M19.5,32.1l-5-3c-0.3-0.2-0.7-0.2-1,0l-5,3C8.2,32.3,8,32.6,8,33v6c0,0.4,0.2,0.7,0.5,0.9l5,3C13.6,43,13.8,43,14,43    s0.4,0,0.5-0.1l5-3c0.3-0.2,0.5-0.5,0.5-0.9v-6C20,32.6,19.8,32.3,19.5,32.1z M13,40.2l-3-1.8v-3.7l3,1.8V40.2z M14,34.8L10.9,33    l3.1-1.8l3.1,1.8L14,34.8z M18,38.4l-3,1.8v-3.7l3-1.8V38.4z"/><path d="M27.5,18.1l-5-3c-0.3-0.2-0.7-0.2-1,0l-5,3C16.2,18.3,16,18.6,16,19v6c0,0.4,0.2,0.7,0.5,0.9l5,3C21.6,29,21.8,29,22,29    s0.4,0,0.5-0.1l5-3c0.3-0.2,0.5-0.5,0.5-0.9v-6C28,18.6,27.8,18.3,27.5,18.1z M21,26.2l-3-1.8v-3.7l3,1.8V26.2z M22,20.8L18.9,19    l3.1-1.8l3.1,1.8L22,20.8z M26,24.4l-3,1.8v-3.7l3-1.8V24.4z"/><path d="M12,25v-6c0-0.4-0.2-0.7-0.5-0.9l-5-3c-0.3-0.2-0.7-0.2-1,0l-5,3C0.2,18.3,0,18.6,0,19v6c0,0.4,0.2,0.7,0.5,0.9l5,3    C5.6,29,5.8,29,6,29s0.4,0,0.5-0.1l5-3C11.8,25.7,12,25.4,12,25z M5,26.2l-3-1.8v-3.7l3,1.8V26.2z M6,20.8L2.9,19L6,17.2L9.1,19    L6,20.8z M10,24.4l-3,1.8v-3.7l3-1.8V24.4z"/></g></g><text x="0" y="59" fill="#000000" font-size="5px" font-weight="bold" font-family="'Helvetica Neue', Helvetica, Arial-Unicode, Arial, Sans-serif">Created by Dmitry Mirolyubov</text><text x="0" y="64" fill="#000000" font-size="5px" font-weight="bold" font-family="'Helvetica Neue', Helvetica, Arial-Unicode, Arial, Sans-serif">from the Noun Project</text></svg>