<svg xmlns="http://www.w3.org/2000/svg" xmlns:xlink="http://www.w3.org/1999/xlink" version="1.1" x="0px" y="0px" viewBox="0 0 100 125" enable-background="new 0 0 100 100" xml:space="preserve"><g display="none"><rect display="inline" fill="#000000" width="100" height="100"/><rect x="5" y="5" display="inline" fill="#000000" width="90" height="90"/></g><g display="none"><path display="inline" d="M95,15c0,0,0-10-10-10H25C15,5,15,15,15,15v70H5c0,0,0,10,10,10h60c10,0,10-10,10-10V20h10V15z M55,56   c0,1-1,1-1,1h-1c0,0-1,0-1-1c0,0,0-15.999,0-16c0-1-1-1-1-1h-1c0,0-1,0-1,1c0,0,0,18,0,18c0,1,1,2,2,2h5c1,0,2-1,2-2V39   c0-4-2-6-6-6h-3c-4,0-6,2-6,6c0,0,0,23,0,23c0,1-1,1-1,1h-1c0,0-1,0-1-1c0,0,0-23,0-23c0-6,3-9,9-9h3c6,0,9,3,9,9v19c0,3-2,5-5,5   h-5c-3,0-5-2-5-5V39c0-2,1-3,3-3h3c2,0,3,1,3,3V56z"/></g><g display="none"><path display="inline" d="M95,15c0,0,0-10-10-10H25C15,5,15,15,15,15v70H5c0,0,0,10,10,10h60c10,0,10-10,10-10V20h10V15z M65,38   l-15,5l-15-5l15-5L65,38z M65,55l-15,5l-15-5V40l15,5l15-5V55z"/></g><g display="none"><g><g display="inline"><polygon points="85,50 65,30 65,43 15,50 65,57 65,70    "/></g></g><g><g display="inline"><polygon points="50,15 30,35 43,35 50,85 57,35 70,35    "/></g></g><g><g display="inline"><polygon points="35,43 35,30 15,50 35,70 35,57 85,50    "/></g></g><path display="inline" d="M85,5H25C15,5,15,15,15,15v70H5c0,0,0,10,10,10h60c10,0,10-10,10-10V20h10v-5C95,15,95,5,85,5z M55,30   c2.003,0,3.719,1.186,4.517,2.887C60.2,32.34,61.057,32,62,32c2.208,0,4,1.792,4,4c0,2.209-1.791,4-4,4h-7c-2.761,0-5-2.238-5-5   S52.239,30,55,30z M55,55H25l15-20L55,55l10-10l10,10H55z"/></g><g><path d="M95,15c0,0,0-10-10-10H25C15,5,15,15,15,15v70H5c0,0,0,10,10,10h60c10,0,10-10,10-10V20h10V15z M45,60H25v-5h20V60z M55,45   H25v-5h30V45z M65,30H25v-5h40V30z"/></g><g display="none"><path display="inline" d="M95,15c0,0,0-10-10-10H25C15,5,15,15,15,15v70H5c0,0,0,10,10,10h60c10,0,10-10,10-10V20h10V15z"/></g><text x="0" y="115" fill="#000000" font-size="5px" font-weight="bold" font-family="'Helvetica Neue', Helvetica, Arial-Unicode, Arial, Sans-serif">Created by Hafizh</text><text x="0" y="120" fill="#000000" font-size="5px" font-weight="bold" font-family="'Helvetica Neue', Helvetica, Arial-Unicode, Arial, Sans-serif">from the Noun Project</text></svg>