<svg xmlns="http://www.w3.org/2000/svg" xmlns:xlink="http://www.w3.org/1999/xlink" version="1.1" x="0px" y="0px" viewBox="0 0 64 80" style="enable-background:new 0 0 64 64;" xml:space="preserve"><path d="M61,11h-3V8c0-1.654-1.346-3-3-3H45c-1.654,0-3,1.346-3,3v3h-2V8c0-1.654-1.346-3-3-3H27c-1.654,0-3,1.346-3,3v3h-2V8  c0-1.654-1.346-3-3-3H9C7.346,5,6,6.346,6,8v3H3c-0.552,0-1,0.447-1,1v4c0,0.553,0.448,1,1,1h3v3c0,1.654,1.346,3,3,3h10  c1.654,0,3-1.346,3-3v-3h2v3c0,1.654,1.346,3,3,3h2v6h-5c-1.654,0-3,1.346-3,3v15c0,1.654,1.346,3,3,3h16c1.654,0,3-1.346,3-3V32  c0-1.654-1.346-3-3-3h-5v-6h2c1.654,0,3-1.346,3-3v-3h2v3c0,1.654,1.346,3,3,3h10c1.654,0,3-1.346,3-3v-3h3c0.552,0,1-0.447,1-1v-4  C62,11.447,61.552,11,61,11z M44,8c0-0.552,0.449-1,1-1h10c0.551,0,1,0.448,1,1v3h-2v-1c0-0.553-0.448-1-1-1h-6  c-0.552,0-1,0.447-1,1v1h-2V8z M52,17h-4c0.552,0,1-0.447,1-1v-4c0-0.553-0.448-1-1-1h4c-0.552,0-1,0.447-1,1v4  C51,16.553,51.448,17,52,17z M39,15h-4v-2h4h4h4v2h-4H39z M21,15h-4v-2h4h4h4v2h-4H21z M12,11h4c-0.552,0-1,0.447-1,1v4  c0,0.553,0.448,1,1,1h-4c0.552,0,1-0.447,1-1v-4C13,11.447,12.552,11,12,11z M30,11h4c-0.552,0-1,0.447-1,1v4c0,0.553,0.448,1,1,1  h-4c0.552,0,1-0.447,1-1v-4C31,11.447,30.552,11,30,11z M26,8c0-0.552,0.449-1,1-1h10c0.551,0,1,0.448,1,1v3h-2v-1  c0-0.553-0.448-1-1-1h-6c-0.552,0-1,0.447-1,1v1h-2V8z M8,8c0-0.552,0.449-1,1-1h10c0.551,0,1,0.448,1,1v3h-2v-1  c0-0.553-0.448-1-1-1h-6c-0.552,0-1,0.447-1,1v1H8V8z M4,13h3h4v2H7H4V13z M20,20c0,0.552-0.449,1-1,1H9c-0.551,0-1-0.448-1-1v-3h2  v1c0,0.553,0.448,1,1,1h6c0.552,0,1-0.447,1-1v-1h2V20z M41,32v15c0,0.552-0.449,1-1,1H24c-0.551,0-1-0.448-1-1V32  c0-0.552,0.449-1,1-1h6h4h6C40.551,31,41,31.448,41,32z M33,29h-2v-6h2V29z M38,20c0,0.552-0.449,1-1,1h-3h-4h-3  c-0.551,0-1-0.448-1-1v-3h2v1c0,0.553,0.448,1,1,1h6c0.552,0,1-0.447,1-1v-1h2V20z M56,20c0,0.552-0.449,1-1,1H45  c-0.551,0-1-0.448-1-1v-3h2v1c0,0.553,0.448,1,1,1h6c0.552,0,1-0.447,1-1v-1h2V20z M60,15h-3h-4v-2h4h3V15z"/><path d="M28,37c0,0.966,0.36,1.901,1,2.63V45c0,0.553,0.448,1,1,1h4c0.552,0,1-0.447,1-1v-5.37c0.64-0.729,1-1.664,1-2.63  c0-2.206-1.794-4-4-4S28,34.794,28,37z M34,37c0,0.564-0.238,1.09-0.67,1.479C33.12,38.669,33,38.938,33,39.222V44h-2v-4.778  c0-0.283-0.12-0.553-0.33-0.742C30.238,38.09,30,37.564,30,37c0-1.103,0.897-2,2-2S34,35.897,34,37z"/><path d="M16.352,49.781l-1.646,1.137c0.406,0.588,0.845,1.159,1.304,1.697l1.521-1.297C17.117,50.831,16.72,50.313,16.352,49.781z"/><path d="M13.359,42.693l-1.963,0.385c0.137,0.698,0.313,1.397,0.521,2.078l1.912-0.586C13.641,43.955,13.483,43.323,13.359,42.693z"/><path d="M17.48,54.172c0.512,0.49,1.057,0.961,1.619,1.399l1.23-1.576c-0.509-0.397-1.002-0.824-1.466-1.269L17.48,54.172z"/><path d="M13,39l0-0.162l-2-0.018l0,0.179c0,0.651,0.03,1.311,0.09,1.961l1.991-0.186C13.027,40.187,13,39.59,13,39z"/><path d="M43.714,53.961l1.234,1.574c0.562-0.441,1.105-0.914,1.615-1.404l-1.388-1.441C44.714,53.135,44.223,53.563,43.714,53.961z"/><path d="M12.025,32.5l1.902,0.619c0.2-0.614,0.433-1.223,0.692-1.809L12.792,30.5C12.504,31.147,12.247,31.821,12.025,32.5z"/><path d="M14.491,46.391l-1.842,0.779c0.277,0.655,0.591,1.304,0.933,1.926l1.753-0.963C15.025,47.569,14.742,46.983,14.491,46.391z"/><path d="M11.126,36.685l1.988,0.217c0.07-0.639,0.174-1.282,0.309-1.912l-1.955-0.42C11.319,35.266,11.204,35.978,11.126,36.685z"/><path d="M16.542,27.951l-1.626-1.166c-0.413,0.577-0.802,1.184-1.157,1.804l1.736,0.992C15.816,29.021,16.168,28.472,16.542,27.951z  "/><path d="M52.867,36.626c-0.08-0.709-0.197-1.42-0.348-2.113l-1.954,0.426c0.137,0.627,0.242,1.27,0.314,1.91L52.867,36.626z"/><path d="M40.443,56.026l0.888,1.791c0.636-0.314,1.264-0.668,1.868-1.049l-1.068-1.691C41.584,55.423,41.017,55.741,40.443,56.026z"/><path d="M24.688,58.69c0.664,0.248,1.352,0.464,2.045,0.644l0.499-1.938c-0.626-0.161-1.247-0.356-1.845-0.579L24.688,58.69z"/><path d="M28.832,59.763c0.706,0.106,1.422,0.178,2.13,0.212l0.097-1.998c-0.641-0.031-1.289-0.096-1.928-0.192L28.832,59.763z"/><path d="M50.999,38.785L51,39c0,0.574-0.026,1.152-0.077,1.719l1.992,0.18C52.971,40.272,53,39.634,53,39l-0.001-0.24L50.999,38.785  z"/><path d="M36.82,57.383l0.505,1.936c0.688-0.18,1.375-0.397,2.042-0.647l-0.702-1.873C38.063,57.023,37.442,57.221,36.82,57.383z"/><path d="M32.997,57.975l0.103,1.998c0.708-0.036,1.424-0.11,2.13-0.219l-0.305-1.977C34.286,57.876,33.638,57.942,32.997,57.975z"/><path d="M50.187,44.517l1.914,0.58c0.206-0.681,0.379-1.38,0.515-2.078l-1.963-0.381C50.53,43.269,50.373,43.901,50.187,44.517z"/><path d="M46.502,51.276l1.525,1.293c0.459-0.542,0.897-1.114,1.3-1.702l-1.649-1.131C47.313,50.268,46.917,50.786,46.502,51.276z"/><path d="M47.429,27.909c0.377,0.524,0.73,1.072,1.051,1.628l1.733-0.996c-0.354-0.615-0.744-1.221-1.161-1.8L47.429,27.909z"/><path d="M49.359,31.264c0.262,0.588,0.497,1.196,0.698,1.808l1.9-0.625c-0.222-0.675-0.482-1.348-0.772-1.997L49.359,31.264z"/><path d="M20.853,56.8c0.603,0.378,1.231,0.729,1.87,1.044l0.885-1.793c-0.578-0.285-1.146-0.603-1.691-0.944L20.853,56.8z"/><path d="M48.691,48.085l1.756,0.957c0.341-0.626,0.653-1.275,0.928-1.93l-1.845-0.773C49.283,46.931,49,47.519,48.691,48.085z"/><text x="0" y="79" fill="#000000" font-size="5px" font-weight="bold" font-family="'Helvetica Neue', Helvetica, Arial-Unicode, Arial, Sans-serif">Created by dDara</text><text x="0" y="84" fill="#000000" font-size="5px" font-weight="bold" font-family="'Helvetica Neue', Helvetica, Arial-Unicode, Arial, Sans-serif">from the Noun Project</text></svg>