<svg xmlns="http://www.w3.org/2000/svg" xmlns:xlink="http://www.w3.org/1999/xlink" version="1.1" x="0px" y="0px" viewBox="-257.3 491.3 99.3 124.125" style="enable-background:new -257.3 491.3 99.3 99.3;" xml:space="preserve"><style type="text/css">
	.st0{fill:none;}
	.st1{fill:#231F20;}
	.st2{fill:#FFFFFF;}
</style><path d="M-233.1,543.5c-2.9,2.9-4.6,6.3-3.9,10.5c0.6,3.8,3.6,6.8,7.3,7.4c4.2,0.7,8.4-1.3,11.2-4.4c3.7-4.1,4.7-9.4,3.7-14.7  c-0.6-3.2-5.4-1.8-4.8,1.3c1,5.3-2,13-8.5,12.9c-2.5,0-4.1-1.9-4.1-4.4c0-2.8,2-4.5,3.8-6.3c1.8-1.8,3.5-3.8,3.5-6.5  c-0.1-3.5-2.8-6.7-4.8-9.5c-5-7,4.2-15.1,11.3-14.7c4.5,0.2,8.6,3.1,10.4,7.2c2.2,5.1,0.6,10.7-3.5,14.3c-2.4,2.1,1.1,5.7,3.5,3.5  c8.9-7.9,7.4-22.8-3.5-28.2c-9.9-4.9-22.3,0.9-24.4,11.9c-0.4,2.3-0.5,4.5,0.6,6.7c1,1.9,2.5,3.6,3.7,5.4c0.8,1.3,2.1,2.8,1.4,4.4  C-230.8,541.7-232.2,542.6-233.1,543.5z"/><path d="M-209.7,573.2c0.1-0.2,0.2-0.5,0.2-0.7c0,0,0,0,0-0.1c0.3-1.3,0.5-2.6,0.6-4c0-0.1,0-0.1,0-0.1c0.8-5.6,2.2-11,6.2-15.2  c2.9-3,6.2-5.4,8.6-8.9c2.7-3.8,4.4-8.2,5.1-12.8c2.5-17-9.7-33-26.8-35c-10-1.2-20,2.4-26.4,10.3c-2,2.5,1.5,6,3.5,3.5  c10.3-12.6,30.6-11.7,40.1,1.5c4.6,6.4,6.1,14.6,4,22.2c-1.1,4-3.3,7.8-6.2,10.8c-2.3,2.3-4.9,4.2-7,6.8c-4.6,5.7-5.6,13-6.5,20.1  c-1.4,5.1-6,9-11.6,9c-6.7,0-11.9-5.5-12-12c-0.1-3.2-5.1-3.2-5,0c0.2,9.3,7.6,17,17,17C-218.2,585.5-211.8,580.2-209.7,573.2z"/><path d="M-196.1,568.2c-3.2-0.1-3.2,4.9,0,5c7.3,0.3,14.4-2.8,18.4-9.1c4.3-6.8,3.5-15.1,0.3-22.1c-1.3-2.9-5.6-0.4-4.3,2.5  c2.4,5.4,3,11.8-0.3,17C-185.1,566.4-190.6,568.4-196.1,568.2z"/><path d="M-172.8,538.6c4.8,9.7,5.6,21.1-0.8,30.3c-4.8,6.8-13.1,11.2-21.5,10.3c-3.2-0.3-3.2,4.7,0,5c10.2,1.1,20.1-4.6,25.8-12.8  c7.5-10.7,6.4-24.1,0.8-35.3C-169.9,533.2-174.3,535.7-172.8,538.6z"/><path d="M-192.1,550.7c0.9,1.4,1.3,3.2,0.6,4.8c-0.8,1.9-2.7,2.3-4.6,2.2c-3.2-0.2-3.2,4.8,0,5c7.8,0.4,12.6-8,8.3-14.5  C-189.6,545.5-193.9,548-192.1,550.7z"/><text x="-257.3" y="605.6" fill="#000000" font-size="5px" font-weight="bold" font-family="'Helvetica Neue', Helvetica, Arial-Unicode, Arial, Sans-serif">Created by MRFA</text><text x="-257.3" y="610.6" fill="#000000" font-size="5px" font-weight="bold" font-family="'Helvetica Neue', Helvetica, Arial-Unicode, Arial, Sans-serif">from the Noun Project</text></svg>