<svg xmlns="http://www.w3.org/2000/svg" xmlns:xlink="http://www.w3.org/1999/xlink" version="1.1" x="0px" y="0px" viewBox="0 0 64 80" enable-background="new 0 0 64 64" xml:space="preserve"><g><g><path fill="#000000" d="M39.46,60.083c-0.279,0-0.56-0.008-0.845-0.026c-0.82,0.063-4.231,0.172-7.036-2.054    c-2.072-1.645-3.302-4.114-3.655-7.339c-0.1-0.914,0.56-1.735,1.474-1.835c0.913-0.099,1.735,0.56,1.835,1.474    c0.252,2.308,1.065,4.022,2.415,5.094c2.035,1.615,4.719,1.343,4.746,1.34l0.157-0.019l0.158,0.011    c3.465,0.241,6.253-1.19,8.287-4.252c1.629-2.452,2.164-5.062,2.169-5.088l0.015-0.072l0.022-0.075    c1.431-4.865,7.805-15.481,8.076-15.93l0.045-0.07c3.902-5.801,2.441-13.6,2.27-14.429c-1.363-3.977-3.888-6.771-7.508-8.305    c-2.797-1.186-5.247-1.154-5.271-1.154l-0.1,0.003L46.62,7.345c-6.067-0.57-10.787,1.294-14.027,5.541    c-2.492,3.266-3.174,6.799-3.181,6.834c-0.169,0.902-1.036,1.499-1.938,1.333c-0.902-0.166-1.5-1.03-1.336-1.932    c0.031-0.172,0.797-4.246,3.722-8.139c2.73-3.634,7.891-7.785,16.986-6.958c0.587,0,3.294,0.077,6.393,1.358    c3.188,1.318,7.431,4.202,9.537,10.455l0.026,0.077l0.018,0.079c0.091,0.395,2.18,9.754-2.712,17.069    c-0.397,0.663-6.384,10.693-7.696,15.057c-0.116,0.541-0.781,3.353-2.58,6.103C47.315,58.071,43.743,60.083,39.46,60.083z"/><path fill="#000000" d="M42.467,45.21c-1.713-1.261-3.811-1.958-5.944-1.874c-1.089,0.043-2.166,0.285-3.174,0.699    c-0.919,0.377-1.882,0.719-2.604-0.252c-0.551-0.742-0.358-1.799,0.379-2.356c2.066-1.56,4.188-2.432,6.309-2.594    c1.731-0.132,3.429,0.261,4.821,1.067c1.092-2.007,2.751-3.675,4.371-5.303c1.127-1.133,2.192-2.204,2.987-3.314    c1.842-2.574,3.826-6.595,2.822-11.139c-0.571-2.582-1.933-4.658-3.736-5.694c-1.438-0.827-3.074-0.956-4.86-0.383    c-3.655,1.171-7.122,4.461-8.431,8c-0.17,0.492-0.419,1.763-0.478,2.607c0.531-0.037,1.085-0.124,1.659-0.214    c0.718-0.113,1.46-0.229,2.24-0.264c2.753-0.123,5.072,1.094,5.907,3.103c0.557,1.341,0.308,2.959-0.65,4.221    c-0.936,1.233-2.379,1.905-3.79,1.772c-0.913-0.086-1.63-0.873-1.56-1.788c0.073-0.952,0.924-1.642,1.861-1.527    c0.264,0.032,0.599-0.157,0.837-0.47c0.237-0.313,0.329-0.688,0.227-0.932c-0.314-0.757-1.589-1.104-2.683-1.055    c-0.596,0.027-1.217,0.124-1.874,0.227c-1.078,0.169-2.192,0.343-3.393,0.245c-0.673-0.055-1.273-0.423-1.645-1.008    c-0.491-0.771-0.596-1.884-0.339-3.608c0.147-0.989,0.404-2.05,0.558-2.465c0.813-2.199,2.257-4.323,4.175-6.142    c1.91-1.812,4.11-3.151,6.362-3.873c2.677-0.858,5.283-0.627,7.535,0.667c2.614,1.502,4.556,4.367,5.328,7.862    c1.004,4.544-0.159,9.314-3.365,13.794c-0.952,1.33-2.163,2.547-3.334,3.725c-1.979,1.989-3.847,3.868-4.441,6.114l-0.411,1.556    C43.942,45.345,43.075,45.657,42.467,45.21z"/></g><path fill="#000000" d="M33.942,31.175c-0.817,0-1.539,0.407-1.976,1.028c-0.727,0.001-1.46-0.002-2.182-0.016   c-0.965-0.018-1.672,0.416-2.105,1.292c-1.348,2.727-2.736,5.493-4.078,8.168l-0.95,1.894c-0.091,0.183-0.159,0.283-0.198,0.334   c-0.008-0.001-0.017-0.001-0.027-0.002c-0.003,0-0.005-0.001-0.008-0.001c-0.027-0.042-0.078-0.14-0.146-0.344   c-1.205-3.64-3.456-10.335-4.281-12.767c-0.242-0.714-0.884-1.208-1.636-1.26c-0.752-0.052-1.457,0.35-1.794,1.024l-0.13,0.26   c-0.514,1.025-1.013,2.021-1.512,3.019c-0.253,0.506-0.505,1.012-0.758,1.519c-0.412,0.827-0.825,1.655-1.24,2.481   c-0.061,0.12-0.107,0.19-0.136,0.228c-0.014,0-0.031-0.001-0.052-0.003c-0.004,0-0.008-0.001-0.012-0.001   c-0.02-0.033-0.053-0.098-0.091-0.215c-0.521-1.595-1.562-4.661-1.973-5.856c-0.199-0.577-0.694-1.01-1.293-1.13   c-0.599-0.119-1.223,0.091-1.631,0.552c-0.23,0.26-0.428,0.484-0.614,0.627c-0.15,0.115-0.321,0.173-0.375,0.176   c-0.685,0.048-1.386,0.036-2.127,0.022c-0.182-0.003-0.363-0.007-0.545-0.009c-0.773-0.007-1.403,0.606-1.413,1.377   c-0.01,0.77,0.606,1.403,1.377,1.413c0.177,0.002,0.354,0.006,0.531,0.009c0.769,0.014,1.565,0.028,2.374-0.029   c0.535-0.038,1.105-0.237,1.607-0.557c0.474,1.394,1.076,3.18,1.432,4.27c0.527,1.613,1.646,2.047,2.492,2.128   c1.306,0.124,2.297-0.464,2.943-1.748c0.417-0.829,0.831-1.66,1.245-2.49c0.252-0.505,0.504-1.01,0.756-1.515   c0.215-0.429,0.43-0.859,0.646-1.29c1.038,3.079,2.621,7.796,3.563,10.643c0.451,1.361,1.296,2.116,2.512,2.244   c0.122,0.013,0.24,0.019,0.353,0.019c1.717,0,2.418-1.397,2.658-1.875l0.949-1.893c1.3-2.592,2.643-5.269,3.953-7.916   c0.643,0.01,1.287,0.012,1.925,0.011c0.438,0.615,1.156,1.018,1.969,1.018c1.335,0,2.418-1.082,2.418-2.418   S35.278,31.175,33.942,31.175z"/></g><text x="0" y="79" fill="#000000" font-size="5px" font-weight="bold" font-family="'Helvetica Neue', Helvetica, Arial-Unicode, Arial, Sans-serif">Created by Delwar Hossain</text><text x="0" y="84" fill="#000000" font-size="5px" font-weight="bold" font-family="'Helvetica Neue', Helvetica, Arial-Unicode, Arial, Sans-serif">from the Noun Project</text></svg>