<svg xmlns:dc="http://purl.org/dc/elements/1.1/" xmlns:cc="http://creativecommons.org/ns#" xmlns:rdf="http://www.w3.org/1999/02/22-rdf-syntax-ns#" xmlns:svg="http://www.w3.org/2000/svg" xmlns="http://www.w3.org/2000/svg" xmlns:sodipodi="http://sodipodi.sourceforge.net/DTD/sodipodi-0.dtd" xmlns:inkscape="http://www.inkscape.org/namespaces/inkscape" viewBox="0 0 333.33269 333.33269" version="1.1" x="0px" y="0px"><path d="m 38.534833,218.00177 c -4.76758,5.32716 -2.835181,15.28759 4.133395,18.56297 5.6629,2.67104 12.101744,0.32083 15.175677,-3.74542 0,0 93.851945,-122.30821 93.851945,-122.30821 0,0 22.75605,-2.99186 22.75605,-2.99186 0,0 51.49584,39.51347 51.49584,39.51347 0,0 28.73978,42.51279 28.73978,42.51279 0,0 -18.86142,-55.38302 -18.86142,-55.38302 0,0 -46.55665,-45.952309 -46.55665,-45.952309 0,0 -12.87768,-9.878367 -12.87768,-9.878367 0,0 4.93918,-6.438844 4.93918,-6.438844 0,0 -19.30907,-14.81755 -19.30907,-14.81755 0,0 -4.93919,6.431384 -4.93919,6.431384 0,0 -12.87769,-9.878366 -12.87769,-9.878366 0,0 -56.435017,-33.07462 -56.435017,-33.07462 0,0 -58.382338,-3.887181 -58.382338,-3.887181 0,0 48.503972,16.75741 48.503972,16.75741 0,0 51.495833,39.520924 51.495833,39.520924 0,0 2.99933,22.748595 2.99933,22.748595 0,0 -93.851947,122.308204 -93.851947,122.308204 z m 94.120537,13.55664 c 0,0 63.10516,18.03324 63.10516,18.03324 0,0 -14.06399,54.09227 -14.06399,54.09227 0,0 -33.17908,12.98214 -33.17908,12.98214 0,0 -33.89533,-53.36855 -33.89533,-53.36855 0,0 18.03324,-31.7391 18.03324,-31.7391 z m 54.80852,-24.51685 c 0,0 46.16122,-21.6369 46.16122,-21.6369 0,0 16.22768,37.14086 16.22768,37.14086 0,0 -27.04613,27.04613 -27.04613,27.04613 0,0 -35.34277,-42.55009 -35.34277,-42.55009 z m 8.29664,96.64236 c 0,0 54.09226,-64.91072 54.09226,-64.91072 0,0 40.02827,-3.60366 40.02827,-3.60366 0,0 14.06399,32.45535 14.06399,32.45535 0,0 -14.06399,36.05903 -14.06399,36.05903 0,0 -94.12053,0 -94.12053,0 z" style="" fill="#000000" fill-opacity="1" stroke="none"></path></svg>