<svg xmlns:dc="http://purl.org/dc/elements/1.1/" xmlns:cc="http://creativecommons.org/ns#" xmlns:rdf="http://www.w3.org/1999/02/22-rdf-syntax-ns#" xmlns:svg="http://www.w3.org/2000/svg" xmlns="http://www.w3.org/2000/svg" xmlns:sodipodi="http://sodipodi.sourceforge.net/DTD/sodipodi-0.dtd" xmlns:inkscape="http://www.inkscape.org/namespaces/inkscape" version="1.1" x="0px" y="0px" viewBox="0 0 100 125"><g transform="translate(0,-952.36218)"><path d="m 65,959.3622 c -26,15.9476 -40,30.8984 -56,55.8165 3,-12.9574 7,-24.9181 20,-35.882 11,-11.9607 22,-16.9443 36,-19.9345 z m -38,14.9508 2.09375,2.0246 c -0.96414,1.1147 -2.06619,2.0493 -3.125,2.9902 L 24,977.3032 z m 9.53125,9.1885 55.46875,53.6051 -5,4.9837 -53.75,-55.2871 c 1.07472,-1.1196 2.16657,-2.2175 3.28125,-3.3017 z M 43,1009.1984 l 3.6875,5.513 c -1.75194,1.4364 -4.69524,3.3813 -7.25,4.7968 -3.65134,-1.2663 -6.92044,-2.5184 -9.71875,-3.7689 3.44484,-2.102 10.89191,-4.9537 13.28125,-6.5409 z m -17,6.977 c 4,1.9935 9,3.9869 15,5.9804 1,2.9902 3,6.977 6,7.9738 -2,6.977 1,12.9574 1,14.9508 -6.17457,0.4733 -10.76044,0.2795 -15.0625,-0.063 L 28,1040.0968 c -5,-0.9967 -8.38356,-0.6395 -12,-0.9967 7.29167,1.4535 10.85704,3.4483 13.03125,5.5754 -3.40089,-0.3029 -6.84303,-0.5918 -11.03125,-0.5918 l -9,-3.9869 -1,-4.9836 3,-3.9869 0,-3.9869 2,-2.9902 3.53125,-0.7164 c 3.21927,1.8898 9.81651,3.7066 16.46875,3.7066 -4.56195,-0.9096 -10.76865,-3.4937 -13.34375,-5.4509 z m 24.09375,0.031 2.90625,0.9657 3,2.9901 0,3.4262 c -1.2421,-0.8288 -2.58101,-1.6083 -4.25,-2.2738 -1.78027,-0.5177 -3.93723,0.3734 -5.5,0.9968 -1.05028,0.4187 -1.88399,0.7218 -2.75,0.8098 -0.22708,-0.5415 -0.42533,-1.0853 -0.59375,-1.5885 -0.17136,-0.5339 -0.5797,-0.9874 -1.09375,-1.2148 3.55424,-1.0117 6.26053,-2.7624 8.28125,-4.1115 z M 51,1023.1525 c 3.1933,1.2724 5,2.9902 8,4.9836 l 5,0 3,1.9935 0,1.9622 c -3.54474,1.0153 -7.33358,0.8943 -12,-0.9655 3,1.9934 4.57611,2.9195 9.40625,4.5474 l 3.28125,-0.8721 1.3125,1.3083 0,3.9869 c -4,0.9967 -8,2.9902 -12,2.9902 -2.34659,0 -5.30297,0.01 -7.4375,-0.4673 -0.29977,-1.2068 -0.64359,-2.4867 -0.84375,-3.5196 -0.46615,-2.4395 -0.66721,-5.3188 0.21875,-8.41 0.29035,-0.9869 -0.32922,-2.1485 -1.3125,-2.4606 -1.60309,-0.8815 -2.38732,-1.8747 -3.21875,-3.2393 2.27911,-0.4568 4.08548,-1.8377 6.59375,-1.8377 z" style="color:#000000;enable-background:accumulate;" fill="#000000" stroke="none" marker="none" visibility="visible" display="inline" overflow="visible"/></g><text x="0" y="115" fill="#000000" font-size="5px" font-weight="bold" font-family="'Helvetica Neue', Helvetica, Arial-Unicode, Arial, Sans-serif">Created by art shop</text><text x="0" y="120" fill="#000000" font-size="5px" font-weight="bold" font-family="'Helvetica Neue', Helvetica, Arial-Unicode, Arial, Sans-serif">from the Noun Project</text></svg>