<svg xmlns="http://www.w3.org/2000/svg" data-name="Layer 1" viewBox="0 0 64 80" x="0px" y="0px"><title>bitcoin-crypto-currency-mining</title><path d="M32,42a5,5,0,1,0,1.866,9.639l.73-.417.409-.234A4.954,4.954,0,0,0,37,47,5.006,5.006,0,0,0,32,42Z"/><path d="M26.381,54h3.353l.439-.25a7.03,7.03,0,1,1,7.855-3.229l1.613,1.21A8.869,8.869,0,0,0,41,47a9,9,0,0,0-18,0A8.907,8.907,0,0,0,26.381,54Z"/><path d="M33.048,9H60V7H33.6C33.393,7.662,33.213,8.329,33.048,9Z"/><path d="M29.013,16.7,30,20.057V17.616A37.857,37.857,0,0,1,32.516,4H28.767A24.073,24.073,0,0,0,29.013,16.7Z"/><path d="M24,9h2.064c.023-.668.07-1.335.145-2H24Z"/><polygon points="57.431 29.845 54.729 27.144 53 27.721 53 30.219 55.813 30.922 57.431 29.845"/><path d="M39.641,51.731A8.869,8.869,0,0,0,41,47a9,9,0,0,0-18,0,8.907,8.907,0,0,0,3.381,7h3.353l.439-.25a7.03,7.03,0,1,1,7.855-3.229Z"/><path d="M32,42a5,5,0,1,0,1.866,9.639l.73-.417.409-.234A4.954,4.954,0,0,0,37,47,5.006,5.006,0,0,0,32,42Z"/><circle cx="13" cy="21" r="5"/><path d="M13,10A11,11,0,1,0,24,21,11.013,11.013,0,0,0,13,10Zm0,18a7,7,0,1,1,7-7A7.008,7.008,0,0,1,13,28Z"/><path d="M62,54V49H58l-1-5H52V38l-6-3-1-3H40l-9-2-2,3H24l-2,4-5-1-3,3H11L6,36H2V47H15a1,1,0,0,1,.707.293l3.864,3.864,2.849,1.221A10.9,10.9,0,0,1,21,47a11,11,0,0,1,22,0,10.861,10.861,0,0,1-1.751,5.937l.084.063H46a1,1,0,0,1,.707.293l3,3-1.414,1.414L45.586,55H41a1,1,0,0,1-.6-.2l-3.474-2.606L30.5,55.868A.993.993,0,0,1,30,56H26a.985.985,0,0,1-.394-.081l-7-3a1,1,0,0,1-.313-.212L14.586,49H2V60H4v2H51V60h2v2h9V56H60V54ZM8,60H6V58H8Zm7-6H13V52h2Zm42,5H55V57h2Z"/><rect x="34" y="18" width="2" height="5"/><rect x="40" y="27" width="5" height="2"/><rect x="38.172" y="21" width="5.657" height="2" transform="translate(-3.548 35.435) rotate(-45)"/><rect x="2" y="7" width="2" height="2"/><rect x="2" y="2" width="2" height="2"/><rect x="7" y="4" width="2" height="2"/><text x="0" y="79" fill="#000000" font-size="5px" font-weight="bold" font-family="'Helvetica Neue', Helvetica, Arial-Unicode, Arial, Sans-serif">Created by dDara</text><text x="0" y="84" fill="#000000" font-size="5px" font-weight="bold" font-family="'Helvetica Neue', Helvetica, Arial-Unicode, Arial, Sans-serif">from the Noun Project</text></svg>