<svg xmlns="http://www.w3.org/2000/svg" xmlns:xlink="http://www.w3.org/1999/xlink" version="1.1" x="0px" y="0px" viewBox="0 0 512 640" enable-background="new 0 0 512 512" xml:space="preserve"><path d="M368.2,87.2c0.2-6.3,0.3-12.6,0.3-18.7h-225c0,6.1,0.2,12.5,0.3,18.7H68.5V106c0,64.2,40.9,120.9,101.8,141.2l10.5,3.5  c4,6,8.2,11.7,13,16.6c14.9,15.4,24.7,35,24.7,56.4v7.4h-38.7l-37.5,112.5h227.4L332.2,331h-38.7v-7.5c0-21.4,9.7-40.9,24.6-56.3  c4.7-4.9,9-10.5,12.9-16.4l10.8-3.6c60.9-20.3,101.8-77,101.8-141.2V87.2H368.2z M107.6,124.7h38.2c2.2,26.2,6.3,52.2,13.1,75.8  C131.8,183.8,112.9,156.3,107.6,124.7z M353,200.6c6.9-23.6,11-49.6,13.3-75.8h38.2C399,156.4,380.1,183.9,353,200.6z"/><text x="0" y="527" fill="#000000" font-size="5px" font-weight="bold" font-family="'Helvetica Neue', Helvetica, Arial-Unicode, Arial, Sans-serif">Created by Creative Stall</text><text x="0" y="532" fill="#000000" font-size="5px" font-weight="bold" font-family="'Helvetica Neue', Helvetica, Arial-Unicode, Arial, Sans-serif">from the Noun Project</text></svg>