<svg xmlns:dc="http://purl.org/dc/elements/1.1/" xmlns:cc="http://creativecommons.org/ns#" xmlns:rdf="http://www.w3.org/1999/02/22-rdf-syntax-ns#" xmlns:svg="http://www.w3.org/2000/svg" xmlns="http://www.w3.org/2000/svg" xmlns:sodipodi="http://sodipodi.sourceforge.net/DTD/sodipodi-0.dtd" xmlns:inkscape="http://www.inkscape.org/namespaces/inkscape" version="1.1" x="0px" y="0px" viewBox="0 0 100 125"><g transform="translate(0,-952.36218)"><path style="color:#000000;enable-background:accumulate;" d="m 18.34375,958.86219 c -5.34375,0 -9.2654201,6.91218 -9.3437501,11.75 0,7.43621 4.0279601,13.66479 8.7187501,19.28125 4.50507,5.3941 9.63979,10.37966 13.125,15.37496 -0.23904,1.8321 -1.89059,3.1416 -2.9375,4.1875 l 2.84375,2.8438 c 1.51662,-1.4948 2.74663,-2.8175 3.625,-4.5313 1.82852,4.2533 4.15443,8.0504 7.15625,11.0938 -0.45119,-2e-4 -0.93811,0 -1.375,0 -1.04734,0.049 -1.95574,1.0464 -1.90665,2.0938 0.0491,1.0473 1.04683,1.9555 2.09415,1.9062 l 5.65625,0 0,12 -6,0 c -1,0 -2,2 -2,3 l 24,0 c 0,-1 -1,-3 -2,-3 l -6,0 0,-12 5.65625,0 c 1.05663,0.015 2.02848,-0.9433 2.02848,-2 0,-1.0567 -0.97185,-2.015 -2.02848,-2 l -1.1875,0 c 3.00225,-3.0438 5.32807,-6.8397 7.15625,-11.0938 0.82287,1.815 2.44549,3.3542 3.625,4.5313 l 2.84375,-2.8438 c -1.32164,-1.2575 -2.61082,-2.5084 -2.9375,-4.1875 3.48521,-4.9953 8.61993,-9.98086 13.125,-15.37496 C 86.97204,984.27698 91,978.0484 91,970.61219 c 0,-5.75 -4.57362,-11.62253 -9.34375,-11.75 -0.85504,0.0293 -1.35395,0.6741 -1.78125,1.125 -1.91309,3.81769 -2.87551,6.91092 -4,8.65625 -0.85728,1.3306 -1.56402,2.02356 -3.28125,2.28125 0.15129,-2.08643 0.27037,-4.13386 0.40625,-6.0625 l -46,0 c 0.13588,1.92864 0.25485,3.97606 0.40625,6.0625 -1.71723,-0.25769 -2.42397,-0.95065 -3.28125,-2.28125 -1.12449,-1.74533 -2.08691,-4.83856 -4,-8.65625 -0.32359,-0.66505 -1.04168,-1.11858 -1.78125,-1.125 z m -1.09375,4.5 c 1.25762,2.79217 2.17168,5.3273 3.53125,7.4375 1.40358,2.17852 3.721,3.7328 6.96875,4.125 0.65798,8.03078 1.66461,16.67498 3.8125,24.59375 -3.41148,-4.18451 -7.40084,-8.14 -10.78125,-12.1875 C 16.30539,981.97182 13,976.5906 13,970.61219 c 0.55191,-3.06463 1.7281,-5.57 4.25,-7.25 z m 65.5,0 c 2.24901,1.60383 4.17979,4.31259 4.25,7.25 0,5.97841 -3.30539,11.35963 -7.78125,16.71875 -3.37125,4.03653 -7.34465,7.98427 -10.75,12.15625 2.14058,-7.90965 3.12483,-16.54318 3.78125,-24.5625 3.24775,-0.3922 5.56517,-1.94648 6.96875,-4.125 1.35957,-2.1102 2.27363,-4.64533 3.53125,-7.4375 z m -49.125,76.50001 c -2.42424,0 -3.62508,2.0001 -3.625,6 l 40,0 c 8e-5,-3.9999 -1.20077,-6 -3.625,-6 z" fill="#000000" stroke="none" marker="none" visibility="visible" display="inline" overflow="visible"/></g><text x="0" y="115" fill="#000000" font-size="5px" font-weight="bold" font-family="'Helvetica Neue', Helvetica, Arial-Unicode, Arial, Sans-serif">Created by AFY Studio</text><text x="0" y="120" fill="#000000" font-size="5px" font-weight="bold" font-family="'Helvetica Neue', Helvetica, Arial-Unicode, Arial, Sans-serif">from the Noun Project</text></svg>