<svg xmlns="http://www.w3.org/2000/svg" xmlns:xlink="http://www.w3.org/1999/xlink" version="1.1" x="0px" y="0px" viewBox="0 0 1024 1280" style="enable-background:new 0 0 1024 1024;" xml:space="preserve"><g><path d="M816.3,207.7c-168-168-440.5-168-608.5,0s-168,440.5,0,608.5s440.5,168,608.5,0S984.3,375.8,816.3,207.7z    M663.9,337.3c34.2,0,61.9,27.7,61.9,61.9s-27.7,61.9-61.9,61.9S602,433.4,602,399.2S629.7,337.3,663.9,337.3z M360.1,333.4   c34.2,0,61.9,27.7,61.9,61.9s-27.7,61.9-61.9,61.9s-61.9-27.7-61.9-61.9C298.1,361.1,325.9,333.4,360.1,333.4z M720.4,726.1   c-13.8,7.3-33.3,4.1-41.1-10.8c-3.2-6.2-6.6-12.2-10.4-18c-1.9-3-3.9-5.9-5.9-8.7c-0.4-0.5-0.8-1.2-1.2-1.8   c0.2,0.3,0.4,0.5,0.6,0.8c-0.2-0.3-0.5-0.6-0.7-0.9c-0.5-0.6-1-1.3-1.5-1.9c-8.1-10.1-17.1-19.4-26.9-27.9c-2-1.7-4-3.4-6.1-5.1   c-0.3-0.2-0.7-0.5-1-0.8c0.1,0.1,0.3,0.2,0.4,0.3c-0.6-0.4-1.1-0.9-1.7-1.3c0.4,0.4,0.8,0.7,1.2,1c-0.3-0.2-0.6-0.4-0.9-0.6   c-4.6-3.4-9.3-6.6-14.2-9.6c-8.3-5.1-16.9-9.7-25.8-13.6c-15.5-6.2-31.6-10.5-48-13.1c-16.7-1.9-33.5-1.9-50.2,0   c-16.5,2.5-32.5,6.9-48,13.1c-8.9,4-17.5,8.5-25.8,13.6c-4.6,2.9-9.2,6-13.6,9.2c-0.7,0.4-1.4,0.9-2,1.4c1-0.7,1.4-1.1,1.5-1.2   c-0.3,0.2-3.3,2.5-3.5,2.7c0.1,0,0.2-0.1,0.5-0.3c0.4-0.4,0.9-0.8,1.4-1.1c-2.2,1.8-4.4,3.6-6.6,5.5c-9.7,8.4-18.6,17.6-26.7,27.6   c-0.8,1.4-2.1,2.7-3,4c-2,2.9-4,5.7-5.9,8.7c-3.7,5.8-7.2,11.8-10.4,18c-7.3,14-27.9,19.3-41.1,10.8c-14.2-9.2-18.6-26.2-10.8-41.1   c32.8-62.9,94-110.5,163.3-126.1c64-14.3,133.2-3.4,188.5,32.3c36,23.3,66.3,55.7,86.2,93.8C738.2,698.9,735,718.2,720.4,726.1z"/></g><text x="0" y="1039" fill="#000000" font-size="5px" font-weight="bold" font-family="'Helvetica Neue', Helvetica, Arial-Unicode, Arial, Sans-serif">Created by shashank singh</text><text x="0" y="1044" fill="#000000" font-size="5px" font-weight="bold" font-family="'Helvetica Neue', Helvetica, Arial-Unicode, Arial, Sans-serif">from the Noun Project</text></svg>