<svg xmlns="http://www.w3.org/2000/svg" xmlns:xlink="http://www.w3.org/1999/xlink" version="1.1" x="0px" y="0px" viewBox="0 0 72 90" enable-background="new 0 0 72 72" xml:space="preserve"><g><ellipse fill="#000000" cx="17.4" cy="45.1" rx="7.9" ry="8.1"/><path fill="#000000" d="M21.9,55.7l-4,4c-0.3,0.3-0.8,0.3-1.1,0l-4-4c-0.2-0.2-0.5-0.3-0.8-0.2c-6.3,2.1-11,7.8-11.6,14.7   c-0.1,0.7,0.5,1.4,1.2,1.4H33c0.7,0,1.3-0.6,1.2-1.4c-0.5-6.9-5.2-12.6-11.6-14.7C22.4,55.4,22.1,55.5,21.9,55.7z"/><ellipse fill="#000000" cx="54.6" cy="45.1" rx="7.9" ry="8.1"/><path fill="#000000" d="M59.1,55.7l-4,4c-0.3,0.3-0.8,0.3-1.1,0l-4-4c-0.2-0.2-0.5-0.3-0.8-0.2c-6.3,2.1-11,7.8-11.6,14.7   c-0.1,0.7,0.5,1.4,1.2,1.4h31.2c0.7,0,1.3-0.6,1.2-1.4c-0.5-6.9-5.2-12.6-11.6-14.7C59.6,55.4,59.3,55.5,59.1,55.7z"/><g><path fill="#000000" d="M51.7,27.2H32.5c-3.5,0-6.3-2.8-6.3-6.3v-0.1c-0.1-1.7,0-9.1,0-11.8c0-0.5-0.4-0.9-0.9-0.9h-2.1    c-1.3,0-2.3,1-2.3,2.3v18.1c0,1.3,1,2.3,2.3,2.3H25c0.3,0,0.5,0.2,0.5,0.5v6.3c0,0.4,0.5,0.6,0.8,0.3l6.6-6.6    c0.3-0.3,0.8-0.5,1.2-0.5h20.5c0.3,0,0.7-0.1,0.9-0.2l-3.1-3.1C52.2,27.3,51.9,27.2,51.7,27.2z"/><path fill="#000000" d="M30.2,2.8v18.1c0,1.3,1,2.3,2.3,2.3H53c0.5,0,0.9,0.2,1.2,0.5l6.6,6.6c0.3,0.3,0.8,0.1,0.8-0.3v-6.3    c0-0.3,0.2-0.5,0.5-0.5h1.9c1.3,0,2.3-1,2.3-2.3V2.8c0-1.3-1-2.3-2.3-2.3H32.5C31.2,0.4,30.2,1.5,30.2,2.8z M54.3,11.2    c0-2,1.6-3.6,3.6-3.6s3.6,1.6,3.6,3.6s-1.6,3.6-3.6,3.6S54.3,13.2,54.3,11.2z M44.6,11.2c0-2,1.6-3.6,3.6-3.6s3.6,1.6,3.6,3.6    s-1.6,3.6-3.6,3.6S44.6,13.2,44.6,11.2z M35,11.2c0-2,1.6-3.6,3.6-3.6c2,0,3.6,1.6,3.6,3.6s-1.6,3.6-3.6,3.6    C36.6,14.8,35,13.2,35,11.2z"/></g></g><text x="0" y="87" fill="#000000" font-size="5px" font-weight="bold" font-family="'Helvetica Neue', Helvetica, Arial-Unicode, Arial, Sans-serif">Created by Creative Stall</text><text x="0" y="92" fill="#000000" font-size="5px" font-weight="bold" font-family="'Helvetica Neue', Helvetica, Arial-Unicode, Arial, Sans-serif">from the Noun Project</text></svg>