<svg xmlns="http://www.w3.org/2000/svg" xmlns:xlink="http://www.w3.org/1999/xlink" version="1.1" x="0px" y="0px" viewBox="0 0 72 90" enable-background="new 0 0 72 72" xml:space="preserve"><g><g><ellipse fill="#000000" cx="20.9" cy="34.1" rx="10.8" ry="12.2"/><path fill="#000000" d="M26.9,53l-4.9,4.9c-0.7,0.7-1.7,0.7-2.4,0L14.8,53c-0.5-0.5-1.2-0.6-1.9-0.4C6.1,55.6,1.1,62.1,0.5,69.8    c-0.1,0.9,0.6,1.7,1.5,1.7h37.6c0.9,0,1.6-0.8,1.5-1.7c-0.6-7.8-5.6-14.3-12.4-17.2C28.2,52.4,27.4,52.5,26.9,53z"/></g><path fill="#000000" d="M69.1,0.5H37.3C36,0.5,35,1.6,35,2.9v18.4c0,1.3,1.1,2.4,2.4,2.4h1.9c0.3,0,0.5,0.2,0.5,0.5v6.4   c0,0.4,0.5,0.6,0.8,0.3l6.7-6.7c0.3-0.3,0.8-0.5,1.3-0.5h20.8c1.3,0,2.4-1.1,2.4-2.4V2.9C71.5,1.6,70.4,0.5,69.1,0.5z M42.3,15.7   c-2,0-3.6-1.6-3.6-3.6s1.6-3.6,3.6-3.6c2,0,3.6,1.6,3.6,3.6S44.3,15.7,42.3,15.7z M53.2,15.7c-2,0-3.6-1.6-3.6-3.6s1.6-3.6,3.6-3.6   c2,0,3.6,1.6,3.6,3.6S55.2,15.7,53.2,15.7z M64.1,15.7c-2,0-3.6-1.6-3.6-3.6s1.6-3.6,3.6-3.6c2,0,3.6,1.6,3.6,3.6   S66.1,15.7,64.1,15.7z"/></g><text x="0" y="87" fill="#000000" font-size="5px" font-weight="bold" font-family="'Helvetica Neue', Helvetica, Arial-Unicode, Arial, Sans-serif">Created by Creative Stall</text><text x="0" y="92" fill="#000000" font-size="5px" font-weight="bold" font-family="'Helvetica Neue', Helvetica, Arial-Unicode, Arial, Sans-serif">from the Noun Project</text></svg>