<svg xmlns="http://www.w3.org/2000/svg" xmlns:xlink="http://www.w3.org/1999/xlink" version="1.1" x="0px" y="0px" viewBox="0 0 100 125" enable-background="new 0 0 100 100" xml:space="preserve"><g><circle fill="none" cx="19.789" cy="62.162" r="1.051"/><circle fill="none" cx="49.517" cy="61.983" r="1.462"/><circle fill="none" cx="80.182" cy="62.162" r="1.051"/><path d="M69.969,53.258h21.668c-0.016-0.051-0.027-0.102-0.045-0.154c-0.465-1.358-3.496-2.35-4.876-2.964   c-0.675-0.302-1.44-0.484-1.844-0.791c-0.408-0.31-0.47-0.978-0.988-1.45c-0.206-0.187-0.809,0.043-0.856-0.329   c-0.072-0.567,0.531-0.92,0.726-1.45c0.197-0.541,0.071-0.469,0.216-1.127c1.125-0.321,1.629-2.957,0.904-3.023   c0.354-1.923,0.688-4.837-0.659-5.6c-0.282-0.16-0.62-0.071-0.856-0.198c-0.135-0.072-0.262-0.353-0.396-0.461   c-0.638-0.513-2.353-0.81-3.358-0.812c-1.008,0.002-2.063,0.299-2.701,0.812l-1.252,0.659c-1.349,0.762-1.012,3.676-0.659,5.6   c-0.726,0.066-0.202,2.709,0.923,3.03c0.145,0.658-0.001,0.579,0.197,1.12c0.193,0.529,0.798,0.883,0.725,1.45   c-0.048,0.372-0.65,0.142-0.855,0.329c-0.521,0.472-0.58,1.14-0.988,1.45c-0.403,0.307-1.168,0.489-1.844,0.791   c-0.787,0.351-2.11,0.824-3.188,1.417c0.072,0.24,0.112,0.496,0.112,0.76L69.969,53.258z"/><path d="M92.16,70.965c-0.189,0.061-0.389,0.102-0.6,0.102H68.829c-0.21,0-0.408-0.041-0.599-0.102   c-0.054,0.01-0.104,0.027-0.152,0.051l-0.069,0.654c0,0.203-0.026,0.4-0.069,0.592c0.121,0.094,0.272,0.15,0.438,0.15h23.637   c0.404,0,0.731-0.328,0.731-0.732C92.745,71.326,92.493,71.031,92.16,70.965z"/><path d="M93.041,53.623H69.93l-1.8,16.908c0.212,0.104,0.447,0.17,0.699,0.17h22.731c0.879,0,1.594-0.715,1.594-1.592l1.48-13.912   C94.634,54.338,93.92,53.623,93.041,53.623z M80.182,63.213c-0.58,0-1.051-0.471-1.051-1.051s0.471-1.051,1.051-1.051   s1.051,0.471,1.051,1.051S80.762,63.213,80.182,63.213z"/><path d="M29.005,52.336c0-0.338,0.063-0.658,0.176-0.953c-1.008-0.513-2.149-0.928-2.857-1.244   c-0.675-0.302-1.44-0.484-1.844-0.791c-0.408-0.31-0.469-0.978-0.988-1.45c-0.206-0.187-0.809,0.044-0.856-0.329   c-0.073-0.567,0.53-0.92,0.725-1.45c0.198-0.541,0.071-0.468,0.216-1.127c1.125-0.321,1.629-2.957,0.904-3.023   c0.353-1.923,0.688-4.837-0.659-5.6c-0.282-0.16-0.62-0.071-0.856-0.198c-0.135-0.072-0.262-0.353-0.396-0.46   c-0.638-0.514-2.352-0.81-3.359-0.812c-1.008,0.002-2.063,0.298-2.701,0.812l-1.252,0.659c-1.348,0.763-1.011,3.676-0.658,5.6   c-0.726,0.066-0.203,2.709,0.922,3.03c0.145,0.658,0,0.579,0.197,1.12c0.194,0.529,0.798,0.883,0.726,1.45   c-0.049,0.373-0.651,0.142-0.857,0.329c-0.52,0.472-0.58,1.14-0.987,1.45c-0.404,0.307-1.169,0.489-1.845,0.791   c-1.38,0.615-4.411,1.605-4.875,2.965c-0.019,0.053-0.03,0.104-0.044,0.153h21.27L29.005,52.336z"/><path d="M31.001,71.066H8.437c-0.209,0-0.407-0.041-0.598-0.103c-0.334,0.066-0.585,0.361-0.585,0.716   c0,0.403,0.327,0.731,0.73,0.731h23.191c-0.072-0.242-0.112-0.496-0.112-0.763L31.001,71.066z"/><path d="M8.437,70.701h22.525l-1.819-17.078H6.957c-0.878,0-1.593,0.715-1.593,1.594L6.843,69.09   C6.844,69.986,7.559,70.701,8.437,70.701z M19.789,61.111c0.58,0,1.05,0.471,1.05,1.051s-0.47,1.051-1.05,1.051   c-0.581,0-1.051-0.471-1.051-1.051S19.208,61.111,19.789,61.111z"/><path d="M65.396,49.375c-0.646-1.891-4.865-3.27-6.785-4.126c-0.939-0.42-2.006-0.673-2.567-1.1   c-0.567-0.431-0.651-1.361-1.375-2.018c-0.286-0.26-1.125,0.061-1.19-0.458c-0.103-0.789,0.737-1.281,1.008-2.018   c0.275-0.752,0.1-0.652,0.301-1.568c1.564-0.447,2.268-4.117,1.258-4.208c0.491-2.677,0.96-6.732-0.916-7.793   c-0.393-0.222-0.861-0.099-1.191-0.275c-0.188-0.1-0.364-0.492-0.551-0.642c-0.889-0.714-3.273-1.127-4.676-1.13   c-1.403,0.003-2.871,0.416-3.76,1.13l-1.742,0.917c-1.876,1.061-1.407,5.117-0.917,7.793c-1.009,0.092-0.281,3.77,1.284,4.218   c0.201,0.915-0.001,0.806,0.274,1.559c0.271,0.737,1.11,1.229,1.009,2.018c-0.066,0.518-0.905,0.198-1.192,0.458   c-0.723,0.656-0.807,1.586-1.375,2.018c-0.562,0.427-1.626,0.68-2.567,1.1c-1.919,0.857-6.139,2.236-6.785,4.126   c-0.033,0.097-0.057,0.192-0.081,0.287H65.48C65.454,49.567,65.43,49.472,65.396,49.375z"/><path d="M65.984,74.5H33.088c-0.404,0-0.731,0.326-0.731,0.73c0,0.403,0.327,0.729,0.731,0.729h32.896   c0.404,0,0.731-0.326,0.731-0.729C66.716,74.826,66.391,74.5,65.984,74.5z"/><path d="M67.415,50.027H31.658c-1.262,0-2.289,1.028-2.289,2.29l2.059,19.316c0.001,1.281,1.027,2.307,2.29,2.307h31.638   c1.263,0,2.289-1.024,2.289-2.289l2.061-19.354C69.703,51.055,68.677,50.027,67.415,50.027z M49.517,63.445   c-0.808,0-1.462-0.654-1.462-1.463c0-0.808,0.654-1.461,1.462-1.461s1.461,0.653,1.461,1.461   C50.979,62.791,50.324,63.445,49.517,63.445z"/></g><text x="0" y="115" fill="#000000" font-size="5px" font-weight="bold" font-family="'Helvetica Neue', Helvetica, Arial-Unicode, Arial, Sans-serif">Created by TukTuk Design</text><text x="0" y="120" fill="#000000" font-size="5px" font-weight="bold" font-family="'Helvetica Neue', Helvetica, Arial-Unicode, Arial, Sans-serif">from the Noun Project</text></svg>