<svg xmlns="http://www.w3.org/2000/svg" xmlns:xlink="http://www.w3.org/1999/xlink" version="1.1" x="0px" y="0px" viewBox="0 0 100 125" style="enable-background:new 0 0 100 100;" xml:space="preserve"><path d="M49.9,43.7c-2,0.7-3,2.9-2.3,4.9c0.7,2,2.9,3,4.9,2.3c2-0.7,3-2.9,2.3-4.9C54.1,44,51.9,42.9,49.9,43.7z"/><path d="M89,24.1l-34.6-20c-2.2-1.3-5-1.3-7.2,0l-34.6,20c-2.2,1.3-3.6,3.7-3.6,6.2v40c0,2.6,1.4,5,3.6,6.2l34.6,20  c1.1,0.6,2.3,1,3.6,1s2.5-0.3,3.6-1l34.6-20c2.2-1.3,3.6-3.7,3.6-6.2v-40C92.6,27.8,91.2,25.4,89,24.1z M70.6,30.5  c2.2,0,4.1,1.8,4.1,4.1c0,2.2-1.8,4.1-4.1,4.1s-4.1-1.8-4.1-4.1C66.5,32.4,68.3,30.5,70.6,30.5z M30.7,30.5c2.2,0,4.1,1.8,4.1,4.1  c0,2.2-1.8,4.1-4.1,4.1s-4.1-1.8-4.1-4.1C26.6,32.4,28.4,30.5,30.7,30.5z M23.2,43.8c0-2.1,1.6-3.8,3.6-3.8h7.7c2,0,3.6,1.7,3.6,3.8  v3.5H23.2V43.8z M41.6,69.9c-9.3-1.2-15.8-9.7-14.6-18.9l4.4,0.6c-0.9,6.8,4,13.1,10.8,13.9L41.6,69.9z M39.3,28.4  c6.6-6.6,17.3-6.6,23.9,0l-3.2,3.2c-4.9-4.9-12.8-4.9-17.6,0L39.3,28.4z M58.2,77.2H43.3v-3.5c0-2.1,1.6-3.8,3.6-3.8h7.7  c2,0,3.6,1.7,3.6,3.8V77.2z M46.7,64.5c0-2.2,1.8-4.1,4.1-4.1c2.2,0,4.1,1.8,4.1,4.1c0,2.2-1.8,4.1-4.1,4.1  C48.5,68.5,46.7,66.7,46.7,64.5z M57.9,52.3l-1.1-0.5c-0.4,0.5-1,1-1.5,1.4l0.3,0.9c0.1,0.4-0.1,0.9-0.5,1l-2,0.7  c-0.4,0.1-0.9-0.1-1-0.5l-0.3-0.9c-0.7,0.1-1.3,0-2-0.1l-0.4,0.9c-0.2,0.4-0.7,0.6-1,0.4l-1.9-0.9c-0.2-0.1-0.3-0.2-0.4-0.4  c-0.1-0.2-0.1-0.4,0-0.6l0.4-0.9c-0.5-0.4-0.9-0.9-1.2-1.3l-1,0.4c-0.4,0.1-0.9-0.1-1-0.5l-0.7-2c-0.1-0.4,0.1-0.9,0.5-1l1-0.4  c-0.1-0.7,0-1.3,0.1-2L43,45.4c-0.2-0.1-0.3-0.2-0.4-0.4c-0.1-0.2-0.1-0.4,0-0.6l0.9-1.9c0.2-0.4,0.6-0.6,1-0.4l1.2,0.6  c0.4-0.5,0.8-0.9,1.3-1.2l-0.4-1.1c-0.1-0.4,0.1-0.9,0.5-1l2-0.7c0.4-0.1,0.9,0.1,1,0.5l0.4,1.1c0.6-0.1,1.2,0,1.8,0.1l0.6-1.3  c0.2-0.4,0.7-0.6,1-0.4l1.9,0.9c0.2,0.1,0.3,0.2,0.4,0.4c0.1,0.2,0.1,0.4,0,0.6l-0.6,1.3c0.5,0.4,1,0.9,1.4,1.5l1-0.4  c0.4-0.1,0.9,0.1,1,0.5l0.7,2c0.1,0.4-0.1,0.9-0.5,1l-1,0.4c0.1,0.6,0,1.2-0.1,1.8l1.1,0.5c0.2,0.1,0.3,0.2,0.4,0.4  c0.1,0.2,0.1,0.4,0,0.6L59,52C58.8,52.3,58.3,52.5,57.9,52.3z M59.9,69.9l-0.6-4.4c6.8-0.9,11.6-7.1,10.8-13.9l4.4-0.6  C75.8,60.2,69.2,68.7,59.9,69.9z M78,47.4H63.1v-3.5c0-2.1,1.6-3.8,3.6-3.8h7.7c2,0,3.6,1.7,3.6,3.8V47.4z"/><text x="0" y="115" fill="#000000" font-size="5px" font-weight="bold" font-family="'Helvetica Neue', Helvetica, Arial-Unicode, Arial, Sans-serif">Created by Aneeque Ahmed</text><text x="0" y="120" fill="#000000" font-size="5px" font-weight="bold" font-family="'Helvetica Neue', Helvetica, Arial-Unicode, Arial, Sans-serif">from the Noun Project</text></svg>