<svg xmlns="http://www.w3.org/2000/svg" xmlns:xlink="http://www.w3.org/1999/xlink" version="1.1" x="0px" y="0px" viewBox="0 0 100 125" enable-background="new 0 0 100 100" xml:space="preserve"><path d="M57.782,34.995l-0.243-0.05l0.979-4.775l-3.305-0.677l-0.979,4.775l-4.187-0.857l0.979-4.776l-3.306-0.677l-0.979,4.775  l-6.813-1.396l-6.623,32.321l6.813,1.396l-0.978,4.774l3.306,0.678l0.979-4.775l4.187,0.858l-0.979,4.774l3.305,0.677l0.979-4.774  l0.696,0.143c5.84,1.196,11.982-0.47,13.327-7.033c0.825-4.029-0.545-7.47-4.25-9.409c3.083-0.784,5.121-2.677,5.771-5.847  C67.694,39.102,63.939,36.257,57.782,34.995z M57.916,58.514c-0.687,3.35-3.315,3.753-6.124,3.178L39.56,59.185l1.818-8.872  l12.37,2.534C56.78,53.469,58.593,55.208,57.916,58.514z M59.33,44.936c-0.557,2.716-2.645,3.467-5.134,2.956L42.37,45.469  l1.549-7.559l11.283,2.312C57.737,40.741,59.961,41.856,59.33,44.936z M12.862,66.155C6.031,50.453,9.919,32.343,21.94,20.798  l-1.175,5.327l4.883,1.076l3.288-14.914l-15.979-0.991l-0.311,4.99l6.371,0.396C5.089,29.624,0.503,50.276,8.278,68.149  c7.33,16.852,23.958,27.355,41.73,27.355c3.246,0,6.531-0.351,9.804-1.077l-1.084-4.881C39.866,93.725,20.579,83.893,12.862,66.155z   M91.723,31.848C82.563,10.787,59.066-0.162,37.08,6.38l1.426,4.793c19.571-5.825,40.479,3.925,48.633,22.669  c7.275,16.724,2.382,35.983-11.256,47.295l1.203-5.458l-4.883-1.076l-3.288,14.914l15.979,0.991l0.311-4.99l-6.3-0.391  C94.358,72.437,99.928,50.706,91.723,31.848z"/><text x="0" y="115" fill="#000000" font-size="5px" font-weight="bold" font-family="'Helvetica Neue', Helvetica, Arial-Unicode, Arial, Sans-serif">Created by amante de icono</text><text x="0" y="120" fill="#000000" font-size="5px" font-weight="bold" font-family="'Helvetica Neue', Helvetica, Arial-Unicode, Arial, Sans-serif">from the Noun Project</text></svg>