<svg xmlns="http://www.w3.org/2000/svg" xmlns:xlink="http://www.w3.org/1999/xlink" version="1.1" x="0px" y="0px" viewBox="0 0 100 125" enable-background="new 0 0 100 100" xml:space="preserve"><path d="M12.382,47.295v-5.757c0-1.272,1.032-2.303,2.304-2.303h9.893c1.271,0,2.303,1.03,2.303,2.303v1.307  c0.164,0,0.327,0,0.493,0c3.721,0,3.906,2.047,3.906,2.047h-4.398v2.402c0,4.003-3.245,7.25-7.25,7.25  C15.628,54.544,12.382,51.298,12.382,47.295z M26.369,71.792c0-1.739-1.412-3.151-3.153-3.151h-9.522l-2.039-8.494l3.459,6.693  h6.817v-1.872v-0.9h0.9h6.508h0.524h4.144l-1.468-6.113c-0.347-1.447-1.637-2.405-3.064-2.405v-0.028H8.063l0.007,0.028  c-0.246,0-0.493,0.019-0.743,0.076c-1.691,0.406-2.733,2.107-2.329,3.802l3.145,13.101c0.34,1.417,1.608,2.416,3.066,2.416h12.006  C24.957,74.943,26.369,73.534,26.369,71.792z M29.865,64.968h-0.524h-6.508v1.872h0.383c2.732,0,4.954,2.223,4.954,4.952  c0,2.732-2.222,4.955-4.954,4.955h-0.383v0.518h6.508h0.135h0.389h14.186v-2.321v-6.303v-3.672h-9.826L29.865,64.968L29.865,64.968z   M22.833,78.166h-0.9v-0.901v-0.518h-8.984l0.519,2.26v5.106h16.009v-5.947h-0.135H22.833L22.833,78.166z M44.951,68.673v6.239  c1.587-0.165,2.83-1.489,2.83-3.12C47.781,70.162,46.538,68.838,44.951,68.673z M80.344,54.496c4.014,0,7.263-3.25,7.263-7.261  c0-4.01-3.249-7.26-7.263-7.26c-4.011,0-7.261,3.25-7.261,7.26C73.083,51.246,76.333,54.496,80.344,54.496z M76.756,68.617  c-1.743,0-3.156,1.413-3.156,3.156c0,1.742,1.413,3.157,3.156,3.157h12.025c1.46,0,2.729-1.002,3.07-2.423l3.149-13.121  c0.405-1.696-0.64-3.4-2.335-3.808c-0.248-0.059-0.493-0.078-0.734-0.078v-0.024H70.484v0.025c-1.43-0.001-2.72,0.962-3.069,2.411  l-2.568,10.704h-9.538c-1.744,0-3.158,1.413-3.158,3.156c0,1.742,1.414,3.157,3.158,3.157h12.026c1.46,0,2.729-1.002,3.069-2.423  l0.08-0.332v11.938h21.447v-8.513c-0.863,0.711-1.962,1.133-3.149,1.133H76.756c-2.735,0-4.962-2.228-4.962-4.962  c0-2.737,2.227-4.962,4.962-4.962h8.113l3.466-6.7l-2.041,8.506h-9.538V68.617z M50,45.414c-3.463,0-6.639-1.201-9.156-3.195  l-3.627,1.172l1.176-3.637c-1.971-2.508-3.156-5.665-3.156-9.104c0-8.152,6.609-14.764,14.764-14.764  c8.155,0,14.764,6.612,14.764,14.764C64.764,38.804,58.155,45.414,50,45.414z M54.12,32.886c0-1.663-0.889-2.678-3.086-3.454  c-1.571-0.592-2.217-0.979-2.217-1.588c0-0.519,0.388-1.036,1.588-1.036c1.331,0,2.179,0.427,2.66,0.628L53.6,25.35  c-0.609-0.296-1.439-0.554-2.677-0.609v-1.625h-1.811v1.755c-1.978,0.387-3.122,1.663-3.122,3.288c0,1.792,1.349,2.714,3.327,3.38  c1.366,0.463,1.957,0.906,1.957,1.609c0,0.737-0.719,1.145-1.773,1.145c-1.201,0-2.291-0.389-3.065-0.813l-0.554,2.16  c0.699,0.408,1.901,0.738,3.138,0.795v1.755h1.811v-1.885C52.954,35.934,54.12,34.528,54.12,32.886z"/><text x="0" y="115" fill="#000000" font-size="5px" font-weight="bold" font-family="'Helvetica Neue', Helvetica, Arial-Unicode, Arial, Sans-serif">Created by Samy Menai</text><text x="0" y="120" fill="#000000" font-size="5px" font-weight="bold" font-family="'Helvetica Neue', Helvetica, Arial-Unicode, Arial, Sans-serif">from the Noun Project</text></svg>