<svg xmlns:dc="http://purl.org/dc/elements/1.1/" xmlns:cc="http://creativecommons.org/ns#" xmlns:rdf="http://www.w3.org/1999/02/22-rdf-syntax-ns#" xmlns:svg="http://www.w3.org/2000/svg" xmlns="http://www.w3.org/2000/svg" version="1.1" viewBox="0 0 100 125" xml:space="preserve" x="0px" y="0px"><path d="M 50,5 C 26.211861,5 6.9375,24.274357 6.9375,48.0625 c 0,23.788143 19.274361,43.09375 43.0625,43.09375 8.057313,0 15.583483,-2.241562 22.03125,-6.09375 l 5,9.9375 15.6875,-30.15625 -33.5625,-5.3125 5.0625,10.03125 C 60.145517,72.263708 55.253998,73.84375 50,73.84375 c -14.23222,0 -25.78125,-11.549032 -25.78125,-25.78125 0,-14.232218 11.54903,-25.75 25.78125,-25.75 14.23222,0 25.78125,11.517782 25.78125,25.75 0,0.145334 0.0024,0.292738 0,0.4375 l 17.1875,2.75 C 93.04453,50.205713 93.0625,49.126122 93.0625,48.0625 93.0625,24.274357 73.788138,5 50,5 z" style="" fill="#000000" fill-opacity="1" fill-rule="evenodd" stroke="none"/><text x="0" y="115" fill="#000000" font-size="5px" font-weight="bold" font-family="'Helvetica Neue', Helvetica, Arial-Unicode, Arial, Sans-serif">Created by ImageCatalog</text><text x="0" y="120" fill="#000000" font-size="5px" font-weight="bold" font-family="'Helvetica Neue', Helvetica, Arial-Unicode, Arial, Sans-serif">from the Noun Project</text></svg>